<?xml version="1.0" encoding="UTF-8"?>
<!-- Generator: Adobe Illustrator 25.2.1, SVG Export Plug-In . SVG Version: 6.00 Build 0)  -->
<svg xmlns="http://www.w3.org/2000/svg" xmlns:xlink="http://www.w3.org/1999/xlink" version="1.1" id="Capa_1" x="0px" y="0px" viewBox="0 0 512 512" style="enable-background:new 0 0 512 512;" xml:space="preserve" width="512" height="512">
<g>
	<g>
		<g>
			<path style="fill:#FFFFFF;" d="M445.877,84.706v150.725c0,6.884-3.832,13.183-9.95,16.332L320.25,311.462     c-2.606,1.352-5.505,2.048-8.431,2.048H197.41c-2.927,0-5.825-0.697-8.431-2.048l-99.567-51.394l-16.109-8.306     c-6.118-3.149-9.95-9.448-9.95-16.332V84.706c0-4.85,1.784-9.546,5.101-13.071c81.187-86.357,260.813-91.82,354.487-16.472     c6.355,5.114,12.333,10.605,17.837,16.472C444.092,75.161,445.877,79.857,445.877,84.706z"/>
			<g>
				<path style="fill:#915EFD;" d="M254.602,15.026c72.475,0,138.658,24.375,177.037,65.203c1.078,1.147,1.696,2.777,1.696,4.473      v150.736c0,2.192-1.21,4.178-3.159,5.183l-115.685,59.699c-0.823,0.425-1.748,0.65-2.675,0.65H197.412      c-0.927,0-1.852-0.225-2.675-0.65L79.051,240.62c-1.948-1.005-3.158-2.991-3.158-5.183V84.701c0-1.696,0.618-3.326,1.696-4.472      C115.969,39.401,182.141,15.026,254.602,15.026 M254.602,2.483c-71.404,0-142.805,23.044-186.151,69.156      c-3.314,3.526-5.099,8.223-5.099,13.062v150.736c0,6.875,3.839,13.176,9.949,16.329l115.685,59.699      c2.605,1.345,5.494,2.046,8.427,2.046h114.405c2.932,0,5.821-0.702,8.426-2.046l115.685-59.699      c6.11-3.153,9.949-9.453,9.949-16.329V84.701c0-4.839-1.785-9.536-5.099-13.062C397.447,25.543,326.023,2.483,254.602,2.483      L254.602,2.483z"/>
				<path style="fill:#915EFD;" d="M337.529,94.261v108.696h-165.83V94.261H337.529 M342.053,81.719H167.175      c-4.428,0-8.018,3.59-8.018,8.019V207.48c0,4.429,3.59,8.018,8.018,8.018h174.878c4.428,0,8.018-3.59,8.018-8.018V89.738      C350.071,85.309,346.481,81.719,342.053,81.719L342.053,81.719z"/>
			</g>
			<path style="fill:#4217A6;" d="M157.067,250.105h195.095c4.618,0,8.361-3.743,8.361-8.361l0,0c0-4.618-3.743-8.361-8.361-8.361     H157.067c-4.618,0-8.361,3.743-8.361,8.361l0,0C148.706,246.361,152.449,250.105,157.067,250.105z"/>
			<path style="opacity:0.5;fill:#FFFFFF;" d="M254.682,239.055c15.292-1.031,30.583-1.277,45.875-1.331     c15.292,0.024,30.584,0.244,45.875,1.256c0.699,0.046,1.228,0.65,1.182,1.349c-0.043,0.642-0.557,1.141-1.182,1.182     c-15.291,1.011-30.583,1.232-45.875,1.256c-15.292-0.054-30.583-0.301-45.875-1.331c-0.657-0.044-1.154-0.613-1.11-1.27     C253.612,239.562,254.095,239.094,254.682,239.055z"/>
			<g style="opacity:0.18;">
				<path style="fill:#000E3F;" d="M445.877,84.706v150.725c0,6.884-3.832,13.183-9.95,16.332L320.25,311.462      c-2.606,1.352-5.505,2.048-8.431,2.048H197.41c-2.927,0-5.825-0.697-8.431-2.048l-99.567-51.394      c1.755-1.059,3.543-2.041,5.407-2.885c35.656-16.137,74.94,5.96,114.976,18.237c39.228,12.012,97.817,7.864,134.982-11.98      c19.593-10.465,40.97-28.818,49.749-49.847c10.2-24.415,9.281-54.083,9.727-80.114c0.488-27.508,5.602-54.055,18.688-78.317      c6.355,5.114,12.333,10.605,17.837,16.472C444.092,75.161,445.877,79.857,445.877,84.706z"/>
				<path style="fill:#000E3F;" d="M96.399,85.156c10.87-11.333,29.548-23.284,43.588-29.807c0.141-0.063,11.437-5.131,10.718-4.809      c4.919-1.426,31.699-15.305,85.501-18.159c9.718-0.102,17.167-0.435,34.887,1.021c1.54,0.126,2.686,1.478,2.56,3.018      c-0.204,2.464-2.867,2.637-2.728,2.573c-3.811,0.316-7.611,0.555-11.402,0.782c-72.336,3.478-119.504,26.479-115.354,24.805      c-23.953,9.415-44.458,24.62-44.304,24.505C97.284,91.003,94.183,87.462,96.399,85.156z"/>
			</g>
			<g>
				<path style="fill:#FF8DDF;" d="M201.192,150.01c6.018-6.69,18.619-6.999,26.076-2.691c7.383,4.264,6.935,13.744-4.317,17.009      C207.539,168.8,193.385,158.689,201.192,150.01z"/>
				<path style="fill:#FF8DDF;" d="M308.036,150.01c-6.019-6.69-18.619-6.999-26.076-2.691c-7.382,4.264-6.934,13.744,4.317,17.009      C301.689,168.8,315.843,158.689,308.036,150.01z"/>
			</g>
		</g>
		<g>
			<g>
				<path style="fill:#000E3F;" d="M442.504,70.006c-5.45-5.793-11.533-11.427-18.089-16.694      C327.966-24.284,147.443-15.859,66.739,70.006c-3.713,3.95-5.766,9.163-5.766,14.693v150.743      c0,7.794,4.317,14.851,11.243,18.432l102.295,52.793l6.292,3.239l2.738,1.422l4.266,2.185l0.078,0.053      c1.975,1.027,4.108,1.712,6.294,2.054c1.08,0.184,2.159,0.263,3.238,0.263h114.407c0.948,0,1.895-0.053,2.843-0.211      c2.238-0.29,4.451-0.974,6.477-2.027c0.054-0.026,0.132-0.053,0.185-0.079l4.081-2.107l2.924-1.501l6.292-3.265L437,253.873      c6.952-3.581,11.245-10.638,11.245-18.432V84.699C448.245,79.169,446.216,73.956,442.504,70.006z M443.505,235.442      c0,6.003-3.317,11.454-8.663,14.219l-97.582,50.344l-6.397,3.318l-7.241,3.739l-4.213,2.159l-0.238,0.132      c-0.763,0.395-1.553,0.737-2.37,1.001c-1.606,0.527-3.291,0.79-4.976,0.79H197.418c-1.842,0-3.713-0.316-5.424-0.948      c-0.658-0.237-1.316-0.527-1.922-0.843l-0.526-0.263l-4.213-2.185l-7.057-3.634l-6.398-3.291L74.375,249.66      c-5.346-2.765-8.663-8.215-8.663-14.219V84.699c0-4.318,1.58-8.373,4.477-11.454C112.818,27.93,183.805,4.601,255.082,4.601      c61.193,0,122.596,17.194,166.384,52.398c6.373,5.134,12.297,10.611,17.589,16.272c2.87,3.054,4.45,7.109,4.45,11.428V235.442z"/>
			</g>
			<path style="fill:#000E3F;" d="M273.385,139.676c0.084,3.094-0.738,5.797-2.201,8.069l-20.469,1.79     c0,0-11.959-0.912-12.544-1.943c-2.606-4.543-4.069-11.288,1.421-13.656c3.554-1.519,16.932-3.247,28.512-0.488     C271.657,134.298,273.302,136.667,273.385,139.676z"/>
			<g>
				<path style="fill:#000E3F;" d="M216.565,123.742c4.28-0.986,9.286,1.139,11.207,5.975c3.381,8.51-6.977,15.101-14.176,9.802      C207.805,135.255,209.246,125.427,216.565,123.742z"/>
			</g>
			<g>
				<path style="fill:#000E3F;" d="M292.635,123.742c-4.28-0.986-9.286,1.139-11.207,5.975c-3.381,8.51,6.977,15.101,14.175,9.802      C301.395,135.255,299.954,125.427,292.635,123.742z"/>
			</g>
			<g>
				<path style="fill:#000E3F;" d="M352.164,228.649H157.08c-7.241,0-13.113,5.872-13.113,13.086c0,5.108,2.922,9.558,7.214,11.717      c1.764,0.895,3.791,1.395,5.899,1.395h195.084c2.08,0,4.029-0.474,5.766-1.343c4.344-2.133,7.319-6.609,7.319-11.77      C365.249,234.52,359.379,228.649,352.164,228.649z M358.062,247.659c-0.291,0.29-0.58,0.527-0.896,0.763      c-0.789,0.606-1.711,1.08-2.711,1.369c-0.738,0.211-1.502,0.316-2.291,0.316H157.08c-0.843,0-1.659-0.132-2.422-0.342      c-0.896-0.29-1.713-0.685-2.449-1.237c-2.133-1.501-3.502-3.976-3.502-6.793c0-2.317,0.922-4.397,2.449-5.898      c1.527-1.527,3.608-2.449,5.924-2.449h195.084c4.608,0,8.347,3.739,8.347,8.347C360.51,244.052,359.589,246.158,358.062,247.659      z"/>
			</g>
			<path style="fill:#000E3F;" d="M357.772,248.634c-0.211-0.105-0.395-0.184-0.605-0.211c-0.789,0.606-1.711,1.08-2.711,1.369     l-0.369,0.711c-0.027,0.079-0.053,0.132-0.078,0.211h-0.08v0.158c-0.658,1.317-1.29,2.659-1.895,3.976     c-4.213,8.715-8.137,17.326-11.823,25.778c-3.397-11.928-5.081-20.907-5.845-25.778c-0.396-2.475-0.553-3.897-0.58-4.134h-5.399     c-0.026,0.237-0.157,1.659-0.578,4.134c-0.975,6.346-3.555,19.696-9.505,37.574c-5.924-17.879-8.479-31.202-9.505-37.574     c-0.369-2.422-0.527-3.844-0.554-4.108h-5.397c-0.027,0.264-0.184,1.685-0.553,4.108c-1,6.346-3.555,19.617-9.453,37.39     c-5.95-17.8-8.531-31.044-9.584-37.39c-0.342-2.29-0.5-3.686-0.553-4.081h-5.424c-0.053,0.395-0.211,1.79-0.553,4.081     c-1.002,6.372-3.555,19.617-9.454,37.39c-5.924-17.826-8.53-31.044-9.531-37.39c-0.369-2.238-0.527-3.634-0.58-4.055h-5.424     c-0.053,0.421-0.21,1.79-0.578,4.055c-1.002,6.346-3.529,19.617-9.427,37.39c-5.951-17.8-8.532-31.017-9.558-37.39     c-0.369-2.212-0.527-3.607-0.58-4.055h-5.424c-0.053,0.448-0.211,1.817-0.553,4.055c-1,6.399-3.581,19.722-9.505,37.601     c-5.951-17.879-8.505-31.228-9.506-37.601c-0.342-2.238-0.499-3.607-0.553-4.028h-5.423c-0.053,0.421-0.211,1.791-0.553,4.028     c-1.002,6.372-3.555,19.696-9.507,37.601c-5.95-17.879-8.504-31.228-9.505-37.601c-0.369-2.185-0.5-3.554-0.553-4.002h-5.424     c-0.053,0.474-0.211,1.843-0.553,4.002c-0.764,4.845-2.422,13.666-5.766,25.409c-3.608-8.32-7.479-16.825-11.638-25.409     c-0.791-1.685-1.607-3.344-2.424-5.029c0-0.026-0.051-0.053-0.051-0.053c-0.896-0.29-1.713-0.685-2.449-1.237     c-0.238,0.026-0.447,0.105-0.658,0.211c-1.185,0.579-1.659,2.001-1.106,3.16c0.264,0.527,0.5,1.027,0.737,1.553     c5.766,11.796,11.085,23.461,15.825,34.678c1.684,3.976,3.317,7.926,4.871,11.849c0.921,2.238,1.79,4.476,2.633,6.688     c1.948,5.029,3.79,9.953,5.503,14.798c3.739,10.427,7.083,20.88,9.979,31.07c1.079,3.739,2.053,7.399,2.975,10.927     c1.553,6.082,3.002,12.27,4.266,18.353c1.975,9.532,3.502,18.853,4.555,27.726c0.105,0.764,0.184,1.475,0.264,2.212     c0.948,8.557,1.448,16.667,1.473,24.172c0,0.948,0.58,1.817,1.475,2.185c0.896,0.342,1.922,0.132,2.58-0.553     c2.871-2.949,5.741-5.977,8.532-9.031c3.608,3.923,7.319,7.846,11.085,11.664c0.895,0.895,2.475,0.895,3.37,0     c3.766-3.818,7.504-7.741,11.086-11.664c3.633,3.95,7.372,7.873,11.111,11.664c0.869,0.895,2.475,0.895,3.371,0     c3.739-3.818,7.451-7.715,11.085-11.664c3.606,3.95,7.346,7.846,11.085,11.664c0.447,0.447,1.053,0.685,1.684,0.685     c0.632,0,1.238-0.237,1.685-0.685c3.739-3.792,7.452-7.715,11.085-11.664c3.002,3.265,5.924,6.345,8.874,9.374     c0.658,0.685,1.686,0.895,2.58,0.553c0.895-0.369,1.475-1.237,1.475-2.212c0.026-7.715,0.526-16.114,1.527-24.935     c0.026-0.474,0.078-0.922,0.158-1.448c1.026-8.82,2.553-18.142,4.528-27.726c1.238-6.109,2.764-12.665,4.529-19.511     c0.816-3.16,1.711-6.399,2.659-9.742c2.791-9.927,6.135-20.38,9.927-31.07c1.764-4.977,3.633-10.032,5.608-15.114     c0.843-2.212,1.738-4.45,2.633-6.688c1.528-3.818,3.108-7.662,4.74-11.507c4.817-11.401,10.163-23.197,15.93-34.993     c0.132-0.29,0.264-0.553,0.395-0.843l0.422-0.869C359.325,250.661,358.904,249.239,357.772,248.634z M305.532,263.484     c1.738,8.426,4.819,20.88,10.269,36.205c-1.369,3.792-2.844,7.636-4.397,11.454c-0.631,1.58-1.29,3.16-1.975,4.74     c-1.211,2.923-2.502,5.819-3.818,8.715c-1.342-2.975-2.633-5.872-3.817-8.715c-0.685-1.606-1.344-3.186-1.975-4.74     c-1.633-4.029-3.133-7.926-4.477-11.638C300.739,284.259,303.821,271.884,305.532,263.484z M292.762,306.535     c0.58,1.527,1.158,3.054,1.791,4.608c0.606,1.553,1.264,3.133,1.922,4.74c0.211,0.553,0.447,1.106,0.684,1.659     c1.738,4.055,3.635,8.373,5.766,12.849c-3.106,6.504-6.477,13.034-10.085,19.511c-3.765-6.767-7.136-13.35-10.136-19.669     c2.211-4.74,4.344-9.532,6.319-14.35c0.658-1.58,1.317-3.16,1.922-4.74C291.577,309.616,292.182,308.062,292.762,306.535z      M226.013,375.6c-3.08,4.661-6.398,9.426-9.927,14.219c-3.45-4.713-6.792-9.479-9.927-14.219     c3.582-5.477,6.899-10.848,9.954-16.062C219.273,364.936,222.565,370.308,226.013,375.6z M218.825,354.825     c3.766-6.609,7.11-12.981,10.085-19.011c3.16,6.399,6.477,12.771,10.007,19.011c-3.082,5.319-6.399,10.796-10.032,16.43     C225.382,365.832,222.011,360.328,218.825,354.825z M228.857,379.866c3.239,4.792,6.53,9.479,9.848,14.008     c-3.16,4.213-6.451,8.426-9.796,12.56c-3.344-4.108-6.635-8.294-9.874-12.612C222.511,389.108,225.776,384.447,228.857,379.866z      M231.701,375.6c3.581-5.477,6.899-10.848,9.954-16.062c3.212,5.451,6.529,10.848,9.952,16.088     c-3.239,4.871-6.583,9.611-9.952,14.245C238.284,385.237,234.939,380.471,231.701,375.6z M244.366,354.825     c3.766-6.609,7.109-12.955,10.085-18.984c2.948,6.03,6.319,12.375,10.058,18.984c-3.212,5.556-6.608,11.059-10.058,16.457     C250.974,365.884,247.579,360.407,244.366,354.825z M254.451,379.892c3.212,4.792,6.503,9.479,9.821,13.982     c-3.186,4.239-6.477,8.426-9.821,12.56c-3.344-4.108-6.635-8.294-9.848-12.56C247.947,389.345,251.238,384.658,254.451,379.892z      M257.268,375.653c3.449-5.266,6.741-10.664,9.954-16.114c3.054,5.214,6.372,10.585,9.952,16.062     c-3.239,4.871-6.583,9.637-9.952,14.271C263.85,385.264,260.534,380.524,257.268,375.653z M270.011,354.72     c3.555-6.267,6.899-12.586,9.979-18.879c2.975,6.03,6.32,12.375,10.059,18.984c-3.186,5.556-6.557,11.006-10.007,16.351     C276.437,365.594,273.119,360.118,270.011,354.72z M280.018,379.866c3.08,4.582,6.345,9.242,9.821,13.955     c-3.213,4.292-6.504,8.505-9.848,12.612c-3.344-4.134-6.635-8.32-9.821-12.56C273.488,389.345,276.779,384.658,280.018,379.866z      M282.887,375.548c3.397-5.214,6.688-10.585,9.874-16.009c3.08,5.214,6.399,10.585,9.979,16.062     c-3.238,4.871-6.583,9.611-9.927,14.219C289.312,385,285.995,380.234,282.887,375.548z M279.991,263.537     c1.712,8.452,4.819,20.88,10.243,36.178c-1.369,3.792-2.844,7.609-4.371,11.427c-0.658,1.58-1.316,3.16-1.975,4.74     c-1.237,2.923-2.501,5.819-3.817,8.715c-1.369-2.975-2.633-5.872-3.844-8.715c-0.685-1.606-1.343-3.186-1.975-4.74     c-1.633-4.029-3.108-7.926-4.451-11.638C275.199,284.311,278.28,271.962,279.991,263.537z M267.221,306.561     c0.579,1.501,1.158,3.028,1.79,4.582c0.606,1.553,1.238,3.133,1.922,4.74c0.211,0.553,0.447,1.106,0.685,1.659     c1.711,4.055,3.633,8.373,5.739,12.849c-3.08,6.478-6.45,13.008-10.058,19.511c-3.766-6.767-7.136-13.35-10.163-19.669     c2.106-4.423,3.975-8.689,5.687-12.692c0.238-0.553,0.474-1.106,0.685-1.659c0.658-1.606,1.316-3.186,1.922-4.74     C266.062,309.589,266.642,308.062,267.221,306.561z M254.451,263.537c1.711,8.452,4.817,20.88,10.243,36.178     c-1.316,3.66-2.766,7.478-4.371,11.427c-0.606,1.553-1.264,3.133-1.949,4.74v0.026c-1.184,2.791-2.475,5.714-3.844,8.715     c-1.369-2.975-2.633-5.898-3.844-8.741c-0.684-1.606-1.342-3.186-1.975-4.74c-1.633-4.029-3.106-7.926-4.45-11.638     C249.658,284.311,252.74,271.962,254.451,263.537z M241.68,306.561c0.578,1.501,1.158,3.028,1.79,4.582     c0.607,1.553,1.238,3.133,1.924,4.74c0.211,0.553,0.447,1.106,0.684,1.659c1.711,4.055,3.633,8.373,5.741,12.849     c-2.976,6.188-6.319,12.744-10.138,19.59c-3.581-6.451-7.004-13.008-10.163-19.564c2.106-4.503,4.028-8.821,5.739-12.876     c0.238-0.553,0.474-1.106,0.685-1.659c0.684-1.606,1.316-3.186,1.922-4.74C240.495,309.589,241.1,308.062,241.68,306.561z      M228.884,263.537c1.737,8.452,4.817,20.88,10.269,36.178c-1.316,3.66-2.764,7.478-4.397,11.427     c-0.606,1.553-1.264,3.133-1.949,4.74v0.026c-1.186,2.844-2.502,5.819-3.897,8.873c-1.342-2.975-2.659-5.924-3.897-8.9     c-0.684-1.58-1.342-3.16-2-4.74c-1.527-3.818-3.002-7.636-4.371-11.427C224.065,284.417,227.173,271.989,228.884,263.537z      M216.113,306.535c0.579,1.527,1.186,3.054,1.817,4.608c0.606,1.58,1.238,3.16,1.922,4.74c2,4.845,4.16,9.69,6.424,14.535     c-2.975,6.161-6.345,12.718-10.138,19.537c-3.581-6.398-7.003-12.954-10.163-19.537c2.107-4.503,4.028-8.821,5.741-12.876     c0.237-0.553,0.473-1.106,0.684-1.659c0.685-1.606,1.316-3.186,1.922-4.74C214.955,309.589,215.533,308.036,216.113,306.535z      M203.342,263.51c1.711,8.452,4.819,20.88,10.243,36.205c-1.291,3.66-2.766,7.478-4.371,11.427     c-0.606,1.553-1.264,3.133-1.949,4.74v0.026c-1.211,2.844-2.528,5.819-3.923,8.873c-1.343-2.949-2.66-5.924-3.897-8.9     c-0.684-1.58-1.342-3.16-1.975-4.74c-1.553-3.818-3.028-7.636-4.397-11.427C198.524,284.391,201.631,271.962,203.342,263.51z      M182.383,314.118c-0.5-1.396-1.027-2.791-1.58-4.213c-0.817-2.185-1.659-4.397-2.528-6.635     c-2.053-5.319-4.266-10.717-6.557-16.193c2.924-9.611,4.846-17.589,6.084-23.592c1.711,8.452,4.817,20.88,10.242,36.205     c-0.869,2.37-1.764,4.792-2.712,7.215c-0.58,1.475-1.185,2.949-1.791,4.424C183.147,312.249,182.778,313.197,182.383,314.118z      M192.916,345.636c-2.449-8.215-5.161-16.562-8.136-24.883c1.053-2.422,2.053-4.845,3.028-7.241     c0.579-1.474,1.186-2.949,1.738-4.423c0.342-0.869,0.684-1.738,1-2.607c0.473,1.237,0.947,2.475,1.448,3.713     c0.711,1.79,1.422,3.607,2.186,5.424c2.027,4.924,4.213,9.874,6.53,14.798C198.393,335.262,195.76,340.37,192.916,345.636z      M197.445,361.935c-0.817-3.186-1.713-6.477-2.66-9.822c3.16-5.635,6.003-11.111,8.585-16.299     c3.159,6.425,6.477,12.797,10.005,18.985c-3.081,5.345-6.424,10.848-10.059,16.457     C201.315,368.175,199.366,365.068,197.445,361.935z M202.053,381.735c0.421-0.632,0.842-1.264,1.262-1.869     c3.134,4.66,6.399,9.321,9.823,13.955c-2.344,3.16-4.819,6.319-7.373,9.505C204.791,396.349,203.553,389.108,202.053,381.735z      M212.48,425.418c-1.422,1.58-2.871,3.107-4.346,4.634c-0.106-3.66-0.368-7.478-0.684-11.375     c1.817,2.107,3.633,4.239,5.477,6.293L212.48,425.418z M206.687,410.514c-0.026-0.21-0.053-0.421-0.08-0.632     c3.318-4.055,6.478-8.11,9.479-12.112c3.213,4.239,6.451,8.4,9.743,12.402c-3.16,3.818-6.425,7.583-9.716,11.243     C212.927,417.861,209.767,414.227,206.687,410.514z M228.884,435.108c-3.238-3.344-6.452-6.741-9.585-10.137     c3.266-3.634,6.452-7.346,9.61-11.085c3.08,3.686,6.266,7.399,9.558,11.085C235.361,428.367,232.148,431.763,228.884,435.108z      M231.964,410.172c3.317-4.055,6.556-8.215,9.69-12.349c3.186,4.187,6.423,8.32,9.715,12.349     c-3.159,3.792-6.423,7.557-9.715,11.243C238.336,417.677,235.072,413.911,231.964,410.172z M254.451,435.108     c-3.239-3.318-6.451-6.714-9.585-10.137c3.238-3.634,6.451-7.346,9.585-11.085c3.106,3.712,6.293,7.425,9.558,11.085     C260.875,428.393,257.69,431.79,254.451,435.108z M257.504,410.172c3.318-4.055,6.557-8.189,9.717-12.375     c3.159,4.187,6.398,8.32,9.689,12.375c-3.133,3.792-6.398,7.531-9.689,11.243C263.903,417.703,260.665,413.938,257.504,410.172z      M279.991,435.108c-3.239-3.318-6.45-6.714-9.583-10.137c3.264-3.66,6.477-7.373,9.583-11.085     c3.134,3.739,6.346,7.452,9.585,11.085C286.417,428.393,283.23,431.79,279.991,435.108z M301.055,430.421     c-1.684-1.764-3.37-3.581-5.081-5.45c1.922-2.159,3.87-4.371,5.819-6.662C301.451,422.469,301.188,426.524,301.055,430.421z      M292.762,421.416c-3.291-3.686-6.53-7.452-9.716-11.243c3.317-4.029,6.557-8.189,9.743-12.402     c3.08,4.108,6.319,8.215,9.716,12.375C299.213,414.096,296,417.808,292.762,421.416z M303.399,403.669     c-2.633-3.291-5.188-6.583-7.636-9.848c3.317-4.503,6.583-9.189,9.794-13.955c0.501,0.737,1.027,1.475,1.527,2.212     C305.585,389.477,304.347,396.717,303.399,403.669z M308.455,375.574c0,0,0-0.026-0.026-0.026c0.026,0,0.026-0.026,0.026-0.026     C308.455,375.548,308.455,375.548,308.455,375.574z M311.957,361.039c-2.053,3.423-4.186,6.82-6.346,10.163     c-3.606-5.582-6.951-11.085-10.032-16.457c3.529-6.267,6.873-12.586,9.954-18.905c2.633,5.319,5.555,10.875,8.768,16.615     C313.457,355.378,312.668,358.248,311.957,361.039z M316.196,345.846c-2.87-5.345-5.556-10.585-7.952-15.614     c2.265-4.845,4.424-9.716,6.424-14.561c0.738-1.764,1.449-3.555,2.133-5.319c0.527-1.29,1.027-2.607,1.527-3.897     c0.343,0.922,0.711,1.843,1.08,2.765c0.553,1.475,1.133,2.949,1.737,4.424c1.002,2.475,2.029,4.977,3.108,7.452     C321.278,329.548,318.592,337.842,316.196,345.846z M330.863,303.323c-0.869,2.211-1.713,4.423-2.527,6.635     c-0.58,1.527-1.133,3.028-1.686,4.529c-0.422-1.001-0.842-2.027-1.238-3.028c-0.631-1.475-1.211-2.923-1.79-4.397     c-0.974-2.449-1.896-4.924-2.791-7.373c5.45-15.351,8.557-27.779,10.269-36.231c1.237,6.056,3.186,14.192,6.188,23.987     C335.049,292.737,332.916,298.056,330.863,303.323z"/>
		</g>
		<path style="fill:#FC09B2;" d="M271.184,147.745c-6.09,9.574-23.3,11.427-31.132,2.522c-0.641-0.725-1.295-1.644-1.88-2.676    c3.511-4.418,9.573-7.33,16.443-7.33C261.568,140.262,267.685,143.244,271.184,147.745z"/>
	</g>
	<g>
		<g>
			<g>
				<path style="fill:#FD8A02;" d="M215.632,261.521c0,48.744-39.518,88.271-88.27,88.271c-31.86,0-59.782-16.884-75.297-42.185      c-8.226-13.416-12.974-29.201-12.974-46.086c0-48.753,39.518-88.271,88.271-88.271c11.668,0,22.804,2.262,32.994,6.379      C192.764,192.685,215.632,224.436,215.632,261.521z"/>
				<path style="opacity:0.5;fill:#ED5110;" d="M215.632,261.521c0,48.744-39.518,88.271-88.27,88.271      c-31.86,0-59.782-16.884-75.297-42.185c3.811-5.109,10.344-8.325,16.84-10.037c15.002-3.929,30.652-0.784,45.789,0.378      c18.092,1.397,37.157-1.829,50.392-15.2c15.443-15.605,19.543-40.193,8.74-59.52c-7.109-12.704-14.723-23.93-13.885-39.202      c0.081-1.415,0.243-2.892,0.415-4.397C192.764,192.685,215.632,224.436,215.632,261.521z"/>
			</g>
			<path style="fill:#000E3F;" d="M204.02,309.797c0.143-0.167,0.261-0.346,0.353-0.551c8.628-13.871,13.63-30.222,13.63-47.725     c0-31.138-15.654-59.293-40.969-75.802c-0.018-0.01-0.032-0.024-0.051-0.033c-4.909-3.197-10.144-6.002-15.739-8.256     c-10.761-4.346-22.163-6.552-33.883-6.552c-9.78,0-19.195,1.577-28.026,4.456c-0.797-0.154-1.627,0.11-2.197,0.745     c-20.521,7.281-37.651,21.756-48.371,40.379c-0.148,0.195-0.278,0.396-0.36,0.626c-7.425,13.141-11.686,28.297-11.686,44.438     c0,5.904,0.604,11.754,1.728,17.487c0.003,0.074,0.027,0.143,0.037,0.216c2.074,10.447,5.954,20.481,11.557,29.623     c16.634,27.12,45.539,43.315,77.318,43.315c7.757,0,15.287-0.983,22.477-2.824c0.07,0.007,0.139,0.017,0.207,0.017     c0.492,0,0.942-0.178,1.328-0.446C173.403,342.848,192.092,328.67,204.02,309.797z M201.019,305.663     c-38.404-6.645-83.794-19.815-115.63-45.86c3.022-6.197,6.601-12.4,10.786-18.568c9.577,6.219,21.916,8.569,32.011,8.569     c0.977,0,1.934-0.021,2.862-0.062c6.631-0.296,14.623-1.72,23.083-3.23c18.007-3.204,38.348-6.812,57.3-2.545     c1.174,5.695,1.831,11.56,1.831,17.554C213.261,277.653,208.785,292.754,201.019,305.663z M210.2,238.846     c-19.285-3.695-40.03-0.007-56.9,3.002c-8.303,1.478-16.143,2.877-22.464,3.158c-9.254,0.41-22.312-1.465-31.949-7.617     c2.109-2.933,4.299-5.858,6.668-8.763c30.292-37.156,64.719-38.45,69.654-38.449C192.452,201.686,204.808,218.951,210.2,238.846z      M159.471,181.828c2.953,1.19,5.775,2.576,8.533,4.051c-13.329,1.609-40.881,8.79-66.121,39.755     c-2.412,2.958-4.646,5.94-6.799,8.929c-0.351-0.303-0.711-0.596-1.047-0.915c-5.109-4.857-7.716-10.933-7.755-18.061     c-0.078-14.501,8.212-28.073,13.701-35.467c8.605-2.902,17.805-4.499,27.376-4.499     C138.471,175.62,149.273,177.708,159.471,181.828z M92.131,183.208c-5.189,8.261-10.656,19.94-10.59,32.405     c0.046,8.467,3.153,15.691,9.229,21.471c0.504,0.479,1.077,0.875,1.609,1.323c-4.117,6.054-7.674,12.149-10.714,18.248     c-12.12-10.68-21.989-23.411-28.367-38.568C62.291,202.808,75.869,190.554,92.131,183.208z M50.438,223.352     c6.863,14.769,16.936,27.214,29.08,37.701c-2.299,5.05-4.195,10.09-5.737,15.102c-6.638-4.218-13.137-6.193-19.388-5.778     c-5.337,0.337-9.326,2.317-11.925,4.086c-0.647-4.266-1.007-8.587-1.007-12.942C41.462,247.816,44.704,234.859,50.438,223.352z      M54.084,306.369c-5.066-8.262-8.65-17.295-10.676-26.704c2.877-2.562,13.037-9.567,29.016,1.241     c-4.213,16.18-4.38,31.942-0.311,46.466C65.14,321.496,59.037,314.445,54.084,306.369z M78.735,332.374     c-5.666-14.822-6.293-31.306-2.191-48.377c0.641,0.528,1.289,1.079,1.948,1.664c7.863,6.999,14.209,15.917,20.345,24.541     c10.459,14.703,21.29,29.871,40.044,36.423c-3.772,0.508-7.611,0.795-11.52,0.795C109.584,347.421,92.781,342.039,78.735,332.374     z M149.595,344.486c-2.665-0.444-5.319-1.059-7.891-1.882c-18.12-5.791-28.264-20.052-39.005-35.148     c-6.29-8.84-12.79-17.979-21.054-25.333c-1.256-1.118-2.507-2.144-3.756-3.105c1.432-4.899,3.236-9.832,5.429-14.784     c32.016,25.725,76.675,38.954,114.917,45.753C186.795,326.665,169.629,339.112,149.595,344.486z"/>
			<path style="fill:#FFFFFF;" d="M132.652,187.746c-3.168,0.464-6.497,1.044-9.679,1.812c-3.209,0.725-6.367,1.617-9.467,2.616     c-6.184,2.055-12.127,4.639-17.63,7.917c-2.744,1.647-5.383,3.451-7.901,5.415c-2.486,2-4.871,4.13-7.117,6.425     c-4.46,4.622-8.273,9.898-11.77,15.572l-0.02,0.033c-0.593,0.963-1.855,1.263-2.818,0.669c-0.813-0.501-1.152-1.478-0.882-2.35     c2.082-6.721,5.513-13.134,10.047-18.721l1.736-2.07c0.58-0.691,1.236-1.309,1.853-1.967c1.221-1.333,2.605-2.494,3.938-3.712     c2.754-2.335,5.713-4.416,8.8-6.268c6.205-3.654,12.96-6.264,19.885-7.812c3.458-0.798,6.97-1.296,10.486-1.572     c1.762-0.111,3.522-0.194,5.289-0.163c1.782,0.027,3.494,0.102,5.35,0.352c1.052,0.142,1.79,1.11,1.648,2.162     c-0.117,0.869-0.798,1.524-1.624,1.645L132.652,187.746z"/>
		</g>
		<g>
			<g>
				<path style="fill:#000E3F;" d="M198.386,510.357c-0.144,0-0.291-0.013-0.437-0.041c-48.277-8.995-82.703-28.982-102.317-59.409      c-26.912-41.743-16.071-87.513-15.598-89.442c0.314-1.271,1.599-2.047,2.867-1.736c1.271,0.314,2.047,1.597,1.736,2.867      c-0.111,0.452-10.805,45.801,15.012,85.793c18.887,29.259,52.253,48.524,99.17,57.267c1.286,0.239,2.134,1.476,1.895,2.764      C200.5,509.56,199.505,510.357,198.386,510.357z"/>
			</g>
			<g>
				<path style="fill:#000E3F;" d="M223.899,467.233c-0.067,0-0.134-0.003-0.201-0.01c-47.912-4.027-81.9-18.673-101.021-43.53      c-20.795-27.03-15.968-55.901-15.752-57.118c0.226-1.288,1.45-2.16,2.744-1.918c1.288,0.226,2.147,1.455,1.923,2.744      c-0.049,0.278-4.641,28.141,14.898,53.476c18.287,23.713,51.126,37.717,97.604,41.625c1.304,0.108,2.273,1.255,2.162,2.559      C226.154,466.297,225.118,467.233,223.899,467.233z"/>
			</g>
		</g>
	</g>
	<g>
		<path style="fill:#FD8A02;" d="M442.822,401.469c-2.864-3.015-5.435-5.486-6.505-8.077c-1.06-2.57,1.991-4.862,4.013-3.308    c3.309,2.541,6.935,8.282,7.942,7.9c0.993-0.376,0.55-1.732,0.563-2.677c0.07-5.258-0.322-8.468,0.347-11.902    c0.507-2.607,4.766-2.242,5.291,0.015c0.506,2.178,0.231,4.623,0.391,15.885c0.053,3.733,3.05,0.916,7.122-1.764    c2.312-1.521,5.879-2.572,7.018-0.064c0.94,2.07-0.886,3.328-2.759,4.64c-9.862,6.906-10.073,4.96,4.06,8.882    c2.596,0.72,5.726,1.832,4.814,4.455c-0.93,2.676-3.957,1.555-10.074,0.175c-0.804-0.181-1.559-0.628-2.366-0.744    c-1.785-0.257-3.453-1.183-5.323-0.931c-0.307,2.2,1.622,3.374,2.38,5.088c1.215,2.747,3.518,4.033,2.879,7.162    c-0.248,1.218-1.492,1.987-2.622,1.524c-5.515-2.259-6.77-11.408-9.121-6.326c-3.037,6.567-3.497,8.198-5.305,10.655    c-1.706,2.318-4.976,0.798-4.437-2.004c0.894-4.648,5.5-12.518,4.601-13.392c-0.937-0.911-9.22,6.485-12.437,6.594    c-2.326,0.079-3.37-1.939-2.274-3.658c1.665-2.613,3.127-3.118,9.669-7.681c0.508-0.354,1.249-0.706,0.971-1.49    c-0.249-0.701-1.032-0.755-1.667-0.848c-3.217-0.471-10.482-1.429-10.815-1.524c-3.145-0.89-2.708-5.953,0.88-5.58    c12.469,1.296,15.774,2.907,12.69-0.935C442.772,401.516,442.797,401.492,442.822,401.469z"/>
		<path style="fill:#FD8A02;" d="M422.66,309.598c-2.918-3.252-7.039-7.253-4.391-9.282c1.845-1.415,3.196,0.281,4.889,2.23    c0.97,1.117,3.374,4.563,4.026,4.337c0.892-0.31,0.34-0.777,0.67-8.662c0.097-2.308,0.296-4.958,2.579-4.629    c3.116,0.45,2.278,1.565,2.096,14.521c-0.043,3.045,2.466,0.817,5.849-1.275c1.921-1.188,4.854-1.961,5.725,0.111    c0.72,1.713-0.809,2.699-2.357,3.72c-8.202,5.404-8.331,3.812,3.106,7.338c2.1,0.648,4.627,1.626,3.823,3.745    c-1.389,3.658-11.181-1.982-14.452-1.634c-0.301,1.787,1.245,2.789,1.824,4.204c0.928,2.269,2.777,3.366,2.182,5.908    c-0.619,2.649-3.644,0.853-5.2-1.436c-4.01-5.897-2.659-5.62-7.304,3.437c-0.931,1.812-2.251,3.966-4.05,3.046    c-1.938-0.991-0.946-3.273-0.006-5.462c4.174-9.714,5.56-9.739-4.638-3.595c-4.502,2.713-7.311-1.225-1.477-4.86    c8.668-5.401,8.039-4.65-2.188-6.358c-0.961-0.161-4.235-0.203-3.562-3.246c0.248-1.121,1.12-1.805,2.421-1.632    c10.129,1.344,12.797,2.742,10.371-0.469C422.619,309.636,422.639,309.617,422.66,309.598z"/>
		<path style="fill:#FD8A02;" d="M279.14,486.102c-2.918-3.252-7.039-7.253-4.391-9.282c1.845-1.415,3.196,0.281,4.889,2.23    c0.97,1.117,3.374,4.563,4.027,4.337c0.892-0.31,0.34-0.777,0.67-8.662c0.097-2.308,0.296-4.958,2.579-4.629    c3.116,0.45,2.278,1.565,2.096,14.521c-0.043,3.046,2.466,0.817,5.85-1.275c1.921-1.187,4.854-1.961,5.725,0.111    c0.72,1.714-0.809,2.699-2.357,3.72c-8.202,5.405-8.331,3.812,3.106,7.338c2.101,0.648,4.628,1.626,3.823,3.744    c-1.389,3.658-11.181-1.982-14.452-1.634c-0.301,1.787,1.245,2.789,1.824,4.204c0.928,2.269,2.777,3.366,2.182,5.908    c-0.619,2.649-3.644,0.853-5.2-1.435c-4.01-5.898-2.659-5.621-7.304,3.436c-0.931,1.813-2.251,3.966-4.05,3.046    c-1.938-0.992-0.946-3.273-0.006-5.462c4.174-9.714,5.56-9.739-4.638-3.595c-4.502,2.713-7.311-1.225-1.477-4.86    c8.668-5.401,8.039-4.65-2.188-6.358c-0.962-0.161-4.235-0.203-3.562-3.246c0.248-1.121,1.12-1.805,2.421-1.632    c10.129,1.344,12.797,2.742,10.371-0.469C279.098,486.139,279.119,486.12,279.14,486.102z"/>
		<path style="fill:#FD8A02;" d="M358.547,376.335c-3.86-0.36-7.18-0.517-9.519-1.679c-2.321-1.153-1.585-4.633,0.787-4.783    c3.879-0.246,9.948,1.559,10.42,0.674c0.466-0.873-0.676-1.553-1.247-2.224c-3.176-3.733-5.42-5.746-7.057-8.566    c-1.243-2.14,1.97-4.497,3.723-3.235c1.689,1.216,2.982,3.086,10.018,10.909c2.327,2.587,2.702-1.228,3.917-5.607    c0.689-2.486,2.548-5.411,4.886-4.349c1.934,0.878,1.416,2.891,0.909,4.949c-2.686,10.895-4.028,9.659,8.297,3.743    c2.264-1.086,5.143-2.226,6.111,0.175c1.015,2.514-2.048,3.64-6.963,6.302c-0.676,0.366-1.479,0.515-2.117,0.929    c-1.411,0.914-3.15,1.287-4.307,2.611c1.134,1.732,3.208,1.373,4.792,2.111c2.539,1.182,4.942,0.673,6.414,3.261    c0.573,1.008,0.171,2.31-0.905,2.678c-5.252,1.796-11.749-3.855-10.282,1.154c2.258,7.704,4.359,12.362,1.22,13.243    c-2.394,0.672-3.333-2.011-4.242-4.575c-4.045-11.411-2.875-12.543-6.678,0.584c-1.62,5.594-7.123,4.795-5.009-2.93    c3.081-11.266,3.122-10.127-6.767-3.635c-0.643,0.422-1.248,0.925-1.937,1.25c-2.751,1.304-5.554-2.515-2.804-4.456    c9.508-6.712,12.882-7.624,8.333-8.44C358.542,376.398,358.545,376.367,358.547,376.335z"/>
		<path style="fill:#FD8A02;" d="M380.538,450.364c-1.912-3.372-3.682-6.185-4.067-8.769c-0.381-2.563,2.894-3.95,4.374-2.089    c2.42,3.041,4.41,9.052,5.406,8.934c0.982-0.117,0.887-1.444,1.111-2.296c1.246-4.74,1.614-7.732,2.991-10.687    c1.045-2.244,4.816-0.956,4.782,1.204c-0.032,2.081-0.826,4.211-3.22,14.457c-0.792,3.388,2.552,1.514,6.84,0.006    c2.433-0.856,5.896-1.004,6.362,1.521c0.386,2.089-1.562,2.815-3.54,3.576c-10.473,4.028-10.227,2.219,1.675,8.948    c2.185,1.236,4.767,2.945,3.351,5.113c-1.482,2.27-4.158,0.401-9.152-2.108c-0.687-0.345-1.268-0.918-1.973-1.205    c-1.557-0.635-2.857-1.848-4.605-2.04c-0.772,1.921,0.708,3.416,1.009,5.138c0.482,2.759,2.274,4.439,0.993,7.126    c-0.499,1.046-1.797,1.462-2.715,0.789c-4.477-3.281-3.556-11.843-6.827-7.774c-5.028,6.258-7.648,10.646-10.165,8.575    c-1.921-1.579-0.256-3.884,1.327-6.097c7.048-9.844,8.645-9.532-4.298-5.144c-5.516,1.87-8.007-3.101-0.461-5.785    c11.004-3.915,10.093-3.23-0.888-7.63c-0.714-0.286-1.472-0.495-2.133-0.874c-2.643-1.511-1.113-5.995,2.051-4.849    c10.944,3.961,13.621,6.207,11.689,2.009C380.483,450.396,380.51,450.38,380.538,450.364z"/>
	</g>
</g>















</svg>
