<svg clip-rule="evenodd" fill-rule="evenodd" height="2.667in" image-rendering="optimizeQuality" shape-rendering="geometricPrecision" text-rendering="geometricPrecision" viewBox="0 0 2667 2667" width="2.667in" xmlns="http://www.w3.org/2000/svg"><g id="Layer_x0020_1"><circle cx="1333" cy="1333" fill="#ff700d" r="1333"/><path d="m1249 1038c-56 0-110-14-158-42-97-56-158-161-158-273 0-8 4-16 11-20 48-28 103-42 159-42 55 0 109 14 157 42 19 11 36 23 52 38-13 60-11 124 7 183l-142-82c-6-3-13-1-17 5-3 6-1 14 5 17l168 97c5 14 12 27 20 40 3 6 7 11 13 15-37 15-77 22-117 22zm-580 615c-45-5-81-44-81-91v-24c0-37 30-66 66-66h85c-22 42-46 86-59 132-5 16-8 32-11 49zm1258-181h85c37 0 67 29 67 66v24c0 47-36 86-82 91-2-17-6-33-10-49-14-46-37-90-60-132zm-72 714c-66 0-120-53-120-119v-58h-803v58c0 66-54 119-120 119-65 0-118-53-119-119l-3-274c-3-160 11-192 76-314 4-9 9-18 14-28 69-132 173-330 309-330h489c136 0 240 198 308 330 5 10 10 19 15 28 65 122 78 154 76 314l-3 274c0 66-54 119-119 119zm-335-288c8 0 13-6 13-13v-84c0-7-5-13-13-13h-374c-7 0-13 6-13 13v84c0 7 6 13 13 13zm-361-26v-58h349v58zm619-315c4 0 8-3 11-7 2-3 2-8 0-12-6-10-11-21-16-31-22-42-44-84-69-125-19-31-87-135-126-135h-489c-40 0-107 104-126 135-25 41-47 83-69 125-5 10-11 21-16 31-2 4-2 9 0 12 2 4 7 7 11 7zm-860-40c21-41 43-82 67-122 16-27 75-113 101-122h2 491 1c27 9 86 95 102 122 24 40 46 81 67 122l8 14h-847zm919 337c7 0 13-6 13-13v-48c1-35 1-70-2-105-1-7-6-12-13-12h-208c-7 0-13 6-13 13v152c0 7 6 13 13 13zm-197-26v-126h184v9c1 27 1 54 1 81l-1 36zm-600 26c7 0 12-6 12-13v-152c0-7-5-13-12-13h-209c-6 0-12 5-12 12-3 35-3 70-3 105l1 48c0 7 6 13 13 13zm-198-26v-36c-1-27-1-54 1-81v-9h184v126zm533-841c-59-105-59-234 1-337 60-105 172-169 293-170 8 0 15 5 19 12 60 104 60 234 0 338s-171 168-291 169l145-252c4-6 2-14-4-17-6-4-14-1-18 5z" fill="#fff"/></g></svg>