<?xml version="1.0" encoding="UTF-8"?>
<!-- Generator: Adobe Illustrator 25.2.1, SVG Export Plug-In . SVG Version: 6.00 Build 0)  -->
<svg xmlns="http://www.w3.org/2000/svg" xmlns:xlink="http://www.w3.org/1999/xlink" version="1.1" id="Capa_1" x="0px" y="0px" viewBox="0 0 512 512" style="enable-background:new 0 0 512 512;" xml:space="preserve" width="512" height="512">
<g>
	<g>
		<g>
			<g>
				<path style="fill:#FD8A02;" d="M511.576,447.75c-2.373,2.678-7.236,5.966-11.627,17.029c-0.394,0.991-0.806,1.991-1.348,2.904      c-0.756,1.271-2.318,1.324-3.161,0.075c-1.906-2.825-1.937-7.262-8.321-15.043c-3.747-4.566-7.447-6.048-4.196-8.713      c8.105-6.641,11.031-16.763,12.533-19.427c0.648-1.15,2.14-1.215,2.937-0.177c0.855,1.113,1.283,2.45,1.785,3.744      c3.719,9.579,9.003,14.021,11.154,16.174C511.87,444.855,512.394,446.829,511.576,447.75z"/>
			</g>
			<g>
				<path style="fill:#FD8A02;" d="M452.878,461.659c-2.373,2.678-7.236,5.966-11.627,17.029c-0.393,0.992-0.806,1.991-1.349,2.904      c-0.755,1.271-2.318,1.324-3.161,0.075c-1.906-2.825-1.938-7.262-8.321-15.043c-3.747-4.566-7.448-6.049-4.196-8.713      c8.105-6.641,11.03-16.763,12.533-19.427c0.648-1.15,2.139-1.215,2.937-0.177c0.855,1.113,1.282,2.45,1.785,3.744      c3.719,9.579,9.003,14.021,11.154,16.173C453.173,458.763,453.696,460.737,452.878,461.659z"/>
			</g>
			<g>
				<path style="fill:#FD8A02;" d="M495.206,387.061c-0.57,0.643-1.149,1.286-1.782,1.864c-8.93,8.15-11.167,17.737-13.164,21.094      c-0.87,1.463-2.67,1.525-3.641,0.086c-0.677-1.003-1.183-2.158-1.581-3.31c-6.21-17.968-18.437-19.462-12.837-24.051      c9.335-7.648,12.705-19.306,14.434-22.376c0.747-1.325,2.465-1.399,3.383-0.204c0.984,1.281,1.477,2.822,2.056,4.312      c4.291,11.053,10.399,16.178,12.847,18.628C495.545,383.726,496.15,385.997,495.206,387.061z"/>
			</g>
		</g>
		<g>
			<g>
				<path style="fill:#FD8A02;" d="M0.424,447.75c2.373,2.678,7.236,5.966,11.627,17.029c0.394,0.991,0.806,1.991,1.348,2.904      c0.756,1.271,2.318,1.324,3.161,0.075c1.906-2.825,1.938-7.262,8.321-15.043c3.747-4.566,7.448-6.048,4.196-8.713      c-8.105-6.641-11.031-16.763-12.532-19.427c-0.648-1.15-2.14-1.215-2.937-0.177c-0.855,1.113-1.283,2.45-1.785,3.744      c-3.719,9.579-9.003,14.021-11.154,16.174C0.13,444.855-0.394,446.829,0.424,447.75z"/>
			</g>
			<g>
				<path style="fill:#FD8A02;" d="M59.122,461.659c2.374,2.678,7.236,5.966,11.627,17.029c0.394,0.992,0.806,1.991,1.349,2.904      c0.755,1.271,2.318,1.324,3.161,0.075c1.906-2.825,1.938-7.262,8.321-15.043c3.747-4.566,7.448-6.049,4.196-8.713      c-8.105-6.641-11.03-16.763-12.533-19.427c-0.648-1.15-2.139-1.215-2.937-0.177c-0.855,1.113-1.283,2.45-1.785,3.744      c-3.718,9.579-9.003,14.021-11.154,16.173C58.828,458.763,58.304,460.737,59.122,461.659z"/>
			</g>
			<g>
				<path style="fill:#FD8A02;" d="M16.794,387.061c0.57,0.643,1.149,1.286,1.782,1.864c8.93,8.15,11.167,17.737,13.163,21.094      c0.87,1.463,2.67,1.525,3.641,0.086c0.677-1.003,1.183-2.158,1.581-3.31c6.21-17.968,18.437-19.462,12.836-24.051      c-9.335-7.648-12.705-19.306-14.434-22.376c-0.747-1.325-2.465-1.399-3.383-0.204c-0.984,1.281-1.477,2.822-2.056,4.312      c-4.291,11.053-10.399,16.178-12.847,18.628C16.455,383.726,15.849,385.997,16.794,387.061z"/>
			</g>
		</g>
	</g>
	<g>
		<g>
			<g>
				<g>
					<g>
						<path style="fill:#FF8EDE;" d="M364.866,299.898c0.059,2.416,1.979-0.383,10.578-0.056        c24.211,0.92,36.029,27.114,22.688,43.685c-1.406,1.746-2.359,2.537-0.306,3.104c29.67,8.183,29.839,54.594-1.919,57.935        c-4.191,0.441,10.296,8.588,8.839,28.238c-0.924,12.458-10.129,22.736-24.701,23.183c-8.381,0.257-13.633-2.553-15.285-2.932        c-0.749-0.172-1.155,0.918-1.116,1.343c0.075,0.811,1.762,7.912,0.404,14.894c-4.932,25.366-30.258,29.503-46.654,14.462        c-4.437-4.07-2.154-0.049-11.128,6.884c-15.644,12.086-36.341,7.961-45.374-5.191c-1.518-2.209-3.069-4.372-3.99-6.914        c-0.16-0.44-0.437-0.834-0.924-0.773c-0.697,0.088-1.127,1.384-2.409,3.859c-8.363,16.145-29.708,22.217-47.061,9.521        c-9.334-6.829-7.777-11.31-11.206-8.03c-17.099,16.352-43.103,11.433-47.431-15.266c-1.325-8.174,2.167-15.618-0.635-14.773        c-3.077,0.928-12.856,5.599-25.043,0.954c-14.777-5.632-20.722-26.871-7.989-44.876c0.706-0.999,1.504-1.932,2.233-2.916        c2.384-3.212-3.844,0.641-13.938-6.966c-12.727-9.59-14.271-31.984-1.557-44.564c10.563-10.451,16.959-6.577,13.768-10.25        c-16.29-18.75,0.552-48.884,29.036-44.071c3.105,0.525,3.638,1.505,3.57-2.766c-0.141-8.851-0.013-14.532,6.219-22.605        c8.498-11.008,24.954-15.702,40.902-8.324c3.736,1.728,4.273,2.672,5.285,0.446c4.275-9.413,10.64-15.743,20.889-17.983        c14.376-3.142,27.913,3.84,33.665,18.065c0.732,1.811,0.804,3.082,1.721,3c0.973-0.087,1.147-1.317,1.964-3.3        c7.959-19.313,30.376-23.887,45.421-11.997c9.405,7.432,7.929,14.619,10.962,13.39c2.639-1.069,9.887-5.85,21.123-5.104        c14.705,0.977,26.279,10.668,29.114,25.015C365.021,290.446,364.779,296.333,364.866,299.898z"/>
					</g>
					<g>
						<path style="fill:#FF8EDE;" d="M36.402,285.798c2.067-0.203,4.078,0.672,6.058,1.783c0.807,0.453,1.722,1.333,2.725,0.443        c0.799-0.709,0.339-1.643,0.184-2.51c-0.49-2.732-0.013-6.155,0.818-8.215c3.809-9.443,15.947-9.989,20.535,4.745        c0.872,2.801,1.574,3.213,3.513,0.711c0.818-1.055,1.973-1.782,3.004-2.631c2.08-1.713,4.493-1.978,6.946-1.599        c7.09,1.096,9.069,13.999,0.545,26.701c-2.587,3.855-2.63,3.92,0.03,7.602c6.216,8.606,14.199,14.978,24.207,18.668        c1.579,0.582,2.73,1.266,3.079,3.076c0.492,2.548,1.887,4.736,3.145,6.964c1.147,2.032,2.759,3.357,0.193,4.657        c-6.096,3.089-10.864,5.438-15.825,13.787c-3.252,5.474-4.794,11.448-4.772,17.827c0.014,4.303,2.543,8.265-0.683,7.505        c-18.476-4.355-42.602-37.511-41-62.867c0.388-6.143-4.378-3.332-14.25-13.735C27.044,300.48,24.771,285.731,36.402,285.798z"/>
					</g>
					<g>
						<path style="fill:#FF8EDE;" d="M465.242,317.733c-5.111,2.735,1.65,6.317-6.658,27.823        c-6.238,16.146-20.238,35.032-36.947,39.848c-0.731,0.211-1.361-0.343-1.276-1.09c0.693-6.129,1.834-5.113,0.088-14.196        c-1.718-8.936-7.296-17.47-17.113-22.662c-3.787-2.003-5.299-1.68-3.472-4.287c5.595-7.983,2.969-10.23,7.042-11.573        c9.078-2.993,19.022-10.355,25.966-21.061c1.274-1.965-0.119-3.309-1.514-5.348c-4.508-6.589-8.553-18.465-3.248-24.249        c2.599-2.833,6.377-3.498,9.65-1.475c4.148,2.564,3.896,3.413,5.484,4.799c0.408,0.355,1.231,0.176,1.429-0.333        c1.519-3.902,1.854-6.761,5.632-10.459c8.046-7.876,18.459,1.166,16.412,11.665c-0.21,1.078-0.699,2.304,0.473,3.036        c1.837,1.147,2.884-2.797,10.112-2.38C487.113,286.357,487.665,305.732,465.242,317.733z"/>
					</g>
				</g>
				<g>
					<g>
						<path style="fill:#FC09B2;" d="M141.441,437.326c-1.181,0.496-2.444-0.348-1.804-2.015c2.183-5.684,11.729-6.295,16.716-5.917        c7.196,0.545,13.665,5.923,15.898,13.735c1.653,5.782,0.802,7.527,2.958,6.737c3.296-1.208,7.069-3.181,13.276-1.431        c9.947,2.804,13.541,13.41,12.022,17.164c-1.101,2.723-4.079,2.997-5.351,0.614c-0.468-0.876-0.8-1.831-1.132-2.772        c-3.965-11.24-17.026-9.529-21.711-3.135c-2.341,3.194-6.126,1.277-5.952-1.833c0.242-4.305,0.88-7.832-0.729-12.088        C161.74,436.1,151.244,433.214,141.441,437.326z"/>
					</g>
					<g>
						<path style="fill:#FC09B2;" d="M345.51,459.291c-0.197,2.821-3.37,3.336-4.992,1.856c-1.061-0.969-1.985-4.025-8.756-5.649        c-5.061-1.213-11.186,1.247-13.388,6.852c-0.776,1.977-1.349,5.913-4.346,5.414c-5.896-0.982-2.711-17.142,11.076-19.607        c5.753-1.029,10.165,1.142,12.287,1.85c1.295,0.433,1.032-1.24,1.875-4.811c6.204-26.275,37.437-13.318,33.074-8.198        c-1.128,1.324-6.113-0.883-7.592-1.074c-7.546-0.976-13.879,1.06-17.348,8.163        C344.818,449.376,345.895,453.775,345.51,459.291z"/>
					</g>
					<g>
						<path style="fill:#FC09B2;" d="M271.927,305.2c-0.672,11.758-11.118,14.248-8.327,16.222        c13.642,9.646,11.711,27.138,0.903,35.659c-1.721,1.357-7.985,5.753-9.591,2.422c-0.958-1.988,1.52-3.538,2.912-4.418        c3.351-2.119,5.34-5.318,7.073-8.699c2.231-4.353,2.217-8.828,0.04-13.175c-3.961-7.909-8.81-8.942-10.269-10.083        c-2.023-1.582-1.906-4.239,0.273-5.571c2.069-1.265,7.654-2.812,9.792-10.227c1.24-4.3-0.46-7.865-4.268-10.711        c-2.967-2.217-7.655-3.03-7.008-4.965c0.407-1.217,2.087-1.673,3.364-1.713C264.273,289.704,271.832,297.02,271.927,305.2z"/>
					</g>
					<g>
						<path style="fill:#FC09B2;" d="M191.535,295.041c2.992,2.052,3.401,2.644,3.986,1.172        c4.577-11.532,22.632-14.287,30.836-4.654c1.597,1.876,2.515,4.212,0.747,5.912c-1.691,1.626-3.836,0.25-5.571-1.262        c-8.418-7.332-20.749-3.879-22.436,6.929c-0.154,0.987-0.139,2.003-0.34,2.978c-0.376,1.824-2.09,3.179-4.339,1.819        c-1.101-0.666-1.234-0.935-4.645-4.737c-3.916-4.365-12.068-6.429-17.911-1.033c-4.835,4.464-6.452,10.735-7.754,12.319        c-1.266,1.539-2.708-1.01-2.527-2.795c0.554-5.47,2.519-10.309,6.324-14.364C173.795,291.047,184.836,290.446,191.535,295.041        z"/>
					</g>
					<g>
						<path style="fill:#FC09B2;" d="M316.479,296.028c0.658,1.198,0.937,1.312,1.997,0.462c7.03-5.633,18.549-6.758,26.255,1.458        c5.829,6.215,6.809,16.579,4.272,17.104c-1.85,0.382-2.905-6.586-8.034-12.247c-4.75-5.242-12.118-4.713-16.958-1.187        c-2.167,1.579-4.176,4.647-6.398,6.293c-1.735,1.285-3.944,0.325-4.315-1.775c-0.154-0.872-0.107-1.777-0.226-2.657        c-1.38-10.198-13.032-14.552-20.827-8.526c-1.274,0.985-4.933,4.841-7.543,2.456c-4.661-4.259,8.014-14.894,21.627-10.996        C311.839,287.99,313.769,291.096,316.479,296.028z"/>
					</g>
					<g>
						<path style="fill:#FC09B2;" d="M391.917,382.791c-0.898,1.111-2.014,0.976-2.516-0.392c-0.383-1.045-1.187-4.81-2.046-7.029        c-1.995-5.156-7.178-8.95-13.983-7.438c-5.509,1.224-7.732,3.9-10.738,5.196c-1.874,0.808-3.78-0.644-3.993-2.315        c-0.474-3.718,1.485-11.868-8.302-14.255c-6.111-1.49-11.661,6.346-14.514,2.544c-0.809-1.078-0.896-2.496,0.017-3.734        c7.304-9.896,22.436-6.716,26.537,4.076c0.509,1.339,0.941,2.707,1.406,4.062C389.209,351.386,396.27,377.406,391.917,382.791        z"/>
					</g>
					<g>
						<path style="fill:#FC09B2;" d="M122.38,367.322c4.489-5.805,10.386-8.125,17.616-6.913c8.059,1.351,8.066,4.909,8.674,2.2        c1.505-6.706,5.565-11.096,12.194-12.77c7.127-1.799,13.674,1.936,15.752,6.431c1.016,2.198-1.084,4.487-3.263,3.816        c-2.3-0.707-4.553-2.217-6.015-2.839c-3.725-1.586-8.623-0.548-11.372,2.362c-3.326,3.52-1.95,8.855-2.785,11.752        c-0.467,1.619-2.465,2.67-3.996,1.712c-3.717-2.325-7.765-5.34-13.396-5.431c-4.62-0.074-9.311,3.012-10.921,7.362        c-2.196,5.934-1.648,8.165-3.2,8.517C118.455,384.251,117.971,373.023,122.38,367.322z"/>
					</g>
					<g>
						<path style="fill:#FC09B2;" d="M254.528,465.936c-2.585-0.244-2.789-3.161-1.085-4.606c1.062-0.9,2.748-1.176,3.896-2.132        c3.197-2.662,4.757-7.258,4.169-11.34c-1.573-10.913-8.198-11.812-9.931-14.13c-1.202-1.609,0.625-4.125,4.233-3.244        c4.021,0.982,7.38,3.006,9.846,6.382C275.02,449.684,265.409,466.962,254.528,465.936z"/>
					</g>
					<path style="fill:#FC09B2;" d="M195.906,407.573c-7.884-3.515-9.543-10.054-5.993-14.719       c10.433-13.708,43.232-7.544,37.372,7.572C224.436,407.775,208.476,413.177,195.906,407.573z"/>
					<path style="fill:#FC09B2;" d="M316.184,407.573c7.884-3.515,9.543-10.054,5.993-14.719       c-10.433-13.708-43.232-7.544-37.372,7.572C287.654,407.775,303.614,413.177,316.184,407.573z"/>
				</g>
				<g style="opacity:0.5;">
					<g>
						<path style="fill:#FC09B2;" d="M247.218,452.234c11.896,0.646,19.306,4.925,29.963,9.406        c13.758,5.785,23.862,2.28,30.987-10.337c14.115-24.993,48.174-3.06,60.095-24.22c4.114-7.303,1.051-12.683-1.175-19.688        c-3.613-11.367-1.303-23.31,5.146-33.195c3.232-4.954,7.675-10.61,7.702-16.829c0.03-6.855-5.66-11.09-7.856-17.194        c-4.311-11.981,0.731-26.353,9.591-37.523c0.941-1.187,1.983-1.504,3.501-0.915c8.742,3.394,16.227,11.028,17.915,20.081        c2.386,12.793-2.365,18.029-6.177,23.217c-1.346,1.832,1.788,1.33,5.258,3.125c28.996,15.004,19.092,55.215-5.516,56.344        c-6.113,0.28,9.862,7.858,8.089,28.54c-1.556,18.149-18.857,27.39-37.05,21.022c-5.036-1.763-4.084-1.56-3.063,7.485        c0.511,4.536-1.268,14.335-5.985,20.786c-8.557,11.703-26.154,14.332-40.378,2.125c-3.821-3.28-3.229-3.16-6.219,0.49        c-14.662,17.899-42.205,18.04-54.292-4.458c-0.607-1.129-0.893-2.668-1.649-2.745c-2.091-0.211-3.586,14.195-21.368,19        c-11.272,3.045-21.305,0.149-30.207-7.165c-0.887-0.729-1.121-1.621-0.707-2.681c0.849-2.175,1.673-4.361,2.568-6.518        C214.147,461.709,231.352,451.373,247.218,452.234z"/>
					</g>
					<g>
						<path style="fill:#FC09B2;" d="M459.428,343.29c-6.019,16.88-20.935,37.431-37.359,42.004        c-2.399,0.668-1.632-1.385-1.274-3.836c2.084-14.261-5.268-28.359-18.842-34.667c-3.88-1.803-3.373-1.839-1.242-4.899        c1.352-1.941,1.063-4.523,7.803-5.12c7.913-0.701,10.454,1.192,17.556,3.204c6.268,1.776,11.634-0.054,16.292-4.31        c7.465-6.822,7.882-11.742,13.902-15.161c1.156-0.657,2.334-1.386,3.598-1.723c3.617-0.965,3.362-1.277,3.242,2.284        C462.955,325.494,463.944,330.624,459.428,343.29z"/>
					</g>
					<g>
						<path style="fill:#FC09B2;" d="M48.862,318.978c-0.028-0.565,0.412-0.884,0.836-0.791c3.857,0.838,7.579,2.306,10.889,6.54        c6.756,8.644,13,18.581,25.182,15.308c7.373-1.981,11.509-4.649,20.503-2.779c1.974,0.41,3.482,1.276,4.32,3.239        c0.475,1.112,1.312,2.064,1.893,3.139c1.046,1.934-1.075,2.492-3.027,3.48c-10.277,5.2-16.164,13.577-18.167,24.857        c-1.684,9.479,2.454,14.208-0.992,13.394c-16.065-3.792-32.721-26.017-38.455-44.348        C50.078,335.372,49.337,328.447,48.862,318.978z"/>
					</g>
				</g>
				<g style="opacity:0.5;">
					<g>
						<path style="fill:#FFFFFF;" d="M115.656,355.909c2.483,2.65-4.858,7.118-6.14,17.359c-1.146,9.153,4.716,13.674,6.519,15.985        c1.366,1.75,1.007,4.721-1.32,5.098c-6.025,0.978-11.361-6.422-12.76-12.357C97.954,365.03,112.058,352.069,115.656,355.909z"/>
					</g>
					<g>
						<path style="fill:#FFFFFF;" d="M161.417,291.455c-1.272,3.486-2.023,6.085-4.592,5.733        c-7.573-1.037,0.342-21.536,16.017-26.788c9.227-3.091,14.739,0.345,14.927,2.379        C188.263,278.117,169.12,270.339,161.417,291.455z"/>
					</g>
					<g>
						<path style="fill:#FFFFFF;" d="M144.367,312.195c1.286,0.497,1.451,1.859,0.301,2.567        c-2.688,1.657-14.526,4.286-14.586,16.815c-0.014,2.891-0.046,5.776,0.85,8.575c0.773,2.416-1.168,5.005-3.783,4.461        c-4.936-1.028-4.824-10.579-4.235-14.322C125.116,316.326,137.668,309.609,144.367,312.195z"/>
					</g>
				</g>
			</g>
			<g>
				<g>
					<path style="fill:#000E3F;" d="M484.453,287.305c-1.832-2.705-4.774-4.306-8.071-4.392c-0.09-0.002-0.18-0.004-0.27-0.004       c-2.121,0-3.877,0.654-5.056,1.094c-0.696,0.259-1.342,0.507-1.538,0.384c-0.054-0.034-0.074-0.141-0.08-0.225       c-0.071-0.879-0.078-1.78-0.085-2.652c-0.05-7.007-5.368-12.328-9.16-13.058c-4.729-0.913-8.466,0.011-11.394,2.828       c-2.878,2.768-4.007,5.245-4.755,6.885c-0.424,0.928-0.732,1.599-1.11,1.677c-0.334,0.089-0.885-0.26-1.773-1.063       c-3.822-3.444-8.565-4.186-12.374-1.951c-4.831,2.837-6.852,9.48-5.15,16.924c1.541,6.727,3.832,10.211,5.349,12.516       c1.359,2.064,1.92,2.918,0.833,4.227c-0.267,0.323-0.504,0.673-0.732,1.013c-0.142,0.213-0.286,0.426-0.438,0.633       c-4.829,6.621-11.354,11.927-19.394,15.767c-1.2,0.574-2.069,0.991-2.365,0.819c-0.293-0.173-0.355-1.109-0.447-2.525       c-0.582-8.956-5.013-16.947-12.481-22.5c-7.217-5.366-16.755-7.886-23.747-6.271c-1.115,0.259-1.813,0.246-2.144-0.027       c-0.407-0.336-0.379-1.169-0.346-2.224c0.016-0.44,0.031-0.923,0.019-1.44c-0.211-9.652-4.208-18.407-11.25-24.652       c-7.19-6.378-16.585-9.357-26.443-8.389c-5.922,0.582-11.673,2.541-14.746,4.225c-0.412,0.225-0.618,0.206-0.727,0.168       c-0.367-0.121-0.658-0.751-1.098-1.706c-0.869-1.877-2.32-5.02-6.395-8.673c-7.434-6.668-16.49-9.782-25.548-8.773       c-8.89,0.993-17.042,5.864-22.365,13.362c-1.219,1.718-1.929,3.035-2.398,3.906c-0.284,0.527-0.578,1.072-0.691,1.114       c-0.149-0.044-0.507-0.691-0.918-1.442l-0.26-0.473c-5.78-10.426-16.06-16.611-27.56-16.611c-0.139,0-0.279,0-0.419,0.003       c-11.92,0.155-22.774,6.869-28.339,17.551c-0.966,1.838-0.961,1.845-4.194,0.482c-0.634-0.267-1.385-0.584-2.281-0.945       c-9.399-3.799-20.926-3.11-30.076,1.793c-8.902,4.773-14.975,13.101-17.101,23.452c-0.464,2.255-0.497,4.541-0.528,6.753       c-0.007,0.422-0.014,0.845-0.021,1.268c-0.014,0.666-0.123,1.063-0.343,1.247c-0.345,0.292-1.105,0.174-2.253-0.001       c-2.568-0.394-7.344-1.125-15.15,1.745c-14.232,5.228-20.817,17.735-21.027,27.81c-0.019,0.807-0.057,1.608-0.317,1.772       c-0.256,0.177-1.044-0.16-1.884-0.541c-8.651-3.923-16.937-10.872-21.115-17.703c-0.592-0.969-0.812-1.771-0.078-2.775       c0.417-0.565,0.774-1.176,1.12-1.768c0.213-0.363,0.426-0.726,0.651-1.079c2.315-3.608,3.903-7.699,4.72-12.16       c1.266-6.91-0.914-13.142-5.553-15.878c-3.61-2.129-7.929-1.62-11.553,1.35c-0.194,0.159-0.388,0.343-0.587,0.53       c-0.632,0.594-1.29,1.213-1.958,1.031c-0.547-0.144-0.75-0.612-1.164-1.654c-0.622-1.575-1.666-4.213-5.505-7.606       c-3.295-2.909-10.372-3.154-13.768-0.484c-5.834,4.579-5.853,9.817-5.865,12.947c-0.003,0.398-0.003,0.759-0.017,1.077       c-0.007,0.153-0.038,0.349-0.135,0.413c-0.204,0.141-0.874-0.121-1.574-0.399c-0.641-0.253-1.439-0.569-2.348-0.786       c-3.64-0.872-7.035-0.058-9.541,2.294c-2.767,2.599-4.059,6.689-3.371,10.674c1.584,9.172,7.998,17.136,18.55,23.034       c1.87,1.044,1.889,2.34,1.931,5.181c0.057,3.803,0.154,10.167,4.731,21.884c5.342,13.681,14.964,26.917,25.105,34.545       c6.301,4.739,10.088,5.966,12.592,6.778c2.154,0.698,3.136,1.016,3.858,3.022c0.114,0.321,0.27,0.615,0.447,0.938       c6.109,11.094,13.766,13.401,17.444,14.51c1.001,0.302,1.863,0.562,1.974,0.827c0.007,0.02,0.031,0.074-0.035,0.199       c-0.301,0.565-0.644,1.134-1.023,1.69c-8.395,12.343-9.162,26.809-1.995,37.748c6.275,9.586,17.144,13.962,29.091,11.721       c1.654-0.312,2.942-0.62,3.882-0.845c1.408-0.339,2.256-0.535,2.54-0.317c0.239,0.192,0.253,0.854,0.246,1.922       c-0.059,8.194-0.097,13.607,3.936,21.16c5.808,10.878,16.784,16.32,29.378,14.537c8.201-1.157,14-5.806,16.478-7.792       c0.331-0.265,0.606-0.485,0.817-0.641c1.351-0.997,1.449-0.878,2.646,0.615c1.018,1.276,2.724,3.406,6.48,6.256       c6.346,4.812,13.903,7.37,21.605,7.37c1.214,0,2.433-0.064,3.652-0.192c9.001-0.951,16.947-5.351,22.372-12.393       c1.342-1.742,2.18-3.056,2.734-3.927c0.397-0.623,0.769-1.209,0.902-1.238c0.021,0.007,0.106,0.057,0.312,0.423       c7.195,12.826,20.376,19.096,35.264,16.76c12.395-1.943,18.98-9.524,21.789-12.762c0.388-0.448,0.696-0.8,0.93-1.037       c0.816-0.817,0.97-0.734,2.809,0.753c0.291,0.234,0.62,0.499,0.997,0.795c13.034,10.242,30.474,9.612,40.566-1.474       c8.658-9.517,8.388-19.721,8.241-25.203c-0.054-2.009-0.095-3.597,0.362-3.995c0.066-0.062,0.18-0.135,0.445-0.088       c0.246,0.04,0.663,0.154,1.193,0.298c2.734,0.741,9.146,2.471,16.327,0.864c9.394-2.109,16.734-8.206,20.142-16.729       c4.069-10.172,2.076-22.475-5.465-33.755c-0.095-0.142-0.383-0.573-0.336-0.701c0.042-0.119,0.497-0.257,0.649-0.302       l0.18-0.055c2.253-0.679,4.587-1.384,6.694-2.632c5.621-3.335,9.626-7.606,12.239-13.056l0.213-0.451       c0.66-1.401,0.989-2.104,2.4-2.484c19.33-5.233,35.759-28.981,41.399-48.67c2.424-8.448,2.431-13.005,2.433-15.727       c0.005-2.578,0.007-3.355,1.929-4.336c6.424-3.279,14.272-10.278,17.316-18.524       C487.047,295.538,486.806,290.775,484.453,287.305z M393.634,404.397c-0.237,0.516-0.201,1.121,0.092,1.661       c0.317,0.581,0.736,1.105,1.143,1.612l0.244,0.303c9.688,12.238,11.098,26.877,3.595,37.295       c-6.556,9.101-18.284,11.981-30.599,7.522c-0.251-0.092-0.521-0.199-0.803-0.31c-1.42-0.563-3.018-1.2-4.043-0.561       c-0.509,0.317-0.802,0.921-0.871,1.792c-0.102,1.268,0.08,2.615,0.293,4.173c0.428,3.169,0.961,7.113-0.447,13.027       c-2.554,10.729-9.948,18.164-19.775,19.889c-11.47,2.012-19.389-4.379-23.65-7.813c-0.698-0.563-1.304-1.051-1.827-1.427       c-2.62-1.884-3.763-0.499-5.846,2.031c-0.76,0.925-1.621,1.974-2.753,3.131c-10.171,10.414-24.672,12.814-36.949,6.111       c-7.707-4.208-11.47-11.356-13.077-14.407c-0.324-0.618-0.561-1.065-0.731-1.302c-0.433-0.599-1.049-0.942-1.695-0.942       c-0.014,0-0.029,0-0.043,0.002c-0.672,0.014-1.299,0.393-1.721,1.039c-0.189,0.291-0.431,0.774-0.736,1.385       c-2.019,4.045-6.751,13.517-19.373,16.992c-8.204,2.256-16.078,0.999-24.092-3.846c-4.171-2.521-6.767-5.501-8.663-7.678       c-1.716-1.969-2.954-3.394-4.417-3.441c-0.026-0.003-0.052-0.003-0.078-0.003c-0.864,0-1.747,0.483-2.769,1.51       c-8.225,8.277-18.812,11.165-28.299,7.714c-9.413-3.42-15.614-12.277-16.592-23.693c-0.395-4.615,0-6.871,0.319-8.684       c0.208-1.198,0.391-2.232,0.279-3.609c-0.078-0.987-0.383-1.631-0.93-1.967c-0.999-0.62-2.559,0.007-3.931,0.561       c-0.355,0.142-0.701,0.282-1.025,0.393c-8.798,3.072-17.664,2.445-24.313-1.723c-5.941-3.725-9.704-10.033-10.594-17.762       c-1.43-12.412,4.17-20.04,7.515-24.599c1.543-2.1,2.561-3.488,2.137-4.436c-0.268-0.598-1.051-0.928-2.537-1.07       c-10.679-1.021-18.975-8.541-21.654-19.624c-3.068-12.698,2.014-25.427,12.944-32.429c2.944-1.885,4.928-2.518,6.523-3.027       c0.743-0.237,1.387-0.441,1.974-0.731c0.53-0.262,0.911-0.714,1.079-1.272c0.166-0.554,0.095-1.134-0.199-1.633       c-0.367-0.632-0.874-1.192-1.271-1.608c-6.192-6.505-7.55-16.512-3.46-25.494c3.787-8.322,13.131-16.993,28.069-16.31       c0.933,0.042,3.032,0.407,6.241,1.089c0.187,0.039,0.296,0.06,0.308,0.06c0.608,0.041,1.184-0.158,1.581-0.551       c0.388-0.384,0.589-0.921,0.561-1.514c-0.284-6.13,0.729-15.221,3.165-19.999c4.859-9.528,15.557-15.857,26.729-15.857       c0.152,0,0.305,0.001,0.457,0.004c7.955,0.122,13.124,2.812,16.544,4.592c0.641,0.333,1.193,0.62,1.695,0.855       c0.739,0.346,1.408,0.414,1.972,0.192c1.034-0.402,1.562-1.671,2.026-2.79c0.111-0.267,0.22-0.529,0.331-0.771       c3.674-7.922,9.572-13.146,17.532-15.527c9.803-2.935,18.764-0.78,26.613,6.409c4.878,4.469,6.511,9.043,7.389,11.501       c0.26,0.729,0.464,1.306,0.677,1.664c0.436,0.741,1.24,1.182,2.149,1.182c0.916,0,1.725-0.447,2.166-1.197       c0.197-0.335,0.308-0.709,0.414-1.072c0.052-0.177,0.104-0.355,0.166-0.528c3.28-9.05,10.443-15.901,19.16-18.327       c8.514-2.37,17.302-0.35,24.758,5.678c4.932,3.989,7.145,8.946,8.208,11.328c0.284,0.634,0.488,1.093,0.656,1.341       c1.371,2.02,3.068,1.099,5.418-0.171c0.426-0.231,0.883-0.478,1.368-0.727c9.401-4.782,20.376-4.841,29.366-0.146       c8.637,4.509,14.393,12.924,15.796,23.089c0.272,1.965,0.069,5.29-0.064,7.491c-0.062,0.987-0.109,1.768-0.095,2.135       c0.016,0.53,0.244,1.003,0.634,1.331c0.405,0.339,0.933,0.476,1.475,0.404c0.873-0.123,1.747-0.309,2.592-0.489       c0.341-0.072,0.679-0.144,1.018-0.213c7.245-1.458,14.99,0.127,21.24,4.356c6.244,4.224,10.45,10.718,11.841,18.285       c1.453,7.885-2.473,15.825-5.723,18.944c-0.968,0.93-1.425,1.922-1.288,2.792c0.099,0.642,0.509,1.169,1.15,1.482       c0.478,0.234,0.989,0.4,1.484,0.561c0.244,0.079,0.49,0.159,0.729,0.246c10.417,3.762,16.935,11.334,19.375,22.504       c1.778,8.142,0.253,15.666-4.525,22.365c-6.428,9.006-14.059,9.772-17.316,10.098c-0.474,0.047-0.848,0.084-1.103,0.139       C394.351,403.509,393.871,403.88,393.634,404.397z M89.959,382.733c0.099,0.469,0.064,0.801-0.097,0.936       c-0.182,0.151-0.578,0.113-1.112-0.105c-22.187-9.072-38.919-40.298-38.507-61.108c0.09-4.515-0.66-4.905-3.145-6.199       c-2.133-1.109-5.702-2.967-11.389-8.947c-3.3-3.471-5.283-7.721-5.893-12.632c-0.253-2.049,0.376-4.169,1.685-5.674       c1.11-1.276,2.615-1.992,4.241-2.015c0.064-0.001,0.125-0.001,0.189-0.001c2.568,0,3.993,0.813,5.498,1.672       c0.694,0.396,1.411,0.805,2.265,1.154c0.665,0.276,1.356,0.247,1.941-0.07c0.594-0.323,1.015-0.925,1.153-1.653       c0.052-0.285,0.064-0.877,0.081-1.695c0.054-2.759,0.168-8.497,2.327-11.33c1.375-1.805,4.549-3.959,7.28-3.098       c2.433,0.765,4.107,1.907,5.269,3.594c1.938,2.818,3.183,5.349,3.915,7.966c0.45,1.608,1.025,2.457,1.813,2.667       c1.238,0.342,2.712-1.092,4.4-2.744c0.795-0.777,1.614-1.579,2.492-2.288c2.286-1.843,4.696-2.146,6.788-0.852       c3.16,1.954,4.599,6.817,3.498,11.824c-1.041,4.751-2.838,8.9-5.489,12.688c-2.715,3.877-2.719,4.103-0.135,8.057l0.095,0.148       c6.163,9.43,18.012,17.779,25.212,19.659c1.288,0.336,1.943,0.973,2.263,2.199c1.143,4.367,2.833,6.763,3.844,8.194       c0.509,0.723,0.878,1.246,0.798,1.52c-0.045,0.151-0.258,0.301-0.646,0.457c-12.369,4.949-20.805,17.262-20.992,30.638       l-0.012,0.709C89.552,378.478,89.514,380.625,89.959,382.733z M400.914,344.59c-0.062-0.279,0.296-0.8,0.79-1.522       c1.044-1.521,2.791-4.064,4.05-8.885c0.237-0.908,0.76-1.069,2.159-1.5c1.953-0.602,5.223-1.609,10.961-5.653       c6.533-4.601,12.171-10.458,15.465-16.069c0.966-1.644,0.854-3.137-0.339-4.567c-5.449-6.525-9.844-19.542-4.334-25.09       c1.12-1.126,2.365-1.687,3.766-1.687c0.755,0,1.557,0.163,2.41,0.489c2.085,0.796,3.674,2.45,4.949,3.779       c1.231,1.281,2.206,2.297,3.262,2.297c0.019,0,0.04,0,0.059-0.001c0.556-0.02,1.074-0.328,1.581-0.941       c0.573-0.692,0.703-1.301,0.868-2.07c0.293-1.37,0.739-3.44,4.118-8.006c1.297-1.75,3.176-2.885,5.437-3.282       c2.357-0.414,4.481,0.515,6.499,2.825c2.781,3.183,2.765,6.217,2.748,8.893l-0.003,0.378h-0.097v0.242       c0,0.341-0.007,0.683-0.014,1.025c-0.014,0.763-0.028,1.552,0.031,2.328c0.078,0.996,0.488,1.755,1.153,2.137       c0.674,0.388,1.557,0.358,2.483-0.091c0.21-0.102,0.476-0.264,0.812-0.47c1.33-0.813,3.531-2.16,6.282-2.16       c0.071,0,0.142,0.001,0.213,0.004c2.952,0.076,5.056,1.839,5.773,4.837c1.61,6.731-4,17.456-17.837,24.928       c-1.619,0.876-2.324,2.101-2.286,3.97c0.424,21.017-11.827,41.931-24.159,53.334c-4.059,3.754-9.051,7.827-15.297,9.574       c-0.069,0.013-0.111,0.007-0.166-0.026c-0.097-0.063-0.175-0.204-0.199-0.352c-0.036-0.245,0.045-0.794,0.144-1.488       c0.433-2.994,1.335-9.222-2.111-17.873c-4.859-12.198-13.785-16.505-17.595-18.344c-0.542-0.263-0.97-0.469-1.259-0.638       C400.952,344.752,400.924,344.63,400.914,344.59z"/>
				</g>
				<g>
					<path style="fill:#000E3F;" d="M255.737,395.907c-4.727,0-9.097-1.76-12.738-5.15c-5.123-4.774-8.173-12.343-7.962-19.757       c0.037-1.261,1.024-2.275,2.354-2.223c1.265,0.036,2.262,1.09,2.225,2.355c-0.172,6.042,2.381,12.429,6.507,16.272       c2.19,2.043,5.901,4.364,11.103,3.848c10.022-0.997,15.349-11.134,15.271-20.167c-0.01-1.264,1.007-2.299,2.272-2.309       c0.007,0,0.015,0,0.02,0c1.258,0,2.279,1.013,2.292,2.272c0.092,11.06-6.676,23.497-19.403,24.763       C257.027,395.874,256.379,395.907,255.737,395.907z"/>
				</g>
				<g>
					<path style="fill:#000E3F;" d="M197.289,367.716c-0.742-6.114,5.784-12.687,12.396-12.481       c6.724,0.21,12.487,5.175,12.54,12.649c0.043,6.089-5.315,12.584-12.991,12.346       C202.974,380.036,196.793,374.466,197.289,367.716z"/>
				</g>
				<g>
					<path style="fill:#000E3F;" d="M302.58,380.153c-6.891,0.518-12.699-5.837-12.732-11.996       c-0.039-7.284,5.615-12.859,12.499-12.879c6.687-0.02,12.408,5.51,12.567,12.262       C315.078,374.505,308.423,380.709,302.58,380.153z"/>
				</g>
			</g>
		</g>
		<g>
			<g>
				<path style="fill:#6280FF;" d="M475.621,239.957c0.339,6.811-5.09,12.531-11.901,12.531h-58.677      c-6.277,0-11.416-4.847-11.876-11.076c-0.074-1.284-0.171-2.569-0.291-3.829c-0.073-1.115-0.194-2.206-0.291-3.272      c-0.194-2.035-0.436-4.023-0.678-5.938c-0.122-0.8-0.219-1.575-0.34-2.351c-0.557-4.12-1.236-7.974-1.987-11.61      c-0.363-1.794-0.728-3.539-1.115-5.211c-0.097-0.485-0.219-0.97-0.34-1.454c-0.17-0.776-0.363-1.527-0.557-2.278      c-0.751-3.078-1.527-5.866-2.303-8.386c-0.509-1.745-1.018-3.369-1.502-4.823c-2.231-6.714-3.951-10.471-4-10.471      c-0.048-0.097-0.169-0.364-0.315-0.703c-0.194-0.412-0.436-0.969-0.726-1.575c-2.788-5.938-3.442-7.514-3.563-7.877      c0-0.024-0.024-0.049-0.024-0.073c-0.025-0.024-0.049-0.097-0.122-0.218c-0.388-0.654-1.381-2.448-3.733-6.956      c-0.121-0.267-0.242-0.485-0.363-0.703c-0.34-0.654-0.629-1.188-0.824-1.527c-0.049-0.097-0.097-0.218-0.169-0.315      c0-0.024-0.025-0.049-0.025-0.073c-18.953-33.156-48.207-49.54-43.36-46.171c-5.622-3.369-10.736-5.889-13.911-7.368      c-1.115-0.509-2.037-0.921-2.74-1.236c-0.944-0.388-1.478-0.606-1.478-0.606c-0.024,0-0.072-0.024-0.194-0.073      c-0.146-0.049-0.339-0.121-0.606-0.194c-0.509-0.194-1.26-0.461-2.084-0.752c-0.169-0.073-0.34-0.121-0.509-0.17      c-0.582-0.218-1.188-0.436-1.794-0.63c-0.315-0.121-0.629-0.242-0.944-0.339c-0.631-0.218-1.212-0.436-1.745-0.606      c-0.146-0.048-0.266-0.097-0.412-0.146c-0.994-0.363-1.746-0.63-1.89-0.654c-0.146-0.049-0.316-0.097-0.461-0.145      c-0.993-0.266-1.987-0.533-2.98-0.775c-1.794-0.461-3.588-0.873-5.357-1.285c-0.969-0.218-1.938-0.412-2.908-0.606      c-0.873-0.194-1.72-0.364-2.569-0.509c-2.206-0.437-4.411-0.8-6.593-1.139c-0.897-0.146-1.793-0.267-2.69-0.388      c-0.34-0.048-0.654-0.097-0.994-0.145c-1.478-0.194-2.981-0.363-4.459-0.533c-1.89-0.194-3.781-0.364-5.671-0.485      c-0.631-0.049-1.26-0.097-1.891-0.121c-22.903-1.357-44.499,2.254-63.67,10.882c-31.58,14.251-56.617,42.196-70.093,84.126      c-0.388,1.212-0.775,2.424-1.138,3.66c-0.365,1.212-0.703,2.448-1.043,3.684c-1.309,4.605-2.399,9.283-3.344,14.009      c-0.074,0.339-0.122,0.679-0.194,1.018c-0.243,1.26-0.485,2.52-0.703,3.781c-0.243,1.26-0.436,2.545-0.631,3.829      c-0.606,3.829-1.09,7.683-1.453,11.537c-0.122,1.26-0.243,2.545-0.34,3.854c-0.097,1.236-0.194,2.472-0.266,3.708      c0,0.169-0.025,0.363-0.025,0.558c-0.363,6.277-5.599,11.149-11.876,11.149H48.229c-6.737,0-12.216-5.599-11.9-12.361      c1.841-41.251,12.53-80.903,30.199-114.519c84.877-160.279,325.088-146.827,391.425,30.005      c0.363,1.406,6.302,14.906,11.246,37.107C472.131,205.71,474.699,221.682,475.621,239.957z"/>
				<path style="fill:#FFCF00;" d="M421.035,252.476c-0.468-60.773-24.692-120.23-72.469-154.953      c-20.373-14.807-43.898-21.549-42.232-20.962C181.846,42.778,91.111,126.676,90.965,252.476H63.496      c0.087-58.336,19.488-118.958,63.336-162.262c4.715-4.88,10.21-8.855,15.461-13.111      c63.735-45.449,146.505-45.266,205.289-12.681c66.461,36.84,100.397,113.243,100.922,188.054      C448.504,252.476,421.035,252.476,421.035,252.476z"/>
				<path style="fill:#FC09B2;" d="M421.04,252.487h-15.997c-6.277,0-11.416-4.847-11.876-11.076      c-1.702-29.797-12.537-59.623-13.404-59.623c-0.657-1.315-4.504-10.155-4.604-10.155c0-0.024,0-0.024,0-0.049      c-6.921-12.932-4.818-9.184-5.235-9.743c0-0.024-0.025-0.049-0.025-0.073c-18.953-33.156-48.207-49.54-43.36-46.171      c-13.822-8.281-28.06-12.731-28.308-12.773c-0.025-0.024-0.025-0.024-0.025-0.024c-7.708-2.554-26.307-5.718-36.549-6.108      c-90.515-5.391-138.338,66.42-142.875,144.088c0,6.256-5.238,11.706-11.901,11.706H90.959      c0.096-69.293,31.823-143.7,97.237-170.215c35.968-15.996,77.606-17.039,115.295-6.714      C366.289,92.767,420.312,158.521,421.04,252.487z"/>
				<g style="opacity:0.25;">
					<path style="fill:#000E3F;" d="M475.621,239.957c0.339,6.811-5.09,12.531-11.901,12.531h-58.677       c-6.277,0-11.416-4.847-11.876-11.076c-0.074-1.284-0.171-2.569-0.291-3.829c-0.073-1.115-0.194-2.206-0.291-3.272       c-0.194-2.035-0.436-4.023-0.678-5.938c-0.122-0.8-0.219-1.575-0.34-2.351c-0.557-4.12-1.236-7.974-1.987-11.61       c-0.363-1.794-0.728-3.539-1.115-5.211c-0.097-0.485-0.219-0.97-0.34-1.454c-0.17-0.776-0.363-1.527-0.557-2.278       c-0.751-3.078-1.527-5.866-2.303-8.386c-0.509-1.745-1.018-3.369-1.502-4.823c-2.231-6.714-3.951-10.471-4-10.471       c-0.048-0.097-0.169-0.364-0.315-0.703c-0.194-0.412-0.436-0.969-0.726-1.575c-2.788-5.938-3.442-7.514-3.563-7.877       c0-0.024-0.024-0.049-0.024-0.073c-0.025-0.024-0.049-0.097-0.122-0.218c-0.388-0.654-1.381-2.448-3.733-6.956       c-0.121-0.267-0.242-0.485-0.363-0.703c-0.34-0.654-0.629-1.188-0.824-1.527c-0.049-0.097-0.097-0.218-0.169-0.315       c0-0.024-0.025-0.049-0.025-0.073c-18.953-33.156-48.207-49.54-43.36-46.171c-5.622-3.369-10.736-5.889-13.911-7.368       c-1.115-0.509-2.037-0.921-2.74-1.236c-0.944-0.388-1.478-0.606-1.478-0.606c-0.024,0-0.072-0.024-0.194-0.073       c-0.146-0.049-0.339-0.121-0.606-0.194c-0.509-0.194-1.26-0.461-2.084-0.752c-0.169-0.073-0.34-0.121-0.509-0.17       c-0.582-0.218-1.188-0.436-1.794-0.63c-0.315-0.121-0.629-0.242-0.944-0.339c-0.631-0.218-1.212-0.436-1.745-0.606       c-0.146-0.048-0.266-0.097-0.412-0.146c-0.994-0.363-1.746-0.63-1.89-0.654c-0.146-0.049-0.316-0.097-0.461-0.145       c-0.993-0.266-1.987-0.533-2.98-0.775c-1.794-0.461-3.588-0.873-5.357-1.285c-0.969-0.218-1.938-0.412-2.908-0.606       c-0.873-0.194-1.72-0.364-2.569-0.509c-2.206-0.437-4.411-0.8-6.593-1.139c-0.897-0.146-1.793-0.267-2.69-0.388       c-0.34-0.048-0.654-0.097-0.994-0.145c-1.478-0.194-2.981-0.363-4.459-0.533c-1.89-0.194-3.781-0.364-5.671-0.485       c-0.631-0.049-1.26-0.097-1.891-0.121c-22.903-1.357-44.499,2.254-63.67,10.882c13.695-15.609,36.211-23.607,56.787-24.988       c56.133-3.757,106.157,27.703,141.034,69.632c9.017,10.834,16.942,23.461,29.061,30.805c14.202,8.58,32.646-0.388,44.329,9.695       C472.131,205.71,474.699,221.682,475.621,239.957z"/>
				</g>
				<path style="opacity:0.5;fill:#FFFFFF;" d="M89.516,120.768c-5.49,8.514-11.693,22.66-11.579,22.414      c-1.122,2.412-4.775,0.962-3.954-1.557c17.096-52.529,57.928-86.75,109.215-103.916c16.458-5.446,33.401-9.071,50.778-10.026      c2.518-0.138,2.899,3.571,0.431,3.97C234.165,31.734,131.656,45.534,89.516,120.768z"/>
			</g>
			<g>
				<path style="fill:#000E3F;" d="M463.721,254.778h-58.677c-7.395,0-13.614-5.799-14.16-13.201      c-2.838-49.659-28.609-98.356-65.652-124.098c-41.236-24.701-89.814-26.871-129.829-5.719      c-43.796,23.156-70.891,70.23-74.334,129.156c0.005,7.583-6.363,13.862-14.188,13.862H48.229c-3.875,0-7.633-1.609-10.31-4.414      c-2.682-2.81-4.059-6.484-3.877-10.345c2.816-63.039,23.466-117.684,59.721-158.017c32.337-35.974,77.07-60.052,125.959-67.798      c48.319-7.658,98.24,0.787,140.54,23.774c46.023,25.01,80.545,65.409,99.836,116.831c0.142,0.466,0.365,1.035,0.698,1.909      c12.284,32.152,16.087,62.949,17.113,83.123c0,0.001,0,0.002,0,0.004c0.197,3.931-1.191,7.668-3.905,10.52      C471.295,253.211,467.643,254.778,463.721,254.778z M254.074,92.72c25.017,0,50.435,7.008,73.643,20.912      c38.285,26.599,64.824,76.67,67.737,127.645c0.368,4.985,4.581,8.919,9.589,8.919h58.677c2.655,0,5.128-1.063,6.962-2.99      c1.842-1.935,2.784-4.469,2.652-7.136c-1.012-19.844-4.75-50.128-16.82-81.718c-0.437-1.146-0.706-1.877-0.78-2.161      c-18.826-50.148-52.62-89.712-97.661-114.188c-41.42-22.51-90.309-30.77-137.637-23.275      C172.582,26.31,128.806,49.869,97.17,85.065c-35.539,39.536-55.784,93.191-58.55,155.164c-0.124,2.604,0.805,5.078,2.612,6.972      c1.844,1.933,4.327,2.996,6.997,2.996h58.652c5.21,0,9.609-4.312,9.609-9.415c3.544-60.697,31.524-109.151,76.772-133.072      C212.207,97.694,232.999,92.72,254.074,92.72z"/>
			</g>
		</g>
	</g>
	<g>
		<g>
			<g>
				<path style="fill:#000E3F;" d="M166.553,210.496c-0.005,0.39,4.069,8.471,6.552,12.123c1.089,1.551,2.675,2.994,4.576,2.539      c1.298-0.557,2.264-1.706,2.173-3.153c-0.1-1.664-1.303-2.928-1.785-4.485c1.718-0.686,3.93-2.475,5.794-2.91      c5.157,4.765,4.728,13.313-1.365,16.886c-3.701,2.789-9.612,4.209-12.716-0.257c-2.476-3.935-4.946-8.258-9.922-17.448      c-0.666-0.898-0.98-2.053-1.116-3.088c-0.318-1.76-0.244-3.408,0.271-4.969c0.37-0.819,0.924-1.514,1.613-2.172      c6.303-6.853,18.289-4.244,19.952,5.074c-1.807,1.622-3.892,2.452-6.254,3.277c-1.593-2.049-2.876-5.931-6.095-3.962      c-0.646,0.527-1.526,1.131-1.735,1.854C166.441,210.002,166.523,210.345,166.553,210.496z"/>
				<path style="fill:#000E3F;" d="M215.989,218.211c-2.177,0.644-4.834,1.73-7.673,2.364l-0.047,0.014      c-2.038-2.472-6.281-7.274-9.883-9.74l-0.129-0.112c0.445,2.893,2.732,8.926,3.564,11.25c-1.824,1.498-7.357,2.575-7.917,2.893      c0.368-0.11-8.513-29.359-9.895-32.332c3.328-1.536,7.36-3.43,12.013-4.248c7.437-1.792,14.538,4.838,12.587,12.42      c-0.5,2.57-1.926,4.755-4.84,5.816l-0.186,0.055l-0.047,0.012l0.018,0.048c3.952,3.826,9.03,7.018,12.388,11.573      L215.989,218.211z M194.613,202.683l0.047-0.014c1.484-0.286,3.271-0.713,4.688-1.382c2.215-1.209,1.305-4.974-0.808-5.814      c-1.715-0.855-3.917,0.047-5.839,1.571C193.305,198.581,193.971,201.359,194.613,202.683z"/>
				<path style="fill:#000E3F;" d="M236.07,208.85c0.455,2.035,0.803,4.33,0.564,6.323c-6.512,0.935-13.372,2.463-19.619,2.871      c-1.68-11.094-3.865-21.671-4.901-32.715c7.35-1.505,19.708-3.569,19.753-3.284c0.676,2.2,0.686,4.544,1.027,6.791l0.008,0.05      c-3.927,1.521-8.294,1.449-12.443,2.468l-0.147,0.021l-0.037,0.056c0.331,1.857,0.204,3.931,0.895,5.587l0.055,0.041      c1.936-0.144,3.935-0.497,5.906-0.746l0.005,0.047c0.664,2.101,0.698,4.295,1.101,6.631c-1.879,0.824-5.115,0.776-5.704,1.402      c-0.055,1.916,0.527,4.469,0.905,5.978l0.055,0.041c4.206-0.638,8.237-0.855,12.565-1.658L236.07,208.85z"/>
				<path style="fill:#000E3F;" d="M259.332,214.311l0.003,0.05c-1.919,0.457-4.387,0.405-6.485,0.047h-0.047      c-0.848-2.047-1.623-5.939-2.563-7.79c-1.653-0.181-1.549,0.009-2.998,0.062c-0.798,2.063-0.795,5.983-1.827,8.15      c-0.047,0.003-0.097,0.052-0.144,0.052c-0.527,0.167-2.369-0.007-6.766,0.206c-0.047,0-0.047,0-0.102-0.047      c0.34-1.317,2.073-18.368,6.137-34.005c0.915-0.179,1.698,0.082,5.936-0.464c0.676,2.492,3.709,13.752,4.598,16.96      L259.332,214.311z M246.686,200.988c1.118,0.01,2.371-0.087,3.579-0.13C247.71,184.258,247.673,191.034,246.686,200.988z"/>
				<path style="fill:#000E3F;" d="M277.586,189.209c-1.195-0.3-2.844-0.28-5.893-0.277l-0.1-0.005l-0.045-0.001      c-0.003,0.048-0.055,0.094-0.057,0.142c-0.234,0.91-0.353,4.438-0.957,25.572v0.048l-0.003,0.049      c-2.386,0.276-5.603-0.311-7.939-0.032c-0.117-0.587,0.795-7.712,0.868-25.771l-0.045-0.05      c-1.462-0.843-5.009-0.574-5.772-0.851c-0.224-0.496-0.224-4.562,0.162-7.595c0.003-0.05-0.045-0.05-0.042-0.1      c6.572,0.26,13.78,0.356,20.367,1.389C278.175,183.86,278.034,186.905,277.586,189.209z"/>
				<path style="fill:#000E3F;" d="M291.769,183.164l-0.025,0.193c-1.417,10.98-3.567,22.302-4.347,33.268      c-1.191,0.917-7.392-0.91-8.784-0.698c2.409-11.436,2.247-23.401,4.787-33.99l0.012-0.097c0.34-0.005,1.518,0.293,1.953,0.351      c1.144,0.196,2.371,0.502,5.257,0.828L291.769,183.164z"/>
				<path style="fill:#000E3F;" d="M301.49,219.614c-0.52-0.117-1.69-0.18-3.013-0.476c-1.37-0.306-2.913-0.7-3.833-1.253      c-0.554-10.825,0.065-22.03,1.603-33.13l0.012-0.047c0.897-0.691,5.866,0.569,6.805,1.024      c-0.075,2.56-2.667,11.939-2.441,22.691c4.68-9.655,6.532-16.176,9.082-21.156c0.01-0.046,0.07-0.082,0.114-0.073      c2.018,0.947,4.613,1.08,6.704,1.944C311.902,199.845,306.956,209.341,301.49,219.614z"/>
				<path style="fill:#000E3F;" d="M331.961,223.132c-0.622,1.99-1.461,4.152-2.662,5.76c-6.11-2.435-12.816-4.533-18.436-7.294      c4.076-10.451,7.457-20.706,12.063-30.794c7.121,2.361,18.861,6.734,18.756,7.005c-0.51,2.24-1.673,4.278-2.498,6.395      l-0.015,0.045c-4.161-0.636-7.909-2.877-12.013-4.063l-0.134-0.052l-0.062,0.028c-0.639,1.775-1.784,3.507-2.011,5.287      l0.027,0.062c1.75,0.839,3.657,1.531,5.486,2.297l-0.017,0.045c-0.472,2.15-1.536,4.073-2.352,6.296      c-2.036-0.224-4.819-1.879-5.642-1.631c-1.002,1.636-1.772,4.137-2.197,5.632l0.03,0.065c3.965,1.543,7.561,3.36,11.714,4.827      L331.961,223.132z"/>
				<path style="fill:#000E3F;" d="M331.404,230.53c-0.378-0.216,2.048-3.284,2.938-4.836l0.02-0.044      c1.658,0.224,3.532,1.909,5.17,2.847c-0.932,1.527-2.073,3.326-3.008,4.963l-0.293-0.168c-0.673-0.384-0.942-0.595-1.576-0.956      l-0.084-0.048L331.404,230.53z M348.239,201.118c1.543,0.716,3.925,1.521,5.21,2.871c-4.231,7.104-8.889,14.854-12.662,22.219      c-1.568-0.672-3.872-1.993-5.535-2.888l-0.04-0.024c4.355-7.313,8.073-14.876,12.905-22.247L348.239,201.118z"/>
			</g>
		</g>
		<g>
			<g>
				<path style="fill:#000E3F;" d="M252.79,154.105c-0.947,9.223-11.7,7.896-18.709,8.164c-0.385,0.025-0.721,0.096-1.069-0.028      c-1.121-11.123-1.402-22.012-2.329-33.195l0.042-0.053c7.583-2.631,19.035-3.145,19.753,7.669      c0.176,2.702-0.713,5.426-1.871,7.684c-0.212,0.45-0.055,0.634,0.308,0.998C251.107,147.72,253.287,149.903,252.79,154.105z       M244.193,136.977c-0.597-0.979-1.452-1.457-2.48-1.631c-1.32-0.156-2.921-0.194-3.85,0.399      c0.241,1.488-0.142,3.742,0.586,5.972c1.946,0.114,4.613,0.181,5.503-1.814C244.334,139.1,244.791,137.957,244.193,136.977z       M244.814,150.074c-0.435-0.747-1.347-1.366-2.185-1.505c-1.228-0.26-2.57-0.073-3.79-0.138      c-0.355,1.915-0.574,5.272,0.591,6.746l0.099,0.042c1.787-0.116,4.176,0.066,5.376-1.565      C245.564,152.641,245.321,151.154,244.814,150.074z"/>
				<path style="fill:#000E3F;" d="M276.294,155.499c0.055,2.084-0.047,4.406-0.659,6.314c-6.574-0.334-13.606-0.156-19.813-0.958      c0.487-11.214,0.378-22.016,1.486-33.057c7.509-0.061,20.031,0.289,20.021,0.579c0.241,2.288-0.199,4.593-0.298,6.864      l-0.003,0.048c-4.151,0.738-8.416-0.171-12.686,0.03l-0.147-0.007l-0.055,0.046c-0.027,1.888-0.554,3.898-0.194,5.657      l0.045,0.051c1.931,0.229,3.962,0.268,5.941,0.404v0.049c0.241,2.19-0.142,4.352-0.199,6.721      c-2.003,0.446-5.17-0.224-5.868,0.279c-0.42,1.87-0.343,4.489-0.266,6.04l0.047,0.052c4.251,0.184,8.247,0.746,12.649,0.791      L276.294,155.499z"/>
			</g>
		</g>
	</g>
</g>















</svg>
