<?xml version="1.0" encoding="UTF-8"?>
<!-- Generator: Adobe Illustrator 25.2.1, SVG Export Plug-In . SVG Version: 6.00 Build 0)  -->
<svg xmlns="http://www.w3.org/2000/svg" xmlns:xlink="http://www.w3.org/1999/xlink" version="1.1" id="Capa_1" x="0px" y="0px" viewBox="0 0 512 512" style="enable-background:new 0 0 512 512;" xml:space="preserve" width="512" height="512">
<g>
	<g>
		<g>
			<g style="opacity:0.35;">
				<g>
					<path style="fill:#000E3F;" d="M150.652,278.373c-0.99,0.003-1.965,0.006-2.925,0.009c-0.005,5.435-0.012,11.002-0.019,16.701       c0.973,0.003,1.961,0.006,2.963,0.009C150.663,289.387,150.657,283.813,150.652,278.373z"/>
					<path style="fill:#000E3F;" d="M150.636,258.454c-0.979,0.003-1.943,0.006-2.893,0.008c-0.003,5.422-0.008,10.991-0.013,16.701       c0.958,0.003,1.931,0.006,2.919,0.009C150.644,269.457,150.64,263.882,150.636,258.454z"/>
					<path style="fill:#000E3F;" d="M150.793,119.024c-1.083,0.003-2.151,0.006-3.199,0.009c0.015,5.16,0.03,10.713,0.045,16.701       c1.019,0.003,2.056,0.006,3.108,0.009C150.762,129.749,150.777,124.189,150.793,119.024z"/>
					<path style="fill:#000E3F;" d="M150.662,178.78c-0.996,0.003-1.977,0.006-2.943,0.009c0.007,5.377,0.013,10.986,0.018,16.829       c0.972,0.001,1.942,0.003,2.906,0.004C150.649,189.774,150.655,184.161,150.662,178.78z"/>
					<path style="fill:#000E3F;" d="M150.629,238.536c-0.973,0.003-1.933,0.006-2.878,0.008c-0.001,5.409-0.003,10.974-0.006,16.701       c0.949,0.003,1.913,0.006,2.89,0.009C150.632,249.521,150.63,243.95,150.629,238.536z"/>
					<path style="fill:#000E3F;" d="M150.641,198.585c-0.963,0.001-1.932,0.003-2.902,0.004c0.004,5.406,0.007,11.007,0.009,16.82       c0.946,0.003,1.908,0.006,2.883,0.009C150.634,209.601,150.637,203.995,150.641,198.585z"/>
					<path style="fill:#000E3F;" d="M150.63,218.617c-0.974,0.003-1.934,0.006-2.88,0.008c0.001,5.391,0.002,10.956,0.001,16.702       c0.945,0.003,1.904,0.006,2.877,0.009C150.628,229.584,150.629,224.014,150.63,218.617z"/>
					<path style="fill:#000E3F;" d="M147.678,315.001c0.991,0.003,1.999,0.006,3.021,0.009c-0.009-5.696-0.017-11.267-0.025-16.719       c-1.005,0.003-1.997,0.006-2.972,0.009C147.696,303.746,147.688,309.311,147.678,315.001z"/>
					<path style="fill:#000E3F;" d="M150.853,99.602h-3.319c0.015,4.883,0.032,10.271,0.05,16.214       c1.054,0.003,2.128,0.006,3.218,0.01C150.821,109.878,150.838,104.488,150.853,99.602z"/>
					<path style="fill:#000E3F;" d="M150.694,158.862c-1.017,0.003-2.019,0.006-3.006,0.009c0.01,5.3,0.019,10.861,0.027,16.701       c0.968,0.003,1.953,0.006,2.951,0.009C150.675,169.733,150.685,164.168,150.694,158.862z"/>
					<path style="fill:#000E3F;" d="M150.738,138.943c-1.047,0.003-2.077,0.006-3.091,0.009c0.012,5.245,0.025,10.803,0.036,16.701       c0.99,0.003,1.997,0.006,3.018,0.009C150.712,149.758,150.725,144.192,150.738,138.943z"/>
					<path style="fill:#000E3F;" d="M167.565,138.898c0.013,5.277,0.025,10.872,0.036,16.811c0.995,0.003,1.999,0.005,3.018,0.008       c0.012-5.944,0.025-11.546,0.038-16.827C169.614,138.893,168.584,138.895,167.565,138.898z"/>
					<path style="fill:#000E3F;" d="M170.772,99.602h-3.319c0.015,4.899,0.032,10.305,0.05,16.27       c1.059,0.003,2.132,0.006,3.218,0.008C170.739,109.911,170.756,104.503,170.772,99.602z"/>
					<path style="fill:#000E3F;" d="M167.597,315.051h3.021c-0.009-5.729-0.017-11.331-0.025-16.813       c-1.003,0.002-1.992,0.005-2.972,0.007C167.615,303.725,167.606,309.325,167.597,315.051z"/>
					<path style="fill:#000E3F;" d="M167.512,118.979c0.015,5.191,0.031,10.782,0.046,16.811c1.023,0.003,2.058,0.005,3.107,0.008       c0.016-6.036,0.032-11.631,0.047-16.827C169.631,118.974,168.565,118.976,167.512,118.979z"/>
					<path style="fill:#000E3F;" d="M167.661,258.408c-0.003,5.457-0.007,11.063-0.013,16.812c0.963,0.003,1.934,0.005,2.919,0.008       c-0.005-5.754-0.009-11.365-0.012-16.827C169.578,258.404,168.616,258.406,167.661,258.408z"/>
					<path style="fill:#000E3F;" d="M167.669,238.49c-0.001,5.443-0.003,11.046-0.006,16.812c0.953,0.003,1.915,0.005,2.89,0.007       c-0.003-5.771-0.005-11.379-0.006-16.826C169.576,238.485,168.619,238.488,167.669,238.49z"/>
					<path style="fill:#000E3F;" d="M170.549,218.564c-0.972,0.002-1.93,0.005-2.88,0.007c0.001,5.426,0.002,11.027,0.001,16.812       c0.949,0.002,1.906,0.005,2.877,0.007C170.546,229.601,170.547,223.994,170.549,218.564z"/>
					<path style="fill:#000E3F;" d="M167.658,198.566c0.004,5.431,0.007,11.058,0.009,16.899c0.951,0.003,1.91,0.005,2.883,0.007       c0.002-5.844,0.006-11.475,0.01-16.909C169.595,198.564,168.632,198.565,167.658,198.566z"/>
					<path style="fill:#000E3F;" d="M167.638,178.734c0.007,5.401,0.013,11.036,0.018,16.907c0.975,0.001,1.94,0.002,2.907,0.003       c0.005-5.875,0.011-11.513,0.018-16.917C169.588,178.73,168.609,178.732,167.638,178.734z"/>
					<path style="fill:#000E3F;" d="M167.607,158.816c0.01,5.334,0.019,10.931,0.027,16.812c0.973,0.002,1.955,0.005,2.951,0.007       c0.008-5.887,0.018-11.488,0.028-16.827C169.599,158.811,168.598,158.813,167.607,158.816z"/>
					<path style="fill:#000E3F;" d="M167.645,278.327c-0.005,5.47-0.012,11.074-0.019,16.812c0.977,0.003,1.963,0.005,2.963,0.007       c-0.008-5.742-0.014-11.352-0.019-16.826C169.583,278.322,168.61,278.325,167.645,278.327z"/>
					<path style="fill:#000E3F;" d="M187.483,138.854c0.013,5.303,0.025,10.928,0.036,16.901c0.994,0.002,2.005,0.004,3.018,0.006       c0.012-5.976,0.025-11.606,0.038-16.912C189.537,138.85,188.502,138.852,187.483,138.854z"/>
					<path style="fill:#000E3F;" d="M187.43,118.935c0.015,5.216,0.031,10.837,0.046,16.901c1.024,0.002,2.063,0.004,3.107,0.006       c0.016-6.069,0.032-11.693,0.047-16.913C189.554,118.931,188.485,118.933,187.43,118.935z"/>
					<path style="fill:#000E3F;" d="M187.526,158.772c0.01,5.361,0.019,10.988,0.027,16.901c0.972,0.002,1.96,0.004,2.951,0.006       c0.009-5.918,0.018-11.548,0.028-16.912C189.523,158.768,188.516,158.77,187.526,158.772z"/>
					<path style="fill:#000E3F;" d="M187.58,258.365c-0.003,5.485-0.008,11.121-0.013,16.901c0.962,0.002,1.939,0.004,2.919,0.006       c-0.005-5.785-0.01-11.424-0.012-16.913C189.502,258.361,188.533,258.363,187.58,258.365z"/>
					<path style="fill:#000E3F;" d="M187.577,198.551c0.004,5.449,0.007,11.097,0.009,16.96c0.95,0.002,1.915,0.004,2.883,0.005       c0.002-5.865,0.006-11.515,0.01-16.967C189.515,198.55,188.549,198.55,187.577,198.551z"/>
					<path style="fill:#000E3F;" d="M187.515,315.051h3.022c-0.009-5.743-0.017-11.36-0.025-16.855       c-0.998,0.002-1.992,0.004-2.971,0.006C187.533,303.695,187.525,309.31,187.515,315.051z"/>
					<path style="fill:#000E3F;" d="M187.556,178.69c0.007,5.419,0.013,11.074,0.018,16.967c0.974,0.001,1.941,0.001,2.906,0.002       c0.005-5.896,0.011-11.552,0.019-16.974C189.512,178.687,188.526,178.689,187.556,178.69z"/>
					<path style="fill:#000E3F;" d="M190.467,218.522c-0.967,0.002-1.931,0.004-2.88,0.006c0.001,5.454,0.002,11.084,0.001,16.901       c0.948,0.002,1.912,0.004,2.877,0.006C190.465,229.614,190.466,223.979,190.467,218.522z"/>
					<path style="fill:#000E3F;" d="M187.588,238.446c-0.001,5.471-0.003,11.104-0.006,16.901c0.952,0.002,1.92,0.004,2.89,0.006       c-0.003-5.801-0.005-11.437-0.006-16.912C189.5,238.442,188.536,238.444,187.588,238.446z"/>
					<path style="fill:#000E3F;" d="M190.69,99.602h-3.319c0.015,4.911,0.032,10.332,0.05,16.316       c1.061,0.002,2.136,0.004,3.218,0.006C190.657,109.937,190.675,104.515,190.69,99.602z"/>
					<path style="fill:#000E3F;" d="M187.564,278.283c-0.006,5.498-0.012,11.132-0.02,16.901c0.977,0.002,1.968,0.004,2.963,0.006       c-0.007-5.772-0.014-11.41-0.019-16.912C189.507,278.279,188.527,278.281,187.564,278.283z"/>
					<path style="fill:#000E3F;" d="M210.609,99.602h-3.319c0.015,4.921,0.033,10.353,0.05,16.35       c1.062,0.002,2.137,0.003,3.217,0.005C210.576,109.957,210.593,104.523,210.609,99.602z"/>
					<path style="fill:#000E3F;" d="M207.475,178.658c0.007,5.432,0.013,11.099,0.018,17.007c0.974,0,1.943,0,2.907,0       c0.005-5.91,0.011-11.579,0.019-17.011C209.43,178.655,208.447,178.657,207.475,178.658z"/>
					<path style="fill:#000E3F;" d="M210.386,218.491c-0.967,0.001-1.929,0.003-2.88,0.004c0.001,5.475,0.001,11.127,0.001,16.968       c0.95,0.001,1.912,0.002,2.877,0.004C210.383,229.623,210.384,223.968,210.386,218.491z"/>
					<path style="fill:#000E3F;" d="M207.434,315.051h3.021c-0.01-5.754-0.018-11.381-0.025-16.886       c-0.997,0.001-1.99,0.003-2.971,0.004C207.452,303.673,207.443,309.298,207.434,315.051z"/>
					<path style="fill:#000E3F;" d="M207.499,258.332c-0.004,5.506-0.008,11.163-0.014,16.967c0.964,0.001,1.94,0.003,2.919,0.004       c-0.005-5.807-0.009-11.467-0.012-16.975C209.421,258.329,208.455,258.331,207.499,258.332z"/>
					<path style="fill:#000E3F;" d="M207.402,138.821c0.013,5.323,0.025,10.97,0.036,16.968c0.997,0.001,2.005,0.003,3.018,0.004       c0.012-6,0.025-11.651,0.038-16.975C209.456,138.818,208.423,138.82,207.402,138.821z"/>
					<path style="fill:#000E3F;" d="M207.482,278.251c-0.005,5.519-0.012,11.176-0.019,16.967c0.978,0.001,1.969,0.003,2.963,0.004       c-0.007-5.794-0.014-11.454-0.019-16.975C209.426,278.248,208.449,278.249,207.482,278.251z"/>
					<path style="fill:#000E3F;" d="M207.506,238.413c-0.001,5.492-0.003,11.147-0.007,16.967c0.955,0.001,1.921,0.003,2.89,0.004       c-0.003-5.823-0.005-11.481-0.006-16.975C209.418,238.411,208.457,238.412,207.506,238.413z"/>
					<path style="fill:#000E3F;" d="M207.444,158.739c0.01,5.381,0.02,11.03,0.027,16.968c0.974,0.001,1.961,0.003,2.951,0.004       c0.008-5.941,0.018-11.592,0.028-16.976C209.441,158.737,208.437,158.738,207.444,158.739z"/>
					<path style="fill:#000E3F;" d="M207.496,198.543c0.004,5.462,0.007,11.124,0.009,17.001c0.952,0.001,1.916,0.003,2.883,0.004       c0.002-5.878,0.006-11.542,0.01-17.005C209.435,198.543,208.468,198.543,207.496,198.543z"/>
					<path style="fill:#000E3F;" d="M207.349,118.903c0.015,5.235,0.031,10.878,0.046,16.967c1.026,0.001,2.064,0.003,3.107,0.004       c0.015-6.093,0.032-11.738,0.047-16.976C209.474,118.9,208.406,118.901,207.349,118.903z"/>
					<path style="fill:#000E3F;" d="M227.267,118.881c0.016,5.248,0.031,10.906,0.046,17.012c1.028,0.001,2.063,0.002,3.106,0.003       c0.016-6.109,0.032-11.768,0.048-17.017C229.393,118.879,228.326,118.88,227.267,118.881z"/>
					<path style="fill:#000E3F;" d="M227.417,258.31c-0.003,5.52-0.008,11.192-0.013,17.012c0.967,0.001,1.939,0.002,2.919,0.003       c-0.005-5.822-0.01-11.495-0.013-17.017C229.339,258.309,228.375,258.309,227.417,258.31z"/>
					<path style="fill:#000E3F;" d="M227.414,198.545c0.004,5.469,0.007,11.137,0.01,17.022c0.954,0.001,1.915,0.002,2.882,0.002       c0.002-5.885,0.006-11.554,0.01-17.023C229.356,198.545,228.385,198.545,227.414,198.545z"/>
					<path style="fill:#000E3F;" d="M227.425,238.392c-0.001,5.506-0.003,11.176-0.006,17.012c0.957,0.001,1.92,0.001,2.89,0.002       c-0.003-5.838-0.005-11.509-0.006-17.017C229.337,238.39,228.378,238.391,227.425,238.392z"/>
					<path style="fill:#000E3F;" d="M227.32,138.799c0.013,5.336,0.025,10.998,0.037,17.012c0.999,0.001,2.005,0.002,3.017,0.003       c0.012-6.015,0.025-11.68,0.038-17.017C229.375,138.798,228.343,138.799,227.32,138.799z"/>
					<path style="fill:#000E3F;" d="M230.304,218.471c-0.966,0.001-1.926,0.001-2.88,0.002c0.001,5.488,0.002,11.156,0.001,17.012       c0.953,0.001,1.912,0.002,2.877,0.003C230.302,229.63,230.302,223.961,230.304,218.471z"/>
					<path style="fill:#000E3F;" d="M230.528,99.602h-3.319c0.015,4.927,0.033,10.367,0.051,16.373       c1.064,0.001,2.137,0.002,3.217,0.002C230.494,109.969,230.512,104.529,230.528,99.602z"/>
					<path style="fill:#000E3F;" d="M227.352,315.051h3.021c-0.009-5.761-0.017-11.395-0.025-16.906       c-0.997,0.001-1.987,0.002-2.971,0.003C227.37,303.658,227.362,309.291,227.352,315.051z"/>
					<path style="fill:#000E3F;" d="M227.401,278.229c-0.006,5.533-0.012,11.205-0.02,17.012c0.981,0.001,1.969,0.002,2.963,0.003       c-0.007-5.809-0.014-11.482-0.019-17.017C229.344,278.227,228.369,278.228,227.401,278.229z"/>
					<path style="fill:#000E3F;" d="M227.362,158.718c0.01,5.394,0.019,11.058,0.027,17.012c0.977,0.001,1.961,0.001,2.951,0.002       c0.009-5.956,0.018-11.621,0.028-17.017C229.36,158.716,228.357,158.717,227.362,158.718z"/>
					<path style="fill:#000E3F;" d="M227.394,178.636c0.007,5.438,0.013,11.112,0.018,17.028c0.972,0,1.945,0,2.906-0.001       c0.005-5.916,0.011-11.591,0.019-17.03C229.349,178.635,228.368,178.635,227.394,178.636z"/>
					<path style="fill:#000E3F;" d="M247.185,118.869c0.016,5.255,0.031,10.92,0.046,17.036c1.027,0.001,2.067,0.001,3.107,0.001       c0.016-6.117,0.032-11.783,0.048-17.038C249.314,118.868,248.244,118.869,247.185,118.869z"/>
					<path style="fill:#000E3F;" d="M247.271,315.051h3.021c-0.01-5.764-0.018-11.402-0.025-16.916       c-0.994,0-1.989,0.001-2.971,0.001C247.289,303.65,247.28,309.287,247.271,315.051z"/>
					<path style="fill:#000E3F;" d="M247.312,178.625c0.007,5.438,0.013,11.113,0.018,17.029c0.975-0.001,1.944-0.001,2.907-0.002       c0.005-5.916,0.011-11.59,0.019-17.028C249.271,178.624,248.285,178.624,247.312,178.625z"/>
					<path style="fill:#000E3F;" d="M247.239,138.788c0.013,5.343,0.025,11.013,0.037,17.036c0.998,0,2.007,0.001,3.017,0.001       c0.012-6.023,0.025-11.695,0.038-17.038C249.296,138.787,248.261,138.787,247.239,138.788z"/>
					<path style="fill:#000E3F;" d="M247.319,278.217c-0.005,5.541-0.012,11.22-0.019,17.036c0.98,0.001,1.971,0.001,2.963,0.001       c-0.008-5.816-0.014-11.497-0.019-17.038C249.266,278.217,248.286,278.217,247.319,278.217z"/>
					<path style="fill:#000E3F;" d="M247.336,258.299c-0.004,5.528-0.008,11.208-0.013,17.036c0.966,0,1.942,0.001,2.919,0.001       c-0.005-5.829-0.009-11.509-0.012-17.038C249.261,258.298,248.291,258.298,247.336,258.299z"/>
					<path style="fill:#000E3F;" d="M250.446,99.602h-3.319c0.015,4.93,0.032,10.374,0.05,16.385c1.064,0,2.14,0.001,3.217,0.001       C250.413,109.976,250.43,104.532,250.446,99.602z"/>
					<path style="fill:#000E3F;" d="M250.223,218.461c-0.964,0-1.928,0.001-2.88,0.001c0.001,5.496,0.002,11.171,0.001,17.036       c0.951,0,1.915,0.001,2.877,0.001C250.221,229.633,250.221,223.957,250.223,218.461z"/>
					<path style="fill:#000E3F;" d="M247.332,198.556c0.004,5.469,0.007,11.138,0.009,17.023c0.953,0.001,1.918,0.001,2.882,0.001       c0.002-5.885,0.005-11.553,0.01-17.022C249.273,198.557,248.306,198.557,247.332,198.556z"/>
					<path style="fill:#000E3F;" d="M247.281,158.706c0.01,5.401,0.019,11.074,0.027,17.036c0.976,0.001,1.963,0.001,2.951,0.001       c0.008-5.964,0.018-11.636,0.028-17.038C249.281,158.706,248.275,158.706,247.281,158.706z"/>
					<path style="fill:#000E3F;" d="M247.343,238.38c-0.001,5.513-0.003,11.192-0.006,17.036c0.956,0.001,1.923,0.001,2.89,0.001       c-0.003-5.845-0.005-11.524-0.006-17.038C249.259,238.38,248.295,238.38,247.343,238.38z"/>
					<path style="fill:#000E3F;" d="M267.189,315.051h3.021c-0.009-5.764-0.018-11.402-0.025-16.917c-0.996,0-1.986,0-2.971,0       C267.207,303.649,267.199,309.286,267.189,315.051z"/>
					<path style="fill:#000E3F;" d="M270.365,99.602h-3.319c0.015,4.931,0.032,10.376,0.05,16.388c1.067,0,2.139,0,3.217,0       C270.331,109.977,270.349,104.532,270.365,99.602z"/>
					<path style="fill:#000E3F;" d="M267.254,258.297c-0.004,5.53-0.008,11.211-0.013,17.041c0.969,0,1.94,0,2.919,0       c-0.006-5.83-0.01-11.511-0.013-17.04C269.177,258.297,268.213,258.297,267.254,258.297z"/>
					<path style="fill:#000E3F;" d="M267.262,238.378c-0.001,5.515-0.003,11.195-0.006,17.041c0.958,0,1.921,0,2.89,0       c-0.003-5.846-0.005-11.526-0.006-17.04C269.176,238.378,268.216,238.378,267.262,238.378z"/>
					<path style="fill:#000E3F;" d="M267.251,198.577c0.004,5.464,0.007,11.126,0.009,17.005c0.956,0,1.916,0,2.882,0       c0.002-5.877,0.006-11.539,0.01-17C269.194,198.58,268.224,198.578,267.251,198.577z"/>
					<path style="fill:#000E3F;" d="M270.141,218.46c-0.965,0-1.925,0-2.88,0c0.001,5.497,0.002,11.174,0.001,17.041       c0.955,0,1.913,0,2.877,0C270.139,229.634,270.139,223.957,270.141,218.46z"/>
					<path style="fill:#000E3F;" d="M267.157,138.785c0.013,5.345,0.025,11.016,0.037,17.041c1.001,0,2.006,0,3.017,0       c0.012-6.024,0.025-11.697,0.038-17.041C269.213,138.786,268.182,138.785,267.157,138.785z"/>
					<path style="fill:#000E3F;" d="M267.104,118.867c0.016,5.256,0.031,10.924,0.046,17.041c1.03,0,2.065,0,3.106-0.001       c0.016-6.118,0.032-11.784,0.047-17.04C269.231,118.867,268.165,118.867,267.104,118.867z"/>
					<path style="fill:#000E3F;" d="M267.238,278.215c-0.006,5.543-0.012,11.223-0.02,17.041c0.983,0,1.97,0,2.963,0       c-0.008-5.817-0.014-11.498-0.019-17.04C269.182,278.215,268.208,278.215,267.238,278.215z"/>
					<path style="fill:#000E3F;" d="M267.199,158.704c0.01,5.403,0.019,11.076,0.027,17.041c0.979,0,1.962,0,2.951,0       c0.009-5.965,0.018-11.638,0.028-17.04C269.198,158.704,268.196,158.704,267.199,158.704z"/>
					<path style="fill:#000E3F;" d="M267.23,178.623c0.007,5.433,0.013,11.102,0.018,17.011c0.975-0.001,1.945-0.003,2.906-0.004       c0.005-5.908,0.011-11.576,0.019-17.007C269.187,178.623,268.207,178.623,267.23,178.623z"/>
					<path style="fill:#000E3F;" d="M290.06,218.468c-0.966-0.001-1.924-0.001-2.88-0.002c0.001,5.493,0.001,11.166,0.001,17.028       c0.955,0,1.913-0.001,2.877-0.001C290.058,229.632,290.058,223.96,290.06,218.468z"/>
					<path style="fill:#000E3F;" d="M287.023,118.874c0.016,5.252,0.031,10.916,0.046,17.028c1.031-0.001,2.065-0.001,3.107-0.002       c0.016-6.112,0.032-11.774,0.048-17.025C289.15,118.875,288.085,118.874,287.023,118.874z"/>
					<path style="fill:#000E3F;" d="M287.156,278.222c-0.005,5.538-0.012,11.215-0.02,17.028c0.984-0.001,1.97-0.001,2.963-0.002       c-0.007-5.812-0.013-11.488-0.019-17.025C289.101,278.223,288.128,278.222,287.156,278.222z"/>
					<path style="fill:#000E3F;" d="M287.173,258.303c-0.004,5.525-0.008,11.203-0.013,17.028c0.969-0.001,1.941-0.001,2.919-0.001       c-0.005-5.825-0.009-11.501-0.012-17.025C289.096,258.304,288.133,258.304,287.173,258.303z"/>
					<path style="fill:#000E3F;" d="M287.076,138.792c0.013,5.341,0.025,11.008,0.037,17.028c1.002,0,2.006-0.001,3.018-0.001       c0.012-6.018,0.025-11.686,0.038-17.025C289.131,138.793,288.103,138.793,287.076,138.792z"/>
					<path style="fill:#000E3F;" d="M287.108,315.051h3.021c-0.01-5.762-0.018-11.397-0.025-16.909       c-0.996,0-1.984-0.001-2.971-0.002C287.126,303.653,287.117,309.288,287.108,315.051z"/>
					<path style="fill:#000E3F;" d="M287.149,178.629c0.007,5.421,0.013,11.078,0.018,16.974c0.975-0.002,1.949-0.004,2.906-0.005       c0.005-5.894,0.011-11.548,0.019-16.967C289.105,178.63,288.126,178.63,287.149,178.629z"/>
					<path style="fill:#000E3F;" d="M287.18,238.385c-0.001,5.511-0.003,11.187-0.006,17.029c0.96-0.001,1.922-0.001,2.89-0.002       c-0.003-5.84-0.005-11.515-0.006-17.025C289.093,238.386,288.136,238.385,287.18,238.385z"/>
					<path style="fill:#000E3F;" d="M287.118,158.711c0.01,5.399,0.019,11.069,0.027,17.029c0.979-0.001,1.962-0.001,2.951-0.002       c0.009-5.959,0.018-11.626,0.028-17.025C289.116,158.712,288.116,158.711,287.118,158.711z"/>
					<path style="fill:#000E3F;" d="M290.283,99.602h-3.319c0.015,4.929,0.033,10.373,0.05,16.382       c1.067-0.001,2.138-0.001,3.217-0.002C290.25,109.973,290.267,104.53,290.283,99.602z"/>
					<path style="fill:#000E3F;" d="M287.169,198.609c0.004,5.452,0.007,11.102,0.009,16.967c0.957,0,1.916-0.001,2.882-0.002       c0.002-5.862,0.005-11.51,0.01-16.959C289.115,198.613,288.143,198.611,287.169,198.609z"/>
					<path style="fill:#000E3F;" d="M307.068,178.644c0.007,5.404,0.013,11.042,0.018,16.917c0.981-0.002,1.948-0.004,2.907-0.007       c0.005-5.872,0.011-11.506,0.019-16.907C309.023,178.646,308.046,178.645,307.068,178.644z"/>
					<path style="fill:#000E3F;" d="M307.026,315.051h3.021c-0.009-5.756-0.018-11.386-0.025-16.893       c-0.997-0.001-1.983-0.002-2.971-0.003C307.044,303.663,307.036,309.293,307.026,315.051z"/>
					<path style="fill:#000E3F;" d="M307.088,198.653c0.004,5.434,0.007,11.064,0.009,16.909c0.959-0.001,1.915-0.002,2.882-0.003       c0.002-5.84,0.006-11.468,0.01-16.899C309.032,198.658,308.067,198.655,307.088,198.653z"/>
					<path style="fill:#000E3F;" d="M307.036,158.725c0.01,5.39,0.019,11.05,0.027,16.999c0.982-0.001,1.961-0.002,2.951-0.003       c0.008-5.948,0.018-11.605,0.028-16.994C309.034,158.727,308.036,158.726,307.036,158.725z"/>
					<path style="fill:#000E3F;" d="M306.995,138.807c0.013,5.333,0.025,10.99,0.036,16.999c1.004-0.001,2.005-0.002,3.017-0.003       c0.012-6.007,0.025-11.664,0.038-16.994C309.049,138.809,308.023,138.808,306.995,138.807z"/>
					<path style="fill:#000E3F;" d="M307.099,238.399c-0.001,5.502-0.003,11.168-0.006,16.999c0.961-0.001,1.92-0.002,2.89-0.003       c-0.003-5.83-0.005-11.494-0.006-16.994C309.011,238.401,308.056,238.4,307.099,238.399z"/>
					<path style="fill:#000E3F;" d="M306.941,118.888c0.016,5.244,0.031,10.898,0.046,16.999c1.033-0.001,2.064-0.002,3.107-0.003       c0.016-6.1,0.032-11.751,0.048-16.993C309.068,118.89,308.005,118.889,306.941,118.888z"/>
					<path style="fill:#000E3F;" d="M310.201,99.602h-3.319c0.015,4.925,0.033,10.364,0.05,16.368       c1.069-0.001,2.138-0.002,3.217-0.003C310.168,109.963,310.186,104.526,310.201,99.602z"/>
					<path style="fill:#000E3F;" d="M307.091,258.318c-0.004,5.516-0.008,11.184-0.013,16.999c0.971-0.001,1.94-0.002,2.919-0.003       c-0.005-5.813-0.01-11.479-0.013-16.994C309.013,258.32,308.053,258.319,307.091,258.318z"/>
					<path style="fill:#000E3F;" d="M309.978,218.484c-0.967-0.001-1.922-0.002-2.88-0.003c0.001,5.485,0.002,11.148,0.001,16.999       c0.957-0.001,1.912-0.002,2.877-0.003C309.976,229.628,309.977,223.966,309.978,218.484z"/>
					<path style="fill:#000E3F;" d="M307.075,278.237c-0.006,5.529-0.012,11.196-0.02,16.999c0.986-0.001,1.969-0.002,2.963-0.003       c-0.008-5.801-0.014-11.467-0.019-16.994C309.018,278.238,308.047,278.237,307.075,278.237z"/>
					<path style="fill:#000E3F;" d="M326.984,175.703c0.979-0.001,1.964-0.003,2.951-0.004c0.009-5.931,0.018-11.572,0.028-16.947       c-1.005-0.001-2.009-0.003-3.007-0.004C326.967,164.125,326.976,169.77,326.984,175.703z"/>
					<path style="fill:#000E3F;" d="M326.951,155.784c1.001-0.001,2.008-0.003,3.018-0.004c0.012-5.989,0.025-11.631,0.038-16.947       c-1.034-0.001-2.067-0.003-3.092-0.004C326.928,144.149,326.94,149.791,326.951,155.784z"/>
					<path style="fill:#000E3F;" d="M327.005,195.508c0.983-0.003,1.952-0.006,2.907-0.008c0.005-5.843,0.011-11.452,0.019-16.829       c-0.984-0.001-1.967-0.003-2.943-0.004C326.995,184.047,327.001,189.66,327.005,195.508z"/>
					<path style="fill:#000E3F;" d="M327.017,215.54c0.956-0.001,1.919-0.002,2.883-0.004c0.002-5.812,0.006-11.414,0.01-16.82       c-0.953-0.003-1.92-0.006-2.901-0.009C327.012,204.118,327.015,209.723,327.017,215.54z"/>
					<path style="fill:#000E3F;" d="M326.946,315.051h3.021c-0.009-5.748-0.017-11.37-0.025-16.87       c-0.993-0.001-1.986-0.003-2.971-0.004C326.964,303.679,326.956,309.301,326.946,315.051z"/>
					<path style="fill:#000E3F;" d="M326.976,295.214c0.983-0.001,1.972-0.003,2.963-0.004c-0.007-5.785-0.014-11.435-0.019-16.947       c-0.978-0.001-1.954-0.003-2.924-0.004C326.99,283.774,326.983,289.426,326.976,295.214z"/>
					<path style="fill:#000E3F;" d="M326.907,135.866c1.03-0.001,2.068-0.003,3.107-0.004c0.015-6.082,0.032-11.718,0.047-16.947       c-1.07-0.002-2.139-0.003-3.2-0.005C326.877,124.142,326.892,129.781,326.907,135.866z"/>
					<path style="fill:#000E3F;" d="M327.013,255.377c0.959-0.001,1.923-0.003,2.89-0.004c-0.003-5.814-0.005-11.462-0.006-16.948       c-0.962-0.001-1.923-0.003-2.878-0.004C327.018,243.91,327.016,249.561,327.013,255.377z"/>
					<path style="fill:#000E3F;" d="M327.019,235.458c0.955-0.001,1.915-0.003,2.877-0.004c0-5.833,0-11.479,0.002-16.947       c-0.963-0.001-1.925-0.003-2.88-0.004C327.019,223.974,327.02,229.622,327.019,235.458z"/>
					<path style="fill:#000E3F;" d="M326.998,275.295c0.968-0.001,1.943-0.003,2.919-0.004c-0.005-5.797-0.009-11.447-0.012-16.947       c-0.967-0.001-1.934-0.003-2.894-0.004C327.008,263.842,327.003,269.496,326.998,275.295z"/>
					<path style="fill:#000E3F;" d="M330.122,99.602h-3.319c0.015,4.919,0.032,10.351,0.05,16.346       c1.068-0.001,2.141-0.003,3.217-0.004C330.089,109.949,330.106,104.52,330.122,99.602z"/>
					<path style="fill:#000E3F;" d="M167.512,118.979c1.053-0.003,2.119-0.005,3.199-0.008c5.25-0.013,10.814-0.025,16.719-0.036       c1.054-0.002,2.124-0.004,3.2-0.006c5.305-0.01,10.872-0.018,16.719-0.026c1.057-0.001,2.125-0.003,3.2-0.004       c5.343-0.007,10.915-0.013,16.718-0.018c1.059-0.001,2.126-0.002,3.2-0.002c5.375-0.004,10.942-0.007,16.718-0.009       c1.058,0,2.129-0.001,3.2-0.001c5.397-0.001,10.966-0.002,16.718-0.001c1.061,0,2.127,0,3.2,0       c5.414,0.001,10.986,0.003,16.718,0.006c1.062,0,2.127,0.001,3.2,0.002c5.427,0.003,11.002,0.008,16.718,0.013       c1.064,0.001,2.126,0.002,3.2,0.003c5.441,0.005,11.015,0.012,16.72,0.019c1.061,0.001,2.129,0.003,3.2,0.005       c5.371,0.007,10.859,0.015,16.466,0.025v-3.021c-5.604,0.009-11.089,0.017-16.457,0.025c-1.076,0.001-2.15,0.003-3.217,0.004       c-5.699,0.007-11.267,0.014-16.703,0.019c-1.079,0.001-2.148,0.002-3.217,0.003c-5.71,0.005-11.28,0.009-16.701,0.013       c-1.079,0.001-2.15,0.001-3.217,0.002c-5.727,0.003-11.293,0.005-16.702,0.006c-1.079,0-2.15,0-3.217,0       c-5.746,0.001-11.31,0-16.701-0.002c-1.077-0.001-2.154-0.001-3.217-0.001c-5.77-0.002-11.332-0.006-16.701-0.01       c-1.08-0.001-2.153-0.001-3.217-0.002c-5.797-0.005-11.364-0.012-16.701-0.019c-1.08-0.002-2.156-0.003-3.217-0.005       c-5.84-0.008-11.4-0.018-16.701-0.028c-1.082-0.002-2.158-0.004-3.218-0.006c-5.897-0.012-11.457-0.024-16.701-0.038       c-1.086-0.002-2.159-0.005-3.218-0.008c-5.988-0.015-11.541-0.031-16.7-0.046c-1.09-0.003-2.164-0.006-3.218-0.01       c-6.047-0.019-11.517-0.036-16.467-0.052v3.32c4.953-0.015,10.427-0.032,16.477-0.05c1.048-0.003,2.116-0.006,3.199-0.009       C155.958,119.009,161.518,118.994,167.512,118.979z"/>
					<path style="fill:#000E3F;" d="M167.565,138.898c1.018-0.003,2.048-0.005,3.092-0.008c5.282-0.013,10.882-0.025,16.827-0.036       c1.019-0.002,2.053-0.004,3.092-0.006c5.338-0.01,10.941-0.019,16.827-0.027c1.021-0.001,2.053-0.003,3.092-0.004       c5.375-0.007,10.984-0.013,16.826-0.018c1.023,0,2.054-0.002,3.092-0.002c5.408-0.004,11.012-0.007,16.826-0.009       c1.023,0,2.058-0.001,3.093-0.001c5.43-0.001,11.036-0.002,16.826-0.001c1.025,0,2.056,0,3.092,0       c5.448,0.001,11.055,0.003,16.826,0.006c1.027,0.001,2.055,0.001,3.092,0.002c5.461,0.003,11.072,0.008,16.826,0.013       c1.028,0.001,2.055,0.002,3.092,0.003c5.475,0.005,11.085,0.012,16.828,0.019c1.025,0.001,2.058,0.003,3.092,0.004       c5.388,0.007,10.894,0.015,16.521,0.025v-3.02c-5.624,0.009-11.127,0.017-16.513,0.024c-1.039,0.001-2.076,0.003-3.107,0.004       c-5.738,0.007-11.343,0.014-16.814,0.019c-1.042,0.001-2.074,0.002-3.107,0.003c-5.749,0.005-11.355,0.01-16.812,0.013       c-1.041,0-2.076,0.001-3.107,0.002c-5.766,0.003-11.368,0.005-16.812,0.006c-1.041,0-2.076,0-3.106,0.001       c-5.785,0-11.386,0-16.812-0.002c-1.04,0-2.079-0.001-3.107-0.001c-5.809-0.002-11.408-0.005-16.812-0.01       c-1.043-0.001-2.078-0.002-3.106-0.003c-5.837-0.005-11.44-0.011-16.812-0.018c-1.043-0.001-2.081-0.003-3.107-0.004       c-5.881-0.008-11.477-0.018-16.811-0.028c-1.044-0.002-2.083-0.004-3.107-0.006c-5.938-0.012-11.535-0.025-16.812-0.038       c-1.049-0.002-2.084-0.005-3.107-0.008c-6.03-0.015-11.62-0.031-16.811-0.047c-1.052-0.003-2.089-0.006-3.108-0.009       c-6.068-0.019-11.556-0.036-16.521-0.052v3.321c4.967-0.015,10.459-0.033,16.53-0.051c1.014-0.003,2.045-0.006,3.091-0.009       C155.933,138.928,161.53,138.913,167.565,138.898z"/>
					<path style="fill:#000E3F;" d="M167.607,158.816c0.991-0.003,1.991-0.005,3.006-0.008c5.307-0.013,10.935-0.025,16.912-0.036       c0.99-0.002,1.997-0.004,3.006-0.005c5.364-0.01,10.995-0.019,16.912-0.027c0.994-0.001,1.997-0.002,3.007-0.004       c5.402-0.007,11.039-0.013,16.912-0.018c0.995-0.001,1.997-0.002,3.007-0.002c5.435-0.004,11.066-0.007,16.912-0.009       c0.994,0,2-0.001,3.007-0.001c5.457-0.001,11.091-0.002,16.912-0.001c0.997,0,1.999,0,3.007,0       c5.475,0.001,11.111,0.003,16.912,0.006c0.998,0.001,1.998,0.001,3.007,0.002c5.488,0.003,11.128,0.007,16.912,0.013       c1,0.001,1.998,0.002,3.007,0.003c5.502,0.006,11.141,0.012,16.914,0.02c0.997,0.001,2.001,0.003,3.007,0.004       c5.402,0.007,10.923,0.015,16.565,0.025v-3.021c-5.64,0.009-11.158,0.017-16.559,0.025c-1.01,0.001-2.016,0.003-3.018,0.004       c-5.769,0.007-11.404,0.014-16.903,0.019c-1.012,0.001-2.014,0.002-3.017,0.003c-5.78,0.005-11.416,0.01-16.901,0.013       c-1.012,0.001-2.016,0.001-3.018,0.001c-5.797,0.003-11.43,0.005-16.901,0.006c-1.012,0-2.017,0-3.017,0       c-5.817,0.001-11.448,0-16.901-0.002c-1.01,0-2.02-0.001-3.017-0.001c-5.841-0.002-11.47-0.006-16.901-0.01       c-1.013-0.001-2.018-0.002-3.017-0.003c-5.869-0.005-11.502-0.012-16.901-0.019c-1.013-0.001-2.021-0.003-3.018-0.004       c-5.914-0.008-11.54-0.018-16.901-0.028c-1.014-0.002-2.024-0.004-3.018-0.006c-5.972-0.012-11.598-0.025-16.901-0.038       c-1.018-0.003-2.023-0.005-3.018-0.008c-6.064-0.015-11.684-0.031-16.901-0.047c-1.021-0.003-2.028-0.006-3.018-0.009       c-6.085-0.018-11.589-0.036-16.565-0.052v3.32c4.979-0.015,10.484-0.033,16.571-0.051c0.986-0.003,1.989-0.006,3.006-0.009       C155.914,158.846,161.539,158.831,167.607,158.816z"/>
					<path style="fill:#000E3F;" d="M167.638,178.734c0.971-0.002,1.95-0.005,2.943-0.007c5.326-0.013,10.975-0.025,16.976-0.037       c0.969-0.002,1.955-0.004,2.943-0.006c5.383-0.01,11.035-0.019,16.975-0.027c0.972-0.001,1.955-0.003,2.943-0.004       c5.421-0.007,11.079-0.013,16.975-0.018c0.974-0.001,1.956-0.002,2.943-0.003c5.455-0.004,11.107-0.007,16.975-0.009       c0.973-0.001,1.959-0.001,2.943-0.001c5.477-0.002,11.131-0.002,16.975-0.001c0.976,0,1.957,0,2.943,0       c5.494,0.001,11.152,0.003,16.975,0.006c0.977,0,1.956,0.001,2.943,0.002c5.508,0.003,11.169,0.008,16.975,0.013       c0.979,0.001,1.956,0.002,2.943,0.003c5.522,0.005,11.182,0.012,16.977,0.019c0.977,0.001,1.959,0.003,2.943,0.004       c5.412,0.008,10.944,0.016,16.596,0.025v-3.021c-5.651,0.009-11.182,0.017-16.592,0.025c-0.987,0.001-1.972,0.003-2.951,0.004       c-5.792,0.008-11.449,0.014-16.969,0.019c-0.991,0.001-1.969,0.002-2.951,0.003c-5.804,0.005-11.461,0.009-16.967,0.013       c-0.989,0.001-1.971,0.001-2.951,0.002c-5.821,0.003-11.475,0.005-16.967,0.006c-0.989,0-1.972,0-2.951,0       c-5.84,0-11.493,0-16.967-0.002c-0.988,0-1.975-0.001-2.951-0.001c-5.865-0.002-11.516-0.006-16.967-0.01       c-0.99-0.001-1.974-0.001-2.951-0.002c-5.893-0.005-11.548-0.012-16.967-0.019c-0.99-0.001-1.977-0.003-2.951-0.004       c-5.938-0.008-11.586-0.018-16.968-0.028c-0.991-0.002-1.979-0.004-2.951-0.006c-5.997-0.012-11.645-0.025-16.967-0.038       c-0.996-0.002-1.978-0.005-2.951-0.007c-6.09-0.016-11.732-0.032-16.967-0.047c-0.998-0.003-1.982-0.006-2.951-0.009       c-6.098-0.018-11.613-0.036-16.598-0.052v3.32c4.987-0.015,10.503-0.033,16.602-0.051c0.966-0.003,1.947-0.006,2.943-0.009       C155.9,178.765,161.546,178.749,167.638,178.734z"/>
					<path style="fill:#000E3F;" d="M167.658,198.566c0.973-0.001,1.936-0.002,2.901-0.003c5.822-0.005,11.495-0.01,17.017-0.013       c0.973-0.001,1.938-0.001,2.901-0.002c5.838-0.003,11.51-0.005,17.017-0.006c0.972,0,1.939,0,2.901,0       c5.858,0,11.527,0,17.017,0.002c0.971,0,1.942,0,2.901,0.001c5.883,0.002,11.55,0.006,17.017,0.01       c0.974,0,1.941,0.001,2.902,0.002c5.911,0.005,11.582,0.012,17.017,0.019c0.973,0.001,1.943,0.003,2.901,0.004       c5.957,0.008,11.621,0.018,17.017,0.028c0.974,0.002,1.945,0.004,2.902,0.006c6.015,0.012,11.68,0.025,17.017,0.038       c0.979,0.002,1.944,0.005,2.901,0.007c6.109,0.016,11.769,0.032,17.019,0.047c0.981,0.003,1.949,0.006,2.901,0.009       c6.106,0.018,11.626,0.036,16.618,0.052v-3.321c-4.991,0.015-10.511,0.033-16.615,0.051c-0.954,0.003-1.924,0.006-2.907,0.008       c-5.248,0.015-10.906,0.031-17.013,0.046c-0.959,0.003-1.926,0.005-2.907,0.007c-5.337,0.013-10.998,0.025-17.012,0.037       c-0.958,0.002-1.931,0.004-2.906,0.005c-5.394,0.01-11.058,0.019-17.012,0.027c-0.961,0.001-1.931,0.003-2.906,0.004       c-5.433,0.007-11.103,0.013-17.012,0.018c-0.963,0.001-1.932,0.002-2.907,0.002c-5.466,0.004-11.131,0.008-17.012,0.01       c-0.961,0-1.934,0-2.906,0.001c-5.489,0.002-11.156,0.002-17.012,0.001c-0.964,0-1.933,0-2.907,0       c-5.506-0.001-11.176-0.003-17.012-0.006c-0.965,0-1.932-0.001-2.906-0.002c-5.52-0.003-11.193-0.007-17.012-0.013       c-0.967-0.001-1.932-0.002-2.907-0.003c-5.533-0.005-11.205-0.012-17.012-0.02c-0.964-0.001-1.935-0.003-2.906-0.004       c-5.42-0.007-10.959-0.016-16.62-0.025v3.021c5.662-0.009,11.202-0.018,16.622-0.025c0.97-0.001,1.939-0.003,2.902-0.004       C156.45,198.578,162.123,198.571,167.658,198.566z"/>
					<path style="fill:#000E3F;" d="M167.669,218.571c0.95-0.003,1.908-0.005,2.88-0.007c5.344-0.013,11.014-0.025,17.038-0.037       c0.949-0.002,1.914-0.004,2.88-0.006c5.402-0.01,11.075-0.019,17.038-0.027c0.952-0.001,1.914-0.003,2.88-0.004       c5.441-0.007,11.119-0.013,17.038-0.018c0.954-0.001,1.914-0.002,2.88-0.002c5.474-0.004,11.147-0.008,17.038-0.009       c0.952,0,1.917-0.001,2.88-0.001c5.496-0.001,11.172-0.002,17.038-0.001c0.955,0,1.915,0,2.88,0       c5.514,0.001,11.193,0.003,17.038,0.006c0.956,0,1.915,0.001,2.88,0.002c5.528,0.003,11.209,0.008,17.038,0.013       c0.958,0.001,1.914,0.002,2.88,0.003c5.542,0.006,11.222,0.012,17.04,0.02c0.955,0.001,1.917,0.003,2.88,0.004       c5.422,0.007,10.965,0.016,16.629,0.025v-3.021c-5.664,0.009-11.206,0.017-16.628,0.025c-0.964,0.001-1.926,0.002-2.883,0.004       c-5.816,0.008-11.496,0.014-17.038,0.019c-0.967,0.001-1.923,0.002-2.882,0.003c-5.828,0.005-11.508,0.009-17.036,0.013       c-0.966,0-1.925,0.001-2.882,0.002c-5.845,0.003-11.523,0.005-17.036,0.006c-0.966,0-1.926,0-2.882,0       c-5.865,0.001-11.541,0-17.036-0.002c-0.965,0-1.929-0.001-2.882-0.001c-5.89-0.002-11.563-0.006-17.036-0.01       c-0.967-0.001-1.928-0.001-2.882-0.002c-5.919-0.005-11.596-0.012-17.036-0.019c-0.967-0.001-1.93-0.003-2.883-0.004       c-5.964-0.008-11.635-0.018-17.036-0.028c-0.967-0.002-1.933-0.004-2.883-0.005c-6.022-0.012-11.693-0.025-17.036-0.038       c-0.973-0.003-1.932-0.005-2.883-0.007c-6.116-0.016-11.781-0.032-17.036-0.048c-0.975-0.003-1.936-0.006-2.883-0.009       c-6.111-0.018-11.637-0.036-16.631-0.052v3.32c4.995-0.015,10.521-0.033,16.633-0.051c0.946-0.003,1.906-0.005,2.88-0.008       C155.885,218.602,161.552,218.587,167.669,218.571z"/>
					<path style="fill:#000E3F;" d="M167.669,238.49c0.949-0.002,1.907-0.005,2.878-0.007c5.345-0.013,11.016-0.025,17.04-0.037       c0.948-0.002,1.912-0.004,2.878-0.005c5.403-0.01,11.076-0.019,17.04-0.027c0.951-0.001,1.912-0.003,2.878-0.004       c5.442-0.007,11.12-0.013,17.041-0.018c0.953-0.001,1.912-0.001,2.878-0.002c5.474-0.004,11.149-0.007,17.04-0.009       c0.951,0,1.915-0.001,2.878-0.001c5.497-0.001,11.174-0.002,17.04-0.001c0.954,0,1.914,0,2.878,0.001       c5.515,0.001,11.194,0.003,17.04,0.006c0.956,0.001,1.913,0.001,2.878,0.002c5.529,0.003,11.211,0.008,17.04,0.013       c0.957,0.001,1.912,0.002,2.878,0.003c5.543,0.005,11.224,0.012,17.042,0.02c0.954,0.001,1.916,0.003,2.878,0.004       c5.423,0.008,10.966,0.016,16.63,0.025v-3.021c-5.665,0.009-11.207,0.017-16.631,0.025c-0.962,0.001-1.923,0.003-2.877,0.004       c-5.818,0.008-11.5,0.014-17.043,0.019c-0.965,0.001-1.92,0.002-2.877,0.003c-5.83,0.005-11.512,0.01-17.041,0.013       c-0.965,0.001-1.922,0.001-2.877,0.001c-5.846,0.003-11.526,0.005-17.041,0.006c-0.965,0-1.923,0-2.877,0       c-5.867,0.001-11.544,0-17.041-0.002c-0.963,0-1.926-0.001-2.877-0.001c-5.892-0.002-11.567-0.006-17.041-0.01       c-0.965-0.001-1.925-0.002-2.877-0.003c-5.92-0.005-11.599-0.012-17.041-0.019c-0.965-0.001-1.927-0.003-2.877-0.004       c-5.965-0.009-11.638-0.018-17.041-0.028c-0.965-0.002-1.929-0.004-2.877-0.006c-6.025-0.012-11.697-0.025-17.041-0.038       c-0.971-0.002-1.928-0.005-2.877-0.007c-6.118-0.016-11.785-0.032-17.041-0.048c-0.973-0.003-1.932-0.006-2.877-0.009       c-6.112-0.019-11.639-0.036-16.634-0.052v3.32c4.995-0.015,10.522-0.033,16.633-0.051c0.945-0.003,1.905-0.006,2.878-0.008       C155.885,238.521,161.552,238.505,167.669,238.49z"/>
					<path style="fill:#000E3F;" d="M167.661,258.408c0.955-0.003,1.917-0.005,2.894-0.007c5.34-0.013,11.006-0.025,17.025-0.037       c0.953-0.002,1.923-0.004,2.894-0.006c5.398-0.01,11.067-0.019,17.025-0.027c0.956-0.001,1.922-0.003,2.893-0.004       c5.437-0.007,11.111-0.013,17.025-0.018c0.958-0.001,1.922-0.002,2.893-0.002c5.47-0.004,11.139-0.008,17.025-0.009       c0.956,0,1.925-0.001,2.893-0.001c5.492-0.001,11.164-0.002,17.025-0.001c0.959,0,1.923,0,2.893,0       c5.51,0.001,11.184,0.003,17.025,0.006c0.961,0,1.923,0.001,2.893,0.001c5.524,0.003,11.201,0.008,17.025,0.013       c0.962,0.001,1.922,0.002,2.893,0.003c5.538,0.006,11.214,0.012,17.026,0.02c0.96,0.001,1.926,0.003,2.894,0.004       c5.421,0.007,10.961,0.016,16.623,0.025v-3.021c-5.663,0.009-11.204,0.017-16.625,0.025c-0.966,0.001-1.931,0.003-2.89,0.004       c-5.814,0.008-11.491,0.014-17.03,0.019c-0.97,0.001-1.928,0.002-2.89,0.003c-5.826,0.005-11.503,0.01-17.029,0.013       c-0.969,0.001-1.93,0.001-2.89,0.002c-5.842,0.003-11.518,0.005-17.028,0.006c-0.969,0-1.932,0-2.89,0       c-5.862,0.001-11.535,0-17.028-0.002c-0.967,0-1.934-0.001-2.89-0.001c-5.887-0.002-11.558-0.006-17.028-0.01       c-0.97-0.001-1.934-0.001-2.89-0.002c-5.916-0.005-11.59-0.012-17.029-0.019c-0.969-0.001-1.935-0.003-2.89-0.004       c-5.961-0.008-11.629-0.018-17.028-0.028c-0.97-0.002-1.938-0.004-2.89-0.006c-6.019-0.012-11.688-0.025-17.029-0.038       c-0.975-0.003-1.937-0.005-2.89-0.007c-6.113-0.016-11.776-0.032-17.028-0.048c-0.978-0.003-1.941-0.006-2.89-0.009       c-6.109-0.018-11.633-0.036-16.627-0.052v3.32c4.993-0.015,10.517-0.033,16.625-0.051c0.95-0.003,1.915-0.006,2.893-0.008       C155.888,258.439,161.55,258.424,167.661,258.408z"/>
					<path style="fill:#000E3F;" d="M167.645,278.327c0.965-0.002,1.938-0.005,2.925-0.007c5.331-0.013,10.986-0.025,16.993-0.037       c0.963-0.002,1.943-0.004,2.925-0.005c5.389-0.01,11.047-0.019,16.994-0.027c0.966-0.001,1.943-0.003,2.925-0.004       c5.428-0.007,11.091-0.013,16.994-0.018c0.968-0.001,1.943-0.001,2.925-0.002c5.46-0.004,11.119-0.007,16.994-0.009       c0.967-0.001,1.946-0.001,2.925-0.001c5.483-0.001,11.144-0.002,16.994-0.001c0.97,0,1.944,0,2.924,0.001       c5.5,0.001,11.164,0.003,16.994,0.006c0.971,0,1.944,0.001,2.925,0.002c5.515,0.003,11.18,0.008,16.994,0.013       c0.972,0.001,1.943,0.002,2.924,0.003c5.528,0.005,11.194,0.012,16.996,0.02c0.97,0.001,1.946,0.003,2.924,0.004       c5.416,0.007,10.951,0.016,16.608,0.025v-3.021c-5.658,0.009-11.194,0.017-16.61,0.025c-0.976,0.001-1.951,0.003-2.919,0.004       c-5.804,0.008-11.472,0.014-17.001,0.019c-0.98,0.001-1.948,0.002-2.919,0.003c-5.815,0.005-11.483,0.01-16.999,0.013       c-0.978,0-1.95,0.001-2.919,0.001c-5.832,0.003-11.497,0.005-16.999,0.006c-0.979,0-1.951,0-2.919,0       c-5.852,0.001-11.515,0-17-0.002c-0.977,0-1.953-0.001-2.919-0.001c-5.876-0.002-11.538-0.006-16.999-0.01       c-0.98-0.001-1.952-0.002-2.919-0.003c-5.905-0.005-11.57-0.012-17-0.019c-0.979-0.001-1.955-0.003-2.919-0.004       c-5.95-0.008-11.608-0.018-16.999-0.028c-0.98-0.002-1.957-0.004-2.919-0.006c-6.008-0.012-11.667-0.025-17-0.038       c-0.985-0.003-1.956-0.005-2.919-0.008c-6.102-0.015-11.755-0.032-16.999-0.047c-0.988-0.003-1.961-0.006-2.919-0.009       c-6.104-0.018-11.623-0.036-16.612-0.052v3.32c4.989-0.015,10.507-0.033,16.609-0.051c0.96-0.003,1.936-0.005,2.925-0.009       C155.894,278.358,161.546,278.342,167.645,278.327z"/>
					<path style="fill:#000E3F;" d="M290.104,298.142c5.5,0.003,11.151,0.008,16.948,0.013c0.988,0.001,1.974,0.002,2.971,0.003       c5.514,0.006,11.164,0.012,16.949,0.02c0.985,0.001,1.978,0.003,2.971,0.004c5.409,0.007,10.936,0.016,16.585,0.025v-3.021       c-5.65,0.009-11.178,0.017-16.589,0.025c-0.991,0.001-1.98,0.003-2.963,0.004c-5.788,0.008-11.441,0.014-16.957,0.019       c-0.995,0.001-1.977,0.002-2.963,0.003c-5.8,0.005-11.453,0.01-16.956,0.013c-0.993,0.001-1.979,0.001-2.963,0.002       c-5.816,0.003-11.467,0.005-16.955,0.006c-0.993,0-1.98,0-2.963,0c-5.836,0.001-11.485,0-16.955-0.002       c-0.992,0-1.983,0-2.963-0.001c-5.861-0.002-11.508-0.006-16.955-0.01c-0.994-0.001-1.982-0.001-2.963-0.003       c-5.889-0.005-11.54-0.011-16.955-0.019c-0.994-0.001-1.985-0.003-2.963-0.004c-5.934-0.008-11.578-0.018-16.955-0.028       c-0.995-0.002-1.987-0.004-2.963-0.006c-5.992-0.012-11.636-0.025-16.955-0.038c-1-0.003-1.986-0.005-2.963-0.007       c-6.086-0.016-11.724-0.032-16.956-0.047c-1.002-0.003-1.991-0.006-2.963-0.009c-6.095-0.019-11.606-0.036-16.59-0.052v3.32       c4.983-0.015,10.493-0.033,16.586-0.051c0.975-0.003,1.967-0.006,2.972-0.009c5.229-0.015,10.865-0.031,16.947-0.046       c0.98-0.003,1.969-0.005,2.972-0.007c5.317-0.013,10.958-0.025,16.947-0.037c0.979-0.002,1.973-0.004,2.971-0.006       c5.375-0.01,11.017-0.019,16.948-0.027c0.981-0.001,1.974-0.003,2.971-0.004c5.413-0.007,11.061-0.013,16.947-0.018       c0.984-0.001,1.974-0.002,2.971-0.003c5.446-0.004,11.089-0.007,16.948-0.009c0.982,0,1.977-0.001,2.971-0.001       c5.468-0.001,11.114-0.002,16.948-0.001c0.986,0,1.975,0,2.971,0c5.486,0.001,11.134,0.003,16.947,0.006       C288.12,298.141,289.108,298.142,290.104,298.142z"/>
					<path style="fill:#000E3F;" d="M131.117,314.949v0.102h34.031c-5.134-0.014-9.944-0.027-14.449-0.041       c-1.022-0.003-2.03-0.006-3.021-0.009C141.595,314.983,136.093,314.965,131.117,314.949z"/>
				</g>
				<path style="fill:#000E3F;" d="M119.133,237.314c0.173,0.059,0.35,0.087,0.523,0.087c0.664,0,1.283-0.416,1.512-1.076      c0.289-0.836-0.155-1.747-0.989-2.036l-15.302-5.293v-17.784l14.143,6.122c0.208,0.089,0.423,0.131,0.634,0.131      c0.619,0,1.208-0.361,1.47-0.964c0.35-0.811-0.022-1.753-0.833-2.104l-15.415-6.673v-17.673      c7.929,4.123,13.555,7.048,14.042,7.3c0.236,0.122,0.487,0.18,0.736,0.18c0.578,0,1.136-0.314,1.422-0.862      c0.406-0.784,0.102-1.75-0.683-2.158c-0.516-0.268-6.816-3.543-15.516-8.067v-17.547c7.797,4.732,13.349,8.101,13.949,8.465      c0.259,0.158,0.545,0.233,0.828,0.233c0.541,0,1.069-0.273,1.369-0.77c0.459-0.755,0.219-1.739-0.537-2.197      c-0.642-0.389-6.947-4.216-15.608-9.473v-17.403c7.924,5.498,13.501,9.369,13.866,9.623c0.278,0.194,0.597,0.286,0.911,0.286      c0.506,0,1.005-0.239,1.315-0.687c0.505-0.725,0.325-1.722-0.402-2.226c-0.393-0.273-6.807-4.724-15.691-10.889v-17.243      l13.795,10.773c0.292,0.228,0.639,0.339,0.983,0.339c0.477,0,0.947-0.211,1.262-0.615c0.544-0.695,0.42-1.701-0.277-2.245      l-15.763-12.31v-17.073l13.73,11.917c0.303,0.264,0.676,0.392,1.048,0.392c0.447,0,0.892-0.186,1.208-0.552      c0.579-0.667,0.507-1.678-0.159-2.256l-15.827-13.737V81.118c0-0.884-0.715-1.6-1.6-1.6c-0.884,0-1.6,0.715-1.6,1.6v17.354      l-10.84-9.408V67.739c0-0.884-0.715-1.6-1.6-1.6c-0.884,0-1.6,0.715-1.6,1.6v18.548l-10.84-9.409V54.36      c0-0.884-0.716-1.6-1.6-1.6c-0.884,0-1.6,0.715-1.6,1.6v19.741L62.76,64.694V40.983c0-0.884-0.715-1.6-1.6-1.6      c-0.884,0-1.6,0.715-1.6,1.6v20.934L47.495,51.445c-0.667-0.581-1.678-0.511-2.256,0.159c-0.58,0.667-0.508,1.678,0.159,2.256      L59.56,66.152v21.015l-12.129-9.472c-0.699-0.545-1.703-0.422-2.245,0.276c-0.544,0.695-0.42,1.701,0.277,2.245L59.56,91.225      v21.187c-6.886-4.778-11.668-8.097-12.201-8.466c-0.727-0.506-1.723-0.323-2.226,0.401c-0.504,0.727-0.323,1.723,0.402,2.226      c0.579,0.402,6.172,4.283,14.026,9.732v21.346c-6.853-4.16-11.645-7.068-12.282-7.456c-0.755-0.459-1.739-0.219-2.198,0.536      c-0.459,0.756-0.219,1.739,0.536,2.198c0.688,0.418,6.214,3.772,13.944,8.464v21.49c-7.131-3.708-12.042-6.262-12.374-6.434      c-0.787-0.413-1.751-0.103-2.157,0.68c-0.408,0.784-0.105,1.749,0.679,2.158c0.354,0.184,5.929,3.083,13.852,7.203v21.618      l-12.477-5.401c-0.819-0.352-1.755,0.025-2.104,0.833c-0.35,0.811,0.022,1.753,0.833,2.104l13.749,5.952v21.727l-12.59-4.355      c-0.836-0.289-1.747,0.155-2.035,0.989c-0.289,0.836,0.155,1.747,0.989,2.036l13.637,4.717v21.817l-12.712-3.291      c-0.853-0.227-1.728,0.292-1.95,1.146c-0.222,0.856,0.292,1.728,1.147,1.95l13.515,3.499v21.889l-12.843-2.207      c-0.873-0.152-1.698,0.436-1.847,1.306c-0.15,0.87,0.434,1.697,1.306,1.847l13.384,2.3v21.934l-12.977-1.102      c-0.914-0.106-1.656,0.578-1.729,1.457c-0.075,0.881,0.578,1.654,1.458,1.729l13.249,1.125v20.934c0,0.884,0.716,1.6,1.6,1.6      c0.884,0,1.6-0.715,1.6-1.6v-20.663l10.839,0.92v19.841c0,0.884,0.715,1.6,1.6,1.6c0.884,0,1.6-0.715,1.6-1.6v-19.569      l10.84,0.92v18.747c0,0.884,0.716,1.6,1.6,1.6c0.884,0,1.6-0.715,1.6-1.6v-18.476l10.84,0.92v17.652c0,0.884,0.716,1.6,1.6,1.6      c0.884,0,1.6-0.716,1.6-1.6v-17.381l14.643,1.243c0.047,0.004,0.092,0.006,0.138,0.006c0.823,0,1.522-0.63,1.592-1.464      c0.075-0.881-0.578-1.656-1.458-1.73l-14.915-1.266v-17.992l14.508,2.494c0.091,0.016,0.183,0.023,0.272,0.023      c0.765,0,1.442-0.55,1.575-1.329c0.15-0.87-0.434-1.697-1.306-1.846l-15.049-2.586v-17.946l14.377,3.722      c0.134,0.036,0.27,0.051,0.403,0.051c0.711,0,1.361-0.478,1.547-1.198c0.222-0.856-0.292-1.729-1.147-1.95l-15.18-3.93v-17.875      L119.133,237.314z M101.678,227.89l-10.84-3.749v-19.006l10.84,4.693V227.89z M76.798,242.988v-20.317l10.84,3.75v19.374      L76.798,242.988z M87.638,249.099v19.445l-10.84-1.863v-20.389L87.638,249.099z M76.798,219.284v-20.227l10.84,4.693v19.284      L76.798,219.284z M87.638,135.79v18.903c-3.612-2.193-7.272-4.413-10.84-6.579v-19.846      C80.39,130.76,84.049,133.299,87.638,135.79z M76.798,124.374v-19.687l10.84,8.466v18.744      C84.025,129.389,80.365,126.849,76.798,124.374z M87.638,158.435v19.047c-3.611-1.878-7.271-3.78-10.84-5.636v-19.99      C80.389,154.035,84.048,156.256,87.638,158.435z M87.638,181.088v19.174l-10.84-4.693v-20.117      C80.387,177.318,84.047,179.22,87.638,181.088z M101.678,206.34l-10.84-4.693v-18.895c3.803,1.977,7.474,3.886,10.84,5.636      V206.34z M101.678,184.781c-3.398-1.766-7.067-3.674-10.84-5.636v-18.769c3.805,2.309,7.475,4.537,10.84,6.579V184.781z       M101.678,163.214c-3.399-2.063-7.069-4.29-10.84-6.579V138.01c3.806,2.641,7.478,5.189,10.84,7.522V163.214z M101.678,141.639      c-3.401-2.36-7.069-4.905-10.84-7.522v-18.465l10.84,8.466V141.639z M101.678,102.707v17.351l-10.84-8.466V93.298      L101.678,102.707z M87.638,90.521v18.572l-10.84-8.466V81.113L87.638,90.521z M62.76,68.929l10.839,9.407v19.793L62.76,89.665      V68.929z M62.76,93.723l10.839,8.465v19.966c-3.842-2.666-7.517-5.216-10.839-7.521V93.723z M62.76,118.526      c3.366,2.336,7.037,4.883,10.839,7.521v20.124c-3.84-2.331-7.514-4.561-10.839-6.579V118.526z M62.76,143.336      c3.365,2.042,7.035,4.27,10.839,6.578v20.268c-3.839-1.996-7.513-3.906-10.839-5.635V143.336z M62.76,168.153      c3.361,1.748,7.033,3.657,10.839,5.636v20.396l-10.839-4.692V168.153z M62.76,192.98l10.839,4.692v20.506l-10.839-3.749V192.98z       M62.76,217.815l10.839,3.749v20.596l-10.839-2.806V217.815z M62.76,242.658l10.839,2.806v20.668l-10.839-1.863V242.658z       M62.76,289.169v-21.655l10.839,1.863v20.712L62.76,289.169z M76.798,290.361v-20.434l10.84,1.863v19.491L76.798,290.361z       M101.678,292.473l-10.84-0.92V272.34l10.84,1.863V292.473z M101.678,270.957l-10.84-1.863v-19.167l10.84,2.806V270.957z       M101.678,249.429l-10.84-2.807v-19.096l10.84,3.75V249.429z"/>
				<path style="fill:#000E3F;" d="M433.2,211.991c0.834-0.289,1.278-1.2,0.989-2.036c-0.291-0.834-1.198-1.278-2.036-0.989      l-12.59,4.355v-21.727l13.749-5.952c0.811-0.351,1.183-1.293,0.833-2.104c-0.352-0.808-1.288-1.184-2.104-0.833l-12.478,5.401      v-21.619l13.851-7.202c0.784-0.406,1.089-1.373,0.681-2.156c-0.406-0.784-1.376-1.092-2.156-0.681l-12.376,6.434v-21.492      l13.943-8.462c0.756-0.458,0.997-1.442,0.537-2.197c-0.456-0.756-1.44-0.995-2.196-0.538l-12.284,7.456v-21.346      c7.874-5.464,13.474-9.35,14.026-9.732c0.725-0.503,0.906-1.5,0.401-2.226c-0.501-0.723-1.499-0.909-2.226-0.401      c-0.508,0.353-5.297,3.675-12.201,8.466V91.225l14.098-11.009c0.697-0.544,0.82-1.55,0.277-2.245      c-0.544-0.698-1.55-0.822-2.245-0.276l-12.129,9.472V66.152l14.162-12.292c0.667-0.578,0.739-1.589,0.159-2.256      c-0.578-0.67-1.587-0.74-2.256-0.159l-12.065,10.471V40.983c0-0.884-0.715-1.6-1.6-1.6c-0.884,0-1.6,0.715-1.6,1.6v23.71      l-6.222,5.4c-1.523,1.322-3.066,2.661-4.618,4.008V54.36c0-0.884-0.715-1.6-1.6-1.6c-0.884,0-1.6,0.715-1.6,1.6v22.518      c-3.628,3.149-7.276,6.315-10.839,9.407V67.739c0-0.884-0.716-1.6-1.6-1.6c-0.884,0-1.6,0.715-1.6,1.6v21.324      c-3.804,3.301-7.466,6.48-10.842,9.41V81.118c0-0.884-0.716-1.6-1.6-1.6c-0.884,0-1.6,0.715-1.6,1.6v20.131      c-9.245,8.024-15.691,13.619-15.827,13.736c-0.667,0.58-0.737,1.59-0.158,2.258c0.317,0.364,0.761,0.55,1.208,0.55      c0.373,0,0.747-0.13,1.05-0.392c0.125-0.109,5.619-4.877,13.727-11.915v17.071c-8.866,6.924-15.294,11.944-15.763,12.31      c-0.695,0.544-0.819,1.549-0.275,2.246c0.315,0.403,0.786,0.614,1.262,0.614c0.344,0,0.69-0.111,0.984-0.339      c0.432-0.338,5.959-4.654,13.792-10.771v17.243c-8.74,6.065-15.098,10.477-15.689,10.888c-0.727,0.505-0.906,1.501-0.402,2.226      c0.311,0.448,0.809,0.687,1.316,0.687c0.314,0,0.633-0.092,0.91-0.286c0.55-0.382,6.077-4.218,13.865-9.622v17.403      l-15.607,9.472c-0.756,0.458-0.997,1.442-0.538,2.197c0.3,0.497,0.828,0.77,1.369,0.77c0.283,0,0.568-0.075,0.828-0.233      l13.948-8.465v17.548l-15.515,8.066c-0.784,0.408-1.089,1.375-0.683,2.158c0.286,0.548,0.844,0.862,1.422,0.862      c0.248,0,0.5-0.058,0.736-0.18l14.04-7.3v17.674l-15.413,6.672c-0.811,0.351-1.183,1.293-0.833,2.104      c0.262,0.603,0.851,0.964,1.47,0.964c0.211,0,0.426-0.042,0.634-0.131l14.141-6.122v17.784l-15.3,5.292      c-0.835,0.289-1.278,1.2-0.989,2.036c0.23,0.661,0.85,1.076,1.512,1.076c0.173,0,0.35-0.028,0.523-0.087l14.254-4.93v17.874      l-15.179,3.93c-0.854,0.22-1.368,1.093-1.146,1.95c0.186,0.72,0.836,1.198,1.546,1.198c0.133,0,0.269-0.015,0.403-0.051      l14.376-3.722v17.945l-15.047,2.586c-0.87,0.148-1.456,0.976-1.306,1.846c0.133,0.779,0.809,1.329,1.575,1.329      c0.089,0,0.181-0.008,0.272-0.023l14.507-2.493v17.992l-14.913,1.266c-0.88,0.075-1.533,0.848-1.458,1.73      c0.07,0.834,0.768,1.464,1.592,1.464c0.045,0,0.091-0.002,0.138-0.006l14.641-1.243v17.381c0,0.884,0.715,1.6,1.6,1.6      c0.884,0,1.6-0.716,1.6-1.6v-17.652l10.842-0.92v18.476c0,0.884,0.716,1.6,1.6,1.6c0.884,0,1.6-0.715,1.6-1.6v-18.747      l10.839-0.92v19.569c0,0.884,0.716,1.6,1.6,1.6c0.884,0,1.6-0.715,1.6-1.6v-19.841l10.84-0.92v20.663c0,0.884,0.716,1.6,1.6,1.6      c0.884,0,1.6-0.715,1.6-1.6v-20.934l13.249-1.125c0.879-0.074,1.533-0.848,1.458-1.729c-0.073-0.879-0.812-1.548-1.729-1.457      l-12.977,1.102v-21.934l13.384-2.3c0.87-0.148,1.456-0.976,1.306-1.847c-0.148-0.87-0.97-1.456-1.846-1.306l-12.843,2.207      v-21.889l13.515-3.499c0.855-0.222,1.369-1.095,1.147-1.95c-0.22-0.855-1.092-1.372-1.949-1.146l-12.712,3.291v-21.817      L433.2,211.991z M416.364,214.428l-10.84,3.75v-20.506l10.84-4.693V214.428z M391.485,245.794V226.42l10.839-3.749v20.317      L391.485,245.794z M402.324,246.293v20.389l-10.839,1.863v-19.445L402.324,246.293z M391.485,223.034v-19.284l10.839-4.692      v20.227L391.485,223.034z M402.324,124.374c-3.567,2.475-7.226,5.014-10.839,7.521v-18.743      c3.589-2.802,7.247-5.659,10.839-8.465V124.374z M402.324,128.268v19.846l-10.839,6.579V135.79      C395.074,133.299,398.733,130.76,402.324,128.268z M402.324,151.855v19.991l-10.839,5.635v-19.048L402.324,151.855z       M402.324,175.452v20.118l-10.839,4.692v-19.174L402.324,175.452z M416.364,189.492l-10.84,4.693v-20.397l10.84-5.636V189.492z       M416.364,164.547l-10.84,5.636v-20.27l10.84-6.579V164.547z M416.364,139.593l-10.84,6.579v-20.124      c3.803-2.639,7.474-5.186,10.84-7.522V139.593z M416.364,114.632c-3.323,2.306-6.997,4.856-10.84,7.522v-19.965l10.84-8.466      V114.632z M412.238,72.51l4.126-3.581v20.736l-10.84,8.466V78.338C407.784,76.376,410.031,74.426,412.238,72.51z       M402.324,81.115v19.514l-0.672,0.525c-3.352,2.618-6.78,5.295-10.167,7.94V90.522      C395.026,87.449,398.674,84.283,402.324,81.115z M377.444,102.709c3.334-2.894,6.998-6.074,10.842-9.41v18.293      c-3.771,2.944-7.438,5.809-10.842,8.466V102.709z M377.444,124.118c3.362-2.626,7.033-5.492,10.842-8.467v18.465      c-3.771,2.616-7.44,5.163-10.842,7.523V124.118z M377.444,145.533c3.363-2.334,7.035-4.882,10.842-7.523v18.625l-10.842,6.58      V145.533z M377.444,166.956l10.842-6.58v18.77l-10.842,5.637V166.956z M377.444,188.388l10.842-5.637v18.896l-10.842,4.693      V188.388z M377.444,209.828l10.842-4.693v19.006l-10.842,3.75V209.828z M377.444,231.277l10.842-3.75v19.096l-10.842,2.807      V231.277z M377.444,252.734l10.842-2.807v19.167l-10.842,1.864V252.734z M377.444,292.473v-18.27l10.842-1.863v19.213      L377.444,292.473z M391.485,291.281v-19.491l10.839-1.863v20.434L391.485,291.281z M416.364,289.169l-10.84,0.92v-20.712      l10.84-1.863V289.169z M416.364,264.268l-10.84,1.863v-20.667l10.84-2.807V264.268z M416.364,239.354l-10.84,2.806v-20.596      l10.84-3.749V239.354z"/>
				<path style="fill:#000E3F;" d="M411.242,24.992h-25.442l6.157-7.207c0.573-0.672,0.494-1.681-0.178-2.256      c-0.67-0.57-1.681-0.495-2.256,0.178l-7.931,9.284h-28.163l4.891-7.36c0.489-0.736,0.289-1.729-0.447-2.218      c-0.739-0.49-1.729-0.289-2.219,0.447l-6.068,9.131h-28.497c1.975-4.16,3.308-6.967,3.589-7.56      c0.38-0.797,0.039-1.751-0.759-2.131c-0.8-0.378-1.753-0.039-2.131,0.759c-0.311,0.655-1.91,4.022-4.24,8.931H288.79      l2.225-7.806c0.242-0.85-0.25-1.736-1.1-1.978c-0.85-0.237-1.732,0.25-1.978,1.1l-2.474,8.684h-28.922l0.77-8.094      c0.084-0.879-0.561-1.661-1.44-1.744c-0.898-0.116-1.661,0.561-1.744,1.44l-0.798,8.397h-28.978      c-0.472-4.982-0.778-8.218-0.796-8.397c-0.084-0.879-0.853-1.559-1.743-1.44c-0.88,0.083-1.525,0.864-1.44,1.744      c0.017,0.176,0.311,3.278,0.767,8.094h-28.922l-2.471-8.683c-0.241-0.852-1.136-1.35-1.976-1.102      c-0.85,0.242-1.343,1.127-1.101,1.976l2.222,7.808h-28.755l-4.236-8.931c-0.378-0.797-1.33-1.136-2.131-0.759      c-0.798,0.378-1.139,1.333-0.759,2.131l3.586,7.56h-28.499c-1.025-1.544-1.968-2.964-2.785-4.193l-3.279-4.938      c-0.489-0.734-1.483-0.937-2.218-0.447c-0.736,0.489-0.936,1.481-0.447,2.218l3.279,4.937c0.492,0.741,1.039,1.564,1.609,2.423      H96.09l-7.928-9.284c-0.576-0.673-1.586-0.748-2.256-0.178c-0.672,0.575-0.751,1.584-0.178,2.256l6.154,7.207H66.414      c-0.884,0-1.6,0.715-1.6,1.6c0,0.884,0.716,1.6,1.6,1.6h28.2l7.228,8.464H78.384c-0.884,0-1.6,0.715-1.6,1.6s0.716,1.6,1.6,1.6      h26.19l7.228,8.464h-21.45c-0.884,0-1.6,0.715-1.6,1.6c0,0.884,0.715,1.6,1.6,1.6h24.183l7.228,8.464h-19.44      c-0.884,0-1.6,0.715-1.6,1.6c0,0.884,0.716,1.6,1.6,1.6h22.173l7.228,8.464h-17.431c-0.884,0-1.6,0.715-1.6,1.6      c0,0.884,0.716,1.6,1.6,1.6h20.163l11.141,13.046c0.317,0.37,0.765,0.561,1.217,0.561c0.369,0,0.737-0.126,1.039-0.383      c0.672-0.575,0.751-1.584,0.178-2.256l-9.366-10.968h18.702c4.95,7.452,8.398,12.645,8.562,12.892      c0.308,0.464,0.815,0.715,1.334,0.715c0.303,0,0.611-0.086,0.882-0.267c0.736-0.488,0.937-1.481,0.449-2.217      c-0.15-0.227-3.076-4.633-7.386-11.123h19.036l6.021,12.693c0.274,0.576,0.847,0.914,1.447,0.914c0.23,0,0.462-0.05,0.684-0.155      c0.798-0.378,1.139-1.333,0.759-2.131l-5.37-11.321h19.295l3.541,12.445c0.2,0.704,0.84,1.162,1.537,1.162      c0.145,0,0.294-0.019,0.439-0.061c0.85-0.242,1.343-1.126,1.101-1.976l-3.292-11.57h19.458      c0.567,5.988,0.996,10.513,1.151,12.157c0.078,0.829,0.775,1.45,1.59,1.45c0.05,0,0.102-0.001,0.152-0.008      c0.88-0.083,1.526-0.862,1.442-1.742c-0.153-1.617-0.569-6.017-1.123-11.857h19.516l-1.127,11.856      c-0.084,0.879,0.561,1.66,1.44,1.743c0.052,0.006,0.103,0.008,0.153,0.008c0.816,0,1.512-0.62,1.59-1.448l1.156-12.159h19.458      c-1.945,6.829-3.266,11.462-3.295,11.563c-0.242,0.847,0.244,1.731,1.089,1.978c0.15,0.044,0.302,0.066,0.45,0.066      c0.689,0,1.325-0.448,1.531-1.144c0.007-0.024,0.949-3.328,3.552-12.463h19.293c-2.884,6.077-4.941,10.41-5.373,11.321      c-0.38,0.798-0.039,1.753,0.759,2.131c0.222,0.105,0.455,0.155,0.684,0.155c0.6,0,1.173-0.338,1.447-0.914      c0.464-0.979,2.798-5.896,6.025-12.693h19.034l-7.39,11.121c-0.489,0.736-0.289,1.729,0.447,2.219      c0.273,0.181,0.579,0.267,0.884,0.267c0.517,0,1.026-0.251,1.334-0.714l8.567-12.893h18.702l-9.37,10.968      c-0.574,0.672-0.494,1.681,0.178,2.256c0.302,0.256,0.67,0.383,1.039,0.383c0.452,0,0.9-0.19,1.217-0.561l11.145-13.046h20.147      c0.884,0,1.6-0.716,1.6-1.6c0-0.884-0.716-1.6-1.6-1.6h-17.413l7.231-8.464h22.154c0.884,0,1.6-0.716,1.6-1.6      c0-0.884-0.715-1.6-1.6-1.6h-19.42l7.231-8.464h24.161c0.884,0,1.6-0.716,1.6-1.6c0-0.884-0.716-1.6-1.6-1.6h-21.428      l7.231-8.464h26.17c0.884,0,1.6-0.716,1.6-1.6s-0.716-1.6-1.6-1.6h-23.437l7.231-8.464h28.176c0.884,0,1.6-0.716,1.6-1.6      C412.841,25.707,412.126,24.992,411.242,24.992z M347.458,28.191l-5.624,8.464h-26.284c1.459-3.073,2.813-5.927,4.018-8.464      H347.458z M278.818,48.319h-24.494l0.805-8.464h26.101C280.448,42.598,279.638,45.443,278.818,48.319z M284.555,39.855h25.935      c-1.304,2.747-2.653,5.589-4.018,8.464h-24.329C282.901,45.662,283.703,42.849,284.555,39.855z M251.111,48.319h-24.55      c-0.273-2.88-0.543-5.727-0.802-8.464h26.157L251.111,48.319z M223.349,48.319h-24.494l-2.409-8.464h26.101      C222.806,42.59,223.076,45.435,223.349,48.319z M195.528,48.319H171.2l-4.015-8.464h25.935L195.528,48.319z M167.659,48.319      h-24.071c-1.905-2.869-3.794-5.712-5.622-8.464h25.678L167.659,48.319z M169.177,51.519l4.014,8.464h-21.857      c-1.837-2.765-3.725-5.609-5.621-8.464H169.177z M172.718,51.519h23.721l2.409,8.464h-22.115L172.718,51.519z M199.765,51.519      h23.887c0.27,2.842,0.538,5.683,0.802,8.464h-22.28L199.765,51.519z M226.865,51.519h23.943l-0.805,8.464h-22.337      C227.403,57.204,227.134,54.363,226.865,51.519z M254.02,51.519h23.887c-0.811,2.848-1.622,5.694-2.411,8.464h-22.28      L254.02,51.519z M281.233,51.519h23.721c-1.353,2.85-2.703,5.696-4.018,8.464h-22.115      C279.561,57.388,280.363,54.57,281.233,51.519z M308.495,51.519h23.462l-5.624,8.464h-21.856      C305.798,57.199,307.147,54.358,308.495,51.519z M310.014,48.319c1.37-2.886,2.722-5.734,4.018-8.464h25.676l-5.624,8.464      H310.014z M316.027,28.191c-1.22,2.57-2.577,5.43-4.018,8.464h-26.542c0.09-0.317,0.176-0.619,0.267-0.939l2.144-7.525H316.027z       M284.552,28.191l-1.894,6.649c-0.17,0.597-0.343,1.203-0.517,1.816h-26.709l0.805-8.464H284.552z M253.025,28.191l-0.805,8.464      h-26.764c-0.289-3.055-0.56-5.908-0.802-8.464H253.025z M221.442,28.191c0.241,2.548,0.512,5.403,0.802,8.464h-26.708      l-2.408-8.464H221.442z M189.801,28.191l2.409,8.464h-26.542l-4.015-8.464H189.801z M158.112,28.191l4.014,8.464h-26.285      c-2.005-3.018-3.906-5.88-5.622-8.464H158.112z M98.822,28.191h27.557c1.688,2.542,3.59,5.404,5.622,8.464h-25.95L98.822,28.191      z M108.782,39.855h25.344c1.815,2.733,3.706,5.58,5.621,8.464H116.01L108.782,39.855z M118.743,51.519h23.129      c1.886,2.84,3.774,5.682,5.621,8.464h-21.522L118.743,51.519z M135.931,71.646l-7.228-8.464h20.916      c1.97,2.967,3.863,5.817,5.621,8.464H135.931z M159.08,71.646c-1.735-2.612-3.635-5.473-5.621-8.464h21.25l4.015,8.464H159.08z       M182.265,71.646l-4.015-8.464h21.508l2.409,8.464H182.265z M205.493,71.646l-2.409-8.464h21.673      c0.282,2.969,0.551,5.817,0.802,8.464H205.493z M228.771,71.646c-0.25-2.642-0.52-5.49-0.802-8.464h21.729l-0.805,8.464H228.771      z M252.106,71.646l0.805-8.464h21.673c-0.85,2.985-1.664,5.84-2.411,8.464H252.106z M275.499,71.646      c0.703-2.469,1.503-5.278,2.412-8.464h21.507c-1.418,2.988-2.773,5.841-4.018,8.464H275.499z M298.941,71.646      c1.257-2.649,2.609-5.496,4.018-8.464h21.249l-5.625,8.464H298.941z M341.734,71.646h-19.309l5.625-8.464h20.915L341.734,71.646      z M351.698,59.983h-21.522l5.625-8.464h23.129L351.698,59.983z M361.662,48.319h-23.736l5.624-8.464h25.342L361.662,48.319z       M371.626,36.655h-25.95l5.625-8.464h27.556L371.626,36.655z"/>
			</g>
			<path style="fill:#915EFD;" d="M427.936,2.702h-0.002C280.47,3.005,189.182,2.757,134.64,2.606     c-89.333-0.239-89.335-0.242-93.225,2.81c-0.278,0.217-0.576,0.453-0.947,0.711c-3.171,2.236-5.555,5.313-6.893,8.895     c-0.081,0.216-0.158,0.4-0.229,0.573c-1.128,2.719-1.128,2.719-1.02,59.752c0.08,41.707,0.213,111.513,0.045,233.828     c0,10.462,8.511,18.973,18.973,18.973h376.591c10.462,0,18.973-8.511,18.973-18.973V21.673     C446.909,11.213,438.398,2.702,427.936,2.702z M345.246,100.893v212.86H132.418v-212.86H345.246z M118.021,96.77v216.982H51.344     c-2.523,0-4.576-2.053-4.576-4.576V28.365L118.021,96.77z M421.819,17.099l-72.285,69.396H128.117L55.828,17.099H421.819z      M432.511,26.795v282.382c0,2.523-2.053,4.576-4.576,4.576h-68.292V96.75L432.511,26.795z"/>
		</g>
		<g>
			<path style="fill:#000E3F;" d="M427.934,330.667H51.345c-11.85,0-21.493-9.64-21.493-21.49     c0.169-122.765,0.036-192.284-0.044-233.822C29.7,17.816,29.7,17.816,31.022,14.632l0.199-0.502     c1.513-4.047,4.211-7.529,7.797-10.058c0.29-0.202,0.514-0.377,0.721-0.538c4.697-3.687,4.706-3.687,94.669-3.444     c54.557,0.148,145.462,0.402,293.521,0.096c0.003,0,0.003,0,0.006,0c11.85,0,21.493,9.64,21.493,21.49v287.502     C449.427,321.026,439.784,330.667,427.934,330.667z M87.244,5.03c-39.315,0-41.825,0.445-44.274,2.368     c-0.415,0.322-0.713,0.552-1.071,0.8c-2.736,1.931-4.807,4.599-5.967,7.707l-0.26,0.653c-0.937,2.259-0.934,4.381-0.827,58.787     c0.077,41.541,0.21,111.068,0.044,233.836c0,9.069,7.382,16.451,16.457,16.451h376.589c9.075,0,16.457-7.382,16.457-16.454     V21.675c0-9.072-7.379-16.454-16.454-16.454c-148.067,0.3-238.978,0.055-293.305-0.096C114.707,5.071,99.252,5.03,87.244,5.03z      M427.934,316.269h-68.29c-1.39,0-2.518-1.128-2.518-2.518V96.749c0-0.685,0.281-1.341,0.775-1.816l72.868-69.954     c0.726-0.699,1.805-0.888,2.728-0.5c0.929,0.396,1.532,1.308,1.532,2.316v282.382     C435.029,313.087,431.845,316.269,427.934,316.269z M362.162,311.233h65.772c1.136,0,2.059-0.923,2.059-2.057V32.7     l-67.831,65.122V311.233z M345.246,316.269H132.419c-1.39,0-2.518-1.128-2.518-2.518V100.892c0-1.39,1.128-2.518,2.518-2.518     h212.827c1.39,0,2.518,1.128,2.518,2.518v212.859C347.764,315.141,346.636,316.269,345.246,316.269z M134.937,311.233h207.791     V103.41H134.937V311.233z M118.022,316.269H51.345c-3.911,0-7.095-3.182-7.095-7.092V28.366c0-1.008,0.603-1.92,1.532-2.316     c0.926-0.39,1.999-0.199,2.728,0.5l71.253,68.405c0.494,0.475,0.776,1.131,0.776,1.816v216.98     C120.54,315.141,119.412,316.269,118.022,316.269z M49.286,34.27v274.907c0,1.134,0.923,2.057,2.059,2.057h64.158V97.844     L49.286,34.27z M349.534,89.012H128.118c-0.65,0-1.275-0.251-1.742-0.702L54.085,18.917c-0.743-0.713-0.975-1.803-0.593-2.756     c0.382-0.953,1.308-1.579,2.335-1.579H421.82c1.027,0,1.952,0.626,2.335,1.579c0.382,0.953,0.15,2.043-0.593,2.756L351.276,88.31     C350.809,88.761,350.184,89.012,349.534,89.012z M129.132,83.976H348.52l67.043-64.358H62.084L129.132,83.976z"/>
		</g>
	</g>
	<g>
		<g>
			<path style="fill:#000E3F;" d="M383.138,505.003c-0.887,0-1.748-0.47-2.207-1.303c-0.672-1.215-0.23-2.748,0.989-3.419     c16.727-9.231,21.427-26.769,22.738-36.401c2.382-17.475-2.307-35.38-11.672-44.553c-24.032-23.538-64.014-23.281-122.219,0.789     c-22.083,9.132-43.663,17.707-64.882,22.276c-30.21,6.508-57.787,1.224-75.658-14.493     c-19.382-17.033-25.909-46.538-15.526-70.158c0.563-1.27,2.048-1.846,3.318-1.292c1.273,0.56,1.852,2.045,1.292,3.318     c-9.372,21.315-3.25,48.98,14.237,64.352c16.667,14.649,42.636,19.51,71.278,13.352c20.81-4.482,42.158-12.967,64.019-22.009     c22.156-9.16,89.57-37.043,127.664,0.27c10.443,10.23,15.725,29.852,13.138,48.827c-2.488,18.248-11.47,32.501-25.297,40.129     C383.966,504.902,383.548,505.003,383.138,505.003z"/>
		</g>
		<g>
			<path style="fill:#000E3F;" d="M443.741,507.903c-0.825,0-1.633-0.404-2.114-1.15c-0.756-1.166-0.423-2.723,0.743-3.479     c22.063-14.308,34.76-36.682,34.831-61.386c0.068-24.267-12.147-46.235-33.52-60.267c-44.326-29.101-111.478-19.36-155.509-2.171     c-1.281,0.492-2.75-0.134-3.261-1.431c-0.505-1.295,0.137-2.756,1.431-3.261c45.151-17.62,114.179-27.501,160.102,2.657     c22.82,14.982,35.863,38.487,35.789,64.486c-0.077,26.438-13.608,50.348-37.128,65.595     C444.683,507.772,444.211,507.903,443.741,507.903z"/>
		</g>
	</g>
	<g>
		<g>
			<path style="fill:#FFFFFF;" d="M291.798,311.137c-0.811,1.567-1.662,3.104-2.524,4.621c-1.312,2.26-2.69,4.464-4.124,6.583     c-0.471,0.703-0.957,1.4-1.444,2.098c-0.487,0.698-0.983,1.375-1.495,2.047c-14.091,18.886-33.15,31.54-53.851,37.859     c-0.749,0.222-1.483,0.449-2.221,0.64c-0.744,0.207-1.488,0.413-2.226,0.605c-0.87,0.232-1.731,0.433-2.606,0.629     c-1.376,0.333-2.773,0.625-4.179,0.897c-0.824,0.146-1.67,0.302-2.51,0.443c-20.137,3.37-41.099,1.033-60.072-7.048     c-0.854-0.37-1.694-0.735-2.543-1.121c-0.657-0.304-1.299-0.603-1.951-0.922c-0.385-0.162-0.774-0.36-1.148-0.552     c-0.42-0.208-0.839-0.416-1.269-0.644c-0.45-0.218-0.905-0.471-1.365-0.71c-15.628-8.347-29.498-20.895-39.863-37.67     c-2.308-3.741-4.353-7.511-6.151-11.317c-0.354-0.759-0.707-1.518-1.04-2.288c-0.263-0.577-0.509-1.149-0.742-1.715     c-0.409-0.947-0.783-1.898-1.166-2.87c-29.744-76.001,36.58-159.585,120.186-142.862c37.296,7.462,64.929,32.625,77.89,63.881     c0.04,0.081,0.066,0.157,0.106,0.238C306.927,249.652,306.85,282.063,291.798,311.137z"/>
			<path style="opacity:0.18;fill:#000E3F;" d="M283.706,324.439c-47.151,67.605-154.101,58.039-186.399-23.736     c-0.777-2.014,11.408-6.272,12.835-6.605c29.672-6.963,77.951,26.218,123.008,11.985c21.218-6.703,37.619-23.518,48.048-42.701     c6.608-12.145,11.727-26.897,14.184-41.661c0.04,0.081,0.066,0.157,0.106,0.238C309.232,255.235,305.787,292.75,283.706,324.439z     "/>
			<g style="opacity:0.25;">
				<path style="fill:#000E3F;" d="M225.986,252.753c-21.451,5.689-50.191,21.6-63.629,40.999c-1.091,1.572,1.014,3.41,2.423,2.096      c36.542-32.288,64.132-37.978,63.059-42.019C227.625,253.02,226.795,252.538,225.986,252.753z"/>
				<path style="fill:#000E3F;" d="M135.35,207.39c0.497-1.713-1.884-2.717-2.767-1.171c-8.777,15.369-11.186,38.628-8.252,52.208      c0.883,5.922,2.78,11.659,5.124,17.1c0.751,1.745,3.392,0.956,3.064-0.914C124.877,234.137,134.512,213.052,135.35,207.39z"/>
				<path style="fill:#000E3F;" d="M165.95,186.878c-1.762-0.17-2.332,2.315-0.679,2.934c24.739,9.235,36.192,13.932,55.696,26.215      c1.586,1.014,3.329-1.07,2.056-2.454C209.095,198.436,183.804,188.61,165.95,186.878z"/>
				<path style="fill:#000E3F;" d="M253.962,212.519c0.878,0.217,1.766-0.318,1.983-1.196c3.121-12.604-0.151-28.545-6.591-36.499      c-1.023-1.259-3.045-0.258-2.671,1.313c1.823,7.953,2.166,9.563,3.462,17.39C252.71,211.113,252.313,212.111,253.962,212.519z"/>
				<path style="fill:#000E3F;" d="M167.311,168.847c-0.977,1.512,0.876,3.259,2.325,2.19c0.708-0.429,2.01-1.807,9.246-5.126      c8.491-3.788,17.734-6.728,26.034-9.842c-6.479-0.541-12.823-0.485-18.996,0.114      C179.227,158.756,171.212,162.842,167.311,168.847z"/>
				<path style="fill:#000E3F;" d="M120.297,203.572c1.377-0.701,0.969-2.79-0.583-2.903c-3.761-0.275-7.414,0.617-10.938,2.005      c-2.408,3.548-4.602,7.242-6.582,11.05C110.743,208.014,120.497,203.47,120.297,203.572z"/>
				<path style="fill:#000E3F;" d="M113.542,294.925c1.623,0.509,2.731-1.616,1.41-2.66c-2.516-1.807-0.209-0.69-24.114-17.124      c0.353,2.898,0.837,5.801,1.446,8.705c3.689,2.61,7.535,4.912,10.697,6.545C106.365,292.163,109.823,293.749,113.542,294.925z"/>
				<path style="fill:#000E3F;" d="M135.969,325.386c-0.791-0.292-1.67,0.112-1.962,0.904c-2.314,6.269-2.969,13.755-2.654,20.554      c2.204,1.721,4.465,3.339,6.775,4.859C135.901,328.266,138.163,326.195,135.969,325.386z"/>
				<path style="fill:#000E3F;" d="M217.361,345.336c1.854-0.318,1.753-3.021-0.113-3.207c-13.661-1.605-24.192-3.282-41.738-11.637      c-12.747-6.137-13.479-8.023-14.904-6.552c-0.585,0.604-0.57,1.569,0.034,2.154      C174.751,339.768,197.523,348.732,217.361,345.336z"/>
				<path style="fill:#000E3F;" d="M252.424,270.928c-0.617-1.639-3.066-1.093-2.939,0.646c1.709,22.98,2.277,34.56-0.27,56.23      c-0.191,1.845,2.402,2.501,3.104,0.773c1.848-4.547,3.202-9.335,3.926-14.193C258.663,299.156,256.653,282.182,252.424,270.928z      "/>
				<path style="fill:#000E3F;" d="M269.293,242.346c-1.564,0.24-1.797,2.387-0.342,2.967c12.26,4.541,16.215,5.512,26.968,11.344      c1.494,0.761,3.036-0.95,2.128-2.356C296.55,251.985,278.825,240.908,269.293,242.346z"/>
			</g>
			<g>
				<path style="fill:#FC09B2;" d="M180.344,267.739c-1.341-5.923,4.387-9.62,10.05-8.934c8.778,1.062,14.777,7.092,15.887,12.164      C209.261,284.575,183.596,282.109,180.344,267.739z"/>
				<path style="fill:#FC09B2;" d="M144.259,248.42c5.672-2.168,5.573-8.985,1.863-13.318c-5.751-6.716-14.096-8.365-18.932-6.478      C114.215,233.69,130.497,253.681,144.259,248.42z"/>
			</g>
		</g>
		<g>
			<g>
				<path style="fill:#000E3F;" d="M155.672,225.189c-2.342,4.405-7.3,5.817-11.503,3.668c-4.248-2.172-5.84-7.662-3.703-11.534      c2.31-4.185,7.259-5.73,11.515-3.514C156.323,216.069,157.924,221.006,155.672,225.189z"/>
				<path style="fill:#000E3F;" d="M196.452,256.895c-3.831-1.924-5.503-7.759-3.352-11.411c1.939-3.293,6.495-6.049,11.613-3.452      C214.464,246.981,207.123,262.253,196.452,256.895z"/>
			</g>
			<g>
				<path style="fill:#000E3F;" d="M172.256,254.863c-5.219,0-10.176-2.6-12.967-6.92c-3.626-5.612-3.146-13.136,1.319-20.641      c0.707-1.199,2.253-1.592,3.449-0.877c1.196,0.71,1.587,2.256,0.877,3.449c-3.501,5.885-4.004,11.333-1.417,15.337      c2.078,3.214,5.981,4.992,9.943,4.547c4.662-0.527,8.471-3.971,10.451-9.443c0.475-1.308,1.915-1.977,3.225-1.51      c1.305,0.475,1.983,1.917,1.51,3.226c-2.66,7.338-7.985,11.978-14.619,12.732C173.439,254.828,172.846,254.861,172.256,254.863z      "/>
			</g>
			<g>
				<g>
					<path style="fill:#000E3F;" d="M196.532,371.568c-38.009,0.003-72.258-18.975-92.263-51.358l0,0       c-23.298-37.706-22.104-83.674,3.116-119.96c25.215-36.281,67.594-53.472,110.606-44.883       c34.107,6.822,62.282,28.664,77.295,59.923c14.979,31.185,14.523,66.54-1.251,97.001       c-18.407,35.557-53.235,57.686-93.164,59.196C199.421,371.541,197.971,371.568,196.532,371.568z M196.168,158.223       c-33.479,0-64.694,16.184-84.652,44.9c-24.057,34.615-25.193,78.466-2.966,114.444l0,0       c19.797,32.048,54.223,50.34,92.132,48.89c38.091-1.439,71.319-22.555,88.885-56.482c15.039-29.041,15.471-62.758,1.182-92.506       c-14.324-29.819-41.202-50.657-73.747-57.165C210.017,158.905,203.042,158.223,196.168,158.223z"/>
				</g>
			</g>
			<g>
				<g>
					<path style="fill:#000E3F;" d="M258.542,205.423c7.838,6.995,13.889,22.765,16.679,33.777c0.7,2.759,0.557,5.392-0.887,8.061       c-5.478,10.125-11.409,20.005-20.059,27.759c-3.456,3.099-3.14-0.516-25.293-11.09c-10.084-4.814-11.632-4.466-11.598-7.873       c0.448-45.255-0.736-44.194,2.751-45.178c15.002-4.228,20.352-5.114,31.692-8.192       C255.196,201.771,256.286,203.287,258.542,205.423z"/>
					<path style="fill:#000E3F;" d="M127.564,268.775c5.54-4.603,1.551-0.466,33.059,13.805c5.592,2.535,7.864,2.048,7.552,5.568       c-2.656,30.083-0.32,31.906,0.639,39.628c0.187,1.502-0.099,2.034-1.477,2.74c-5.213,2.666-21.909,4.896-29.814,5.039       c-4.711,0.09-5.852-0.304-9.119-3.721c-9.433-9.865-15.976-18.946-19.713-32.403c-1.353-4.867,1.11-10.01,3.996-14.117       C116.996,279.185,121.848,273.524,127.564,268.775z"/>
					<path style="fill:#000E3F;" d="M155.504,166.173c4.976-0.918,9.982-1.154,15.018-1.075c3.162,0.049,3.763,0.718,3.023,3.785       c-4.223,17.49,0.823,21.173-4.231,22.863c-10.896,3.639-21.1,9.045-29.834,16.223c-1.755,1.442-3.694,2.662-5.218,4.384       c-1.856,2.1-5.155-2.321-17.587-6.772c-4.229-1.515-4.309-2.008,0.441-12.693C117.809,191.327,139.102,169.198,155.504,166.173       z"/>
					<path style="fill:#000E3F;" d="M226.279,365.219c-2.137,0.519-2.885,0.92-11.93-0.721c-2.133-0.387-2.798-1.272-2.905-3.432       c-0.183-3.657-0.229-13.686-0.183-17.347c0.062-5.025,3.189-3.213,11.394-6.819c11.828-5.197,18.053-10.352,25.093-18.456       c4.069-4.683,1.705-0.13,21.477,5.732c2.407,0.716,2.765,1.341,2.204,3.867c-1.161,5.23-5.963,12.982-8.91,17.473       C256.937,354.009,231.223,364.021,226.279,365.219z"/>
					<path style="fill:#000E3F;" d="M262.255,177.775c0.573,0.494,0.816,0.676,1.026,0.891c0.543,0.555,1.644,1.002,1.355,1.802       c-0.407,1.127-1.565,0.375-2.392,0.399c-1.202,0.035-2.408-0.079-3.61-0.054c-2.51,0.053-5.021,0.108-7.527,0.253       c-1.418,0.082-2.574-0.347-3.515-1.364c-1.227-1.325-2.445-2.66-3.624-4.027c-3.547-4.111-7.34-7.97-11.513-11.457       c-0.967-0.808-2.215-1.387-2.651-2.728c1.493-0.965,2.672,0.258,3.889,0.676c7.06,2.422,13.676,5.78,19.996,9.744       C256.754,173.832,259.719,175.888,262.255,177.775z"/>
					<path style="fill:#000E3F;" d="M299.383,240.173c0.78-0.921,1.745-0.722,2.013,0.24c1.688,6.071,3.154,17.426,2.055,30.539       c-0.033,0.398-0.096,0.796-0.18,1.187c-0.069,0.314-0.279,0.55-0.619,0.522c-0.17-0.014-0.403-0.138-0.479-0.281       c-0.279-0.531-0.534-1.08-0.745-1.642c-2.11-5.588-4.88-10.801-8.733-15.398c-2.435-2.907-0.081-2.862,6.672-15.145       C299.414,240.11,299.496,240.043,299.383,240.173z"/>
				</g>
			</g>
		</g>
	</g>
	<g>
		<path style="fill:#FD8A02;" d="M225.065,494.718l7.876-8.384c0.503-0.535,0.71-1.283,0.554-2.001l-2.441-11.241    c-0.393-1.807,1.457-3.279,3.13-2.492l10.408,4.899c0.664,0.313,1.44,0.279,2.074-0.091l9.936-5.796    c1.597-0.931,3.569,0.373,3.337,2.207l-1.444,11.412c-0.092,0.728,0.18,1.456,0.728,1.944l8.583,7.659    c1.379,1.231,0.748,3.51-1.068,3.856l-11.299,2.154c-0.721,0.137-1.329,0.621-1.624,1.293l-4.632,10.529    c-0.745,1.692-3.107,1.796-3.997,0.176l-5.54-10.081c-0.353-0.644-1.001-1.072-1.732-1.146l-11.445-1.152    C224.628,498.28,223.799,496.066,225.065,494.718z"/>
		<path style="fill:#FD8A02;" d="M331.847,443.186l9.559,1.578c0.61,0.101,1.231-0.105,1.66-0.551l6.719-6.98    c1.08-1.122,2.978-0.518,3.211,1.022l1.453,9.579c0.093,0.611,0.48,1.138,1.037,1.408l8.715,4.233    c1.401,0.681,1.413,2.672,0.021,3.37l-8.661,4.342c-0.553,0.277-0.934,0.809-1.019,1.421l-1.333,9.596    c-0.214,1.543-2.105,2.169-3.199,1.061l-6.806-6.896c-0.435-0.44-1.058-0.638-1.666-0.53l-9.539,1.697    c-1.533,0.273-2.714-1.331-1.998-2.714l4.455-8.604c0.284-0.549,0.28-1.203-0.011-1.749l-4.562-8.547    C329.15,444.551,330.311,442.933,331.847,443.186z"/>
		<path style="fill:#FD8A02;" d="M40.217,377.04l9.559,1.578c0.61,0.101,1.231-0.105,1.66-0.551l6.719-6.98    c1.08-1.122,2.978-0.518,3.211,1.022l1.453,9.579c0.093,0.611,0.48,1.138,1.037,1.408l8.715,4.233    c1.401,0.681,1.413,2.672,0.021,3.37l-8.661,4.342c-0.553,0.277-0.934,0.809-1.019,1.421l-1.333,9.596    c-0.215,1.543-2.105,2.17-3.199,1.061l-6.806-6.896c-0.435-0.44-1.058-0.638-1.667-0.53l-9.539,1.697    c-1.533,0.273-2.714-1.331-1.998-2.714l4.455-8.604c0.284-0.549,0.28-1.203-0.011-1.749l-4.562-8.547    C37.52,378.405,38.68,376.786,40.217,377.04z"/>
		<path style="fill:#FD8A02;" d="M109.907,491.191l2.592-8.42c0.165-0.537,0.056-1.122-0.293-1.563l-5.467-6.909    c-0.879-1.111-0.103-2.747,1.313-2.768l8.809-0.137c0.562-0.009,1.084-0.294,1.396-0.762l4.882-7.334    c0.784-1.179,2.58-0.946,3.039,0.394l2.852,8.335c0.182,0.532,0.614,0.941,1.156,1.092l8.484,2.376    c1.364,0.382,1.697,2.162,0.565,3.012l-7.046,5.288c-0.45,0.338-0.705,0.875-0.682,1.437l0.362,8.803    c0.058,1.415-1.532,2.283-2.69,1.468l-7.207-5.068c-0.46-0.323-1.05-0.4-1.577-0.204l-8.26,3.064    C110.806,493.788,109.49,492.544,109.907,491.191z"/>
	</g>
</g>















</svg>
