<?xml version="1.0" encoding="UTF-8"?>
<!-- Generator: Adobe Illustrator 25.2.3, SVG Export Plug-In . SVG Version: 6.00 Build 0)  -->
<svg xmlns="http://www.w3.org/2000/svg" xmlns:xlink="http://www.w3.org/1999/xlink" version="1.1" id="Capa_1" x="0px" y="0px" viewBox="0 0 512 512" style="enable-background:new 0 0 512 512;" xml:space="preserve" width="512" height="512">
<g>
	<g>
		<path style="fill:#241726;" d="M491.959,365.138c-0.002,0-0.032,0-0.034,0c-4.447-0.02-8.05-3.656-8.032-8.103    c0.02-4.429,3.64-8.032,8.068-8.032c4.481,0.02,8.084,3.656,8.066,8.103C500.007,361.535,496.388,365.138,491.959,365.138z     M491.986,351.332c-3.176,0-5.75,2.564-5.765,5.713c-0.014,3.165,2.551,5.75,5.713,5.765l0.025-0.002v0.002    c3.151,0,5.725-2.564,5.74-5.713C497.713,353.933,495.149,351.348,491.986,351.332z"/>
	</g>
	<g>
		<path style="fill:#241726;" d="M27.499,252.628c-0.853,0-1.662,0-3.897-8.896c-7.532-1.45-8.173-2.31-8.419-2.639    c-0.216-0.291-0.307-0.818-0.209-1.166c0.136-0.487,0.452-1.61,9.066-5.083c3.094-8.068,4.151-8.068,4.854-8.068    c0.366,0,0.871,0.261,1.089,0.557c0.557,0.746,1.059,2.678,1.821,5.772c0.236,0.962,0.521,2.121,0.687,2.637    c0.455,0.202,1.444,0.557,2.267,0.853c4.438,1.591,5.581,2.132,5.79,3.199c0.08,0.402-0.125,0.989-0.43,1.262    c-0.903,0.809-5.174,2.396-7.423,3.196c-3.649,8.3-4.435,8.339-5.131,8.375C27.547,252.628,27.519,252.628,27.499,252.628z     M18.16,240.091c1.512,0.434,4.233,1.05,6.607,1.494c0.448,0.084,0.807,0.421,0.916,0.864c0.607,2.464,1.4,5.268,1.976,6.886    c0.834-1.507,2.089-4.147,3.108-6.479c0.13-0.296,0.375-0.525,0.68-0.632c2.028-0.714,4.32-1.589,5.761-2.217    c-1.005-0.423-2.355-0.907-3.235-1.221c-2.53-0.909-3.008-1.105-3.335-1.546c-0.286-0.382-0.464-1.021-1.091-3.578    c-0.234-0.95-0.591-2.401-0.912-3.501c-0.748,1.437-1.787,3.849-2.596,5.986c-0.116,0.307-0.355,0.548-0.657,0.671    C22.743,237.867,19.751,239.208,18.16,240.091z"/>
	</g>
	<g>
		<path style="fill:#241726;" d="M282.551,43.384c-0.857,0-1.666,0-3.901-8.896c-7.532-1.45-8.173-2.31-8.419-2.639    c-0.216-0.291-0.307-0.821-0.209-1.169c0.136-0.487,0.455-1.612,9.066-5.083c3.094-8.066,4.151-8.066,4.854-8.066    c0.366,0,0.871,0.261,1.089,0.557c0.557,0.746,1.059,2.68,1.821,5.775c0.236,0.962,0.523,2.119,0.687,2.635    c0.455,0.202,1.444,0.557,2.267,0.853c4.438,1.591,5.581,2.132,5.79,3.199c0.08,0.402-0.125,0.989-0.43,1.262    c-0.9,0.807-5.174,2.394-7.423,3.196c-3.649,8.3-4.433,8.339-5.127,8.375C282.596,43.384,282.569,43.384,282.551,43.384z     M273.207,30.846c1.51,0.432,4.231,1.05,6.607,1.494c0.448,0.082,0.807,0.421,0.916,0.864c0.607,2.464,1.4,5.268,1.978,6.886    c0.832-1.507,2.087-4.147,3.105-6.479c0.13-0.296,0.375-0.525,0.68-0.632c2.028-0.714,4.32-1.589,5.759-2.219    c-1.003-0.421-2.353-0.905-3.233-1.219c-2.53-0.909-3.008-1.105-3.335-1.546c-0.286-0.384-0.464-1.021-1.091-3.576    c-0.234-0.95-0.591-2.403-0.912-3.503c-0.748,1.435-1.787,3.849-2.596,5.984c-0.116,0.307-0.355,0.548-0.657,0.671    C277.788,28.623,274.794,29.964,273.207,30.846z"/>
	</g>
	<g>
		<path style="fill:#241726;" d="M442.537,150.572c-0.855,0-1.664,0-3.899-8.896c-7.534-1.45-8.175-2.31-8.421-2.639    c-0.216-0.291-0.307-0.821-0.209-1.169c0.136-0.487,0.457-1.612,9.069-5.083c3.094-8.068,4.151-8.068,4.854-8.068    c0.366,0,0.871,0.261,1.089,0.557c0.557,0.748,1.059,2.676,1.816,5.765c0.239,0.964,0.525,2.13,0.691,2.646    c0.455,0.202,1.448,0.559,2.271,0.855c4.433,1.589,5.577,2.13,5.786,3.196c0.08,0.402-0.125,0.987-0.43,1.259    c-0.903,0.809-5.177,2.396-7.425,3.199c-3.647,8.3-4.433,8.341-5.129,8.375C442.582,150.572,442.555,150.572,442.537,150.572z     M433.193,138.034c1.51,0.432,4.233,1.05,6.609,1.494c0.448,0.082,0.807,0.421,0.916,0.864c0.607,2.462,1.4,5.268,1.976,6.886    c0.834-1.507,2.087-4.147,3.105-6.479c0.127-0.296,0.375-0.525,0.68-0.632c2.028-0.714,4.32-1.589,5.761-2.219    c-1.003-0.421-2.351-0.903-3.226-1.216c-2.539-0.912-3.017-1.107-3.344-1.55c-0.286-0.382-0.462-1.021-1.094-3.587    c-0.232-0.948-0.589-2.394-0.907-3.492c-0.75,1.437-1.787,3.851-2.596,5.986c-0.116,0.307-0.355,0.548-0.657,0.671    C437.776,135.81,434.782,137.152,433.193,138.034z"/>
	</g>
	<g>
		<path style="fill:#241726;" d="M187.123,302.858c-0.002,0-0.039,0-0.039,0c-4.447-0.018-8.05-3.653-8.032-8.1    c0.018-4.429,3.637-8.032,8.066-8.032c2.189,0.009,4.21,0.857,5.729,2.387c1.516,1.53,2.346,3.56,2.337,5.713    C195.167,299.254,191.55,302.858,187.123,302.858z M187.144,289.053c-3.176,0-5.75,2.562-5.763,5.713    c-0.007,1.535,0.584,2.978,1.664,4.065c1.078,1.089,2.517,1.691,4.049,1.698h0.03l0,0c3.149,0,5.72-2.562,5.734-5.713    c0.007-1.532-0.584-2.976-1.664-4.065C190.115,289.663,188.676,289.06,187.144,289.053z"/>
	</g>
	<g>
		<path style="fill:#241726;" d="M457.633,500.24c-0.002,0-0.032,0-0.034,0c-2.155-0.009-4.176-0.857-5.695-2.387    c-1.516-1.53-2.346-3.558-2.337-5.713c0.018-4.429,3.635-8.032,8.062-8.032c2.194,0.009,4.215,0.857,5.734,2.387    c1.516,1.53,2.346,3.558,2.337,5.713C465.68,496.636,462.061,500.24,457.633,500.24z M457.658,486.435    c-3.178,0-5.75,2.562-5.763,5.713c-0.007,1.535,0.584,2.978,1.664,4.065c1.078,1.089,2.517,1.691,4.049,1.698l0.025-0.001v0.001    c3.151,0,5.725-2.562,5.738-5.713c0.007-1.535-0.584-2.978-1.664-4.065C460.629,487.045,459.19,486.442,457.658,486.435z"/>
	</g>
	<g>
		<g>
			<path style="fill:#FFFFFF;" d="M319.386,279.015c0,0-2.238-16.988,14.114-11.491c16.352,5.497,11.024,21.05,4.79,15.728     c-6.234-5.322,5.463-23.374,17.975-15.336c12.513,8.038,9.714,23.635,0.839,24.786c-8.875,1.151,5.373-18.16,16.553-6.234     c11.181,11.926-13.23,33.671-23.214,25.676c-9.983-7.994-2.171-20.898,0.224-13.034c2.395,7.864-4.063,15.575-21.769,15.271     c-17.706-0.305-9.647-27.545-3.458-19.616c6.189,7.929-4.086,16.879-16.576,7.537     C296.375,292.961,310.623,273.649,319.386,279.015z"/>
		</g>
		<g>
			<path style="fill:#241726;" d="M329.906,315.555l-1.028-0.009c-5.811-0.1-9.903-3.074-11.351-8.2     c-3.053-0.391-6.27-1.801-9.36-4.11c-4.906-3.669-6.566-9.237-4.558-15.277c2.057-6.186,7.541-11.031,12.481-11.031     c0.7,0,1.375,0.091,2.028,0.273c-0.018-2.373,0.357-6.377,2.746-9.103c2.687-3.062,7.111-3.663,13.006-1.676     c2.262,0.759,4.245,1.746,5.911,2.94c4.729-4.972,11.451-6.059,17.112-2.426c5.406,3.474,8.694,8.814,8.971,14.47     c3.171,0.098,6.077,1.532,8.641,4.267c3.487,3.722,4.133,8.723,1.812,14.079c-3.526,8.139-13.156,15.28-20.609,15.28     c-2.337,0-4.354-0.666-5.995-1.978c-0.775-0.621-1.475-1.291-2.094-2.003C343.706,314.002,337.618,315.555,329.906,315.555z      M319.997,307.434c1.016,2.842,3.41,5.688,8.923,5.784l0.987,0.009c8.869,0,13.722-2.073,16.335-4.049     c-2.485-4.038-2.292-8.446-0.903-11.181c0.807-1.587,1.98-2.499,3.219-2.499c0.832,0,2.355,0.425,3.224,3.274     c1.2,3.94,0.314,7.793-2.423,10.728c0.532,0.614,1.139,1.196,1.812,1.735c1.216,0.975,2.744,1.469,4.54,1.469     c6.52,0,15.325-6.616,18.472-13.877c1.364-3.151,2.235-7.714-1.375-11.563c-2.117-2.26-4.47-3.447-6.998-3.531     c-0.543,5.431-3.949,9.526-8.555,10.124c-3.024,0.396-4.033-1.194-4.09-2.66c-0.13-3.206,4.479-8.589,10.381-9.623     c-0.225-4.924-3.124-9.605-7.909-12.679c-4.701-3.021-10.087-2.133-14.052,1.951c3.851,3.683,4.567,8.207,3.487,11.228     c-0.755,2.119-2.378,3.435-4.231,3.435c0,0,0,0-0.002,0c-1.109,0-2.253-0.475-3.303-1.373c-3.449-2.942-2.346-8.68,0.757-12.979     c-1.45-1.016-3.181-1.864-5.161-2.53c-4.924-1.657-8.45-1.337-10.51,1c-2.821,3.21-2.087,9.178-2.078,9.239     c0.057,0.443-0.146,0.882-0.523,1.125c-0.375,0.246-0.857,0.25-1.239,0.018c-0.818-0.502-1.723-0.755-2.689-0.755     c-3.933,0-8.541,4.233-10.271,9.437c-0.791,2.378-2.01,8.375,3.744,12.679c2.503,1.873,5.067,3.081,7.498,3.544     c-0.432-3.974,0.584-8.339,2.626-10.874c0.996-1.234,2.157-1.887,3.362-1.887c0.834,0,2.087,0.327,3.31,1.894     c2.205,2.826,2.705,6.016,1.371,8.748C326.421,305.481,323.498,307.218,319.997,307.434z M348.558,297.827     c-0.2,0-0.689,0.332-1.144,1.225c-1.007,1.985-1.175,5.345,0.568,8.491c1.923-2.273,2.483-5.102,1.571-8.093     C349.151,298.124,348.69,297.827,348.558,297.827z M323.05,294.482c-0.468,0-1.018,0.361-1.55,1.021     c-1.505,1.866-2.608,5.854-2.067,9.626c2.851-0.055,5.218-1.328,6.206-3.353c0.93-1.903,0.523-4.197-1.116-6.295     C324.168,295.026,323.623,294.482,323.05,294.482z M363.437,283.968c-4.717,1.066-8.018,5.395-7.948,7.136     c0.009,0.216,0.018,0.484,0.896,0.484c0.175,0,0.364-0.014,0.568-0.041C360.332,291.111,362.867,288.074,363.437,283.968z      M340.087,272.639c-2.655,3.715-3.162,7.918-1.043,9.728c1.598,1.362,3.142,0.868,3.835-1.075     C343.688,279.023,343.09,275.577,340.087,272.639z"/>
		</g>
	</g>
	<g>
		<g>
			<path style="fill:#FFFFFF;" d="M297.623,431.831c0,0-2.238-16.988,14.114-11.491c16.352,5.497,11.024,21.05,4.79,15.728     c-6.234-5.322,5.463-23.374,17.975-15.336c12.513,8.038,9.714,23.635,0.839,24.786c-8.875,1.151,5.373-18.16,16.553-6.234     c11.181,11.926-13.23,33.671-23.214,25.676c-9.983-7.994-2.171-20.898,0.224-13.034c2.395,7.864-4.063,15.575-21.769,15.271     c-17.706-0.305-9.647-27.545-3.458-19.616c6.189,7.929-4.086,16.879-16.576,7.537     C274.611,445.776,288.86,426.465,297.623,431.831z"/>
		</g>
		<g>
			<path style="fill:#241726;" d="M308.143,468.371l-1.028-0.009c-5.811-0.1-9.903-3.074-11.351-8.2     c-3.053-0.391-6.27-1.801-9.36-4.11c-4.906-3.669-6.566-9.237-4.558-15.277c2.057-6.186,7.541-11.031,12.481-11.031     c0.7,0,1.375,0.091,2.028,0.273c-0.018-2.373,0.357-6.377,2.746-9.103c2.689-3.062,7.114-3.663,13.006-1.676     c2.262,0.759,4.245,1.746,5.911,2.94c4.729-4.974,11.449-6.059,17.112-2.426c5.406,3.474,8.694,8.814,8.971,14.47     c3.171,0.098,6.077,1.532,8.641,4.267c3.487,3.722,4.133,8.723,1.812,14.079c-3.526,8.139-13.156,15.28-20.609,15.28     c-2.337,0-4.354-0.666-5.993-1.978c-0.775-0.621-1.475-1.291-2.094-2.003C321.945,466.818,315.857,468.371,308.143,468.371z      M298.233,460.25c1.016,2.842,3.412,5.688,8.923,5.784l0.987,0.009c8.871,0,13.725-2.073,16.335-4.049     c-2.485-4.038-2.289-8.446-0.903-11.178c0.807-1.589,1.98-2.501,3.219-2.501c0.832,0,2.355,0.425,3.224,3.274     c1.2,3.94,0.316,7.793-2.423,10.726c0.532,0.616,1.139,1.198,1.814,1.737c1.216,0.975,2.744,1.469,4.538,1.469     c6.522,0,15.325-6.616,18.472-13.877c1.364-3.151,2.235-7.714-1.375-11.563c-2.117-2.26-4.47-3.447-6.998-3.531     c-0.543,5.431-3.949,9.526-8.555,10.124c-3.026,0.389-4.031-1.194-4.09-2.66c-0.13-3.206,4.479-8.589,10.381-9.623     c-0.225-4.924-3.124-9.605-7.909-12.679c-4.704-3.021-10.087-2.13-14.052,1.951c3.853,3.683,4.567,8.207,3.49,11.231     c-0.757,2.117-2.378,3.433-4.231,3.433h-0.002c-1.109,0-2.253-0.475-3.303-1.373c-3.449-2.942-2.346-8.68,0.755-12.979     c-1.45-1.016-3.181-1.864-5.161-2.53c-4.931-1.657-8.459-1.335-10.515,1.005c-2.828,3.226-2.082,9.173-2.073,9.232     c0.057,0.446-0.146,0.884-0.521,1.128c-0.377,0.246-0.862,0.25-1.241,0.018c-0.818-0.502-1.723-0.755-2.689-0.755     c-3.933,0-8.541,4.233-10.271,9.437c-0.791,2.378-2.01,8.375,3.744,12.679c2.503,1.873,5.067,3.081,7.498,3.544     c-0.432-3.974,0.584-8.339,2.626-10.874c0.996-1.234,2.157-1.887,3.362-1.887c0.834,0,2.087,0.327,3.31,1.894     c2.205,2.828,2.705,6.016,1.373,8.748C304.658,458.297,301.734,460.034,298.233,460.25z M326.794,450.642     c-0.2,0-0.689,0.332-1.144,1.225c-1.007,1.985-1.175,5.343,0.571,8.491c1.921-2.276,2.48-5.102,1.569-8.093     C327.387,450.94,326.926,450.642,326.794,450.642z M301.286,447.298c-0.468,0-1.018,0.361-1.55,1.021     c-1.505,1.866-2.608,5.854-2.067,9.626c2.851-0.055,5.22-1.328,6.206-3.353c0.93-1.903,0.523-4.197-1.116-6.295     C302.405,447.841,301.859,447.298,301.286,447.298z M341.674,436.783c-4.717,1.066-8.018,5.395-7.948,7.136     c0.009,0.216,0.018,0.484,0.896,0.484c0.175,0,0.364-0.014,0.568-0.041C338.568,443.927,341.103,440.889,341.674,436.783z      M318.323,425.455c-2.653,3.715-3.16,7.918-1.041,9.728c1.598,1.359,3.142,0.868,3.833-1.075     C321.927,431.839,321.327,428.392,318.323,425.455z"/>
		</g>
	</g>
	<g>
		<g>
			<path style="fill:#241726;" d="M422.142,474.566c-0.837,0-3.376,0-7.909-19.961c-0.095-0.416,0.048-0.853,0.371-1.134     c8.591-7.482,21.257-18.742,27.231-24.521c-7.6,4.21-23.573,13.875-34.204,20.45c-0.273,0.173-0.609,0.223-0.923,0.132     c-1.935-0.537-11.66-3.399-13.093-6.886c-0.116-0.282-0.243-0.853,0.195-1.512c2.755-4.11,46.192-16.646,51.814-16.646     c0.414,0,0.725,0.052,0.982,0.164c0,0,0,0,0.002,0c0.073,0.034,0.141,0.073,0.202,0.116c0.007,0.005,0.014,0.009,0.02,0.014     s0.014,0.009,0.02,0.016c0.093,0.059,0.177,0.132,0.252,0.218c0.566,0.655,0.775,1.38-1.951,7.748     c-2.06,4.815-19.429,41.627-22.93,41.802C422.203,474.566,422.16,474.566,422.142,474.566z M416.658,454.769     c1.689,7.282,4.092,15.323,5.452,17.203c3.26-3.813,16.985-30.632,21.536-41.57C439.797,434.246,432.068,441.339,416.658,454.769     z M396.011,442.156c1.355,1.687,6.818,3.831,10.833,4.995c7.973-4.931,22.93-14.093,31.958-19.104     C425.634,431.184,399.433,439.28,396.011,442.156z"/>
		</g>
		<g>
			<path style="fill:#241726;" d="M410.429,467.752c-0.552,0-0.939-0.218-1.173-0.414c-1.507-1.257-2.624-10.712-3.294-18.424     c-0.057-0.639,0.418-1.205,1.059-1.259c0.627-0.048,1.203,0.416,1.259,1.059c0.593,6.832,1.646,14.759,2.398,16.626     c1.016-0.468,3.408-2.767,5.454-5.281c0.407-0.5,0.843-0.395,1.339,0.006c0.498,0.405,0.228,1.742-0.179,2.24     c-1.462,1.798-4.454,5.222-6.65,5.436C410.568,467.748,410.497,467.752,410.429,467.752z"/>
		</g>
	</g>
	<g>
		<g>
			<g>
				<path style="fill:#FFCE59;" d="M197.394,349.649c0,0-5.601,24.229-1.346,24.463s70.198,3.864,70.198,3.864l-2.849-25.761      L197.394,349.649z"/>
			</g>
			<g>
				<path style="fill:#00A09A;" d="M152.519,320.636l158.996,10.173c0,0-7.611,24.375-16.115,27.006s-125.007-6.88-129.174-7.11      C162.06,350.476,149.224,323.554,152.519,320.636z"/>
			</g>
			<g>
				<path style="fill:#9C5680;" d="M343.732,191.278c0,0,76.658,41.558,43.102,166.664c0,0,30.845,1.698,37.226,2.049      c6.382,0.351,46.027-119.085-38.799-186.697L343.732,191.278z"/>
			</g>
			<g>
				<path style="fill:#FFCE59;" d="M236.384,239.5c0,0-24.43,25.789-22.339,31.922c2.091,6.133,27.149,23.425,29.956,20.802      c2.806-2.622,24.271-24.808,24.271-24.808L236.384,239.5z"/>
			</g>
			<g>
				<path style="fill:#00A09A;" d="M374.05,73.166c0,0-26.308,23.772-24.564,27.803c1.744,4.031,23.946,27.359,23.946,27.359      s32.289-27.638,29.32-32.546C399.784,90.874,374.05,73.166,374.05,73.166z"/>
			</g>
			<g>
				<path style="fill:#9C5680;" d="M331.663,77.998c0,0-135.626,153.003-128.638,162.646c6.989,9.643,49.447,45.174,64.335,43.798      c14.888-1.376,133.366-141.183,133.55-146.611C401.095,132.403,331.663,77.998,331.663,77.998z"/>
			</g>
			<g>
				<path style="fill:#FFCE59;" d="M366.548,31.629c0,0-3.14,37.941,0.345,47.426c1.181,3.215,32.337,24.125,32.337,24.125      c11.983-1.995,50.621-11.363,43.803-15.945C424.736,74.938,400.248,52.574,366.548,31.629z"/>
			</g>
			<g>
				<circle style="fill:#00A09A;" cx="363.965" cy="182.256" r="41.011"/>
			</g>
			<g>
				<path style="fill:#FFCE59;" d="M445.961,390.097l-96.68-5.57c0,0,8.792-70.84,54.727-67.246      C432.125,319.481,449.776,340.166,445.961,390.097z"/>
			</g>
			<g>
				<path style="fill:#9C5680;" d="M173.888,369.692c0,0,274.347,11.018,282.563,16.804c8.216,5.786,6.486,21.797-4.209,22.275      s-275.446-14.382-287.146-15.026s-14.188-13.583-11.827-17.72C155.631,371.888,162.188,369.048,173.888,369.692z"/>
			</g>
			<g>
				<g>
					
						<ellipse transform="matrix(0.055 -0.9985 0.9985 0.055 162.0945 535.1033)" style="fill:#FFFFFF;" cx="363.73" cy="181.921" rx="20.532" ry="21.217"/>
				</g>
				<g>
					<path style="fill:#241726;" d="M363.824,203.62c-0.427,0-0.855-0.011-1.287-0.036c-5.961-0.327-11.444-2.885-15.439-7.2       c-4.006-4.326-6.034-9.899-5.715-15.694c0.655-11.892,11.194-21.154,23.539-20.431c5.961,0.327,11.444,2.885,15.439,7.2       c4.006,4.326,6.034,9.899,5.715,15.691C385.444,194.629,375.671,203.62,363.824,203.62z M363.631,162.551       c-10.608,0-19.361,8.025-19.924,18.267c-0.284,5.158,1.528,10.126,5.099,13.984c3.583,3.872,8.505,6.163,13.859,6.459       c11.113,0.566,20.504-7.623,21.088-18.237c0.284-5.158-1.528-10.124-5.099-13.984c-3.583-3.869-8.505-6.161-13.859-6.457       C364.404,162.562,364.017,162.551,363.631,162.551z"/>
				</g>
			</g>
		</g>
		<g>
			<g>
				<path style="fill:#241726;" d="M283.892,155.889c-0.15,0-0.3-0.03-0.446-0.089c-0.593-0.248-0.875-0.928-0.63-1.521      c0.086-0.209,2.178-5.177,6.102-6.557c0.609-0.218,1.273,0.109,1.485,0.712c0.214,0.607-0.105,1.271-0.712,1.485      c-2.937,1.032-4.706,5.211-4.724,5.252C284.781,155.619,284.347,155.889,283.892,155.889z"/>
			</g>
			<g>
				<path style="fill:#241726;" d="M272.195,162.407c-0.15,0-0.3-0.03-0.446-0.089c-0.593-0.248-0.875-0.928-0.63-1.521      c0.086-0.209,2.178-5.177,6.104-6.557c0.607-0.216,1.271,0.107,1.485,0.712c0.214,0.607-0.105,1.271-0.712,1.485      c-2.94,1.032-4.708,5.211-4.726,5.252C273.084,162.137,272.65,162.407,272.195,162.407z"/>
			</g>
			<g>
				<path style="fill:#241726;" d="M276.419,171.51c-0.15,0-0.3-0.03-0.446-0.089c-0.593-0.248-0.875-0.925-0.63-1.519      c0.086-0.211,2.176-5.179,6.102-6.559c0.607-0.214,1.271,0.109,1.485,0.712c0.214,0.607-0.105,1.271-0.712,1.485      c-2.94,1.032-4.706,5.211-4.724,5.252C277.308,171.24,276.874,171.51,276.419,171.51z"/>
			</g>
			<g>
				<path style="fill:#241726;" d="M290.622,161.075c-0.15,0-0.3-0.03-0.446-0.089c-0.593-0.248-0.875-0.925-0.63-1.519      c0.086-0.211,2.176-5.179,6.102-6.559c0.612-0.216,1.273,0.109,1.485,0.712c0.214,0.607-0.105,1.271-0.712,1.485      c-2.94,1.032-4.706,5.211-4.724,5.252C291.51,160.805,291.076,161.075,290.622,161.075z"/>
			</g>
			<g>
				<path style="fill:#241726;" d="M293.209,143.167c-0.15,0-0.3-0.03-0.446-0.089c-0.593-0.248-0.875-0.928-0.63-1.521      c0.086-0.209,2.178-5.177,6.104-6.557c0.607-0.216,1.273,0.107,1.485,0.712c0.214,0.607-0.105,1.271-0.712,1.485      c-2.94,1.032-4.708,5.211-4.726,5.252C294.098,142.897,293.663,143.167,293.209,143.167z"/>
			</g>
			<g>
				<path style="fill:#241726;" d="M251.769,190.998c-0.15,0-0.3-0.03-0.446-0.089c-0.593-0.248-0.875-0.928-0.63-1.521      c0.086-0.209,2.178-5.177,6.104-6.559c0.607-0.216,1.271,0.105,1.485,0.712s-0.105,1.271-0.712,1.485      c-2.94,1.034-4.708,5.213-4.726,5.254C252.657,190.727,252.223,190.998,251.769,190.998z"/>
			</g>
			<g>
				<path style="fill:#241726;" d="M263.329,178.942c-0.148,0-0.298-0.027-0.443-0.089c-0.596-0.246-0.878-0.925-0.632-1.519      c0.086-0.211,2.176-5.179,6.102-6.561c0.609-0.218,1.273,0.105,1.485,0.712c0.214,0.607-0.105,1.271-0.712,1.485      c-2.453,0.864-4.242,4.085-4.724,5.252C264.22,178.671,263.786,178.942,263.329,178.942z"/>
			</g>
			<g>
				<path style="fill:#241726;" d="M273.227,185.214c-0.15,0-0.3-0.03-0.446-0.089c-0.593-0.248-0.875-0.925-0.63-1.519      c0.086-0.211,2.176-5.179,6.102-6.559c0.607-0.216,1.271,0.109,1.485,0.712c0.214,0.607-0.105,1.271-0.712,1.485      c-2.94,1.032-4.706,5.211-4.724,5.252C274.116,184.944,273.682,185.214,273.227,185.214z"/>
			</g>
		</g>
		<g>
			<path style="fill:#241726;" d="M436.055,372.998c-0.612,0-1.123-0.475-1.162-1.091c-1.18-19.024-6.2-31.769-14.925-37.88     c-8.275-5.795-17.114-3.283-17.203-3.256c-0.625,0.182-1.264-0.171-1.446-0.784c-0.184-0.616,0.166-1.264,0.78-1.448     c0.402-0.118,9.949-2.876,19.167,3.556c9.357,6.527,14.723,19.872,15.95,39.667c0.041,0.643-0.448,1.196-1.089,1.234     C436.103,372.998,436.078,372.998,436.055,372.998z"/>
		</g>
		<g>
			<path style="fill:#241726;" d="M427.007,257.407c-0.059,0-0.118-0.005-0.177-0.014c-0.637-0.095-1.073-0.689-0.975-1.325     c0.468-3.08-2.389-6.602-2.417-6.638c-0.407-0.496-0.336-1.228,0.159-1.637c0.498-0.409,1.23-0.336,1.637,0.157     c0.146,0.175,3.547,4.351,2.921,8.469C428.069,256.993,427.571,257.407,427.007,257.407z"/>
		</g>
		<g>
			<path style="fill:#241726;" d="M430.163,275.117c-0.168,0-0.336-0.036-0.498-0.111c-0.58-0.275-0.83-0.968-0.555-1.55     c1.109-2.351,0.075-5.886-0.418-7.052c-0.25-0.591,0.027-1.273,0.621-1.525c0.587-0.243,1.273,0.025,1.525,0.621     c0.089,0.209,2.155,5.188,0.377,8.953C431.018,274.871,430.6,275.117,430.163,275.117z"/>
		</g>
		<g>
			<path style="fill:#241726;" d="M423.315,238.283c-0.059,0-0.118-0.005-0.177-0.014c-0.637-0.095-1.073-0.689-0.975-1.325     c0.391-2.569-1.612-5.661-2.417-6.636c-0.409-0.496-0.339-1.23,0.157-1.639c0.491-0.411,1.23-0.341,1.639,0.157     c0.145,0.175,3.547,4.354,2.921,8.469C424.376,237.869,423.879,238.283,423.315,238.283z"/>
		</g>
		<g>
			<path style="fill:#241726;" d="M423.536,282.907c-0.057-0.015-0.113-0.035-0.168-0.058c-0.591-0.255-0.862-0.939-0.605-1.53     c1.033-2.385-0.116-5.885-0.646-7.033c-0.269-0.583-0.014-1.276,0.569-1.545c0.58-0.273,1.274-0.017,1.545,0.569     c0.096,0.206,2.32,5.114,0.667,8.933C424.668,282.778,424.081,283.051,423.536,282.907z"/>
		</g>
		<g>
			<path style="fill:#241726;" d="M417.975,247.527c-0.059,0-0.118-0.005-0.177-0.014c-0.634-0.095-1.073-0.689-0.975-1.325     c0.389-2.569-1.614-5.661-2.419-6.636c-0.409-0.496-0.339-1.23,0.157-1.639c0.491-0.409,1.23-0.343,1.639,0.157     c0.145,0.175,3.547,4.354,2.924,8.469C419.036,247.113,418.541,247.527,417.975,247.527z"/>
		</g>
		<g>
			<path style="fill:#241726;" d="M420.601,265.884c-0.109,0-0.221-0.016-0.332-0.048c-0.616-0.184-0.966-0.832-0.784-1.448     c0.887-2.985-1.46-6.868-1.482-6.907c-0.336-0.548-0.164-1.264,0.382-1.601c0.55-0.339,1.262-0.166,1.6,0.38     c0.12,0.196,2.917,4.802,1.732,8.791C421.567,265.557,421.104,265.884,420.601,265.884z"/>
		</g>
		<g>
			<path style="fill:#241726;" d="M393.256,184.651c-0.625,0-1.141-0.493-1.164-1.121c-1.078-29.666-22.887-30.605-23.814-30.63     c-0.641-0.018-1.15-0.552-1.132-1.194c0.016-0.641,0.516-1.105,1.189-1.134c0.25,0.007,24.924,0.964,26.085,32.872     c0.023,0.643-0.48,1.182-1.121,1.207C393.284,184.651,393.27,184.651,393.256,184.651z"/>
		</g>
		<g>
			<path style="fill:#241726;" d="M297.274,339.712c-0.018,0-0.039,0-0.059-0.002l-89.016-4.536     c-0.641-0.032-1.137-0.58-1.103-1.221c0.032-0.641,0.525-1.184,1.221-1.103l89.016,4.535c0.641,0.032,1.137,0.58,1.103,1.221     C298.403,339.23,297.89,339.712,297.274,339.712z"/>
		</g>
	</g>
	<g>
		<path style="fill:#FFCE59;" d="M53.143,102.091c0,0,18.395-39.752,99.882-34.651s98.168,137.943,7.766,166.371    c0,0,30.839,15.565,21.643,17.261c-9.196,1.697-79.227,31.399-132.273-28.731S53.143,102.091,53.143,102.091z"/>
	</g>
	<g>
		<g>
			<path style="fill:#241726;" d="M147.413,50.081c-0.018,0-0.061,0-0.082-0.002c-3.558-0.177-20.77-36.752-22.914-41.761     c-2.744-6.404-2.535-7.134-1.969-7.791l0,0l0,0c0.002-0.002,0.002-0.002,0.005-0.005c0.059-0.068,0.125-0.13,0.198-0.182     c0.091-0.07,0.189-0.13,0.293-0.175l0.002-0.002C123.206,0.05,123.508,0,123.929,0c5.62,0,49.058,12.538,51.814,16.648     c0.441,0.657,0.314,1.23,0.198,1.512c-1.435,3.487-11.158,6.35-13.093,6.886c-0.309,0.091-0.65,0.041-0.923-0.132     c-10.528-6.511-26.301-16.055-34.076-20.329c6.022,5.815,18.572,16.971,27.102,24.401c0.323,0.282,0.466,0.718,0.371,1.134     c-4.531,19.958-7.07,19.961-7.905,19.961H147.413z M125.907,5.918c4.551,10.937,18.276,37.755,21.539,41.57     c1.36-1.882,3.763-9.921,5.449-17.203C137.485,16.853,129.756,9.762,125.907,5.918z M130.649,3.547     c9.091,5.004,24.078,14.182,32.062,19.12c4.015-1.164,9.478-3.308,10.831-4.992C170.111,14.786,143.753,6.645,130.649,3.547z"/>
		</g>
		<g>
			<path style="fill:#241726;" d="M159.126,43.266c-0.068,0-0.141-0.002-0.214-0.009c-2.201-0.214-5.377-3.968-6.836-5.764     c-0.407-0.498-0.631-1.359-0.133-1.763c0.498-0.402,1.072-0.653,1.479-0.155c2.069,2.544,4.492,4.867,5.486,5.295     c0.687-1.619,1.762-9.696,2.367-16.639c0.057-0.641,0.643-1.096,1.259-1.059c0.641,0.055,1.116,0.621,1.059,1.259     c-0.671,7.711-1.787,17.167-3.294,18.422C160.063,43.047,159.679,43.266,159.126,43.266z"/>
		</g>
	</g>
	<g>
		<path style="fill:#241726;" d="M264.902,95.802c-0.464,0-0.923-0.007-1.378-0.023c-0.643-0.025-1.146-0.564-1.123-1.205    c0.023-0.643,0.593-1.103,1.205-1.123c1.45,0.052,2.953,0.016,4.517-0.109c0.634-0.03,1.203,0.425,1.253,1.066    c0.052,0.641-0.425,1.203-1.066,1.253C267.144,95.755,266.007,95.802,264.902,95.802z M258.939,95.314    c-0.066,0-0.13-0.005-0.195-0.016c-1.605-0.271-3.178-0.655-4.679-1.141c-0.612-0.198-0.946-0.855-0.748-1.466    c0.198-0.609,0.846-0.946,1.466-0.748c1.394,0.452,2.855,0.807,4.347,1.059c0.634,0.107,1.062,0.707,0.955,1.341    C259.989,94.911,259.496,95.314,258.939,95.314z M272.825,95.052c-0.55,0-1.041-0.393-1.144-0.955    c-0.114-0.632,0.305-1.239,0.937-1.355c1.437-0.261,2.93-0.605,4.438-1.016c0.63-0.166,1.262,0.198,1.43,0.816    c0.168,0.621-0.196,1.259-0.816,1.43c-1.571,0.43-3.131,0.787-4.633,1.062C272.966,95.045,272.896,95.052,272.825,95.052z     M281.807,92.617c-0.48,0-0.928-0.298-1.096-0.775c-0.216-0.605,0.1-1.271,0.707-1.485c1.416-0.505,2.837-1.078,4.217-1.701    c0.589-0.266,1.275-0.005,1.541,0.582c0.264,0.587,0.002,1.275-0.582,1.541c-1.441,0.648-2.919,1.244-4.399,1.769    C282.069,92.597,281.937,92.617,281.807,92.617z M250.127,92.442c-0.177,0-0.357-0.041-0.525-0.125    c-1.425-0.721-2.815-1.566-4.126-2.519c-0.518-0.375-0.634-1.105-0.257-1.626c0.377-0.523,1.107-0.627,1.626-0.259    c1.209,0.88,2.492,1.662,3.808,2.326c0.573,0.289,0.803,0.989,0.514,1.564C250.961,92.208,250.552,92.442,250.127,92.442z     M290.269,88.794c-0.409,0-0.805-0.216-1.018-0.6c-0.311-0.562-0.109-1.269,0.455-1.582c1.314-0.73,2.626-1.525,3.897-2.364    c0.534-0.359,1.259-0.209,1.612,0.33c0.355,0.537,0.207,1.257-0.33,1.612c-1.321,0.873-2.683,1.701-4.051,2.46    C290.656,88.746,290.462,88.794,290.269,88.794z M242.623,87.009c-0.298,0-0.593-0.114-0.821-0.339    c-1.13-1.123-2.194-2.348-3.16-3.647c-0.384-0.514-0.28-1.244,0.236-1.628c0.512-0.389,1.241-0.282,1.628,0.236    c0.9,1.205,1.889,2.344,2.937,3.387c0.455,0.452,0.457,1.189,0.005,1.646C243.22,86.895,242.923,87.009,242.623,87.009z     M298.037,83.681c-0.35,0-0.696-0.157-0.923-0.457c-0.391-0.509-0.296-1.239,0.216-1.63c1.214-0.932,2.396-1.901,3.547-2.903    c0.482-0.425,1.219-0.377,1.641,0.114c0.423,0.484,0.373,1.219-0.114,1.641c-1.187,1.034-2.405,2.035-3.66,2.994    C298.533,83.603,298.285,83.681,298.037,83.681z M210.669,81.464c-1.169,0-2.371-0.03-3.608-0.091    c-0.641-0.03-1.137-0.575-1.105-1.219c0.03-0.641,0.525-1.169,1.219-1.105c1.239,0.059,2.444,0.077,3.622,0.086l0.962-0.007    c0.623-0.084,1.171,0.505,1.18,1.148c0.009,0.643-0.505,1.171-1.148,1.18l-0.991,0.007    C210.756,81.464,210.713,81.464,210.669,81.464z M216.417,81.232c-0.598,0-1.107-0.459-1.157-1.066    c-0.055-0.641,0.421-1.203,1.062-1.257c1.544-0.132,3.065-0.323,4.522-0.568c0.621-0.109,1.234,0.321,1.341,0.955    c0.107,0.634-0.321,1.234-0.955,1.341c-1.519,0.257-3.106,0.455-4.713,0.591C216.483,81.23,216.451,81.232,216.417,81.232z     M202.478,81.025c-0.041,0-0.08-0.002-0.12-0.007c-1.639-0.166-3.199-0.375-4.683-0.625c-0.634-0.107-1.062-0.707-0.955-1.341    c0.107-0.634,0.721-1.055,1.341-0.955c1.435,0.241,2.944,0.446,4.533,0.607c0.639,0.064,1.105,0.634,1.039,1.275    C203.574,80.577,203.067,81.025,202.478,81.025z M225.581,79.661c-0.514,0-0.984-0.341-1.123-0.859    c-0.168-0.621,0.198-1.262,0.818-1.428c1.491-0.405,2.935-0.882,4.29-1.421c0.593-0.232,1.273,0.055,1.512,0.652    c0.236,0.596-0.055,1.273-0.652,1.512c-1.437,0.571-2.965,1.078-4.54,1.503C225.783,79.647,225.681,79.661,225.581,79.661z     M237.062,79.577c-0.411,0-0.812-0.221-1.023-0.607c-0.507-0.932-0.973-1.889-1.394-2.86c-0.532,0.223-1.171,0.02-1.466-0.502    c-0.316-0.559-0.118-1.271,0.443-1.585c0.134-0.075,0.266-0.152,0.398-0.23c0.111-0.311,0.352-0.573,0.684-0.7    c0.186-0.068,0.382-0.091,0.559-0.066c0.725-0.473,1.416-0.971,2.067-1.489c0.502-0.396,1.232-0.316,1.637,0.186    c0.4,0.502,0.316,1.234-0.186,1.637c-0.671,0.534-1.38,1.046-2.123,1.535c0.425,1.007,0.903,1.998,1.428,2.96    c0.307,0.566,0.098,1.273-0.466,1.58C237.441,79.532,237.25,79.577,237.062,79.577z M193.314,79.468    c-0.093,0-0.186-0.011-0.282-0.034c-1.582-0.396-3.117-0.855-4.558-1.369c-0.607-0.214-0.923-0.88-0.707-1.485    c0.214-0.605,0.887-0.93,1.485-0.707c1.373,0.487,2.835,0.925,4.345,1.3c0.623,0.157,1.003,0.787,0.848,1.412    C194.312,79.115,193.837,79.468,193.314,79.468z M305.065,77.579c-0.302,0-0.607-0.118-0.834-0.352    c-0.448-0.462-0.439-1.198,0.023-1.646c1.103-1.071,2.176-2.167,3.226-3.285c0.439-0.473,1.175-0.491,1.644-0.052    c0.468,0.439,0.493,1.175,0.052,1.644c-1.073,1.146-2.173,2.269-3.299,3.362C305.649,77.47,305.358,77.579,305.065,77.579z     M184.575,76.331c-0.175,0-0.352-0.039-0.518-0.123c-1.485-0.737-2.88-1.56-4.149-2.439c-0.527-0.368-0.659-1.094-0.293-1.621    c0.366-0.527,1.091-0.655,1.621-0.293c1.178,0.818,2.476,1.582,3.858,2.271c0.575,0.286,0.809,0.984,0.523,1.56    C185.414,76.094,185.002,76.331,184.575,76.331z M177.002,71.004c-0.296,0-0.593-0.111-0.821-0.339    c-1.164-1.155-2.208-2.419-3.103-3.756c-0.359-0.534-0.216-1.257,0.318-1.614c0.534-0.361,1.257-0.216,1.614,0.318    c0.812,1.209,1.757,2.353,2.812,3.401c0.455,0.452,0.459,1.189,0.005,1.646C177.6,70.888,177.302,71.004,177.002,71.004z     M233.783,70.892c-0.534,0-1.016-0.371-1.137-0.912c-0.359-1.623-0.584-3.24-0.671-4.799c-0.036-0.641,0.455-1.191,1.098-1.225    c0.65-0.041,1.191,0.457,1.225,1.098c0.08,1.435,0.289,2.921,0.621,4.422c0.139,0.627-0.257,1.25-0.884,1.389    C233.949,70.883,233.865,70.892,233.783,70.892z M311.444,70.795c-0.271,0-0.543-0.093-0.764-0.284    c-0.484-0.423-0.537-1.157-0.116-1.644c1.014-1.166,2.007-2.348,2.985-3.542c0.409-0.498,1.141-0.568,1.639-0.161    c0.496,0.407,0.568,1.141,0.161,1.639c-0.991,1.207-1.998,2.408-3.026,3.592C312.092,70.658,311.769,70.795,311.444,70.795z     M241.415,70.401c-0.271,0-0.541-0.093-0.762-0.284c-0.487-0.421-0.539-1.155-0.118-1.641c0.993-1.15,1.832-2.364,2.487-3.606    c0.3-0.571,1.009-0.782,1.573-0.487c0.568,0.3,0.787,1.005,0.487,1.573c-0.739,1.398-1.676,2.758-2.787,4.042    C242.066,70.265,241.74,70.401,241.415,70.401z M317.362,63.583c-0.252,0-0.505-0.082-0.718-0.248    c-0.505-0.396-0.593-1.128-0.198-1.635c0.959-1.223,1.901-2.451,2.837-3.678c0.393-0.512,1.121-0.607,1.632-0.218    c0.509,0.391,0.609,1.121,0.218,1.632c-0.941,1.232-1.891,2.469-2.855,3.701C318.048,63.431,317.707,63.583,317.362,63.583z     M171.866,63.326c-0.459,0-0.893-0.273-1.078-0.723c-0.605-1.482-1.073-3.055-1.389-4.676c-0.125-0.63,0.286-1.241,0.918-1.364    c0.618-0.134,1.244,0.284,1.364,0.918c0.289,1.473,0.714,2.899,1.262,4.24c0.243,0.596-0.041,1.275-0.637,1.519    C172.162,63.299,172.014,63.326,171.866,63.326z M245.651,62.224c-0.077,0-0.155-0.007-0.232-0.023    c-0.63-0.127-1.039-0.741-0.912-1.371c0.148-0.727,0.221-1.435,0.218-2.103c0-0.718-0.082-1.385-0.243-1.982    c-0.166-0.623,0.202-1.259,0.823-1.428c0.627-0.15,1.259,0.205,1.428,0.823c0.211,0.798,0.321,1.666,0.321,2.583    c0.002,0.821-0.086,1.687-0.264,2.567C246.678,61.842,246.192,62.224,245.651,62.224z M233.365,61.637    c-0.064,0-0.127-0.005-0.193-0.016c-0.632-0.105-1.062-0.705-0.957-1.339c0.305-1.841,0.855-3.451,1.635-4.781    c0.33-0.559,1.048-0.732,1.594-0.416c0.555,0.327,0.741,1.039,0.416,1.594c-0.637,1.084-1.089,2.423-1.348,3.985    C234.418,61.233,233.924,61.637,233.365,61.637z M323.016,56.177c-0.246,0-0.491-0.075-0.7-0.234    c-0.514-0.386-0.616-1.116-0.23-1.63l2.81-3.724c0.391-0.512,1.119-0.609,1.632-0.223c0.512,0.389,0.612,1.119,0.223,1.632    l-2.805,3.715C323.716,56.017,323.368,56.177,323.016,56.177z M170.068,54.237c-0.632,0-1.15-0.505-1.164-1.139l-0.002-0.348    c0-2.712,0.405-4.497,0.421-4.572c0.146-0.627,0.775-1.021,1.394-0.873c0.625,0.143,1.018,0.768,0.875,1.394    c-0.002,0.016-0.361,1.623-0.361,4.051l0.002,0.298c0.014,0.643-0.498,1.175-1.139,1.189    C170.084,54.237,170.075,54.237,170.068,54.237z M238.412,54.162c-0.487,0-0.971-0.264-1.144-0.721    c-0.23-0.6-0.023-1.239,0.577-1.469l0.273-0.098c1.932-0.643,3.681-0.632,5.143-0.011c0.593,0.25,0.868,0.934,0.616,1.525    c-0.252,0.593-0.939,0.868-1.525,0.616c-0.941-0.4-2.128-0.377-3.487,0.075C238.719,54.135,238.564,54.162,238.412,54.162z     M328.658,48.758c-0.25,0-0.502-0.08-0.716-0.246c-0.507-0.396-0.598-1.128-0.202-1.635c0.973-1.246,1.944-2.469,2.924-3.665    c0.409-0.498,1.139-0.566,1.639-0.161c0.496,0.407,0.568,1.141,0.161,1.639c-0.966,1.178-1.928,2.387-2.887,3.619    C329.347,48.604,329.004,48.758,328.658,48.758z M334.581,41.57c-0.275,0-0.55-0.095-0.771-0.291    c-0.482-0.427-0.527-1.162-0.102-1.644c1.059-1.196,2.128-2.351,3.212-3.453c0.45-0.462,1.187-0.462,1.646-0.014    c0.459,0.45,0.464,1.187,0.014,1.646c-1.057,1.075-2.098,2.198-3.126,3.362C335.222,41.438,334.901,41.57,334.581,41.57z     M341.124,34.959c-0.323,0-0.643-0.134-0.873-0.396c-0.425-0.482-0.38-1.216,0.105-1.641c1.239-1.094,2.487-2.096,3.708-2.983    c0.518-0.375,1.248-0.266,1.626,0.257c0.377,0.521,0.264,1.248-0.257,1.626c-1.162,0.846-2.353,1.803-3.54,2.846    C341.671,34.863,341.396,34.959,341.124,34.959z M348.651,29.53c-0.405,0-0.8-0.214-1.014-0.593    c-0.316-0.559-0.118-1.269,0.443-1.585c1.421-0.8,2.878-1.494,4.333-2.064c0.607-0.232,1.275,0.061,1.51,0.659    c0.234,0.6-0.061,1.275-0.659,1.51c-1.355,0.53-2.714,1.178-4.042,1.923C349.042,29.482,348.846,29.53,348.651,29.53z     M380.038,28.663c-0.139,0-0.28-0.025-0.418-0.077c-1.464-0.562-2.917-1.055-4.315-1.466c-0.616-0.18-0.971-0.828-0.789-1.444    c0.18-0.614,0.818-0.971,1.444-0.789c1.46,0.427,2.971,0.941,4.497,1.525c0.6,0.23,0.898,0.905,0.668,1.505    C380.947,28.379,380.506,28.663,380.038,28.663z M357.263,26.169c-0.532,0-1.014-0.366-1.134-0.907    c-0.143-0.627,0.25-1.25,0.878-1.391c1.546-0.35,3.144-0.589,4.754-0.707c0.58-0.048,1.198,0.434,1.246,1.078    c0.045,0.641-0.436,1.198-1.078,1.246c-1.491,0.109-2.976,0.33-4.408,0.652C357.433,26.16,357.347,26.169,357.263,26.169z     M371.112,26.072c-0.073,0-0.143-0.007-0.216-0.02c-1.528-0.284-3.035-0.477-4.481-0.573c-0.641-0.043-1.125-0.596-1.084-1.239    c0.043-0.641,0.602-1.141,1.239-1.084c1.537,0.1,3.135,0.307,4.754,0.609c0.632,0.118,1.048,0.725,0.93,1.357    C372.149,25.681,371.66,26.072,371.112,26.072z"/>
	</g>
	<g>
		<path style="fill:#241726;" d="M318.085,512c-1.059-0.002-2.121-0.018-3.183-0.05c-0.643-0.02-1.148-0.557-1.13-1.198    c0.02-0.643,0.534-1.184,1.198-1.13c1.043,0.032,2.082,0.048,3.117,0.05l1.489-0.011c0.005,0,0.011,0,0.016,0    c0.637,0,1.155,0.512,1.164,1.148c0.009,0.643-0.505,1.171-1.148,1.18L318.085,512z M324.243,511.816    c-0.612,0-1.125-0.477-1.162-1.094c-0.039-0.643,0.45-1.194,1.091-1.232c1.541-0.093,3.074-0.218,4.595-0.373    c0.623-0.08,1.209,0.398,1.275,1.039c0.066,0.639-0.4,1.212-1.039,1.275c-1.553,0.159-3.117,0.289-4.69,0.382    C324.289,511.816,324.266,511.816,324.243,511.816z M310.289,511.698c-0.032,0-0.064-0.002-0.095-0.005    c-1.56-0.123-3.121-0.284-4.686-0.484c-0.637-0.082-1.089-0.664-1.007-1.303c0.082-0.639,0.671-1.089,1.303-1.007    c1.528,0.195,3.053,0.352,4.576,0.475c0.641,0.05,1.119,0.612,1.066,1.253C311.398,511.236,310.889,511.698,310.289,511.698z     M333.503,510.863c-0.568,0-1.064-0.416-1.15-0.996c-0.091-0.637,0.348-1.228,0.984-1.321c1.528-0.223,3.044-0.477,4.547-0.757    c0.616-0.121,1.239,0.296,1.357,0.93c0.118,0.632-0.298,1.239-0.93,1.357c-1.53,0.289-3.078,0.548-4.638,0.775    C333.617,510.859,333.56,510.863,333.503,510.863z M301.054,510.509c-0.068,0-0.139-0.007-0.209-0.018    c-1.537-0.277-3.078-0.593-4.615-0.953c-0.627-0.148-1.016-0.773-0.871-1.398c0.148-0.625,0.771-1.014,1.398-0.871    c1.5,0.35,3.001,0.662,4.501,0.93c0.632,0.114,1.053,0.718,0.939,1.353C302.096,510.113,301.607,510.509,301.054,510.509z     M183.111,510.181c-0.637,0-1.155-0.512-1.164-1.148c-0.009-0.643,0.505-1.171,1.148-1.18c1.482-0.02,3.019-0.073,4.611-0.152    c0.723-0.07,1.187,0.462,1.221,1.103c0.034,0.641-0.462,1.189-1.103,1.221c-1.623,0.084-3.187,0.136-4.697,0.157    C183.122,510.181,183.115,510.181,183.111,510.181z M178.455,510.145c-0.011,0-0.023,0-0.036,0    c-1.639-0.052-3.206-0.141-4.701-0.266c-0.641-0.052-1.119-0.616-1.064-1.255c0.052-0.643,0.673-1.096,1.255-1.064    c1.46,0.12,2.985,0.209,4.583,0.257c0.641,0.02,1.146,0.557,1.128,1.2C179.598,509.647,179.082,510.145,178.455,510.145z     M192.407,509.702c-0.596,0-1.105-0.457-1.157-1.064c-0.057-0.639,0.418-1.205,1.059-1.259c1.45-0.127,2.942-0.277,4.474-0.457    l0.257,1.144l0.13,1.157c-1.673,0.193-3.187,0.348-4.661,0.475C192.475,509.699,192.441,509.702,192.407,509.702z     M169.193,509.363c-0.057,0-0.111-0.005-0.168-0.011c-1.596-0.232-3.165-0.516-4.661-0.846c-0.627-0.139-1.025-0.759-0.887-1.387    c0.141-0.627,0.757-1.016,1.387-0.887c1.441,0.318,2.953,0.591,4.492,0.814c0.637,0.093,1.078,0.682,0.987,1.319    C170.259,508.945,169.761,509.363,169.193,509.363z M342.66,509.142c-0.53,0-1.009-0.364-1.134-0.903    c-0.146-0.625,0.246-1.25,0.873-1.396c1.507-0.348,3.001-0.725,4.474-1.125c0.627-0.164,1.259,0.2,1.428,0.818    c0.168,0.618-0.198,1.259-0.818,1.428c-1.5,0.409-3.021,0.791-4.56,1.148C342.835,509.133,342.747,509.142,342.66,509.142z     M201.642,508.551c-0.552,0-1.046-0.398-1.144-0.962c-0.111-0.634,0.311-1.237,0.943-1.348c1.516-0.268,3.017-0.575,4.499-0.921    c0.637-0.141,1.253,0.243,1.398,0.871c0.146,0.625-0.243,1.25-0.871,1.398c-1.523,0.355-3.065,0.671-4.622,0.943    C201.778,508.547,201.71,508.551,201.642,508.551z M291.658,508.342l-0.957-0.284c-1.198-0.364-2.373-0.739-3.524-1.128    c-0.609-0.205-0.937-0.864-0.732-1.473c0.207-0.607,0.868-0.934,1.473-0.732c1.132,0.38,2.285,0.75,3.458,1.105l0.764,0.227    l-0.152,1.169L291.658,508.342z M160.12,507.339c-0.116,0-0.234-0.018-0.352-0.055c-1.569-0.498-3.071-1.059-4.47-1.673    c-0.589-0.259-0.855-0.946-0.598-1.535c0.257-0.589,0.95-0.85,1.535-0.598c1.321,0.58,2.746,1.114,4.238,1.587    c0.612,0.193,0.953,0.848,0.757,1.462C161.072,507.023,160.613,507.339,160.12,507.339z M351.643,506.689    c-0.496,0-0.953-0.316-1.109-0.814c-0.193-0.612,0.145-1.266,0.759-1.46c1.48-0.468,2.935-0.962,4.367-1.478    c0.6-0.218,1.271,0.091,1.489,0.698c0.221,0.605-0.093,1.271-0.698,1.489c-1.46,0.53-2.946,1.032-4.458,1.51    C351.877,506.671,351.759,506.689,351.643,506.689z M210.708,506.441c-0.505,0-0.971-0.332-1.119-0.841    c-0.177-0.616,0.177-1.262,0.796-1.441c1.48-0.427,2.94-0.893,4.376-1.394c0.598-0.216,1.271,0.107,1.48,0.716    c0.214,0.607-0.109,1.269-0.716,1.48c-1.473,0.514-2.974,0.993-4.495,1.435C210.924,506.428,210.815,506.441,210.708,506.441z     M283.169,505.412c-0.139,0-0.282-0.025-0.418-0.077c-1.491-0.575-2.942-1.173-4.354-1.789c-0.589-0.257-0.857-0.943-0.6-1.532    c0.259-0.589,0.946-0.85,1.532-0.6c1.38,0.602,2.799,1.187,4.258,1.748c0.6,0.232,0.898,0.905,0.668,1.505    C284.076,505.127,283.638,505.412,283.169,505.412z M151.642,503.57c-0.209,0-0.418-0.055-0.607-0.171    c-1.425-0.873-2.744-1.832-3.915-2.851c-0.484-0.421-0.537-1.157-0.114-1.641c0.421-0.484,1.157-0.539,1.641-0.114    c1.073,0.932,2.285,1.814,3.601,2.619c0.548,0.336,0.721,1.053,0.386,1.6C152.415,503.372,152.033,503.57,151.642,503.57z     M360.405,503.525c-0.459,0-0.893-0.273-1.078-0.725c-0.243-0.596,0.043-1.275,0.639-1.516c1.441-0.587,2.851-1.196,4.231-1.828    c0.577-0.273,1.271-0.016,1.541,0.573c0.268,0.584,0.011,1.275-0.573,1.541c-1.407,0.646-2.849,1.269-4.322,1.869    C360.7,503.497,360.55,503.525,360.405,503.525z M219.504,503.388c-0.459,0-0.896-0.275-1.08-0.728    c-0.241-0.596,0.048-1.275,0.643-1.516c1.432-0.577,2.837-1.191,4.219-1.832c0.577-0.266,1.275-0.016,1.546,0.568    c0.268,0.582,0.016,1.275-0.568,1.546c-1.414,0.655-2.855,1.282-4.324,1.878C219.797,503.361,219.649,503.388,219.504,503.388z     M274.642,501.681c-0.175,0-0.35-0.039-0.516-0.12c-1.437-0.712-2.826-1.444-4.172-2.194c-0.559-0.314-0.762-1.023-0.448-1.585    c0.314-0.562,1.023-0.762,1.585-0.448c1.309,0.732,2.667,1.446,4.067,2.139c0.577,0.286,0.812,0.984,0.527,1.56    C275.483,501.444,275.069,501.681,274.642,501.681z M368.873,499.648c-0.423,0-0.83-0.232-1.037-0.634    c-0.293-0.573-0.066-1.273,0.507-1.566c1.394-0.712,2.744-1.441,4.049-2.189c0.552-0.311,1.266-0.125,1.589,0.434    c0.318,0.557,0.125,1.269-0.434,1.589c-1.337,0.762-2.719,1.51-4.144,2.239C369.232,499.608,369.053,499.648,368.873,499.648z     M227.95,499.471c-0.418,0-0.823-0.227-1.032-0.623c-0.298-0.571-0.077-1.273,0.491-1.573c1.373-0.718,2.714-1.464,4.024-2.233    c0.55-0.318,1.266-0.141,1.594,0.416c0.325,0.555,0.139,1.269-0.416,1.594c-1.341,0.787-2.714,1.55-4.119,2.287    C228.318,499.428,228.132,499.471,227.95,499.471z M144.706,497.448c-0.352,0-0.702-0.161-0.93-0.466    c-1.88-2.503-2.394-4.404-2.414-4.483c-0.164-0.621,0.207-1.257,0.83-1.421c0.609-0.171,1.253,0.207,1.419,0.823l0,0    c0.005,0.016,0.446,1.578,2.028,3.685c0.384,0.514,0.28,1.244-0.234,1.63C145.195,497.373,144.949,497.448,144.706,497.448z     M266.514,497.143c-0.214,0-0.427-0.057-0.621-0.18c-1.362-0.859-2.669-1.735-3.922-2.626c-0.523-0.373-0.646-1.098-0.273-1.623    c0.375-0.523,1.103-0.641,1.623-0.273c1.216,0.864,2.487,1.716,3.813,2.553c0.543,0.343,0.707,1.062,0.364,1.605    C267.278,496.952,266.898,497.143,266.514,497.143z M376.957,495.024c-0.382,0-0.757-0.189-0.98-0.537    c-0.348-0.541-0.189-1.259,0.352-1.607c1.323-0.85,2.589-1.714,3.792-2.587c0.518-0.375,1.246-0.266,1.625,0.257    c0.377,0.521,0.264,1.248-0.257,1.626c-1.239,0.9-2.542,1.791-3.906,2.664C377.392,494.965,377.173,495.024,376.957,495.024z     M235.982,494.754c-0.38,0-0.75-0.186-0.975-0.527c-0.35-0.539-0.2-1.259,0.339-1.612c1.303-0.85,2.567-1.723,3.792-2.608    c0.521-0.373,1.248-0.259,1.626,0.261c0.377,0.521,0.259,1.248-0.261,1.625c-1.253,0.907-2.549,1.798-3.883,2.671    C236.423,494.692,236.202,494.754,235.982,494.754z M258.939,491.741c-0.257,0-0.516-0.084-0.732-0.259    c-1.25-1.012-2.453-2.053-3.578-3.099c-0.473-0.436-0.5-1.173-0.061-1.644c0.439-0.471,1.178-0.5,1.644-0.061    c1.087,1.007,2.251,2.017,3.46,2.994c0.5,0.405,0.577,1.137,0.173,1.637C259.614,491.594,259.278,491.741,258.939,491.741z     M384.48,489.536c-0.332,0-0.662-0.141-0.893-0.416c-0.411-0.493-0.348-1.228,0.146-1.641c1.214-1.014,2.348-2.046,3.374-3.065    c0.457-0.452,1.194-0.452,1.646,0.005c0.455,0.457,0.45,1.194-0.005,1.646c-1.073,1.066-2.258,2.142-3.519,3.201    C385.01,489.448,384.744,489.536,384.48,489.536z M243.523,489.288c-0.341,0-0.677-0.148-0.907-0.434    c-0.402-0.502-0.323-1.234,0.177-1.637c1.219-0.978,2.389-1.971,3.51-2.971c0.475-0.427,1.214-0.386,1.644,0.093    c0.427,0.48,0.386,1.214-0.093,1.644c-1.148,1.028-2.351,2.044-3.601,3.049C244.037,489.204,243.78,489.288,243.523,489.288z     M252.125,485.405c-0.314,0-0.625-0.125-0.855-0.375c-1.109-1.2-2.144-2.419-3.078-3.624c-0.393-0.509-0.3-1.241,0.207-1.635    c0.509-0.393,1.237-0.3,1.635,0.207c0.102,0.134,0.207,0.268,0.314,0.402c0.855-0.878,1.669-1.753,2.439-2.626    c0.427-0.482,1.164-0.527,1.644-0.102c0.482,0.425,0.527,1.162,0.102,1.644c-0.848,0.959-1.746,1.921-2.689,2.885    c0.368,0.425,0.748,0.848,1.137,1.271c0.437,0.471,0.407,1.207-0.066,1.644C252.692,485.303,252.407,485.405,252.125,485.405z     M391.046,482.95c-0.255,0-0.512-0.082-0.725-0.255c-0.502-0.4-0.587-1.132-0.184-1.635c0.998-1.255,1.832-2.496,2.478-3.688    c0.305-0.571,1.016-0.775,1.576-0.471c0.566,0.305,0.778,1.012,0.471,1.575c-0.709,1.314-1.619,2.671-2.705,4.033    C391.726,482.8,391.387,482.95,391.046,482.95z M246.458,478.033c-0.389,0-0.771-0.196-0.991-0.552    c-0.878-1.421-1.637-2.849-2.26-4.245c-0.261-0.587,0.002-1.275,0.591-1.537c0.577-0.259,1.275,0.002,1.537,0.591    c0.577,1.298,1.289,2.633,2.114,3.967c0.336,0.548,0.168,1.264-0.38,1.603C246.878,477.976,246.667,478.033,246.458,478.033z     M256.618,476.091c-0.246,0-0.493-0.077-0.702-0.236c-0.514-0.389-0.614-1.119-0.225-1.63c0.955-1.259,1.826-2.519,2.585-3.742    c0.341-0.546,1.062-0.709,1.603-0.375c0.546,0.339,0.714,1.057,0.375,1.603c-0.798,1.287-1.71,2.605-2.708,3.919    C257.316,475.932,256.968,476.091,256.618,476.091z M395.261,474.754c-0.075,0-0.15-0.007-0.223-0.02    c-0.632-0.123-1.044-0.734-0.923-1.364c0.039-0.198,0.068-0.393,0.093-0.589c0.08-0.637,0.664-1.107,1.298-1.012    c0.637,0.08,1.091,0.659,1.012,1.298c-0.03,0.246-0.068,0.496-0.116,0.743C396.293,474.368,395.806,474.754,395.261,474.754z     M242.75,469.537c-0.525,0-1.003-0.357-1.132-0.891c-0.364-1.514-0.55-2.983-0.55-4.36l0.009-0.568    c0.025-0.627,0.541-1.119,1.164-1.119c0.014,0,0.03,0,0.045,0c0.643,0.027,1.144,0.568,1.119,1.209l-0.009,0.477    c0,1.196,0.164,2.478,0.487,3.815c0.15,0.625-0.234,1.253-0.859,1.405C242.932,469.525,242.838,469.537,242.75,469.537z     M261.462,468.157c-0.159,0-0.321-0.032-0.475-0.102c-0.587-0.261-0.85-0.95-0.587-1.537c0.664-1.485,1.125-2.883,1.373-4.158    c0.123-0.632,0.743-1.037,1.366-0.921c0.63,0.123,1.043,0.734,0.921,1.366c-0.284,1.448-0.8,3.019-1.537,4.663    C262.331,467.9,261.906,468.157,261.462,468.157z M243.323,460.434c-0.175,0-0.352-0.039-0.518-0.123    c-0.575-0.286-0.809-0.984-0.523-1.56c0.787-1.578,1.939-2.892,3.424-3.901c0.527-0.357,1.255-0.221,1.619,0.309    c0.359,0.532,0.223,1.257-0.309,1.619c-1.153,0.782-2.044,1.794-2.651,3.01C244.162,460.198,243.75,460.434,243.323,460.434z     M262.792,459.147c-0.489,0-0.943-0.309-1.105-0.8c-0.4-1.214-1.189-2.094-2.414-2.687c-0.577-0.282-0.818-0.978-0.539-1.557    c0.282-0.575,0.98-0.821,1.557-0.539c1.794,0.871,3.008,2.235,3.606,4.056c0.202,0.609-0.13,1.269-0.741,1.469    C263.036,459.129,262.913,459.147,262.792,459.147z M250.636,455.221c-0.537,0-1.018-0.373-1.137-0.916    c-0.136-0.63,0.261-1.248,0.889-1.385c1.332-0.291,2.799-0.437,4.36-0.437l0.543,0.007c0.641,0.018,1.148,0.552,1.132,1.196    c-0.018,0.632-0.534,1.132-1.164,1.132c-0.009,0-0.02,0-0.032,0l-0.48-0.007c-1.396,0-2.696,0.13-3.865,0.382    C250.8,455.212,250.718,455.221,250.636,455.221z"/>
	</g>
	<g>
		<g>
			<path style="fill:#241726;" d="M202.496,148.899c-0.405,0-0.798-0.211-1.012-0.589L172.944,98.13     c-0.318-0.559-0.123-1.269,0.436-1.587c0.555-0.316,1.271-0.125,1.587,0.437l28.541,50.179c0.318,0.559,0.123,1.269-0.436,1.587     C202.89,148.849,202.692,148.899,202.496,148.899z"/>
		</g>
		<g>
			<path style="fill:#241726;" d="M190.343,155.812c-0.398,0-0.784-0.205-1.003-0.573l-28.432-48.167     c-0.327-0.552-0.143-1.266,0.411-1.594c0.546-0.327,1.264-0.145,1.594,0.411l28.432,48.167c0.327,0.552,0.143,1.266-0.411,1.594     C190.75,155.76,190.545,155.812,190.343,155.812z"/>
		</g>
		<g>
			<path style="fill:#241726;" d="M177.575,162.555c-0.393,0-0.775-0.2-0.996-0.559l-24.733-40.751     c-0.332-0.55-0.157-1.266,0.391-1.6c0.548-0.327,1.264-0.155,1.6,0.391l24.733,40.751c0.332,0.55,0.157,1.266-0.391,1.6     C177.991,162.5,177.782,162.555,177.575,162.555z"/>
		</g>
		<g>
			<path style="fill:#241726;" d="M148.848,176.816c-0.389,0-0.771-0.198-0.991-0.555l-27.431-44.584     c-0.336-0.548-0.166-1.264,0.382-1.6c0.539-0.336,1.262-0.166,1.601,0.382l27.431,44.584c0.336,0.548,0.166,1.264-0.382,1.6     C149.269,176.762,149.057,176.816,148.848,176.816z"/>
		</g>
		<g>
			<path style="fill:#241726;" d="M138.249,190.109c-0.398,0-0.787-0.205-1.003-0.573l-30.216-51.302     c-0.327-0.555-0.141-1.269,0.411-1.594c0.55-0.325,1.269-0.145,1.594,0.411l30.216,51.302c0.327,0.555,0.141,1.269-0.411,1.594     C138.654,190.057,138.452,190.109,138.249,190.109z"/>
		</g>
		<g>
			<path style="fill:#241726;" d="M126.664,192.546c-0.407,0-0.803-0.216-1.016-0.596l-27.702-49.62     c-0.314-0.562-0.111-1.271,0.448-1.585c0.559-0.309,1.271-0.111,1.585,0.448l27.702,49.62c0.314,0.562,0.111,1.271-0.448,1.585     C127.053,192.498,126.857,192.546,126.664,192.546z"/>
		</g>
		<g>
			<path style="fill:#241726;" d="M102.143,202.342c-0.391,0-0.773-0.198-0.993-0.557L78.79,165.21     c-0.334-0.548-0.161-1.264,0.386-1.6c0.543-0.33,1.264-0.164,1.601,0.386l22.359,36.575c0.334,0.548,0.161,1.264-0.386,1.6     C102.561,202.288,102.352,202.342,102.143,202.342z"/>
		</g>
		<g>
			<path style="fill:#241726;" d="M93.563,211.891c-0.389,0-0.768-0.196-0.989-0.548l-30.053-48.281     c-0.339-0.546-0.173-1.264,0.373-1.605c0.55-0.332,1.266-0.168,1.605,0.373l30.053,48.281c0.339,0.548,0.173,1.264-0.373,1.605     C93.985,211.834,93.774,211.891,93.563,211.891z"/>
		</g>
		<g>
			<path style="fill:#241726;" d="M79.833,223.331c-0.423,0-0.83-0.232-1.037-0.634L50.604,167.65     c-0.293-0.571-0.066-1.273,0.507-1.566c0.566-0.286,1.273-0.066,1.566,0.507l28.193,55.047c0.293,0.571,0.066,1.273-0.507,1.566     C80.195,223.29,80.013,223.331,79.833,223.331z"/>
		</g>
		<g>
			<path style="fill:#00A09A;" d="M67.288,223.865c0,0,42.184-12.769,28.161-54.866s31.104-58.39,56.165-28.243     c25.182,30.293,58.763-3.026,58.763-3.026s4.886,5.264,4.066,7.149c-0.82,1.886-22.849,23.876-44.67,18.782     c-21.821-5.094-29.211-33.062-49.931-27.901s-21.055,19.544-16.596,34.04s8.737,42.813-31.44,59.513     C71.806,229.314,67.804,226.435,67.288,223.865z"/>
		</g>
		<g>
			<path style="fill:#9C5680;" d="M40.288,176.39c0,0,32.539-29.729,61.551,3.844s66.084,3.116,52.985-33.834     c-13.163-37.129,32.64-48.958,32.64-48.958s-2.026-6.89-4.066-7.149c-2.04-0.259-32.201,7.433-38.978,28.791     c-6.777,21.359,13.483,42.007-1.545,57.177c-15.027,15.17-27.561,8.105-37.74-3.137c-10.179-11.242-32.33-29.395-67.222-3.401     C37.915,169.722,38.342,174.633,40.288,176.39z"/>
		</g>
	</g>
	<g>
		<g>
			<g>
				<path style="fill:#FFFFFF;" d="M89.567,367.465c0,0-53.106,122.525-39.311,122.469c13.795-0.055,162.926-34.872,161.781-41.579      c-1.145-6.707-90.718-86.182-90.718-86.182l-18.415-81.153c0,0,24.549-21.136,4.052-22.417      c-12.096-0.756-62.447,8.323-55.187,18.144c3.582,4.846,21.168,10.584,21.168,10.584L89.567,367.465z"/>
			</g>
			<g>
				<path style="fill:#241726;" d="M50.247,491.098c-1.062,0-1.937-0.477-2.53-1.38c-7.195-10.962,35.054-109.477,40.638-122.377      l-16.421-79.118c-3.283-1.112-17.701-6.186-21.102-10.785c-1.075-1.455-1.232-3.042-0.455-4.586      c4.561-9.044,43.584-15.457,54.99-15.457c0.612,0,1.169,0.014,1.662,0.045c5.036,0.316,8.055,1.862,8.973,4.597      c2.164,6.441-8.93,16.842-11.808,19.401l18.178,80.111c15.632,13.875,89.662,79.882,90.812,86.609      c0.061,0.366,0.027,0.937-0.496,1.56c-7.15,8.509-149.521,41.329-162.428,41.379C50.258,491.098,50.247,491.098,50.247,491.098z       M105.366,259.724c-12.461,0-49.238,6.893-52.912,14.177c-0.375,0.748-0.3,1.412,0.25,2.155      c2.755,3.728,15.798,8.603,20.593,10.167c0.396,0.13,0.693,0.462,0.778,0.871l16.632,80.136c0.05,0.234,0.025,0.48-0.07,0.7      C71.44,412.217,44.688,480.859,49.665,488.44c0.159,0.243,0.311,0.33,0.582,0.33v1.164l0.005-1.164      c14.55-0.057,154.425-33.315,160.566-40.431c-2.453-5.986-55.047-54.042-90.271-85.295c-0.182-0.161-0.309-0.375-0.361-0.614      l-18.415-81.152c-0.095-0.418,0.048-0.857,0.375-1.139c5.243-4.515,13.04-13.222,11.649-17.36      c-0.732-2.18-4.163-2.842-6.911-3.015C106.432,259.738,105.923,259.724,105.366,259.724z"/>
			</g>
		</g>
		<g>
			<path style="fill:#E45D81;" d="M87.866,409.8c0,0,44.414-19.278,47.816-18.144s54.242,47.627,53.675,52.163     c-0.567,4.536-122.469,32.318-122.469,28.916C66.887,469.334,83.897,409.8,87.866,409.8z"/>
		</g>
		<g>
			<g>
				<path style="fill:#FFFFFF;" d="M57.816,273.345c0,0,21.924,13.986,48.383-10.206"/>
			</g>
			<g>
				<path style="fill:#241726;" d="M76.014,278.532c-0.68,0-1.335-0.02-1.964-0.052c-8.989-0.484-14.598-4.001-14.832-4.149      c-0.541-0.346-0.7-1.064-0.357-1.605c0.348-0.543,1.069-0.702,1.607-0.359c0.866,0.55,21.534,13.179,46.974-10.085      c0.471-0.434,1.207-0.405,1.644,0.075c0.434,0.473,0.4,1.209-0.075,1.644C96.111,275.794,84.243,278.532,76.014,278.532z"/>
			</g>
		</g>
	</g>
	<g>
		<g>
			<path style="fill:#241726;" d="M38.391,370.131c-0.066,0-0.132-0.005-0.2-0.016c-0.632-0.109-1.057-0.712-0.95-1.346     l6.954-40.476c0.109-0.634,0.702-1.059,1.346-0.95c0.632,0.109,1.057,0.712,0.95,1.346l-6.954,40.476     C39.439,369.731,38.946,370.131,38.391,370.131z"/>
		</g>
		<g>
			<path style="fill:#241726;" d="M17.928,353.776c-0.518,0-0.989-0.346-1.125-0.871c-0.164-0.621,0.209-1.257,0.832-1.419     L63.74,339.46c0.63-0.18,1.257,0.211,1.419,0.832c0.164,0.621-0.209,1.257-0.832,1.419l-46.105,12.026     C18.123,353.764,18.023,353.776,17.928,353.776z"/>
		</g>
		<g>
			<path style="fill:#241726;" d="M55.849,364.302c-0.311,0-0.621-0.123-0.85-0.368l-29.402-31.407     c-0.439-0.471-0.414-1.207,0.055-1.646c0.473-0.439,1.207-0.416,1.646,0.055l29.402,31.407c0.439,0.471,0.414,1.207-0.055,1.646     C56.419,364.197,56.133,364.302,55.849,364.302z"/>
		</g>
		<g>
			<g>
				<circle style="fill:#FFFFFF;" cx="44.961" cy="326.283" r="4.961"/>
			</g>
			<g>
				<path style="fill:#241726;" d="M44.963,332.41c-2.26,0-4.329-1.237-5.399-3.226c-1.598-2.978-0.477-6.7,2.499-8.296      c0.889-0.477,1.889-0.732,2.894-0.732c2.262,0,4.331,1.237,5.399,3.228c0.775,1.441,0.941,3.096,0.471,4.665      c-0.473,1.566-1.528,2.855-2.969,3.628C46.971,332.155,45.968,332.41,44.963,332.41z M44.957,322.484      c-0.621,0-1.241,0.157-1.794,0.455c-1.844,0.991-2.539,3.296-1.548,5.142c0.959,1.778,3.351,2.512,5.14,1.546      c0.896-0.48,1.548-1.28,1.841-2.251c0.293-0.971,0.189-1.998-0.291-2.892C47.641,323.253,46.359,322.484,44.957,322.484z"/>
			</g>
		</g>
		<g>
			<g>
				<circle style="fill:#FFFFFF;" cx="39.171" cy="370.423" r="4.961"/>
			</g>
			<g>
				<path style="fill:#241726;" d="M39.175,376.549c-2.262,0-4.331-1.237-5.399-3.228c-0.775-1.441-0.941-3.096-0.471-4.665      c0.473-1.566,1.528-2.855,2.969-3.628c0.889-0.477,1.889-0.73,2.892-0.73c2.262,0,4.331,1.237,5.402,3.228      c1.598,2.974,0.477,6.693-2.499,8.293C41.18,376.296,40.18,376.549,39.175,376.549z M39.166,366.625      c-0.621,0-1.239,0.157-1.791,0.452c-0.893,0.48-1.546,1.28-1.839,2.251s-0.189,1.998,0.291,2.892      c0.957,1.782,3.344,2.512,5.143,1.548c1.844-0.991,2.539-3.299,1.548-5.142C41.853,367.391,40.569,366.625,39.166,366.625z"/>
			</g>
		</g>
		<g>
			<g>
				<circle style="fill:#FFFFFF;" cx="18.094" cy="352.446" r="4.961"/>
			</g>
			<g>
				<path style="fill:#241726;" d="M18.094,358.57c-1.637,0-3.174-0.637-4.331-1.794c-2.387-2.387-2.387-6.275,0-8.662      c2.314-2.314,6.347-2.314,8.662,0c2.387,2.387,2.387,6.275,0,8.662C21.267,357.934,19.731,358.57,18.094,358.57z       M18.094,348.649c-1.014,0-1.969,0.396-2.685,1.112c-1.48,1.48-1.48,3.89,0,5.37c1.432,1.432,3.938,1.432,5.37,0      c1.48-1.48,1.48-3.89,0-5.37C20.062,349.045,19.108,348.649,18.094,348.649z"/>
			</g>
		</g>
		<g>
			<g>
				<circle style="fill:#FFFFFF;" cx="63.866" cy="339.082" r="4.961"/>
			</g>
			<g>
				<path style="fill:#241726;" d="M63.867,345.207c-1.637,0-3.176-0.637-4.333-1.794c-2.387-2.389-2.387-6.275,0-8.664      c2.314-2.312,6.35-2.314,8.664,0c2.387,2.389,2.387,6.275,0,8.664C67.041,344.571,65.502,345.207,63.867,345.207z       M63.867,335.284c-1.016,0-1.969,0.396-2.687,1.112c-1.48,1.48-1.48,3.892,0,5.372c1.435,1.43,3.933,1.432,5.372,0      c1.48-1.48,1.48-3.892,0-5.372C65.833,335.679,64.881,335.284,63.867,335.284z"/>
			</g>
		</g>
		<g>
			<g>
				<circle style="fill:#FFFFFF;" cx="24.442" cy="330.061" r="4.961"/>
			</g>
			<g>
				<path style="fill:#241726;" d="M24.441,336.186c-1.635,0-3.174-0.637-4.331-1.794c-2.387-2.387-2.387-6.275,0-8.662      c2.314-2.317,6.347-2.314,8.662,0c1.157,1.157,1.796,2.694,1.796,4.331s-0.639,3.174-1.796,4.331      C27.615,335.55,26.078,336.186,24.441,336.186z M24.441,326.263c-1.014,0-1.967,0.396-2.685,1.114c-1.48,1.48-1.48,3.89,0,5.37      c1.437,1.432,3.938,1.432,5.37,0c0.718-0.718,1.114-1.671,1.114-2.685s-0.396-1.967-1.114-2.685      C26.408,326.658,25.455,326.263,24.441,326.263z"/>
			</g>
		</g>
		<g>
			<g>
				<circle style="fill:#FFFFFF;" cx="57.685" cy="363.304" r="4.961"/>
			</g>
			<g>
				<path style="fill:#241726;" d="M57.686,369.428c-1.637,0-3.174-0.637-4.331-1.794c-2.387-2.387-2.387-6.275,0-8.662      c2.314-2.314,6.347-2.314,8.662,0c2.387,2.387,2.387,6.275,0,8.662C60.859,368.792,59.322,369.428,57.686,369.428z       M57.686,359.507c-1.014,0-1.969,0.396-2.685,1.112c-1.48,1.48-1.48,3.89,0,5.37c1.432,1.432,3.938,1.432,5.37,0      c1.48-1.48,1.48-3.89,0-5.37C59.654,359.903,58.699,359.507,57.686,359.507z"/>
			</g>
		</g>
	</g>
	<g>
		<g>
			<path style="fill:#241726;" d="M459.04,219.643c-0.066,0-0.132-0.005-0.2-0.016c-0.632-0.109-1.057-0.712-0.95-1.346     l6.954-40.474c0.109-0.634,0.702-1.059,1.346-0.95c0.632,0.109,1.057,0.712,0.95,1.346l-6.954,40.474     C460.088,219.243,459.594,219.643,459.04,219.643z"/>
		</g>
		<g>
			<path style="fill:#241726;" d="M438.577,203.29c-0.518,0-0.989-0.346-1.125-0.871c-0.164-0.621,0.209-1.257,0.832-1.419     l46.105-12.026c0.63-0.175,1.257,0.209,1.419,0.832c0.164,0.621-0.209,1.257-0.832,1.419l-46.105,12.026     C438.772,203.279,438.672,203.29,438.577,203.29z"/>
		</g>
		<g>
			<path style="fill:#241726;" d="M476.497,213.814c-0.311,0-0.621-0.123-0.85-0.368l-29.402-31.405     c-0.439-0.468-0.414-1.207,0.055-1.646c0.471-0.439,1.207-0.416,1.646,0.055l29.402,31.405c0.439,0.468,0.414,1.207-0.055,1.646     C477.068,213.71,476.782,213.814,476.497,213.814z"/>
		</g>
		<g>
			<g>
				<circle style="fill:#FFFFFF;" cx="465.61" cy="175.797" r="4.961"/>
			</g>
			<g>
				<path style="fill:#241726;" d="M465.615,181.922c-2.262,0-4.331-1.237-5.399-3.228c-0.775-1.439-0.941-3.096-0.471-4.663      c0.473-1.566,1.525-2.855,2.965-3.631c0.891-0.477,1.892-0.73,2.896-0.73c2.262,0,4.331,1.237,5.399,3.228      c0.775,1.441,0.941,3.096,0.471,4.665c-0.473,1.566-1.525,2.855-2.967,3.628C467.62,181.67,466.619,181.922,465.615,181.922z       M465.605,171.999c-0.621,0-1.241,0.157-1.794,0.452c-0.891,0.48-1.546,1.28-1.837,2.251c-0.293,0.973-0.189,1.998,0.291,2.89      c0.957,1.785,3.344,2.517,5.143,1.55c0.891-0.48,1.546-1.278,1.837-2.251c0.293-0.971,0.189-1.998-0.291-2.892      C468.29,172.765,467.008,171.999,465.605,171.999z"/>
			</g>
		</g>
		<g>
			<g>
				<circle style="fill:#FFFFFF;" cx="459.821" cy="219.937" r="4.961"/>
			</g>
			<g>
				<path style="fill:#241726;" d="M459.826,226.063c-2.262,0-4.333-1.237-5.402-3.228c-1.598-2.976-0.477-6.698,2.499-8.293      c0.889-0.477,1.889-0.732,2.894-0.732c2.262,0,4.331,1.237,5.399,3.228c1.598,2.976,0.477,6.698-2.499,8.296      C461.829,225.811,460.829,226.063,459.826,226.063z M459.817,216.138c-0.621,0-1.241,0.157-1.794,0.455      c-1.844,0.991-2.539,3.296-1.548,5.143c0.962,1.789,3.337,2.519,5.143,1.548c1.844-0.991,2.537-3.299,1.548-5.145      C462.502,216.906,461.22,216.138,459.817,216.138z"/>
			</g>
		</g>
		<g>
			<g>
				<circle style="fill:#FFFFFF;" cx="438.744" cy="201.96" r="4.961"/>
			</g>
			<g>
				<path style="fill:#241726;" d="M438.745,208.085c-1.637,0-3.176-0.637-4.333-1.794c-2.387-2.387-2.387-6.275,0-8.662      c2.314-2.312,6.35-2.317,8.664,0c2.387,2.387,2.387,6.275,0,8.662C441.919,207.449,440.379,208.085,438.745,208.085z       M438.745,198.162c-1.016,0-1.969,0.396-2.687,1.114c-1.48,1.48-1.48,3.89,0,5.37c1.435,1.43,3.931,1.432,5.372,0      c1.48-1.48,1.48-3.89,0-5.37C440.711,198.557,439.759,198.162,438.745,198.162z"/>
			</g>
		</g>
		<g>
			<g>
				<circle style="fill:#FFFFFF;" cx="484.515" cy="188.596" r="4.961"/>
			</g>
			<g>
				<path style="fill:#241726;" d="M484.516,194.722c-1.637,0-3.174-0.639-4.331-1.796c-2.387-2.387-2.387-6.275,0-8.662      c2.314-2.314,6.347-2.314,8.662,0c2.387,2.387,2.387,6.275,0,8.662C487.69,194.083,486.153,194.722,484.516,194.722z       M484.516,184.798c-1.014,0-1.969,0.396-2.685,1.112c-1.48,1.48-1.48,3.89,0,5.37c1.437,1.437,3.933,1.437,5.37,0      c1.48-1.48,1.48-3.89,0-5.37C486.485,185.194,485.53,184.798,484.516,184.798z"/>
			</g>
		</g>
		<g>
			<g>
				<circle style="fill:#FFFFFF;" cx="445.091" cy="179.575" r="4.961"/>
			</g>
			<g>
				<path style="fill:#241726;" d="M445.092,185.701c-1.637,0-3.174-0.637-4.331-1.794c-2.389-2.389-2.389-6.275,0-8.664      c2.314-2.314,6.347-2.314,8.662,0c2.387,2.389,2.387,6.275,0,8.664C448.266,185.064,446.729,185.701,445.092,185.701z       M445.092,175.777c-1.014,0-1.969,0.396-2.685,1.112c-1.48,1.482-1.48,3.892,0,5.372c1.432,1.432,3.938,1.432,5.37,0      c1.48-1.48,1.48-3.892,0-5.372C447.061,176.173,446.106,175.777,445.092,175.777z"/>
			</g>
		</g>
		<g>
			<g>
				<circle style="fill:#FFFFFF;" cx="478.335" cy="212.818" r="4.961"/>
			</g>
			<g>
				<path style="fill:#241726;" d="M478.334,218.943c-1.637,0-3.174-0.637-4.331-1.794c-2.387-2.387-2.387-6.275,0-8.662      c2.314-2.314,6.347-2.314,8.662,0c2.387,2.387,2.387,6.275,0,8.662C481.508,218.306,479.971,218.943,478.334,218.943z       M478.334,209.022c-1.014,0-1.969,0.396-2.685,1.112c-1.48,1.48-1.48,3.89,0,5.37c1.432,1.432,3.938,1.432,5.37,0      c1.48-1.48,1.48-3.89,0-5.37C480.303,209.417,479.348,209.022,478.334,209.022z"/>
			</g>
		</g>
	</g>
	<g>
		<g>
			<path style="fill:#FFFFFF;" d="M71.302,79.907c0,0-2.238-16.988,14.114-11.491c16.352,5.497,11.024,21.05,4.79,15.728     c-6.234-5.322,5.463-23.374,17.975-15.336s9.714,23.635,0.839,24.786c-8.875,1.151,5.373-18.16,16.553-6.234     s-13.23,33.671-23.214,25.676s-2.171-20.898,0.224-13.034s-4.063,15.575-21.769,15.271c-17.706-0.305-9.647-27.545-3.458-19.616     c6.189,7.929-4.086,16.879-16.576,7.537S62.538,74.541,71.302,79.907z"/>
		</g>
		<g>
			<path style="fill:#241726;" d="M81.82,116.445l-1.028-0.009c-5.811-0.1-9.903-3.074-11.351-8.2     c-3.053-0.389-6.27-1.801-9.36-4.11c-4.904-3.669-6.566-9.237-4.558-15.275c2.057-6.188,7.541-11.033,12.483-11.033     c0.698,0,1.375,0.091,2.026,0.273c-0.018-2.373,0.357-6.375,2.749-9.101c2.689-3.065,7.111-3.662,13.004-1.676     c2.262,0.759,4.247,1.746,5.911,2.937c4.729-4.97,11.451-6.063,17.114-2.423c5.406,3.474,8.694,8.814,8.971,14.47     c3.171,0.098,6.077,1.532,8.641,4.267c3.487,3.722,4.131,8.721,1.812,14.079c-3.526,8.139-13.156,15.28-20.611,15.28     c-2.337,0-4.354-0.666-5.993-1.978c-0.775-0.621-1.475-1.291-2.096-2.005C95.62,114.893,89.534,116.445,81.82,116.445z      M71.913,108.325c1.014,2.842,3.41,5.688,8.921,5.784l0.987,0.009c8.869,0,13.722-2.073,16.335-4.049     c-2.483-4.038-2.289-8.446-0.9-11.181c0.807-1.587,1.98-2.499,3.219-2.499c0.832,0,2.355,0.425,3.224,3.274     c1.2,3.94,0.314,7.793-2.426,10.728c0.532,0.616,1.139,1.198,1.814,1.737c1.216,0.975,2.744,1.469,4.538,1.469     c6.522,0,15.327-6.616,18.474-13.877c1.364-3.151,2.235-7.714-1.375-11.563c-2.117-2.26-4.47-3.447-6.998-3.531     c-0.543,5.429-3.949,9.526-8.555,10.124c-3.019,0.389-4.031-1.194-4.09-2.66c-0.13-3.206,4.479-8.589,10.381-9.623     c-0.225-4.924-3.124-9.605-7.909-12.679c-4.699-3.021-10.087-2.132-14.054,1.951c3.856,3.683,4.57,8.207,3.49,11.231     c-1.207,3.385-4.736,4.454-7.536,2.06c-3.449-2.942-2.346-8.68,0.755-12.981c-1.448-1.014-3.181-1.862-5.161-2.528     c-4.922-1.655-8.453-1.339-10.508,1c-2.821,3.21-2.089,9.176-2.08,9.237c0.057,0.443-0.146,0.882-0.523,1.125     c-0.373,0.246-0.857,0.25-1.239,0.018c-0.818-0.5-1.723-0.755-2.687-0.755c-3.935,0-8.544,4.233-10.274,9.439     c-0.791,2.378-2.01,8.373,3.744,12.677c2.505,1.873,5.067,3.083,7.5,3.544c-0.432-3.974,0.584-8.339,2.624-10.872     c0.996-1.234,2.157-1.887,3.362-1.887c0.837,0,2.087,0.327,3.31,1.894c2.205,2.826,2.708,6.016,1.373,8.746     C78.337,106.374,75.414,108.109,71.913,108.325z M100.474,98.717c-0.2,0-0.689,0.332-1.144,1.225     c-1.007,1.982-1.175,5.343,0.568,8.491c1.921-2.273,2.483-5.102,1.571-8.093C101.067,99.015,100.603,98.717,100.474,98.717z      M74.964,95.375c-0.468,0-1.019,0.361-1.548,1.021c-1.505,1.866-2.608,5.852-2.067,9.623c2.851-0.055,5.218-1.328,6.206-3.353     c0.928-1.901,0.521-4.194-1.119-6.293C76.082,95.918,75.539,95.375,74.964,95.375z M115.353,84.86     c-4.717,1.066-8.018,5.395-7.948,7.136c0.009,0.216,0.018,0.484,0.896,0.484c0.175,0,0.364-0.014,0.568-0.041     C112.248,92.001,114.783,88.964,115.353,84.86z M92.003,73.53c-2.655,3.717-3.162,7.921-1.044,9.73     c1.6,1.362,3.142,0.868,3.835-1.075C95.604,79.916,95.006,76.469,92.003,73.53z"/>
		</g>
	</g>
</g>















</svg>
