<?xml version="1.0" encoding="UTF-8"?>
<!-- Generator: Adobe Illustrator 25.2.3, SVG Export Plug-In . SVG Version: 6.00 Build 0)  -->
<svg xmlns="http://www.w3.org/2000/svg" xmlns:xlink="http://www.w3.org/1999/xlink" version="1.1" id="Capa_1" x="0px" y="0px" viewBox="0 0 511.993 511.993" style="enable-background:new 0 0 511.993 511.993;" xml:space="preserve" width="512" height="512">
<g>
	<g>
		<g>
			<path style="fill-rule:evenodd;clip-rule:evenodd;fill:#7678C7;" d="M40.99,342.729c12.225,1.475,21.134-1.893,31.233-5.319     c20.522-6.948,40.447-16.715,55.818-27.904c0.284-0.062,0.313,0.125,0.333,0.333c-2.525,12.08-5.787,23.909-9.969,34.886     c-8.008,21.042-18.175,41.458-35.551,53.823c-12.788,9.107-31.484,13.868-50.503,7.975c-5.826-1.807-11.275-3.787-11.627-9.97     c-0.265-4.65,2.578-9.897,4.317-14.287C30.149,369.405,35.762,354.622,40.99,342.729z"/>
			<path style="opacity:0.13;fill-rule:evenodd;clip-rule:evenodd;" d="M128.374,309.838c-0.019-0.207-0.048-0.395-0.333-0.333     c-15.371,11.189-35.295,20.956-55.818,27.904c-10.099,3.426-19.009,6.794-31.233,5.319c-0.438,0.997-0.882,2.038-1.325,3.07     C37.217,379.509,127.309,314.917,128.374,309.838z"/>
		</g>
		<g>
			<path style="fill-rule:evenodd;clip-rule:evenodd;fill:#7678C7;" d="M156.62,211.488c4.703,13.689-6.558,22.907-12.962,31.233     c-18.402,6.577-32.375,16.291-47.183,26.911c-12.918,9.271-23.615,18.99-33.556,31.566c-1.422,1.797-2.727,4.182-3.985,4.982     c-2.014,1.282-6.64,1.822-10.302,2.66c-6.934,1.58-13.203,3.074-19.934,0.332c-1.031-0.424-2.597-1.171-3.32-1.995     c-4.679-5.31,3.782-15.973,7.975-20.932c4.597-5.45,9.314-9.627,13.617-13.622c18.792-17.462,40.158-32.91,62.795-46.185     c5.527-3.238,11.67-6.438,17.944-9.3c6.548-2.992,13.574-6.707,20.932-7.31C152.004,209.551,154.924,210.052,156.62,211.488z"/>
			<path style="opacity:0.13;fill-rule:evenodd;clip-rule:evenodd;" d="M156.62,211.488c4.703,13.689-6.558,22.907-12.962,31.233     c-18.402,6.577-32.375,16.291-47.183,26.911c-12.918,9.271-23.615,18.99-33.556,31.566c-1.422,1.797-2.727,4.182-3.985,4.982     c-2.014,1.282-6.64,1.822-10.302,2.66c-6.934,1.58-13.203,3.074-19.934,0.332c-1.031-0.424-2.597-1.171-3.32-1.995     c-4.679-5.31,3.782-15.973,7.975-20.932c4.597-5.45,9.314-9.627,13.617-13.622c18.792-17.462,40.158-32.91,62.795-46.185     c5.527-3.238,11.67-6.438,17.944-9.3c6.548-2.992,13.574-6.707,20.932-7.31C152.004,209.551,154.924,210.052,156.62,211.488z"/>
		</g>
		<g>
			<path style="fill-rule:evenodd;clip-rule:evenodd;fill:#7678C7;" d="M156.62,211.488c4.679,4.014,11.637,12.403,19.602,21.596     c1.879,2.173,5.758,6.086,5.98,7.642c0.328,2.318-2.795,9.55-3.657,11.964c-9.406,26.218-30.077,43.704-50.503,58.145     c-12.379,8.746-25.446,16.474-39.208,22.922c-14.008,6.573-29.706,13.357-49.173,12.625     c-6.014-13.029-10.948-25.437-15.062-40.369c1.547,0.988,4.101,1.094,6.76,1.499c1.903,0.289,6.105,0.14,7.974,0     c6.476-0.492,13.916-2.992,20.599-5.315c19.39-6.746,33.643-16.311,49.505-27.914c14.398-10.529,28.627-23.052,38.876-38.871     C152.505,228.931,158.017,220.927,156.62,211.488z"/>
			<g>
				<path style="fill-rule:evenodd;clip-rule:evenodd;fill:#FFFFFF;" d="M95.478,318.145c2.814,4.37-8.745,9.56-11.294,5.98      C80.955,319.581,93.069,314.392,95.478,318.145z"/>
				<path style="fill-rule:evenodd;clip-rule:evenodd;fill:#FFFFFF;" d="M71.559,325.783c1.87-0.072,4.317-0.323,4.317,2.332      c0,3.267-11.559,5.763-14.614,6.64c-3.402,0.973-15.612,4.766-16.947,0.997C42.561,330.818,66.726,325.975,71.559,325.783z"/>
			</g>
		</g>
	</g>
	<g>
		<path style="fill-rule:evenodd;clip-rule:evenodd;fill:#D6D7F2;" d="M268.92,15.124c3.836,9.642,8.924,17.168,15.944,23.259    c6.929,6.008,15.27,10.976,25.919,13.294c22.512,4.886,39.039-4.327,49.505-16.614c1.441-1.691,2.949-4.77,4.65-4.987    c0.602-0.072,3.898,1.142,5.652,1.662c27.938,8.312,53.086,19.693,75.419,32.896c-11.044,18.57-19.019,39.329-26.579,60.8    c-7.527,21.375-14.672,43.492-19.934,67.117c-10.586,47.501-16.311,99.7-15.949,158.153c-38.991,7.594-87.138,6.013-126.924,0.997    c-39.782-5.016-76.479-16.301-105.988-30.569c12.268-41.738,23.789-87.928,29.239-137.554c2.78-25.346,1.99-53.924,1.99-81.404    c0-27.383-1.224-53.933-7.305-75.752C199.842,16.488,232.988,14.416,268.92,15.124z"/>
		<path style="opacity:0.09;fill-rule:evenodd;clip-rule:evenodd;" d="M250.928,241.175c-27.967-27.971-51.173-60.058-69.049-94.804    c-0.188,12.817-0.703,25.365-2.005,37.209c-5.45,49.626-16.971,95.816-29.239,137.554c29.508,14.268,66.206,25.553,105.988,30.569    c39.786,5.016,87.933,6.597,126.924-0.997c-0.053-7.927,0.024-15.728,0.193-23.428    C334.312,308.287,288.849,279.096,250.928,241.175z"/>
		<g>
			<path style="fill:#7678C7;" d="M281.38,74.035c8.5,2.009,14.494-5.108,17.944-9.969c3.055-4.312,4.973-8.866,6.852-13.617     c-8.49-2.612-15.419-6.953-21.312-12.065c-7.021-6.091-12.109-13.617-15.944-23.259c-8.929-0.173-17.689-0.173-26.203,0.068     c2.857,18.32,12.966,36.563,24.377,48.209C270.944,67.323,276.21,72.806,281.38,74.035z"/>
			<path style="fill:#7678C7;" d="M327.06,84.515c7.04-0.222,14.976-3.315,21.264-6.308c17.761-8.456,33.089-24.526,40.528-40.437     c-5.956-2.149-12.032-4.177-18.262-6.033c-1.754-0.52-5.05-1.735-5.652-1.662c-1.701,0.217-3.209,3.296-4.65,4.987     c-10.013,11.757-25.577,20.691-46.624,17.154C312.812,67.294,311.188,85.021,327.06,84.515z"/>
		</g>
		<path style="fill-rule:evenodd;clip-rule:evenodd;fill:#7678C7;" d="M104.869,72.879c5.859,13.217,13.54,25.707,21.197,38.105    c7.661,12.408,15.438,24.859,23.341,37.132c8.683-3.262,17.795-8.004,26.675-13.42c2.486-1.518,7.064-3.951,8.201-5.797    c1.663-2.684,2.299-9.237,3.152-14.08c4.804-27.364,5.348-52.825-0.795-75.52c-1.6-5.898-2.009-13.217-10.774-12.904    c-5.888,0.207-14.354,4.987-19.635,7.893C138.064,44.286,120.187,58.707,104.869,72.879z"/>
		<g>
			<path style="fill-rule:evenodd;clip-rule:evenodd;fill:#FFFFFF;" d="M375.231,337.005c-3.44,1.614-9.806,0.921-16.017-0.145     c-2.66-0.453-6.953-1.262-6.818-3.681c0.169-2.91,5.185-2.771,6.982-2.717c5.681,0.188,12.509,1.552,15.93,3.344     C375.847,334.519,375.756,336.109,375.231,337.005z"/>
			<path style="fill-rule:evenodd;clip-rule:evenodd;fill:#FFFFFF;" d="M358.549,342.932c0.829,6.066-12.557,5.609-11.825,0.583     c0.328-2.183,6.886-4.375,9.974-3.19C357.807,340.754,358.404,341.881,358.549,342.932z"/>
			<path style="fill-rule:evenodd;clip-rule:evenodd;fill:#FFFFFF;" d="M324.477,336.249c0.52,2.111-2.019,3.98-5.059,4.79     c-2.448,0.651-7.425,0.781-7.252-2.125c0.077-1.287,1.908-3.055,4.423-3.792C319.529,334.254,323.812,333.526,324.477,336.249z"/>
		</g>
		<g>
			<path style="fill-rule:evenodd;clip-rule:evenodd;fill:#7678C7;" d="M498.175,133.756     c-10.128,10.321-21.707,19.322-33.228,28.241c-11.526,8.933-23.182,17.862-34.886,26.584     c-6.987-6.105-13.853-13.737-20.267-21.929c-1.792-2.293-5.228-6.177-5.647-8.307c-0.612-3.098,1.089-9.459,1.99-14.287     c5.108-27.311,13.53-51.346,27.249-70.437c3.571-4.968,6.524-11.675,14.615-8.307c5.44,2.26,11.694,9.709,15.621,14.287     C477.123,95.328,488.803,115.108,498.175,133.756z"/>
			<g>
				<path style="fill-rule:evenodd;clip-rule:evenodd;fill:#FFFFFF;" d="M464.975,96.422c-3.638-1.099-7.893-5.883-11.791-10.837      c-1.672-2.115-4.317-5.59-2.588-7.295c2.072-2.053,5.7,1.417,6.992,2.66c4.101,3.946,8.249,9.536,9.589,13.159      C467.1,95.005,465.958,96.118,464.975,96.422z"/>
				<path style="fill-rule:evenodd;clip-rule:evenodd;fill:#FFFFFF;" d="M439.076,83.47c-3.455,5.05-13.077-4.26-9.165-7.493      c1.701-1.407,8.037,1.359,9.541,4.313C439.986,81.345,439.678,82.588,439.076,83.47z"/>
				<path style="fill-rule:evenodd;clip-rule:evenodd;fill:#FFFFFF;" d="M432.6,68.605c-1.031,1.913-4.168,1.595-6.972,0.164      c-2.25-1.157-6.033-4.399-3.956-6.433c0.916-0.911,3.464-0.993,5.826,0.145C430.268,63.805,433.93,66.142,432.6,68.605z"/>
			</g>
		</g>
	</g>
	<g>
		<g>
			<g>
				<path style="fill-rule:evenodd;clip-rule:evenodd;fill:#F44040;" d="M241.671,478.621c-3.498-4.727-6.76-8.596-9.3-13.289      c-5.397-9.97-9.917-22.223-12.957-31.899c-7.286-23.148-12.422-46.817-18.277-71.43c-2.771-11.656-4.722-25.119-5.647-39.208      c-1.382-21.076-0.113-40.499,2.891-58.376c0.232-1.38-7.118-2.832-6.866-4.193l-8.259,3.218      c-1.78,6.825-8.75,11.189-9.685,18.971c-0.545,4.533-0.979,9.16-1.34,13.801c-0.328,4.221,0.371,14.619-3.653,14.952      c-2.38,0.193-4.308-3.363-5.652-5.32c-3.99-5.819-8.274-11.395-12.792-16.691c-1.408-1.65-11.786-3.264-13.238-4.859      l-9.979-1.882c0.992,1.068-8.5,4.01-7.531,5.099c2.518,2.829,4.961,5.727,7.324,8.701c13.964,17.564,26.858,36.322,36.886,59.47      c4.746,10.972,8.707,22.888,12.952,34.886c4.206,11.887,8.288,24.059,11.964,36.216c5.156,17.077,12.172,37.585,10.297,60.472      c-0.66,8.095-0.588,17.429,2.66,20.932c0.632,0.681,1.363,1.255,2.174,1.734c5.676,3.351,15.895-5.026,22.405-6.806      c9.203-2.515,21.081,0.056,22.271-8.878C249.13,488.128,244.62,482.606,241.671,478.621z"/>
				<path style="fill:#EFF973;" d="M225.394,510.187c9.049-2.472,21.303-6.876,22.83-15.52c-3.094-0.723-7.223-0.342-9.873-0.096      c-8.957,0.824-15.062,2.968-20.599,5.647c-2.963,1.436-11.8,5.368-13.877,9.825      C209.575,513.232,218.966,511.941,225.394,510.187z"/>
				<g>
					<path style="fill:#EFF973;" d="M198.203,347.09c-14.157-2.323-28.352-4.563-42.191-7.141c0.222,0.419,0.443,0.843,0.66,1.267       c13.704,2.703,27.769,5.238,41.81,7.575C198.387,348.228,198.295,347.659,198.203,347.09z"/>
					<path style="fill:#EFF973;" d="M203.393,371.563c-0.12-0.52-0.246-1.05-0.371-1.571c-11.955-1.894-23.958-3.744-35.898-5.652       c0.251,0.641,0.492,1.291,0.737,1.937c8.765,1.412,17.785,2.559,26.632,3.893C197.461,370.619,200.43,371.086,203.393,371.563z       "/>
					<path style="fill:#EFF973;" d="M207.971,390.953c-11.16-1.86-22.305-3.734-33.311-5.749c0.212,0.602,0.424,1.21,0.641,1.812       c10.76,2.12,21.934,3.956,33.069,5.589C208.236,392.052,208.106,391.502,207.971,390.953z"/>
					<path style="fill:#EFF973;" d="M212.929,410.772c-10.35-1.976-20.816-3.845-31.359-5.638c0.169,0.515,0.347,1.031,0.521,1.547       c10.417,1.932,20.893,3.845,31.282,5.744C213.223,411.875,213.078,411.321,212.929,410.772z"/>
					<path style="fill:#EFF973;" d="M218.648,430.903c-0.183-0.593-0.361-1.181-0.539-1.773       c-10.129-1.754-20.305-3.464-30.477-5.184c0.203,0.66,0.415,1.32,0.612,1.98c6.881,1.181,13.868,2.26,20.869,3.383       C212.25,429.814,215.439,430.354,218.648,430.903z"/>
					<path style="fill:#EFF973;" d="M224.195,447.156c-10.374-2.053-20.826-4.024-31.349-5.927c0.198,0.708,0.405,1.412,0.603,2.125       c10.47,1.952,20.994,3.874,31.508,5.782C224.696,448.476,224.45,447.816,224.195,447.156z"/>
					<path style="fill:#EFF973;" d="M233.109,466.628c-11.82-1.898-23.77-3.691-35.614-5.435c0.12,0.694,0.231,1.383,0.337,2.077       c12.065,2,24.314,3.807,36.635,5.551C233.995,468.102,233.547,467.37,233.109,466.628z"/>
				</g>
			</g>
			<g>
				<path style="fill-rule:evenodd;clip-rule:evenodd;fill:#FFFFFF;" d="M187.637,279.978c-1.643,2.905-1.445,8.534-0.916,14.046      c0.217,2.361,0.651,6.182,2.785,6.216c2.559,0.048,2.761-4.365,2.833-5.936c0.207-5.001-0.549-11.073-1.898-14.19      C189.848,279.588,188.446,279.573,187.637,279.978z"/>
				<path style="fill-rule:evenodd;clip-rule:evenodd;fill:#FFFFFF;" d="M179.036,303.941c-5.267-1.113-5.734,10.649-1.282,10.331      c1.937-0.14,4.288-5.749,3.445-8.534C180.9,304.74,179.951,304.133,179.036,303.941z"/>
				<path style="fill-rule:evenodd;clip-rule:evenodd;fill:#FFFFFF;" d="M183.941,317.326c-1.822-0.588-3.624,1.518-4.534,4.124      c-0.732,2.106-1.166,6.462,1.393,6.496c1.132,0.024,2.804-1.47,3.614-3.628C185.372,321.793,186.278,318.083,183.941,317.326z"/>
			</g>
		</g>
		<g>
			<g>
				<g>
					<path style="fill:#EFF973;" d="M214.095,208.833c0.029,0.101-0.024,0.227,0,0.328c-0.424,0.019-0.458,0.429-0.997,0.333       c-2.539,7.049-5.777,13.964-9.965,19.939c-1.812,2.583-3.758,5.069-5.816,7.435c-5.204,7.657-11.405,14.465-18.778,19.92       c-2.313,7.724-3.86,16.484-4.958,25.63c2.997-1.388,5.855-2.944,8.572-4.645c6.072-3.792,11.478-8.317,16.287-13.342       c2.39-14.292,5.859-27.62,10.008-39.984C209.628,220.937,214.582,210.495,214.095,208.833z"/>
					<path style="fill:#EFF973;" d="M134.127,272.437c-0.737-0.684-1.489-1.349-2.231-2.024       c-11.449-0.602-21.919-3.831-31.253-8.451c-5.908-2.034-11.063-4.322-15.795-7.281c-2.848-1.783-5.156-4.713-8.302-5.315       c-0.376,0.034-0.52-0.482-0.67,0c0.477,0.077,0.564,0.549,0.997,0.665c4.399,3.132,8.693,6.351,12.861,9.661       c10.736,8.543,20.662,17.752,29.639,27.836c7.893,1.932,16.253,2.848,24.796,2.265c2.019-0.14,3.994-0.342,5.927-0.602       C145.031,283.25,139.697,277.631,134.127,272.437z"/>
				</g>
				<path style="fill-rule:evenodd;clip-rule:evenodd;fill:#F44040;" d="M100.132,0.172c18.344-1.272,35.334,4.674,48.84,11.964      c13.718,7.406,24.011,16.634,33.561,26.911c19.096,20.556,32.93,48.464,39.868,81.071c7.782,36.568,2.183,76.928-11.295,102.331      c-1.417,2.674-2.935,5.305-4.563,7.878c-7.31,11.589-16.793,22.049-28.887,29.61c-10.572,6.611-23.134,11.01-37.989,12.022      c-17.828,1.214-34.876-4.038-48.508-11.632c-13.227-7.363-24.329-16.576-33.556-26.912      c-19.163-21.471-33.339-47.477-40.206-80.739c-3.667-17.78-4.655-36.481-2.323-55.485c2.255-18.378,6.717-33.113,13.622-46.85      C38.475,30.9,53.104,14.739,74.879,5.819C82.733,2.606,91.025,0.803,100.132,0.172z M60.264,29.748      c-5.286,3.97-10.047,7.796-13.959,12.62c-3.908,4.828-6.948,10.683-9.965,16.947c-5.932,12.326-9.835,23.577-11.632,41.536      c-1.691,16.937-0.424,33.826,2.992,49.173c6.144,27.586,19.838,52.71,36.548,70.104c15.829,16.475,41.593,35.334,74.094,32.226      c30.265-2.886,49.467-21.635,61.465-45.183c5.84-11.459,10.249-25.365,11.959-41.198c1.716-15.862,0.617-33.542-2.655-48.845      c-5.917-27.687-19.616-52.946-36.216-70.437c-16.34-17.212-40.003-35.387-74.427-32.563      C81.726,15.505,70.836,21.783,60.264,29.748z"/>
				<path style="fill:#EFF973;" d="M203.412,148.823l9.006-2.66l0.087,0.275c-0.048-1.889-0.125-3.788-0.236-5.676l-1.576-5.324      l1.147-0.342c-0.043-0.467-0.111-0.93-0.159-1.397l-1.378,0.41l-2.665-9.006l2.8-0.829c-0.077-0.458-0.135-0.925-0.217-1.378      l-2.973,0.877l-2.66-9.006l3.72-1.099c-0.106-0.448-0.202-0.906-0.313-1.354l-3.797,1.122l-2.665-9.01l3.898-1.152      c-0.135-0.438-0.26-0.882-0.405-1.32l-3.884,1.142l-2.66-9.001l3.354-0.993c-0.169-0.429-0.333-0.867-0.506-1.296l-3.243,0.959      l-2.66-9.006l2.091-0.617c-0.202-0.429-0.41-0.848-0.612-1.267l-1.874,0.554l-2.66-9.011l0.082-0.024      c-0.983-1.735-2.005-3.426-3.04-5.098l1.238,4.187l-9.006,2.66l-2.66-9.006l7.585-2.241c-0.27-0.405-0.54-0.805-0.814-1.2      l-7.165,2.116l-2.66-9.011l3.874-1.147c-0.308-0.386-0.612-0.781-0.93-1.166l-3.334,0.983l-2.139-7.228      c-0.169-0.178-0.338-0.371-0.506-0.554c-0.655-0.694-1.33-1.388-2.01-2.077l-8.736,2.583l-2.665-9.01l3.527-1.041      c-0.41-0.361-0.829-0.718-1.248-1.079l-2.67,0.795l-1.161-3.927c-0.617-0.482-1.238-0.959-1.865-1.431l1.696,5.749l-9.011,2.66      l-2.655-9.006l6.476-1.918c-0.492-0.338-0.983-0.675-1.479-1.002l-5.392,1.59l-1.735-5.874      c-0.569-0.308-1.137-0.612-1.715-0.911l2.12,7.175l-9.006,2.664l-2.66-9.006l7.021-2.077c-0.631-0.299-1.262-0.597-1.908-0.877      l-5.507,1.624l-1.258-4.264c-0.53-0.178-1.06-0.352-1.6-0.521l1.532,5.18l-9.011,2.66l-2.66-9.011l2.694-0.795      c-0.978-0.207-1.971-0.395-2.973-0.568l-0.111,0.034l-0.019-0.048c-0.501-0.087-1.007-0.168-1.513-0.246l0.202,0.689      l-9.006,2.66l-1.243-4.197c-0.477-0.01-0.964-0.014-1.445-0.014l1.359,4.602l-9.006,2.665l-2-6.765      c-0.467,0.053-0.935,0.106-1.397,0.169l2.067,6.992l-9.006,2.66l-2.298-7.782c-0.448,0.125-0.896,0.241-1.335,0.376l2.303,7.796      l-9.006,2.665l-2.077-7.035c-0.424,0.202-0.843,0.41-1.262,0.617l2.014,6.809l-9.011,2.66l-1.349-4.558      c-0.4,0.27-0.8,0.545-1.2,0.819l1.224,4.129l-9.011,2.665l-0.246-0.829c-0.395,0.313-0.781,0.627-1.161,0.94l0.077,0.279      l-0.675,0.198c-0.877,0.728-1.735,1.46-2.568,2.202l3.638-1.069l2.66,9.01l-9.006,2.66l-1.812-6.129      c-0.366,0.41-0.723,0.834-1.074,1.258l1.556,5.262l-6.582,1.951c-0.342,0.569-0.68,1.147-1.012,1.739l7.984-2.361l2.66,9.006      l-9.001,2.665l-2.366-8.004c-0.313,0.578-0.617,1.161-0.925,1.749l1.961,6.645l-6.086,1.792      c-0.255,0.559-0.511,1.118-0.757,1.672l7.233-2.14l2.664,9.011l-9.01,2.66l-2.033-6.876c-0.284,0.679-0.564,1.364-0.839,2.048      l1.547,5.218l-3.85,1.142c-0.173,0.525-0.337,1.055-0.501,1.59l4.741-1.402l2.66,9.01l-9.006,2.66l-0.588-1.99      c-0.275,1.248-0.544,2.52-0.79,3.84l0.443-0.13l2.66,9.006l-4.597,1.359c-0.053,0.496-0.111,0.983-0.164,1.489l5.156-1.518      l2.66,9.01l-8.476,2.501c-0.015,0.487-0.038,0.973-0.053,1.46l8.924-2.636l2.66,9.006l-9.011,2.66l-2.583-8.746      c-0.038,1.6-0.038,3.19-0.029,4.775l1.287,4.361l-1.19,0.352c0.019,0.477,0.039,0.954,0.063,1.426l1.518-0.448l2.66,9.011      l-3.469,1.026c0.053,0.463,0.121,0.925,0.174,1.392l3.691-1.094l2.66,9.006l-4.987,1.474c0.082,0.458,0.164,0.916,0.25,1.368      l5.127-1.513l2.664,9.006l-5.773,1.711c0.111,0.443,0.217,0.896,0.333,1.344l5.835-1.725l2.66,9.006l-5.84,1.73      c0.145,0.439,0.285,0.877,0.434,1.311l5.797-1.711l2.66,9.006l-5.19,1.537c0.174,0.429,0.352,0.858,0.53,1.287l5.055-1.494      l2.66,9.006l-3.831,1.132c0.207,0.424,0.429,0.834,0.636,1.257l3.585-1.06l2.665,9.011l-1.706,0.501      c0.241,0.414,0.487,0.819,0.733,1.229l1.364-0.405l1.489,5.031c1.108,1.72,2.236,3.421,3.397,5.064l8.587-2.535l2.66,9.011      l-5.161,1.523c0.318,0.39,0.655,0.766,0.978,1.156l4.577-1.354l2.66,9.006l-0.178,0.053c0.747,0.752,1.513,1.503,2.303,2.26      l-0.405-1.373l9.006-2.66l2.66,9.001l-4.269,1.267c0.424,0.352,0.862,0.704,1.296,1.055l3.368-0.993l1.364,4.616      c0.602,0.439,1.21,0.867,1.826,1.296l-1.86-6.303l9.006-2.66l2.66,9.01l-6.77,2c0.511,0.333,1.031,0.655,1.556,0.983      l5.604-1.657l1.72,5.806c0.554,0.289,1.122,0.564,1.686,0.838l-2.077-7.035l9.006-2.66l2.66,9.001l-6.77,2.005      c0.66,0.289,1.33,0.573,1.995,0.853l5.17-1.528l1.137,3.85c0.53,0.169,1.055,0.337,1.59,0.496l-1.397-4.741l9.006-2.66      l2.66,9.011l-1.6,0.472c1.103,0.198,2.216,0.366,3.334,0.511l-0.014-0.048l9.01-2.665l0.993,3.358      c0.477,0,0.954-0.005,1.436-0.014l-1.104-3.734l9.011-2.66l1.643,5.565c0.463-0.072,0.925-0.13,1.383-0.207l-1.696-5.753      l9.006-2.66l1.85,6.269c0.443-0.135,0.887-0.265,1.325-0.405l-1.85-6.255l9.011-2.66l1.59,5.392      c0.424-0.202,0.843-0.419,1.262-0.631l-1.523-5.156l9.006-2.66l0.824,2.8c0.405-0.28,0.805-0.559,1.195-0.848l-0.694-2.347      l5.667-1.672c0.79-0.694,1.566-1.402,2.327-2.13l-8.384,2.477l-2.665-9.011l9.011-2.66l2.568,8.678      c0.371-0.366,0.747-0.732,1.113-1.108l-2.351-7.96l9.006-2.665l0.631,2.139c0.347-0.463,0.694-0.921,1.036-1.393l-0.337-1.137      l1.455-0.434c0.414-0.593,0.819-1.195,1.219-1.802l-3.069,0.906l-2.66-9.006l9.006-2.66l1.065,3.604      c0.313-0.568,0.631-1.142,0.94-1.715l-0.674-2.279l2.159-0.641c0.275-0.554,0.54-1.118,0.809-1.682l-3.363,0.992l-2.665-9.01      l9.011-2.665l0.636,2.149c0.27-0.718,0.549-1.431,0.805-2.159l-0.111-0.381l0.284-0.082c0.183-0.525,0.342-1.07,0.52-1.6      l-1.195,0.356l-2.66-9.006l6.857-2.029c0.12-0.511,0.232-1.026,0.347-1.547l-7.599,2.245l-2.66-9.01l9.006-2.66l1.889,6.394      c0.193-1.012,0.371-2.029,0.54-3.055l-1.099-3.729l1.735-0.516c0.068-0.501,0.135-0.997,0.198-1.503l-2.323,0.689l-2.665-9.006      l5.826-1.725c0.029-0.588,0.058-1.176,0.072-1.764l-6.37,1.879L203.412,148.823z M204.747,158.224l-9.01,2.66l-2.66-9.006      l9.011-2.665L204.747,158.224z M148.289,152.427l-2.665-9.006l9.011-2.664l2.665,9.006L148.289,152.427z M157.689,151.093      l2.66,9.006l-9.006,2.665l-2.66-9.006L157.689,151.093z M146.964,152.823l-9.011,2.66l-2.66-9.01l9.006-2.66L146.964,152.823z       M134.898,145.147l-2.66-9.011l9.011-2.66l2.66,9.01L134.898,145.147z M117.518,129.25l2.665,9.006l-9.006,2.66l-2.66-9.006      L117.518,129.25z M108.121,130.58l-2.66-9.006l9.006-2.66l2.66,9.006L108.121,130.58z M118.848,128.855l9.011-2.664l2.665,9.011      l-9.01,2.665L118.848,128.855z M130.913,136.531l2.66,9.006l-9.01,2.664l-2.66-9.01L130.913,136.531z M131.848,134.811      l-2.66-9.01l9.006-2.66l2.66,9.011L131.848,134.811z M128.793,124.475l-2.66-9.01l9.006-2.66l2.66,9.011L128.793,124.475z       M127.468,124.865l-9.01,2.665l-2.66-9.01l9.006-2.665L127.468,124.865z M115.402,117.195l-2.66-9.011l9.006-2.66l2.664,9.006      L115.402,117.195z M114.077,117.585l-9.006,2.66l-2.665-9.006l9.006-2.66L114.077,117.585z M103.741,120.635l-9.006,2.665      l-2.664-9.006l9.006-2.665L103.741,120.635z M102.016,109.909l-2.665-9.01l9.011-2.66l2.66,9.011L102.016,109.909z       M100.687,110.304l-9.011,2.66l-2.66-9.011l9.01-2.66L100.687,110.304z M88.626,102.628l-2.665-9.006l9.011-2.66l2.664,9.006      L88.626,102.628z M90.351,113.354l-9.01,2.665l-2.66-9.011l9.011-2.66L90.351,113.354z M90.741,114.684l2.665,9.006l-9.011,2.66      l-2.66-9.001L90.741,114.684z M93.796,125.02l2.66,9.011l-9.006,2.66l-2.66-9.01L93.796,125.02z M95.126,124.625l9.005-2.66      l2.66,9.006l-9.006,2.664L95.126,124.625z M107.187,132.3l2.66,9.006l-9.006,2.665l-2.665-9.011L107.187,132.3z       M110.242,142.636l2.66,9.006l-9.006,2.664l-2.664-9.006L110.242,142.636z M111.567,142.246l9.006-2.66l2.66,9.006l-9.006,2.66      L111.567,142.246z M123.628,149.922l2.66,9.006l-9.006,2.66l-2.66-9.006L123.628,149.922z M124.953,149.527l9.011-2.66      l2.665,9.006l-9.01,2.66L124.953,149.527z M137.018,157.198l2.66,9.011l-9.01,2.664l-2.66-9.011L137.018,157.198z       M138.348,156.807l9.006-2.66l2.66,9.01l-9.006,2.66L138.348,156.807z M150.404,164.483l2.665,9.006l-9.006,2.66l-2.665-9.006      L150.404,164.483z M151.734,164.093l9.011-2.665l2.66,9.011l-9.011,2.66L151.734,164.093z M159.014,150.702l9.011-2.66      l2.66,9.006l-9.006,2.66L159.014,150.702z M158.624,149.372l-2.665-9.006l9.01-2.66l2.665,9.006L158.624,149.372z       M155.569,139.037l-2.66-9.006l9.006-2.66l2.665,9.006L155.569,139.037z M154.244,139.432l-9.01,2.66l-2.66-9.006l9.01-2.665      L154.244,139.432z M142.184,131.756l-2.665-9.006l9.01-2.665l2.66,9.011L142.184,131.756z M139.129,121.42l-2.66-9.006      l9.006-2.665l2.66,9.006L139.129,121.42z M136.074,111.09l-2.66-9.011l9.006-2.66l2.665,9.006L136.074,111.09z M134.749,111.48      l-9.006,2.66l-2.665-9.011l9.006-2.66L134.749,111.48z M122.683,103.804l-2.66-9.01l9.011-2.66l2.66,9.01L122.683,103.804z       M121.358,104.194l-9.011,2.665l-2.66-9.01l9.01-2.66L121.358,104.194z M109.297,96.523l-2.665-9.006l9.011-2.665l2.664,9.006      L109.297,96.523z M107.967,96.913l-9.006,2.66l-2.66-9.001l9.006-2.665L107.967,96.913z M95.907,89.242l-2.66-9.01l9.006-2.66      l2.66,9.011L95.907,89.242z M94.581,89.633l-9.011,2.66l-2.66-9.01l9.006-2.66L94.581,89.633z M82.521,81.957l-2.665-9.006      l9.01-2.66l2.66,9.006L82.521,81.957z M81.191,82.347l-9.006,2.66l-2.665-9.001l9.011-2.665L81.191,82.347z M81.581,83.677      l2.665,9.011l-9.01,2.66l-2.66-9.01L81.581,83.677z M84.636,94.013l2.66,9.006l-9.006,2.66l-2.66-9.001L84.636,94.013z       M80.015,116.414l-9.011,2.66l-2.66-9.011l9.01-2.66L80.015,116.414z M80.406,117.739l2.664,9.006l-9.01,2.66l-2.66-9.006      L80.406,117.739z M83.46,128.075l2.66,9.006l-9.006,2.66l-2.66-9.005L83.46,128.075z M86.515,138.41l2.665,9.006l-9.01,2.66      l-2.66-9.006L86.515,138.41z M87.845,138.02l9.006-2.665l2.66,9.006l-9.006,2.66L87.845,138.02z M99.906,145.691l2.66,9.006      l-9.006,2.665l-2.665-9.01L99.906,145.691z M102.961,156.027l2.66,9.006l-9.011,2.665l-2.66-9.011L102.961,156.027z       M104.286,155.637l9.011-2.665l2.66,9.006l-9.01,2.665L104.286,155.637z M116.347,163.308l2.66,9.006l-9.006,2.664l-2.66-9.01      L116.347,163.308z M117.672,162.912l9.011-2.66l2.66,9.01l-9.006,2.66L117.672,162.912z M129.733,170.593l2.665,9.006      l-9.011,2.66l-2.66-9.006L129.733,170.593z M131.063,170.198l9.011-2.66l2.66,9.006l-9.01,2.665L131.063,170.198z       M143.21,178.149l2.66,9.011l-9.011,2.66l-2.66-9.006L143.21,178.149z M144.54,177.758l9.006-2.665l2.66,9.011l-9.011,2.665      L144.54,177.758z M156.596,185.434l2.66,9.006l-9.001,2.665l-2.665-9.01L156.596,185.434z M154.871,174.703l9.011-2.66      l2.66,9.006l-9.006,2.665L154.871,174.703z M162.074,161.038l9.001-2.66l2.665,9.006l-9.006,2.66L162.074,161.038z       M169.355,147.647l9.006-2.66l2.66,9.006l-9.006,2.665L169.355,147.647z M168.96,146.322l-2.66-9.01l9.006-2.66l2.665,9.006      L168.96,146.322z M165.905,135.987l-2.66-9.011l9.006-2.66l2.665,9.01L165.905,135.987z M162.855,125.651l-2.665-9.01      l9.006-2.66l2.665,9.006L162.855,125.651z M161.525,126.041l-9.006,2.66l-2.665-9.006l9.011-2.66L161.525,126.041z       M149.464,118.365l-2.66-9.006l9.006-2.66l2.66,9.006L149.464,118.365z M146.409,108.03l-2.66-9.006l9.006-2.66l2.665,9.006      L146.409,108.03z M143.354,97.694l-2.66-9.006l9.01-2.66l2.66,9.006L143.354,97.694z M142.029,98.089l-9.011,2.665l-2.66-9.011      l9.011-2.665L142.029,98.089z M129.969,90.413l-2.665-9.006l9.011-2.66l2.665,9.001L129.969,90.413z M128.639,90.804      l-9.006,2.66l-2.664-9.001l9.01-2.66L128.639,90.804z M116.578,83.132l-2.66-9.006l9.006-2.664l2.665,9.01L116.578,83.132z       M115.253,83.528l-9.011,2.66l-2.66-9.01l9.006-2.66L115.253,83.528z M103.187,75.852l-2.66-9.006l9.01-2.665l2.66,9.006      L103.187,75.852z M101.862,76.242l-9.006,2.66l-2.664-9.006l9.01-2.66L101.862,76.242z M89.801,68.571l-2.664-9.011l9.01-2.664      l2.66,9.01L89.801,68.571z M88.476,68.961l-9.01,2.66l-2.66-9.006l9.006-2.66L88.476,68.961z M78.136,72.016l-9.006,2.66      l-2.66-9.006l9.006-2.665L78.136,72.016z M70.855,85.402l-9.011,2.66l-2.66-9.006l9.011-2.66L70.855,85.402z M71.246,86.732      l2.664,9.011l-9.01,2.66l-2.66-9.011L71.246,86.732z M74.3,97.068l2.665,9.006l-9.01,2.66l-2.66-9.006L74.3,97.068z       M69.679,119.464l-9.006,2.66l-2.665-9.006l9.011-2.664L69.679,119.464z M70.07,120.794l2.665,9.006l-9.006,2.66l-2.66-9.006      L70.07,120.794z M73.125,131.125l2.66,9.01l-9.001,2.66l-2.665-9.006L73.125,131.125z M76.18,141.46l2.66,9.011l-9.006,2.66      l-2.66-9.006L76.18,141.46z M79.23,151.796l2.665,9.01l-9.006,2.66l-2.665-9.006L79.23,151.796z M80.56,151.406l9.011-2.66      l2.66,9.011l-9.006,2.66L80.56,151.406z M92.625,159.082l2.66,9.006l-9.01,2.66l-2.66-9.006L92.625,159.082z M95.675,169.417      l2.665,9.006l-9.011,2.66l-2.664-9.006L95.675,169.417z M97.005,169.022l9.006-2.66l2.66,9.01l-9.006,2.66L97.005,169.022z       M109.066,176.698l2.66,9.006l-9.011,2.66l-2.66-9.006L109.066,176.698z M110.391,176.308l9.01-2.665l2.66,9.006l-9.01,2.665      L110.391,176.308z M122.539,184.254l2.66,9.011l-9.006,2.66l-2.665-9.006L122.539,184.254z M123.864,183.863l9.006-2.66      l2.665,9.011l-9.006,2.66L123.864,183.863z M135.924,191.544l2.665,9.001l-9.01,2.665l-2.66-9.006L135.924,191.544z       M137.254,191.149l9.006-2.664l2.665,9.011l-9.011,2.66L137.254,191.149z M149.315,198.82l2.665,9.011l-9.015,2.66l-2.66-9.006      L149.315,198.82z M150.645,198.43l9.006-2.665l2.66,9.011l-9.006,2.66L150.645,198.43z M157.926,185.039l9.006-2.66l2.66,9.011      l-9.006,2.66L157.926,185.039z M165.206,171.653l9.006-2.665l2.665,9.011l-9.011,2.66L165.206,171.653z M172.405,157.983      l9.006-2.66l2.664,9.006l-9.006,2.665L172.405,157.983z M179.686,144.597l9.011-2.665l2.66,9.011l-9.01,2.66L179.686,144.597z       M179.296,143.267l-2.664-9.006l9.01-2.664l2.66,9.01L179.296,143.267z M176.241,132.932l-2.66-9.011l9.011-2.66l2.66,9.011      L176.241,132.932z M173.186,122.596l-2.66-9.01l9.005-2.66l2.665,9.01L173.186,122.596z M170.136,112.26l-2.66-9.006l9.006-2.66      l2.66,9.006L170.136,112.26z M168.806,112.651l-9.006,2.665l-2.66-9.011l9.006-2.66L168.806,112.651z M156.745,104.98      l-2.66-9.011l9.006-2.66l2.665,9.006L156.745,104.98z M153.69,94.644l-2.66-9.011l9.011-2.66l2.66,9.01L153.69,94.644z       M150.64,84.308l-2.66-9.006l9.006-2.66l2.66,9.001L150.64,84.308z M149.315,84.699l-9.01,2.66l-2.66-9.006l9.006-2.66      L149.315,84.699z M137.249,77.027l-2.66-9.01l9.006-2.66l2.66,9.011L137.249,77.027z M135.924,77.418l-9.011,2.665l-2.66-9.01      l9.01-2.66L135.924,77.418z M123.859,69.742l-2.66-9.006l9.011-2.66l2.66,9.006L123.859,69.742z M122.529,70.137l-9.001,2.66      l-2.664-9.006l9.006-2.665L122.529,70.137z M110.473,62.461l-2.66-9.006l9.006-2.665l2.66,9.011L110.473,62.461z       M109.143,62.856l-9.011,2.66l-2.66-9.011l9.011-2.66L109.143,62.856z M97.082,55.18l-2.665-9.011l9.011-2.66l2.665,9.011      L97.082,55.18z M95.757,55.571l-9.01,2.664l-2.66-9.01l9.006-2.66L95.757,55.571z M85.422,58.625l-9.011,2.66l-2.66-9.011      l9.006-2.655L85.422,58.625z M75.086,61.676l-9.01,2.664l-2.665-9.006l9.011-2.665L75.086,61.676z M67.8,75.071l-9.011,2.66      l-2.66-9.011l9.011-2.66L67.8,75.071z M60.519,88.457l-9.006,2.66l-2.66-9.006l9.001-2.66L60.519,88.457z M60.91,89.782      l2.66,9.011l-9.001,2.665l-2.665-9.011L60.91,89.782z M63.965,100.123l2.66,9.006l-9.006,2.66l-2.66-9.006L63.965,100.123z       M59.344,122.519l-9.01,2.66l-2.66-9.01l9.011-2.66L59.344,122.519z M59.739,123.844l2.66,9.01l-9.01,2.66l-2.66-9.006      L59.739,123.844z M62.789,134.18l2.665,9.011l-9.011,2.66l-2.66-9.01L62.789,134.18z M65.844,144.515l2.66,9.01l-9.006,2.66      l-2.664-9.011L65.844,144.515z M68.899,154.851l2.66,9.011l-9.006,2.66l-2.665-9.01L68.899,154.851z M71.954,165.187l2.66,9.01      l-9.01,2.66l-2.66-9.011L71.954,165.187z M73.279,164.792l9.006-2.66l2.665,9.011l-9.011,2.66L73.279,164.792z M85.34,172.468      l2.66,9.011l-9.006,2.66l-2.66-9.01L85.34,172.468z M88.394,182.803l2.66,9.006l-9.011,2.665l-2.66-9.006L88.394,182.803z       M89.72,182.413l9.011-2.66l2.66,9.006l-9.006,2.66L89.72,182.413z M101.867,190.364l2.66,9.01l-9.01,2.66l-2.66-9.01      L101.867,190.364z M103.192,189.973l9.01-2.66l2.66,9.006l-9.011,2.66L103.192,189.973z M115.253,197.649l2.664,9.01      l-9.011,2.66l-2.66-9.011L115.253,197.649z M116.583,197.254l9.006-2.66l2.665,9.006l-9.011,2.66L116.583,197.254z       M128.644,204.93l2.66,9.006l-9.006,2.664l-2.66-9.01L128.644,204.93z M129.974,204.535l9.006-2.66l2.66,9.006l-9.006,2.665      L129.974,204.535z M142.029,212.211l2.664,9.011l-9.006,2.66l-2.665-9.01L142.029,212.211z M143.359,211.816l9.011-2.66      l2.66,9.01l-9.006,2.66L143.359,211.816z M153.695,208.765l9.011-2.665l2.66,9.01l-9.006,2.665L153.695,208.765z       M160.981,195.375l9.006-2.66l2.66,9.006l-9.006,2.665L160.981,195.375z M171.316,192.325l9.001-2.665l2.665,9.006l-9.006,2.665      L171.316,192.325z M170.921,190.995l-2.66-9.006l9.006-2.664l2.66,9.01L170.921,190.995z M175.542,168.598l9.006-2.66      l2.66,9.006l-9.006,2.66L175.542,168.598z M182.741,154.928l9.006-2.66l2.665,9.01l-9.011,2.66L182.741,154.928z       M190.022,141.542l9.01-2.665l2.66,9.011l-9.006,2.665L190.022,141.542z M189.631,140.217l-2.665-9.01l9.011-2.665l2.664,9.01      L189.631,140.217z M186.576,129.882l-2.66-9.011l9.01-2.665l2.66,9.011L186.576,129.882z M183.526,119.546l-2.665-9.01      l9.01-2.665l2.66,9.01L183.526,119.546z M180.471,109.21l-2.66-9.01l9.006-2.665l2.66,9.011L180.471,109.21z M177.416,98.875      l-2.665-9.011l9.011-2.665l2.66,9.011L177.416,98.875z M176.091,99.265l-9.01,2.66l-2.665-9.01l9.01-2.66L176.091,99.265z       M164.026,91.589l-2.66-9.011l9.01-2.66l2.66,9.01L164.026,91.589z M160.976,81.253l-2.665-9.006l9.01-2.66l2.66,9.006      L160.976,81.253z M157.921,70.918l-2.66-9.006l9.006-2.665l2.66,9.011L157.921,70.918z M156.591,71.313l-9.006,2.66l-2.66-9.01      l9.006-2.66L156.591,71.313z M144.535,63.637l-2.665-9.006l9.006-2.66l2.665,9.001L144.535,63.637z M143.205,64.027l-9.006,2.66      l-2.664-9.006l9.01-2.66L143.205,64.027z M131.144,56.351l-2.66-9.006l9.001-2.66l2.665,9.006L131.144,56.351z M129.814,56.751      l-9.006,2.66l-2.665-9.01l9.011-2.66L129.814,56.751z M117.754,49.07l-2.66-9.006l9.006-2.66l2.66,9.006L117.754,49.07z       M116.424,49.465l-9.006,2.66l-2.66-9.006l9.006-2.665L116.424,49.465z M104.363,41.795l-2.66-9.011l9.01-2.664l2.66,9.011      L104.363,41.795z M103.038,42.185l-9.011,2.66l-2.66-9.006l9.011-2.665L103.038,42.185z M92.698,45.235L83.692,47.9l-2.66-9.006      l9.006-2.665L92.698,45.235z M82.367,48.29l-9.011,2.66l-2.66-9.006l9.011-2.66L82.367,48.29z M72.031,51.345l-9.01,2.66      l-2.66-9.006l9.01-2.665L72.031,51.345z M64.75,64.731l-9.011,2.665l-2.665-9.01l9.011-2.66L64.75,64.731z M57.465,78.121      l-9.006,2.665l-2.66-9.011l9.006-2.665L57.465,78.121z M50.184,91.512l-9.006,2.66l-2.665-9.005l9.011-2.66L50.184,91.512z       M50.579,92.837l2.66,9.011l-9.01,2.66l-2.66-9.01L50.579,92.837z M53.634,103.173l2.66,9.01l-9.01,2.66l-2.66-9.006      L53.634,103.173z M49.008,125.569l-9.006,2.665l-2.665-9.011l9.011-2.665L49.008,125.569z M49.403,126.899l2.66,9.006      l-9.006,2.664l-2.66-9.01L49.403,126.899z M52.453,137.235l2.66,9.006l-9.006,2.665l-2.66-9.011L52.453,137.235z       M55.508,147.566l2.66,9.011l-9.006,2.66l-2.66-9.006L55.508,147.566z M58.563,157.901l2.66,9.011l-9.006,2.66l-2.665-9.006      L58.563,157.901z M61.618,168.242l2.66,9.006l-9.01,2.66l-2.66-9.006L61.618,168.242z M64.668,178.577l2.665,9.011l-9.01,2.66      l-2.66-9.011L64.668,178.577z M65.998,178.182l9.006-2.66l2.665,9.01l-9.011,2.66L65.998,178.182z M78.059,185.858l2.66,9.006      l-9.011,2.665l-2.66-9.006L78.059,185.858z M81.196,196.469l2.66,9.01l-9.006,2.66l-2.665-9.006L81.196,196.469z       M82.521,196.078l9.01-2.66l2.66,9.01l-9.01,2.66L82.521,196.078z M94.581,203.754l2.665,9.011l-9.01,2.66l-2.66-9.011      L94.581,203.754z M95.911,203.359l9.006-2.66l2.665,9.011l-9.011,2.66L95.911,203.359z M107.972,211.035l2.66,9.01l-9.006,2.66      l-2.665-9.011L107.972,211.035z M109.297,210.645l9.01-2.66l2.66,9.006l-9.011,2.66L109.297,210.645z M121.363,218.32      l2.66,9.006l-9.01,2.665l-2.66-9.011L121.363,218.32z M122.688,217.925l9.011-2.66l2.66,9.011l-9.006,2.66L122.688,217.925z       M134.749,225.601l2.665,9.006l-9.011,2.66l-2.66-9.006L134.749,225.601z M136.079,225.211l9.006-2.665l2.66,9.006l-9.006,2.665      L136.079,225.211z M146.414,222.156l9.011-2.665l2.66,9.011l-9.011,2.66L146.414,222.156z M156.75,219.101l9.01-2.66l2.66,9.006      l-9.01,2.665L156.75,219.101z M164.031,205.711l9.011-2.66l2.66,9.011l-9.006,2.66L164.031,205.711z M174.366,202.656l9.01-2.66      l2.66,9.01l-9.006,2.66L174.366,202.656z M181.647,189.27l9.006-2.66l2.664,9.006l-9.006,2.66L181.647,189.27z M181.257,187.94      l-2.66-9.006l9.006-2.66l2.66,9.006L181.257,187.94z M185.873,165.543l9.01-2.66l2.665,9.006l-9.011,2.665L185.873,165.543z       M212.028,144.833l-9.006,2.665l-2.66-9.011l9.006-2.66L212.028,144.833z M208.978,134.503l-9.011,2.66l-2.664-9.01l9.01-2.66      L208.978,134.503z M205.918,124.162l-9.006,2.66l-2.66-9.006l9.011-2.66L205.918,124.162z M202.868,113.831l-9.006,2.66      l-2.665-9.01l9.006-2.66L202.868,113.831z M199.813,103.491l-9.006,2.665l-2.66-9.011l9.006-2.66L199.813,103.491z       M196.758,93.16l-9.006,2.66l-2.66-9.01l9.006-2.66L196.758,93.16z M191.048,73.814l2.66,9.006l-9.006,2.66l-2.664-9.006      L191.048,73.814z M183.372,85.874l-9.011,2.664l-2.66-9.01l9.011-2.665L183.372,85.874z M180.317,75.539l-9.006,2.66      l-2.665-9.006l9.011-2.66L180.317,75.539z M177.267,65.203l-9.011,2.664l-2.66-9.01l9.006-2.665L177.267,65.203z       M171.552,45.861l2.66,9.006l-9.011,2.665l-2.66-9.011L171.552,45.861z M163.872,57.922l-9.006,2.66l-2.66-9.011l9.006-2.66      L163.872,57.922z M158.157,38.576l2.665,9.01l-9.011,2.66l-2.66-9.011L158.157,38.576z M150.486,50.641l-9.01,2.66l-2.66-9.011      l9.006-2.66L150.486,50.641z M144.771,31.295l2.66,9.006l-9.006,2.665l-2.664-9.006L144.771,31.295z M137.095,43.356      l-9.006,2.66l-2.66-9.006l9.006-2.66L137.095,43.356z M131.381,24.014l2.66,9.006l-9.006,2.66l-2.66-9.001L131.381,24.014z       M123.709,36.075l-9.011,2.66l-2.66-9.006l9.011-2.66L123.709,36.075z M117.995,16.734l2.66,9.01l-9.006,2.66l-2.665-9.01      L117.995,16.734z M107.654,19.784l2.665,9.01l-9.006,2.665l-2.665-9.01L107.654,19.784z M97.323,22.839l2.665,9.01l-9.011,2.66      l-2.665-9.01L97.323,22.839z M86.987,25.894l2.66,9.01l-9.006,2.66l-2.665-9.01L86.987,25.894z M76.652,28.944l2.66,9.01      l-9.006,2.665l-2.665-9.011L76.652,28.944z M57.306,34.663l9.01-2.665l2.66,9.01l-9.005,2.66L57.306,34.663z M50.025,48.054      l9.01-2.665l2.66,9.006l-9.011,2.665L50.025,48.054z M42.744,61.44l9.006-2.66l2.665,9.006l-9.01,2.66L42.744,61.44z       M35.463,74.825l9.011-2.66l2.655,9.011l-9.006,2.66L35.463,74.825z M28.183,88.221l9.001-2.664l2.665,9.006l-9.006,2.665      L28.183,88.221z M31.233,98.552l9.006-2.66l2.665,9.011l-9.011,2.66L31.233,98.552z M34.288,108.892l9.006-2.664l2.66,9.006      l-9.006,2.66L34.288,108.892z M27.007,122.273l9.006-2.66l2.66,9.011l-9.006,2.66L27.007,122.273z M30.062,132.614l9.006-2.66      l2.66,9.006l-9.006,2.66L30.062,132.614z M33.112,142.949l9.006-2.665l2.66,9.011l-9.001,2.66L33.112,142.949z M36.167,153.285      l9.011-2.66l2.66,9.005l-9.011,2.66L36.167,153.285z M39.217,163.621l9.011-2.66l2.66,9.006l-9.006,2.66L39.217,163.621z       M42.277,173.957l9.006-2.66l2.66,9.006l-9.006,2.66L42.277,173.957z M45.327,184.287l9.006-2.66l2.665,9.01l-9.011,2.66      L45.327,184.287z M51.041,203.634l-2.66-9.006l9.006-2.66l2.66,9.006L51.041,203.634z M58.717,191.573l9.006-2.66l2.66,9.006      l-9.006,2.66L58.717,191.573z M61.849,202.188l9.01-2.66l2.66,9.006l-9.006,2.66L61.849,202.188z M67.564,221.53l-2.66-9.006      l9.006-2.66l2.665,9.006L67.564,221.53z M75.24,209.469l9.006-2.665l2.665,9.011l-9.011,2.66L75.24,209.469z M80.955,228.81      l-2.66-9.006l9.006-2.66l2.66,9.006L80.955,228.81z M88.631,216.75l9.006-2.66l2.66,9.006l-9.006,2.664L88.631,216.75z       M94.345,236.096l-2.66-9.011l9.006-2.66l2.66,9.011L94.345,236.096z M102.016,224.031l9.006-2.66l2.665,9.011l-9.006,2.66      L102.016,224.031z M107.731,243.377l-2.66-9.006l9.01-2.66l2.66,9.006L107.731,243.377z M115.407,231.316l9.011-2.665      l2.66,9.011l-9.01,2.66L115.407,231.316z M121.122,250.662l-2.665-9.011l9.01-2.665l2.665,9.011L121.122,250.662z       M131.458,247.607l-2.665-9.01l9.011-2.66l2.665,9.006L131.458,247.607z M141.793,244.552l-2.66-9.01l9.006-2.66l2.665,9.01      L141.793,244.552z M152.129,241.497l-2.665-9.006l9.011-2.664l2.665,9.01L152.129,241.497z M171.475,235.783l-9.011,2.665      l-2.66-9.01l9.006-2.66L171.475,235.783z M169.745,225.052l-2.66-9.006l9.006-2.66l2.66,9.006L169.745,225.052z       M189.092,219.342l-9.01,2.66l-2.66-9.006l9.01-2.665L189.092,219.342z M196.368,205.956l-9.001,2.66l-2.665-9.01l9.006-2.66      L196.368,205.956z M203.653,192.561l-9.011,2.665l-2.66-9.006l9.011-2.665L203.653,192.561z M200.598,182.23l-9.01,2.66      l-2.66-9.011l9.011-2.66L200.598,182.23z M207.884,168.839l-9.01,2.66l-2.665-9.011l9.011-2.66L207.884,168.839z"/>
			</g>
			<g>
				<g>
					<path style="fill-rule:evenodd;clip-rule:evenodd;fill:#FFFFFF;" d="M102.918,254.469c-0.01,5.247-12.186-0.766-8.09-3.908       C96.962,248.918,101.414,252.412,102.918,254.469z"/>
					<path style="fill-rule:evenodd;clip-rule:evenodd;fill:#FFFFFF;" d="M107.548,262.352c-0.733-0.829-1.793-2.93-0.015-4.279       c2.323-1.764,7.739,0.467,10.047,0.944c2.814,0.578,8.379,0.41,9.372,3.484c1.426,4.395-6.866,3.33-9.7,2.843       c-1.508-0.26-2.959-0.656-4.226-0.94C110.863,263.923,108.97,263.952,107.548,262.352z"/>
				</g>
				<g>
					<path style="fill-rule:evenodd;clip-rule:evenodd;fill:#FFFFFF;" d="M173.605,39.096c2.414-4.655,10.475,6.274,5.392,7.189       C176.347,46.762,173.995,41.612,173.605,39.096z"/>
					<path style="fill-rule:evenodd;clip-rule:evenodd;fill:#FFFFFF;" d="M172.294,32.823c0.275,1.069,0.251,3.426-1.947,3.806       c-2.877,0.506-6.659-3.966-8.495-5.45c-2.236-1.807-7.257-4.206-6.731-7.396c0.752-4.558,7.633,0.193,9.926,1.923       c1.219,0.925,2.327,1.942,3.325,2.77C170.073,29.903,171.769,30.75,172.294,32.823z"/>
				</g>
			</g>
		</g>
	</g>
	<g>
		<g>
			<path style="fill-rule:evenodd;clip-rule:evenodd;fill:#EFF973;" d="M256.903,97.607c0,20.647-16.735,37.382-37.377,37.382     c-5.399,0-10.531-1.145-15.165-3.205c0,0,0.57-3.824-0.494-4.429c-1.252-0.712-6.408,0.426-6.408,0.426     c-9.282-6.801-15.309-17.783-15.309-30.174c0-5.994,1.41-11.637,3.917-16.658c0,0,3.21-0.973,3.6-1.645     c0.301-0.518-1.544-1.958-1.544-1.958c6.657-10.297,18.23-17.117,31.403-17.117c5.312,0,10.365,1.108,14.941,3.105     c0,0,0.599,1.752,0.995,1.941c0.424,0.203,1.459-0.753,1.459-0.753c8.613,4.537,15.235,12.331,18.228,21.751     c0,0-2.878,3.623-2.664,4.527c0.189,0.797,3.888,0.547,3.888,0.547C256.713,93.377,256.903,95.481,256.903,97.607z"/>
			<g>
				<path style="fill:#FFFFFF;" d="M253.915,87.223c-11.145,6.095-16.214-7.681-16.947-18.604c-0.096-1.426-0.082-2.751-0.048-4.096      c-0.805-0.424-1.619-0.819-2.457-1.181c-2.26,12.037,1.975,26.328,10.148,29.528c1.744,0.684,4.597,0.973,6.645,0.67      c1.234-0.188,3.368-1.031,5.117-2.192c-0.289-1.735-0.699-3.431-1.224-5.074C254.657,86.66,254.223,87.055,253.915,87.223z"/>
				<path style="fill:#FFFFFF;" d="M215.704,99.188c-3.137-12.229-11.96-21.293-25.914-21.929c-0.501-0.024-1.065,0.01-1.667,0.087      c-0.747,1.157-1.436,2.361-2.057,3.604c1.407-0.159,2.587-0.554,4.717-0.371c10.557,0.925,18.701,10.524,20.604,20.932      c1.628,8.929-0.304,21.833-6.977,24.589c-2.294,0.949-5.739,0.366-6.948,1.672c2.139,1.571,4.457,2.915,6.91,4.004      c1.879-0.467,3.831-1.373,4.688-2.019C215.608,124.793,218.403,109.692,215.704,99.188z"/>
			</g>
		</g>
		<g>
			<path style="fill-rule:evenodd;clip-rule:evenodd;fill:#EFF973;" d="M298.322,164.349c0,20.642-16.735,37.377-37.382,37.377     c-20.643,0-37.377-16.735-37.377-37.377c0-17.528,12.06-32.236,28.333-36.28c0,0-0.184,2.124,1.082,1.944     c1.163-0.165,6.189-3.005,6.189-3.005c0.588-0.027,1.179-0.041,1.774-0.041c15.148,0,28.191,9.008,34.063,21.96     c0,0-2.297,2.12-2.008,2.889c0.259,0.688,3.664,1.474,3.664,1.474C297.741,156.785,298.322,160.499,298.322,164.349z"/>
			<path style="fill:#FFFFFF;" d="M260.892,181.791c-12.846,8.538-27.172-1.45-27.244-15.617     c-0.053-9.931,5.31-18.185,11.294-25.254c3.59-4.236,9.199-8.669,13.955-13.617c0.048-0.053,0.145-0.159,0.26-0.289     c-2.491,0.116-4.915,0.482-7.252,1.06c-1.176,1.007-2.289,2.009-3.31,2.882c-9.059,7.796-20.247,20.667-19.602,36.216     c0.482,11.666,8.861,21.987,20.266,22.594c7.266,0.381,13.42-2.935,17.279-6.312c7.502-6.582,12.215-18.691,19.607-24.921     c2.843-2.404,6.63-4.669,10.514-5.243c-0.463-1.494-1.026-2.949-1.662-4.361C278.846,152.49,272.919,173.793,260.892,181.791z"/>
		</g>
	</g>
	<g>
		<g>
			<path style="fill:#FFFFFF;" d="M288.064,256.835c1.181,4.11-1.2,8.394-5.315,9.569l-20.469,5.85     c-4.11,1.176-8.394-1.204-9.57-5.315l0,0c-1.176-4.115,1.204-8.399,5.315-9.579l20.469-5.845     C282.604,250.339,286.893,252.72,288.064,256.835L288.064,256.835z"/>
			<path style="fill:#7678C7;" d="M275.305,240.515l-20.469,5.85c-0.641,0.188-1.012,0.858-0.829,1.499     c0.183,0.646,0.853,1.017,1.494,0.834l4.077-1.166l2.486,8.683l12.229-3.498l-2.482-8.678l4.159-1.19     c0.646-0.183,1.017-0.858,0.829-1.499C276.62,240.707,275.945,240.331,275.305,240.515z"/>
			<path style="fill:#F44040;" d="M316.194,295.104l-6.674-23.341c-2.669-9.338-12.403-14.74-21.736-12.075l-33.286,9.512     c-9.333,2.669-14.735,12.403-12.07,21.736l6.669,23.346c0.039,0.125,0.087,0.246,0.13,0.376l33.339-5.585l33.716-13.583     C316.247,295.359,316.228,295.234,316.194,295.104z"/>
			<path style="fill:#F44040;" d="M257.471,343.491l20.671,72.335c2.819,9.097,12.398,14.326,21.606,11.695l33.286-9.512     c9.208-2.631,14.571-12.138,12.162-21.351l0.019-0.005l-20.671-72.331l-34.501,8.172L257.471,343.491z"/>
			<path style="fill:#FFFFFF;" d="M307.892,313.496c-2.279-7.965,0.448-15.728,8.408-18.002v-0.01l-67.093,19.178l0.014,0.048     c7.69-1.71,13.593,3.368,15.785,11.039c2.193,7.681-0.13,15.111-7.565,17.718l0.005,0.033l66.813-19.096     C316.387,326.491,310.137,321.369,307.892,313.496z"/>
			<g>
				<path style="opacity:0.2;" d="M324.506,334.104c0.173,0.607-13.516,5.055-30.573,9.931c-17.057,4.871-31.026,8.331-31.2,7.724      c-0.174-0.607,13.516-5.055,30.568-9.931C310.359,336.952,324.333,333.492,324.506,334.104z"/>
				<path style="opacity:0.2;" d="M326.973,342.749c0.178,0.607-13.511,5.055-30.569,9.931c-17.058,4.872-31.026,8.331-31.205,7.724      c-0.174-0.612,13.516-5.055,30.573-9.931C312.831,345.597,326.8,342.137,326.973,342.749z"/>
				<path style="opacity:0.2;" d="M329.445,351.388c0.173,0.612-13.511,5.055-30.569,9.931c-17.057,4.871-31.031,8.336-31.2,7.724      c-0.178-0.612,13.511-5.055,30.569-9.931C315.303,354.236,329.272,350.777,329.445,351.388z"/>
			</g>
		</g>
		<g>
			<path style="fill-rule:evenodd;clip-rule:evenodd;fill:#FFFFFF;" d="M333.314,387.527c4.669,2.029,4.048-11.135-0.342-8.712     C330.688,380.078,332.066,385.393,333.314,387.527z"/>
			<path style="fill-rule:evenodd;clip-rule:evenodd;fill:#FFFFFF;" d="M338.528,394.707c-0.453-0.973-1.913-2.732-3.802-1.677     c-2.472,1.378-2.588,7.064-3.06,9.305c-0.578,2.727-2.891,7.604-0.54,9.685c3.354,2.973,5.623-4.814,6.298-7.522     c0.352-1.441,0.564-2.891,0.805-4.125C338.634,398.263,339.395,396.586,338.528,394.707z"/>
		</g>
		<g>
			<path style="fill-rule:evenodd;clip-rule:evenodd;fill:#FFFFFF;" d="M250.176,280.537c-1.084,4.385,9.647,1.537,8.967-1.764     c-0.795-3.869-7.348-0.636-8.832,1.354C250.214,280.253,250.21,280.383,250.176,280.537z"/>
			<path style="fill-rule:evenodd;clip-rule:evenodd;fill:#FFFFFF;" d="M262.482,275.275c-0.381,3.648,8.789,1.749,7.329-1.744     C268.703,270.876,262.743,272.755,262.482,275.275z"/>
		</g>
	</g>
</g>















</svg>
