<?xml version="1.0" encoding="UTF-8"?>
<!-- Generator: Adobe Illustrator 25.2.3, SVG Export Plug-In . SVG Version: 6.00 Build 0)  -->
<svg xmlns="http://www.w3.org/2000/svg" xmlns:xlink="http://www.w3.org/1999/xlink" version="1.1" id="Capa_1" x="0px" y="0px" viewBox="0 0 512 512" style="enable-background:new 0 0 512 512;" xml:space="preserve" width="512" height="512">
<g>
	<g>
		<g>
			<path style="fill:#241726;" d="M394.226,211.313c-1.396,0-4.56-3.34-9.407-9.935c-6.029,5.978-9.665,9.008-10.815,9.008l0,0     c-0.319,0-0.753-0.205-0.944-0.46c-0.645-0.859-1.738-6.364-2.453-10.286c-3.283,1.278-11.958,4.56-14.322,4.56     c-1.22,0-1.448-0.796-1.488-1.041c-0.219-1.313,1.918-9.03,3.124-13.219c-13.419-3.36-13.637-4.671-13.743-5.309     c-0.095-0.565-0.311-1.859,9.339-9.105c-4.103-2.461-10.927-7.007-10.469-9.755c0.458-2.745,7.7-4.906,11.915-5.939     c-6.746-12.749-5.89-13.389-5.198-13.908c0.351-0.263,0.791-0.298,1.177-0.298c2.22,0,9.176,1.625,12.018,2.313     c0.481-13.764,1.294-13.968,2.079-14.163c0.08-0.02,0.203-0.034,0.286-0.034c0.95,0,5.376,2.615,13.161,7.776     c3.615-12.077,4.74-12.077,5.493-12.077c0.128,0,0.315,0.036,0.434,0.083c0.41,0.164,1.473,0.591,5.803,11.704     c2.958-1.592,10.016-5.273,12.068-5.273c0.282,0,0.522,0.051,0.735,0.158c0.595,0.298,1.956,0.978-0.471,11.218     c2.606-0.357,8.013-1.041,11.281-1.041c1.234,0,3.532,0,3.532,1.572c0,1.475-2.966,7.45-4.736,10.885     c5.202,1.473,10.992,3.429,11.659,4.985c0.288,0.673,0.953,2.218-9.795,10.091c4.096,2.86,9.624,7.264,8.938,9.78     c-0.677,2.485-8.431,4.276-13.866,5.238c2.089,3.871,4.746,9.431,3.853,11.216c-0.52,1.039-2.013,1.179-3.403,1.179     c-3.207,0.002-8.322-0.952-10.379-1.365c-1.041,3.14-3.391,9.976-4.483,11.068C394.904,211.18,394.579,211.313,394.226,211.313     L394.226,211.313z M384.94,198.818c0.027,0,0.053,0.002,0.08,0.004c0.294,0.022,0.565,0.174,0.739,0.413     c3,4.136,6.761,8.761,8.224,9.854c0.824-1.541,2.615-6.439,4.004-10.703c0.162-0.492,0.677-0.774,1.174-0.675     c0.07,0.016,7.06,1.505,10.846,1.503c0.969,0,1.415-0.099,1.599-0.16c0.078-1.311-2.204-6.362-4.502-10.478     c-0.161-0.288-0.171-0.636-0.028-0.934c0.143-0.296,0.422-0.504,0.747-0.557c6.876-1.128,13.13-2.976,13.656-4.039     c0.054-1.049-4.293-4.977-9.313-8.36c-0.275-0.186-0.441-0.494-0.446-0.824c-0.005-0.332,0.152-0.644,0.421-0.837     c4.422-3.184,9.361-7.237,10.146-8.619c-1.094-0.845-6.621-2.731-11.404-4.043c-0.295-0.081-0.537-0.292-0.66-0.573     c-0.121-0.28-0.111-0.6,0.031-0.871c2.158-4.13,4.408-8.823,4.957-10.539c-0.277-0.036-0.713-0.067-1.385-0.067     c-4.181,0-12.385,1.217-12.468,1.228c-0.331,0.055-0.672-0.069-0.898-0.32c-0.227-0.251-0.314-0.596-0.232-0.924     c1.017-4.075,1.879-8.939,1.691-10.345c-1.446,0.308-7.004,2.996-11.747,5.601c-0.259,0.14-0.562,0.162-0.834,0.063     c-0.274-0.101-0.492-0.314-0.596-0.587c-1.64-4.266-3.7-9.109-4.754-10.987c-0.953,1.922-2.658,6.948-3.951,11.36     c-0.091,0.308-0.323,0.555-0.625,0.666c-0.302,0.113-0.638,0.071-0.907-0.109c-5.008-3.338-10.612-6.887-12.641-7.92     c-0.385,2.066-0.757,7.926-0.925,13.211c-0.009,0.306-0.157,0.591-0.401,0.776c-0.242,0.184-0.558,0.249-0.854,0.174     c-2.641-0.662-9.593-2.301-12.226-2.526c0.662,2.07,3.326,7.539,5.905,12.366c0.149,0.278,0.159,0.608,0.028,0.897     c-0.13,0.286-0.388,0.496-0.696,0.565c-5.898,1.337-11.452,3.531-11.653,4.602c-0.032,1.157,5.018,5.109,10.806,8.449     c0.295,0.17,0.485,0.478,0.504,0.818c0.02,0.34-0.134,0.668-0.408,0.871c-3.968,2.933-8.427,6.577-9.547,7.983     c1.672,0.91,7.744,2.706,13.029,4.005c0.267,0.065,0.497,0.237,0.634,0.476s0.172,0.523,0.095,0.788     c-1.449,4.979-2.914,10.515-3.276,12.611c2.659-0.46,9.821-3.083,14.132-4.795c0.281-0.111,0.599-0.091,0.866,0.057     c0.265,0.148,0.449,0.407,0.503,0.705c0.701,3.946,1.59,8.305,2.089,10.015c1.573-1.11,5.962-5.177,9.758-8.973     C384.416,198.925,384.673,198.818,384.94,198.818z"/>
		</g>
		<g>
			<circle style="fill:#F5D450;" cx="383.472" cy="172.254" r="25.69"/>
		</g>
		<g>
			<g>
				<path style="fill:#FFFFFF;" d="M385.439,154.554c0,0,3.728,0.758,4.271,2.582"/>
			</g>
			<g>
				<path style="fill:#241726;" d="M389.71,158.146c-0.436,0-0.838-0.284-0.969-0.723c-0.242-0.81-2.19-1.612-3.504-1.878      c-0.547-0.113-0.901-0.646-0.789-1.193c0.111-0.549,0.647-0.903,1.192-0.79c0.722,0.148,4.357,0.995,5.038,3.285      c0.16,0.535-0.145,1.098-0.68,1.258C389.903,158.132,389.805,158.146,389.71,158.146z"/>
			</g>
		</g>
		<g>
			<g>
				<path style="fill:#FFFFFF;" d="M388.468,162.456c0,0,3.728,0.758,4.271,2.582"/>
			</g>
			<g>
				<path style="fill:#241726;" d="M392.739,166.048c-0.436,0-0.838-0.284-0.97-0.723c-0.25-0.841-2.239-1.62-3.504-1.878      c-0.547-0.113-0.9-0.648-0.788-1.195s0.648-0.897,1.192-0.788c0.722,0.148,4.358,0.995,5.039,3.285      c0.159,0.535-0.146,1.098-0.681,1.258C392.931,166.034,392.834,166.048,392.739,166.048z"/>
			</g>
		</g>
		<g>
			<g>
				<path style="fill:#FFFFFF;" d="M396.941,162.374c0,0,3.539,1.396,3.756,3.286"/>
			</g>
			<g>
				<path style="fill:#241726;" d="M400.696,166.672c-0.507,0-0.944-0.379-1.003-0.897c-0.097-0.839-1.876-1.969-3.124-2.461      c-0.519-0.203-0.774-0.792-0.57-1.311c0.205-0.519,0.792-0.778,1.312-0.569c0.685,0.271,4.117,1.738,4.39,4.112      c0.064,0.553-0.334,1.055-0.889,1.12C400.773,166.67,400.735,166.672,400.696,166.672z"/>
			</g>
		</g>
		<g>
			<g>
				<path style="fill:#FFFFFF;" d="M378.77,160.392c0,0,3.728,0.758,4.271,2.582"/>
			</g>
			<g>
				<path style="fill:#241726;" d="M383.041,163.984c-0.436,0-0.838-0.284-0.969-0.723c-0.242-0.81-2.19-1.612-3.504-1.878      c-0.547-0.113-0.901-0.646-0.789-1.193c0.111-0.547,0.644-0.899,1.192-0.79c0.722,0.148,4.357,0.995,5.038,3.285      c0.16,0.535-0.145,1.098-0.68,1.258C383.234,163.971,383.136,163.984,383.041,163.984z"/>
			</g>
		</g>
		<g>
			<g>
				<path style="fill:#FFFFFF;" d="M374.377,154.079c0,0,3.803-0.1,4.743,1.554"/>
			</g>
			<g>
				<path style="fill:#241726;" d="M379.12,156.645c-0.353,0-0.694-0.184-0.881-0.512c-0.416-0.735-2.496-1.067-3.836-1.043      c-0.565-0.024-1.022-0.425-1.038-0.984c-0.015-0.559,0.427-1.023,0.985-1.039c0.733-0.028,4.469-0.012,5.649,2.066      c0.276,0.486,0.105,1.104-0.381,1.379C379.461,156.604,379.289,156.645,379.12,156.645z"/>
			</g>
		</g>
	</g>
	<g>
		<g>
			<path style="fill:#241726;" d="M27.345,175.831c-0.018,0-0.055,0-0.072-0.002C24.182,175.675,9.23,143.9,7.366,139.551     c-2.383-5.564-2.202-6.198-1.709-6.768l0,0l0,0c0.001-0.002,0.002-0.002,0.003-0.004c0.052-0.059,0.111-0.113,0.173-0.158     c0.079-0.061,0.165-0.113,0.257-0.154c0.225-0.099,0.489-0.142,0.852-0.142c4.883,0,42.62,10.892,45.014,14.463     c0.383,0.571,0.271,1.068,0.17,1.313c-1.243,3.032-9.693,5.514-11.373,5.98c-0.273,0.077-0.563,0.034-0.803-0.115     c-9.145-5.657-22.847-13.946-29.603-17.659c5.233,5.052,16.135,14.744,23.547,21.198c0.28,0.245,0.404,0.624,0.322,0.986     C30.278,175.829,28.07,175.831,27.345,175.831L27.345,175.831z M8.661,137.465c3.954,9.502,15.877,32.8,18.712,36.112     c1.18-1.633,3.268-8.617,4.735-14.945C18.72,146.965,12.005,140.805,8.661,137.465z M12.782,135.405     c7.896,4.345,20.916,12.32,27.853,16.608c3.487-1.011,8.235-2.872,9.409-4.337C47.063,145.17,24.165,138.097,12.782,135.405z"/>
		</g>
		<g>
			<path style="fill:#241726;" d="M37.519,169.911c-0.059,0-0.121-0.002-0.186-0.008c-1.91-0.186-4.748-3.449-6.018-5.011     c-0.352-0.433-0.454-1.199-0.02-1.551c0.436-0.352,0.918-0.544,1.271-0.114c1.797,2.21,3.901,4.229,4.765,4.602     c0.596-1.408,1.531-8.426,2.055-14.457c0.048-0.557,0.528-0.952,1.095-0.92c0.556,0.047,0.968,0.539,0.919,1.094     c-0.582,6.699-1.551,14.916-2.863,16.008C38.334,169.722,37.999,169.911,37.519,169.911z"/>
		</g>
	</g>
	<g>
		<g>
			<path style="fill:#241726;" d="M490.008,432.009c-0.727,0-2.933,0-6.871-17.341c-0.083-0.361,0.042-0.741,0.322-0.986     c7.462-6.5,18.465-16.28,23.655-21.301c-6.603,3.658-20.479,12.054-29.713,17.764c-0.237,0.15-0.529,0.194-0.802,0.115     c-1.681-0.466-10.13-2.951-11.374-5.98c-0.101-0.245-0.211-0.743,0.17-1.313c2.394-3.571,40.131-14.463,45.015-14.463     c0.363,0,0.626,0.043,0.851,0.142c0.002,0,0.002,0.002,0.002,0.002c0.063,0.028,0.122,0.061,0.178,0.099     c0.004,0.004,0.008,0.006,0.012,0.01c0.008,0.004,0.014,0.01,0.022,0.014c0.079,0.051,0.15,0.113,0.215,0.186     c0,0.002,0.002,0.004,0.004,0.006c0.492,0.571,0.672,1.201-1.695,6.731c-1.789,4.183-16.879,36.163-19.92,36.315     C490.061,432.009,490.024,432.009,490.008,432.009z M485.244,414.81c1.467,6.326,3.555,13.312,4.736,14.945     c2.832-3.312,14.756-26.612,18.71-36.114C505.346,396.981,498.631,403.143,485.244,414.81z M467.309,403.854     c1.183,1.456,6.006,3.348,9.409,4.337c6.928-4.284,19.924-12.245,27.767-16.596C493.048,394.319,470.285,401.354,467.309,403.854     z"/>
		</g>
		<g>
			<path style="fill:#241726;" d="M479.833,426.089c-0.48,0-0.816-0.19-1.019-0.359c-1.309-1.09-2.279-9.306-2.862-16.006     c-0.049-0.555,0.363-1.047,0.92-1.094c0.539-0.045,1.047,0.361,1.094,0.92c0.515,5.935,1.428,12.822,2.084,14.444     c0.883-0.405,2.961-2.404,4.738-4.588c0.354-0.433,0.617-0.287,1.048,0.062c0.433,0.352,0.334,1.431-0.019,1.864     c-1.27,1.562-3.89,4.562-5.798,4.747C479.953,426.085,479.892,426.089,479.833,426.089z"/>
		</g>
	</g>
	<g>
		<path style="fill:#241726;" d="M64.376,99.357c-0.743,0-1.445,0-3.385-7.728c-6.545-1.26-7.101-2.007-7.315-2.293    c-0.188-0.253-0.269-0.711-0.184-1.013c0.119-0.423,0.395-1.398,7.878-4.416c2.689-7.009,3.605-7.009,4.217-7.009    c0.319,0,0.756,0.227,0.947,0.484c0.483,0.648,0.918,2.327,1.579,5.013c0.206,0.835,0.454,1.845,0.597,2.293    c0.395,0.176,1.255,0.484,1.969,0.741c3.855,1.383,4.85,1.853,5.031,2.779c0.069,0.35-0.109,0.859-0.373,1.096    c-0.783,0.703-4.496,2.082-6.45,2.777c-3.17,7.211-3.852,7.244-4.456,7.276C64.415,99.357,64.394,99.357,64.376,99.357z     M56.261,88.464c1.313,0.377,3.677,0.912,5.739,1.298c0.39,0.071,0.701,0.365,0.796,0.751c0.527,2.139,1.217,4.576,1.716,5.982    c0.725-1.309,1.814-3.602,2.698-5.629c0.113-0.257,0.327-0.456,0.592-0.549c1.763-0.62,3.753-1.381,5.005-1.926    c-0.872-0.367-2.046-0.788-2.81-1.061c-2.199-0.79-2.614-0.96-2.899-1.343c-0.248-0.334-0.401-0.887-0.948-3.111    c-0.203-0.826-0.513-2.086-0.791-3.04c-0.651,1.248-1.553,3.344-2.256,5.2c-0.101,0.267-0.308,0.476-0.571,0.583    C60.242,86.533,57.643,87.698,56.261,88.464z"/>
	</g>
	<g>
		<path style="fill:#241726;" d="M12.972,394.793c-0.743,0-1.445,0-3.386-7.728c-6.545-1.262-7.101-2.007-7.315-2.293    c-0.188-0.251-0.269-0.713-0.183-1.015c0.119-0.423,0.396-1.4,7.878-4.416c2.689-7.009,3.605-7.009,4.216-7.009    c0.319,0,0.756,0.227,0.947,0.484c0.484,0.65,0.919,2.327,1.58,5.013c0.205,0.837,0.453,1.847,0.597,2.295    c0.395,0.176,1.256,0.484,1.971,0.741c3.854,1.383,4.848,1.853,5.028,2.779c0.069,0.35-0.109,0.857-0.374,1.094    c-0.781,0.703-4.495,2.082-6.449,2.779c-3.169,7.211-3.851,7.244-4.455,7.276C13.012,394.793,12.99,394.793,12.972,394.793z     M4.856,383.9c1.312,0.375,3.677,0.912,5.74,1.298c0.39,0.073,0.701,0.365,0.796,0.751c0.527,2.141,1.218,4.576,1.717,5.982    c0.725-1.309,1.813-3.603,2.697-5.629c0.113-0.257,0.327-0.456,0.592-0.549c1.762-0.62,3.752-1.381,5.004-1.928    c-0.871-0.365-2.043-0.786-2.806-1.059c-2.201-0.788-2.616-0.96-2.901-1.343c-0.249-0.334-0.402-0.889-0.949-3.113    c-0.202-0.826-0.513-2.084-0.79-3.04c-0.651,1.25-1.553,3.346-2.256,5.2c-0.101,0.267-0.308,0.476-0.571,0.583    C8.837,381.969,6.236,383.132,4.856,383.9z"/>
	</g>
	<g>
		<path style="fill:#241726;" d="M270.498,266.705c-0.743,0-1.445,0-3.386-7.73c-6.545-1.26-7.101-2.007-7.316-2.293    c-0.187-0.253-0.268-0.713-0.182-1.015c0.118-0.421,0.394-1.396,7.878-4.414c2.688-7.009,3.604-7.009,4.216-7.009    c0.319,0,0.756,0.227,0.947,0.484c0.483,0.648,0.918,2.327,1.579,5.013c0.206,0.835,0.454,1.845,0.597,2.293    c0.395,0.176,1.255,0.484,1.969,0.741c3.855,1.383,4.85,1.853,5.031,2.779c0.069,0.35-0.109,0.859-0.373,1.096    c-0.782,0.703-4.496,2.082-6.45,2.777c-3.169,7.209-3.849,7.246-4.452,7.278C270.539,266.705,270.517,266.705,270.498,266.705z     M262.382,255.812c1.313,0.375,3.677,0.911,5.74,1.296c0.39,0.071,0.701,0.365,0.796,0.751c0.527,2.141,1.217,4.576,1.716,5.982    c0.725-1.309,1.814-3.602,2.698-5.629c0.113-0.257,0.327-0.456,0.592-0.549c1.763-0.62,3.754-1.381,5.005-1.926    c-0.872-0.367-2.046-0.788-2.81-1.061c-2.199-0.79-2.614-0.96-2.899-1.343c-0.248-0.334-0.401-0.887-0.948-3.111    c-0.203-0.826-0.513-2.084-0.79-3.04c-0.651,1.248-1.553,3.346-2.255,5.2c-0.101,0.267-0.308,0.476-0.571,0.583    C266.364,253.879,263.764,255.044,262.382,255.812z"/>
	</g>
	<g>
		<path style="fill:#241726;" d="M290.722,463.556c-0.743,0-1.445,0-3.386-7.728c-6.545-1.262-7.101-2.007-7.315-2.293    c-0.188-0.251-0.269-0.713-0.183-1.015c0.12-0.423,0.396-1.4,7.878-4.416c2.688-7.009,3.604-7.009,4.216-7.009    c0.319,0,0.756,0.227,0.947,0.484c0.483,0.65,0.919,2.329,1.58,5.015c0.205,0.837,0.453,1.845,0.597,2.293    c0.395,0.176,1.256,0.484,1.971,0.741c3.854,1.383,4.848,1.853,5.028,2.779c0.069,0.35-0.109,0.857-0.374,1.094    c-0.781,0.703-4.495,2.082-6.449,2.779c-3.17,7.211-3.851,7.244-4.455,7.276C290.762,463.556,290.74,463.556,290.722,463.556z     M282.606,452.664c1.312,0.375,3.677,0.912,5.74,1.298c0.39,0.073,0.701,0.365,0.796,0.751c0.527,2.139,1.218,4.576,1.716,5.982    c0.725-1.309,1.814-3.602,2.698-5.629c0.113-0.257,0.327-0.456,0.592-0.549c1.762-0.62,3.752-1.381,5.004-1.928    c-0.872-0.365-2.043-0.786-2.806-1.059c-2.202-0.788-2.617-0.96-2.902-1.343c-0.249-0.334-0.402-0.889-0.948-3.111    c-0.202-0.826-0.513-2.086-0.791-3.042c-0.65,1.25-1.552,3.346-2.255,5.2c-0.101,0.267-0.308,0.476-0.571,0.583    C286.588,450.732,283.987,451.895,282.606,452.664z"/>
	</g>
	<g>
		<g>
			<path style="fill:#FFFFFF;" d="M46.39,260.99c0,0-1.944-14.758,12.261-9.983s9.577,18.287,4.161,13.664     s4.746-20.306,15.616-13.323c10.87,6.983,8.439,20.533,0.728,21.533c-7.711,1,4.668-15.777,14.381-5.416     s-11.494,29.251-20.167,22.306s-1.886-18.155,0.195-11.323c2.081,6.832-3.53,13.531-18.912,13.266     c-15.382-0.265-8.381-23.93-3.004-17.042c5.377,6.889-3.55,14.664-14.4,6.548C26.399,273.105,38.777,256.328,46.39,260.99z"/>
		</g>
		<g>
			<path style="fill:#241726;" d="M55.529,292.734l-0.893-0.008c-5.048-0.087-8.603-2.67-9.86-7.124     c-2.653-0.34-5.448-1.564-8.131-3.571c-4.262-3.188-5.705-8.025-3.96-13.272c1.787-5.374,6.55-9.583,10.842-9.583     c0.607,0,1.196,0.079,1.762,0.237c-0.015-2.062,0.311-5.54,2.388-7.908c2.335-2.66,6.175-3.182,11.297-1.456     c1.965,0.66,3.688,1.517,5.136,2.554c4.107-4.321,9.944-5.265,14.865-2.107c4.698,3.018,7.554,7.657,7.796,12.571     c2.754,0.085,5.278,1.331,7.506,3.707c3.032,3.233,3.591,7.578,1.574,12.232c-3.063,7.071-11.43,13.274-17.904,13.274     c-2.03,0-3.782-0.579-5.207-1.718c-0.673-0.539-1.282-1.122-1.819-1.74C67.519,291.385,62.23,292.734,55.529,292.734z      M46.92,285.679c0.882,2.469,2.964,4.942,7.751,5.025l0.856,0.008c7.708,0,11.924-1.801,14.193-3.518     c-2.158-3.508-1.99-7.337-0.783-9.713c0.7-1.379,1.719-2.171,2.797-2.171c0.722,0,2.045,0.369,2.8,2.844     c1.042,3.423,0.274,6.77-2.105,9.318c0.462,0.535,0.989,1.041,1.575,1.509c1.057,0.847,2.384,1.276,3.943,1.276     c5.665,0,13.315-5.747,16.048-12.056c1.185-2.737,1.94-6.701-1.194-10.045c-1.841-1.963-3.885-2.994-6.08-3.067     c-0.473,4.718-3.432,8.275-7.433,8.795c-2.623,0.344-3.503-1.037-3.553-2.309c-0.113-2.785,3.891-7.462,9.018-8.362     c-0.196-4.278-2.715-8.345-6.87-11.015c-4.082-2.623-8.761-1.853-12.209,1.697c3.347,3.198,3.968,7.128,3.031,9.753     c-0.657,1.841-2.065,2.984-3.676,2.984c-0.001,0-0.001,0-0.001,0c-0.966,0-1.958-0.413-2.872-1.193     c-2.994-2.556-2.037-7.541,0.657-11.276c-1.259-0.883-2.763-1.62-4.483-2.198c-4.284-1.44-7.349-1.159-9.133,0.873     c-2.458,2.803-1.811,7.969-1.804,8.021c0.051,0.387-0.124,0.768-0.451,0.98c-0.328,0.213-0.748,0.219-1.079,0.016     c-0.71-0.436-1.496-0.656-2.335-0.656c-3.417,0-7.419,3.678-8.923,8.198c-0.687,2.066-1.746,7.276,3.252,11.015     c2.177,1.627,4.403,2.676,6.516,3.079c-0.374-3.452,0.509-7.246,2.281-9.447c0.865-1.072,1.874-1.639,2.921-1.639     c0.725,0,1.812,0.284,2.874,1.645c1.917,2.457,2.352,5.226,1.194,7.6C52.502,283.983,49.962,285.491,46.92,285.679z      M71.734,277.333c-0.176,0-0.6,0.288-0.993,1.065c-0.876,1.722-1.022,4.641,0.494,7.377c1.67-1.977,2.156-4.432,1.364-7.031     C72.247,277.591,71.846,277.333,71.734,277.333z M49.573,274.427c-0.408,0-0.886,0.314-1.346,0.887     c-1.306,1.622-2.265,5.086-1.795,8.362c2.476-0.047,4.533-1.153,5.391-2.913c0.807-1.653,0.453-3.646-0.97-5.469     C50.544,274.899,50.07,274.427,49.573,274.427z M84.66,265.293c-4.098,0.928-6.966,4.687-6.905,6.2     c0.008,0.188,0.017,0.421,0.778,0.421c0.151,0,0.316-0.012,0.494-0.036C81.962,271.498,84.165,268.86,84.66,265.293z      M64.374,255.451c-2.306,3.227-2.746,6.879-0.905,8.451c1.387,1.181,2.729,0.751,3.33-0.934     C67.503,260.997,66.983,258.003,64.374,255.451z"/>
		</g>
	</g>
	<g>
		<g>
			<path style="fill:#FFFFFF;" d="M283.691,105.935c0,0-1.944-14.758,12.261-9.983s9.577,18.287,4.161,13.664     s4.746-20.306,15.616-13.323c10.87,6.983,8.439,20.533,0.728,21.533c-7.711,1,4.668-15.777,14.381-5.416     s-11.494,29.251-20.167,22.306c-8.673-6.945-1.886-18.155,0.195-11.323c2.081,6.832-3.53,13.531-18.912,13.266     s-8.381-23.93-3.004-17.042s-3.549,14.664-14.4,6.548S276.078,101.274,283.691,105.935z"/>
		</g>
		<g>
			<path style="fill:#241726;" d="M292.829,137.679l-0.892-0.008c-5.048-0.087-8.603-2.67-9.861-7.124     c-2.652-0.338-5.447-1.564-8.13-3.571c-4.262-3.188-5.706-8.025-3.96-13.272c1.787-5.374,6.55-9.583,10.843-9.583     c0.607,0,1.195,0.079,1.761,0.237c-0.015-2.062,0.31-5.538,2.387-7.906c2.335-2.662,6.175-3.18,11.298-1.458     c1.965,0.66,3.688,1.517,5.136,2.554c4.107-4.319,9.95-5.265,14.865-2.105c4.698,3.018,7.554,7.655,7.796,12.569     c2.754,0.085,5.278,1.331,7.505,3.707c3.031,3.233,3.591,7.576,1.575,12.23c-3.062,7.073-11.429,13.276-17.903,13.276h-0.003     c-2.029,0-3.78-0.579-5.205-1.718c-0.672-0.539-1.282-1.122-1.82-1.74C304.819,136.33,299.531,137.679,292.829,137.679z      M284.222,130.624c0.882,2.469,2.964,4.942,7.751,5.025l0.856,0.008c7.707,0,11.924-1.801,14.193-3.518     c-2.159-3.508-1.99-7.337-0.783-9.713c0.7-1.379,1.72-2.171,2.797-2.171c0.722,0,2.046,0.369,2.8,2.844     c1.042,3.423,0.274,6.77-2.106,9.32c0.462,0.533,0.99,1.039,1.576,1.507c1.057,0.847,2.383,1.276,3.941,1.276h0.002     c5.666,0,13.315-5.747,16.047-12.058c1.186-2.735,1.94-6.699-1.194-10.043c-1.841-1.963-3.885-2.994-6.079-3.067     c-0.473,4.718-3.432,8.275-7.433,8.795c-2.624,0.342-3.501-1.035-3.553-2.309c-0.113-2.785,3.892-7.462,9.018-8.36     c-0.196-4.278-2.715-8.347-6.87-11.015c-4.083-2.621-8.762-1.857-12.209,1.695c3.348,3.2,3.969,7.13,3.031,9.755     c-1.05,2.945-4.109,3.871-6.548,1.789c-2.994-2.556-2.037-7.541,0.657-11.276c-1.259-0.883-2.763-1.62-4.483-2.198     c-4.283-1.434-7.349-1.159-9.135,0.875c-2.457,2.803-1.809,7.967-1.802,8.019c0.051,0.387-0.124,0.768-0.451,0.98     c-0.329,0.213-0.746,0.217-1.079,0.016c-0.71-0.435-1.495-0.656-2.335-0.656c-3.417,0-7.42,3.678-8.924,8.2     c-0.687,2.066-1.746,7.274,3.252,11.013c2.176,1.627,4.403,2.678,6.515,3.079c-0.374-3.452,0.509-7.244,2.281-9.445     c0.864-1.072,1.874-1.639,2.921-1.639c0.726,0,1.813,0.284,2.875,1.645c1.917,2.455,2.352,5.224,1.194,7.598     C289.803,128.927,287.263,130.436,284.222,130.624z M309.035,122.277c-0.176,0-0.599,0.288-0.993,1.065     c-0.875,1.724-1.022,4.641,0.494,7.377c1.669-1.977,2.156-4.432,1.364-7.031C309.549,122.536,309.148,122.277,309.035,122.277z      M286.873,119.374c-0.408,0-0.886,0.314-1.346,0.887c-1.307,1.622-2.265,5.084-1.795,8.36c2.477-0.047,4.534-1.153,5.392-2.913     c0.806-1.653,0.452-3.644-0.97-5.467C287.845,119.846,287.372,119.374,286.873,119.374z M321.961,110.237     c-4.098,0.928-6.966,4.687-6.905,6.202c0.008,0.186,0.017,0.419,0.777,0.419c0.151,0,0.316-0.012,0.495-0.036     C319.263,116.443,321.465,113.804,321.961,110.237z M301.675,100.396c-2.306,3.227-2.746,6.879-0.905,8.451     c1.385,1.181,2.728,0.756,3.331-0.932C304.806,105.944,304.285,102.947,301.675,100.396z"/>
		</g>
	</g>
	<g>
		<path style="fill:#241726;" d="M282.348,179.492c-0.001,0-0.029,0-0.029,0c-1.915-0.008-3.712-0.76-5.06-2.121    c-1.347-1.359-2.085-3.162-2.077-5.076c0.017-3.934,3.232-7.136,7.167-7.136c1.943,0.008,3.741,0.76,5.089,2.121    c1.347,1.359,2.085,3.162,2.077,5.076C289.499,176.291,286.284,179.492,282.348,179.492z M282.372,167.182    c-2.846,0-5.155,2.297-5.167,5.121c-0.006,1.375,0.523,2.668,1.491,3.644c0.968,0.976,2.256,1.517,3.63,1.523h0.022l0,0    c2.824,0,5.133-2.297,5.145-5.121c0.006-1.375-0.523-2.668-1.491-3.644C285.034,167.729,283.746,167.188,282.372,167.182z"/>
	</g>
	<g>
		<path style="fill:#241726;" d="M287.742,397.917c-0.001,0-0.029,0-0.029,0c-1.916-0.008-3.712-0.76-5.06-2.121    c-1.348-1.359-2.085-3.162-2.077-5.076c0.016-3.934,3.231-7.136,7.166-7.136c1.944,0.008,3.741,0.76,5.089,2.121    c1.348,1.359,2.085,3.162,2.077,5.076C294.893,394.716,291.677,397.917,287.742,397.917z M287.765,385.607    c-2.847,0-5.154,2.297-5.166,5.121c-0.006,1.375,0.523,2.668,1.491,3.644c0.967,0.976,2.256,1.517,3.63,1.523h0.022l0,0    c2.825,0,5.132-2.297,5.144-5.121c0.006-1.375-0.523-2.668-1.491-3.644C290.428,386.154,289.138,385.613,287.765,385.607z"/>
	</g>
	<g>
		<path style="fill:#241726;" d="M152.938,62.777c-0.001,0-0.029,0-0.03,0c-1.914-0.008-3.711-0.76-5.059-2.121    c-1.347-1.359-2.085-3.162-2.077-5.076c0.017-3.934,3.232-7.136,7.167-7.136c1.943,0.008,3.741,0.76,5.089,2.121    c1.347,1.359,2.085,3.162,2.077,5.076C160.089,59.575,156.873,62.777,152.938,62.777z M152.962,50.466    c-2.846,0-5.155,2.297-5.167,5.121c-0.006,1.375,0.523,2.668,1.491,3.644s2.256,1.517,3.63,1.523l0.022-0.001v0.001    c2.824,0,5.133-2.297,5.145-5.121c0.006-1.375-0.523-2.668-1.491-3.644C155.624,51.013,154.335,50.472,152.962,50.466z"/>
	</g>
	<g>
		<path style="fill:#241726;" d="M26.198,345.92h-0.03c-1.915-0.008-3.711-0.76-5.059-2.121c-1.348-1.359-2.085-3.162-2.077-5.076    c0.016-3.934,3.231-7.136,7.166-7.136c3.981,0.016,7.182,3.245,7.166,7.197C33.349,342.719,30.133,345.92,26.198,345.92z     M26.221,333.61c-2.847,0-5.154,2.297-5.166,5.121c-0.006,1.375,0.523,2.668,1.491,3.644c0.967,0.976,2.256,1.517,3.63,1.523    l0.022,0v0c2.824,0,5.133-2.297,5.145-5.121C31.355,335.938,29.057,333.621,26.221,333.61z"/>
	</g>
	<g>
		<g>
			<path style="fill:#995780;" d="M137.407,299.741c0,0-47.865,18.202-51.235,37.752c-1.196,6.936,22.247,33.033,25.618,34.382     s45.842-26.292,41.797-31.011S143.474,301.763,137.407,299.741z"/>
		</g>
		<g>
			<path style="fill:#F5D450;" d="M113.881,117.209c0,0,13.955-46.516,51.168-34.887s53.494-25.584,53.494-25.584     s33.337,43.415-4.652,44.966c0,0,18.607-6.202,28.685-25.584c0,0,22.483,35.663-6.977,53.494s-82.954-24.033-104.662,3.876     s-26.359,54.269-26.359,54.269s-34.887-12.404-28.685-40.314C82.095,119.535,113.881,117.209,113.881,117.209z"/>
		</g>
		<g>
			<path style="fill:#E25C81;" d="M161.739,238.921l10.112,54.606l-14.894,5.54c0,0,12.809,26.966,43.146,22.921     c30.337-4.045,10.786-33.708,10.786-33.708l-20.836,1.202l-8.09-58.651L161.739,238.921z"/>
		</g>
		<g>
			<path style="fill:#E25C81;" d="M229.418,156.846c0,0-0.948-27.154,14.68-15.041c15.628,12.113,17.565,27.603,0.242,32.331     C244.34,174.136,238.565,161.227,229.418,156.846z"/>
		</g>
		<g>
			<path style="fill:#E25C81;" d="M103.959,156.037c0,0,46.299-86.256,106.573-25.946c68.239,68.281,10.093,154.801-20.47,131.797     C190.062,261.889,96.141,245.593,103.959,156.037z"/>
		</g>
		<g>
			<path style="fill:#E25C81;" d="M110.438,194.427c0,0-8.003-28.691-25.562-13.85c-16.627,14.053-4.508,43.831,15.302,41.816     S110.438,194.427,110.438,194.427z"/>
		</g>
		<g>
			<path style="fill:#241726;" d="M247.455,167.07c-0.255,0-0.51-0.095-0.706-0.288c-7.013-6.844-10.05-12.275-9.026-16.144     c0.804-3.04,3.757-3.843,3.882-3.875c0.54-0.15,1.092,0.18,1.234,0.723c0.14,0.537-0.181,1.088-0.717,1.232     c-0.088,0.024-1.962,0.565-2.451,2.461c-0.451,1.752,0.052,5.921,8.49,14.157c0.4,0.389,0.408,1.029,0.018,1.43     C247.981,166.967,247.718,167.07,247.455,167.07z"/>
		</g>
		<g>
			<path style="fill:#F5D450;" d="M116.258,150.828c0,0-7.997,54.253,25.726,77.037s22.338-42.815,45.078-34.681     c22.739,8.134,25.395,49.562,42.226,22.641c31.137-49.803-28.773-88.482-28.773-88.482l7.829,0.968     c0,0,91.141,70.153,18.441,132.432s-159.292-31.437-121.15-116.98L116.258,150.828z"/>
		</g>
		<g>
			<path style="fill:#241726;" d="M193.686,191.615c-2.912,0-8.308-0.525-18.429-2.273c-0.551-0.097-0.919-0.618-0.825-1.169     c0.096-0.549,0.619-0.914,1.168-0.826c7.598,1.311,16.026,2.394,19.051,2.297c-4.318-4.993-17.789-24.884-18.402-25.788     c-0.313-0.462-0.192-1.092,0.271-1.404c0.464-0.316,1.09-0.192,1.404,0.271c5.527,8.167,16.581,24.163,18.857,26.244     c0.807,0.739,0.591,1.438,0.459,1.704C197.07,191.021,196.778,191.615,193.686,191.615z"/>
		</g>
		<g>
			<path style="fill:#241726;" d="M188.982,221.148c-0.331,0-0.671-0.055-1.014-0.166c-4.6-1.489-10.223-13.738-10.849-15.131     c-0.229-0.51-0.002-1.108,0.508-1.337c0.509-0.235,1.106-0.004,1.337,0.508c2.224,4.942,6.803,13.122,9.627,14.035     c0.411,0.136,0.636,0.051,0.786-0.036c1.119-0.644,2.496-3.569-0.841-15.931c-0.17-0.626-0.268-1.033-0.278-1.14     c-0.055-0.557,0.351-1.053,0.907-1.106c0.556-0.061,1.051,0.35,1.106,0.905c0.017,0.077,0.1,0.375,0.218,0.814     c1.821,6.745,3.792,15.972-0.104,18.212C189.952,221.024,189.477,221.148,188.982,221.148z"/>
		</g>
		<g>
			<path style="fill:#241726;" d="M155.66,191.594c-2.29,0-6.401-2.242-14.809-12.332c-0.357-0.431-0.299-1.067,0.13-1.424     c0.429-0.359,1.068-0.298,1.424,0.128c10.094,12.115,13.117,11.833,13.806,11.465c2.325-1.266,0.71-11.838-2.119-20.906     c-0.167-0.533,0.13-1.1,0.664-1.268c0.531-0.168,1.1,0.13,1.266,0.664c1.066,3.415,6.13,20.578,1.156,23.286     C156.774,191.426,156.285,191.594,155.66,191.594z"/>
		</g>
		<g>
			<path style="fill:#241726;" d="M209.394,179.248c-5.219,0-14.183-13.652-16.945-18.07c-0.296-0.472-0.152-1.096,0.321-1.392     c0.473-0.298,1.099-0.154,1.393,0.322c5.606,8.963,13.111,18.044,15.453,17.08c0.496-0.203,2.769-2.121-1.197-19.972     c-0.12-0.545,0.223-1.084,0.768-1.207c0.545-0.117,1.086,0.223,1.207,0.768c4.02,18.097,2.105,21.415-0.012,22.283     C210.071,179.186,209.741,179.248,209.394,179.248z"/>
		</g>
		<g>
			<path style="fill:#241726;" d="M104.638,210.935c-0.012,0-0.023,0-0.035,0c-0.558-0.02-0.995-0.486-0.977-1.045     c0.425-12.931-2.151-16.719-4.386-17.619c-3.645-1.46-9.278,3.569-11.138,5.635c-0.372,0.419-1.011,0.45-1.428,0.077     c-0.415-0.373-0.449-1.013-0.076-1.428c0.312-0.348,7.698-8.459,13.395-6.16c4.182,1.683,6.032,8.08,5.654,19.563     C105.63,210.505,105.181,210.935,104.638,210.935z"/>
		</g>
		<g>
			<path style="fill:#241726;" d="M167.169,273.91c-5.327,0-9.096-3.352-10.977-7.023c-0.158-0.31-0.305-0.624-0.442-0.948     c-3.991,1.975-9.21,2.692-15.573,0.914c-12.685-3.543-14.187-10.604-13.954-14.499c0.014-0.231,0.035-0.46,0.061-0.689     c-0.892-0.33-1.825-0.754-2.802-1.294c-4.673-2.573-7.609-6.016-8.724-10.231c-1.891-7.144,2.147-13.849,2.32-14.131     c0.29-0.474,0.911-0.624,1.389-0.334c0.476,0.292,0.626,0.914,0.336,1.39c-0.039,0.061-3.761,6.275-2.086,12.573     c0.972,3.652,3.576,6.668,7.74,8.963c0.773,0.425,1.515,0.77,2.223,1.047c1.511-5.435,6.324-9.814,10.49-10.454     c2.079-0.324,3.709,0.379,4.467,1.916c1.131,2.299-0.005,5.931-2.644,8.451c-1.483,1.418-5.111,4.007-10.737,2.702     c-0.006,0.069-0.011,0.14-0.015,0.211c-0.341,5.672,4.091,10.087,12.479,12.431c5.919,1.653,10.734,0.95,14.357-0.907     c-1.336-4.886-0.327-10.535,4.099-13.029c2.671-1.501,4.099-0.675,4.712-0.047c1.514,1.546,1.179,4.87-0.832,8.272     c-1.266,2.139-3.122,4.177-5.536,5.74c0.142,0.354,0.3,0.697,0.471,1.031c2.292,4.475,7.453,8.011,15.064,4.487     c4.072-1.882,7.015-4.598,9.032-7.499c-2.506-1.825-4.251-4.292-5.041-6.889c-1.306-4.29,0.163-8.155,3.742-9.846     c2.183-1.027,3.69-0.514,4.572,0.101c1.769,1.232,2.607,3.936,2.301,7.418c-0.224,2.562-1.097,5.601-2.788,8.572     c2.588,1.365,5.872,2.015,9.657,1.446c6.285-0.946,9.01-7.075,10.142-11.195c-3.839-3.666-4.872-10.809-2.059-14.592     c1.085-1.458,2.141-1.319,2.671-1.112c2.496,0.988,2.707,7.432,2.24,11.524c-0.093,0.804-0.267,2.013-0.589,3.425     c3.055,2.117,7.096,1.106,11.483-2.911c4.187-3.832,6.496-8.033,7.582-11.791c-0.894-0.668-1.686-1.454-2.351-2.287     c-2.626-3.288-3.737-8.003-1.052-10.197c1.431-1.169,3.093-1.007,4.333,0.429c1.621,1.872,2.463,6.131,1.369,11.143     c2.392,1.309,5.369,1.448,8.465-0.972c3.596-2.803,4.765-8.382,4.353-13.659c-1.744,0.357-3.49,0.249-5.146-0.344     c-3.147-1.124-5.52-3.881-5.904-6.861c-0.301-2.331,0.686-4.462,2.708-5.846c2.262-1.55,4.805-0.849,6.799,1.878     c1.533,2.096,2.675,5.157,3.236,8.509c1.068-0.5,2.209-1.258,3.394-2.376c5.486-5.169,8-12.243,5.848-16.46     c-1.805-3.533-6.665-4.744-13.679-3.407c-0.554,0.107-1.077-0.255-1.183-0.804c-0.105-0.549,0.256-1.078,0.804-1.183     c10.767-2.052,14.557,1.922,15.86,4.475c2.586,5.066-0.047,12.996-6.263,18.852c-1.428,1.345-2.955,2.342-4.512,2.972     c0.554,6.024-0.793,12.514-5.07,15.85c-3.719,2.895-7.334,2.803-10.24,1.377c-1.247,3.99-3.733,8.303-7.986,12.196     c-6.268,5.736-10.845,4.888-13.385,3.456c-1.468,4.874-4.666,10.873-11.568,11.91c-4.314,0.648-8.072-0.124-11.035-1.724     c-2.205,3.202-5.428,6.194-9.891,8.26C171.447,273.424,169.194,273.91,167.169,273.91z M161.883,252.145     c-0.432,0-1.027,0.199-1.713,0.587c-3.381,1.906-4.211,6.241-3.289,10.185c1.917-1.333,3.401-3.004,4.435-4.752     c1.68-2.84,1.734-5.208,1.128-5.828C162.318,252.208,162.126,252.145,161.883,252.145z M183.141,247.657     c-0.442,0-0.94,0.128-1.49,0.389c-3.178,1.501-3.463,4.821-2.67,7.428c0.658,2.161,2.103,4.215,4.184,5.761     c1.503-2.668,2.281-5.384,2.482-7.675c0.234-2.66-0.319-4.801-1.443-5.583C183.896,247.764,183.542,247.657,183.141,247.657z      M128.611,250.257c4.767,1.136,7.764-0.989,8.986-2.159c2.195-2.096,2.865-4.795,2.225-6.095     c-0.355-0.721-1.147-0.997-2.343-0.81C134.019,241.724,129.878,245.591,128.611,250.257z M204.579,238.766     c-0.02,0.047-0.152,0.154-0.343,0.411c-2.013,2.704-1.446,7.811,0.984,10.973C206.323,244.067,205.348,239.38,204.579,238.766z      M224.565,225.873c-0.253,0-0.478,0.14-0.687,0.31c-1.486,1.217-0.867,4.59,1.353,7.371c0.386,0.484,0.814,0.942,1.279,1.359     c0.704-4.003,0.021-7.239-1.108-8.542C225.086,226.005,224.812,225.873,224.565,225.873z M235.228,209.709     c-0.625,0-1.079,0.31-1.311,0.468c-1.783,1.223-1.987,2.805-1.844,3.919c0.285,2.21,2.169,4.355,4.579,5.216     c0.954,0.342,2.426,0.64,4.233,0.243c-0.493-3.158-1.539-6.054-2.943-7.975C236.865,210.108,235.936,209.709,235.228,209.709z"/>
		</g>
		<g>
			<circle style="fill:#DE2C70;" cx="145.022" cy="207.167" r="13.277"/>
		</g>
		<g>
			<circle style="fill:#DE2C70;" cx="219.609" cy="192.39" r="13.277"/>
		</g>
		<g>
			<path style="fill:#F5D450;" d="M115.661,172.364c0,0-2.582-28.011,15.677-35.912s30.304,3.828,41.312,1.749     c11.008-2.078,15.145-32.502,57.192,19.57c10.296,12.751-3.3-55.581-51.733-52.688S90.235,141.239,115.661,172.364z"/>
		</g>
		<g>
			<path style="fill:#241726;" d="M77.494,130.514c0,0-4.453-34.121,22.507-24.604c0,0-10.377-23.906,23.113-16.721     S81.761,166.174,77.494,130.514z"/>
		</g>
		<g>
			<path style="fill:#241726;" d="M100.003,106.921c-0.355,0-0.698-0.186-0.884-0.517C95.128,99.274,91,95.505,87.184,95.505     c0,0-0.002,0-0.004,0c-4.516,0.004-7.442,5.153-7.472,5.204c-0.274,0.486-0.89,0.662-1.376,0.391     c-0.488-0.273-0.663-0.889-0.39-1.375c0.142-0.255,3.546-6.239,9.236-6.243c0.002,0,0.004,0,0.004,0     c4.659,0,9.269,4.015,13.701,11.933c0.274,0.488,0.1,1.104-0.388,1.377C100.339,106.88,100.17,106.921,100.003,106.921z"/>
		</g>
		<g>
			<path style="fill:#995780;" d="M168.651,292.981c0,0,20.261,16.872,23.362,16.872s6.742-22.247,6.742-22.247     s50.426-4.955,56.629,2.022c6.202,6.977,12.135,150.336,12.135,150.336H136.733c0,0-25.451-124.88-9.438-134.156     C130.715,303.827,168.651,292.981,168.651,292.981z"/>
		</g>
		<g>
			<g>
				<g>
					<path style="fill:#FFFFFF;" d="M155.447,365.313c0,0,27.175,36.025-12.749,62.403c-39.925,26.379-76.039-0.158-86.84-31.431       s1.478-55.267,6.181-59.932"/>
				</g>
				<g>
					<path style="fill:#241726;" d="M109.792,439.506c-5.497,0-10.938-0.897-16.263-2.704c-17.293-5.87-32.094-21.267-38.628-40.186       c-10.718-31.036,0.96-55.56,6.426-60.982c0.396-0.393,1.036-0.389,1.43,0.006c0.393,0.397,0.391,1.037-0.006,1.432       c-3.219,3.192-17.201,26.272-5.938,58.884c6.335,18.34,20.653,33.258,37.367,38.93c15.481,5.26,32.07,2.485,47.96-8.013       c11.936-7.886,18.94-17.416,20.816-28.322c2.991-17.392-8.203-32.48-8.316-32.63c-0.337-0.444-0.248-1.078,0.198-1.416       c0.446-0.334,1.078-0.249,1.416,0.199c0.485,0.642,11.834,15.943,8.695,34.188c-1.974,11.479-9.274,21.461-21.695,29.667       C132.258,435.826,120.917,439.506,109.792,439.506z"/>
				</g>
			</g>
			<g>
				<g>
					<path style="fill:#FFFFFF;" d="M53.437,381.433c0,0-13.684-31.326,18.251-56.753s22.925,19.637,59.56,24.677       s46.294,53.427,5.477,76.039S60.797,413.608,53.437,381.433z"/>
				</g>
				<g>
					<path style="fill:#241726;" d="M110.349,433.685c-28.791,0-52.048-26.452-57.898-52.027       c-0.081-0.14-13.563-32.156,18.607-57.77c6.808-5.42,12.065-7.944,16.543-7.944c6.601,0,10.44,5.479,14.886,11.825       c5.737,8.191,12.877,18.382,28.899,20.586c16.9,2.325,29.268,13.788,32.28,29.916c2.729,14.613-2.788,34.899-26.452,48.01       C128.345,431.195,119.306,433.685,110.349,433.685z M87.601,317.967c-3.942,0-8.941,2.455-15.283,7.505       c-16.165,12.869-20.188,27.268-20.716,37.08c-0.575,10.665,2.729,18.402,2.762,18.477c5.732,24.98,28.203,50.634,55.985,50.634       c8.61,0,17.319-2.406,25.886-7.152c22.723-12.589,28.042-31.948,25.443-45.869c-2.846-15.243-14.559-26.083-30.568-28.285       c-16.896-2.325-24.316-12.917-30.28-21.427C96.539,322.804,93.149,317.967,87.601,317.967z"/>
				</g>
			</g>
			<g>
				<circle style="fill:#E25C81;" cx="79.204" cy="346.265" r="12.271"/>
			</g>
			<g>
				<circle style="fill:#F5D450;" cx="77.83" cy="380.342" r="12.271"/>
			</g>
			<g>
				<circle style="fill:#009D97;" cx="96.332" cy="409.563" r="12.271"/>
			</g>
			<g>
				<circle style="fill:#995780;" cx="131.314" cy="408.629" r="12.271"/>
			</g>
			<g>
				<g>
					<path style="fill:#FFFFFF;" d="M109.416,352.121c0,0,5.319,0.566,12.292,5.044c8.969,5.76,9.954,13.93-4.327,13.189       C103.1,369.614,101.684,353.948,109.416,352.121z"/>
				</g>
				<g>
					<path style="fill:#241726;" d="M119.128,371.412c-0.571,0-1.171-0.016-1.799-0.049c-8.671-0.448-13.044-6.089-13.531-11.479       c-0.396-4.377,1.769-7.892,5.386-8.746c0.11-0.026,0.226-0.034,0.339-0.022c0.227,0.024,5.64,0.642,12.731,5.196       c5.187,3.332,7.823,7.402,6.878,10.622C128.532,368.977,126.31,371.412,119.128,371.412z M109.474,353.151       c-2.866,0.786-3.908,3.834-3.663,6.551c0.409,4.521,4.16,9.255,11.622,9.642c5.605,0.282,9.128-0.829,9.758-2.98       c0.662-2.252-1.762-5.607-6.03-8.349C115.176,354.172,110.411,353.293,109.474,353.151z"/>
				</g>
			</g>
		</g>
		<g>
			<path style="fill:#E25C81;" d="M253.913,292.158c0,0,45.654,31.871,48.661,33.875c3.007,2.004,8.968-66.448,11.974-66.949     c3.007-0.501,15.839-4.475,16.34-0.466c0.501,4.009-7.297,95.419-12.809,98.426S252.41,331.245,247.9,324.73     S253.913,292.158,253.913,292.158z"/>
		</g>
		<g>
			<g>
				<g>
					<path style="fill:#FFFFFF;" d="M312.796,209.002c0,0,12.765,52.453,15.092,52.998c2.327,0.546,10.006-3.134,10.06-4.202       c0.054-1.068-14.494-52.112-17.419-53.544C317.604,202.823,312.796,209.002,312.796,209.002z"/>
				</g>
				<g>
					<path style="fill:#241726;" d="M328.437,263.067L328.437,263.067c-0.286,0-0.549-0.028-0.78-0.083       c-0.725-0.17-2.931-0.685-15.843-53.743c-0.073-0.3-0.005-0.616,0.185-0.859c0.426-0.549,4.258-5.352,7.564-5.352       c0.505,0,0.979,0.107,1.411,0.318c3.721,1.823,18.007,54.057,17.985,54.503C338.852,259.962,330.891,263.067,328.437,263.067z        M328.331,261.042c0.033,0,0.067,0.002,0.106,0.002c2.251,0,7.474-2.508,8.473-3.468c-0.797-4.136-14.166-50.02-16.912-52.467       c-0.068-0.022-0.239-0.057-0.435-0.057c-1.632,0-4.208,2.433-5.666,4.195C318.497,228.114,326.282,258.046,328.331,261.042z"/>
				</g>
			</g>
			<g>
				<path style="fill:#241726;" d="M316.186,226.83c0,0,10.403-6.917,12.397-4.015s12.023,33.223,11.546,34.2      c-0.478,0.976-11.336,4.03-13.248,3.733C324.969,260.452,316.482,229.446,316.186,226.83z"/>
			</g>
			<g>
				<g>
					<path style="fill:#FFFFFF;" d="M315.383,183.229c0,0-16.076,13.103-9.13,23.944s17.273,5.582,19.967-1.132       S316.049,195.465,315.383,183.229z"/>
				</g>
				<g>
					<path style="fill:#241726;" d="M315.862,214.409c0,0-0.001,0-0.002,0c-2.816,0-6.917-1.161-10.459-6.691       c-7.347-11.469,8.658-24.714,9.343-25.273c0.295-0.241,0.699-0.298,1.048-0.14c0.348,0.154,0.581,0.49,0.6,0.869       c0.328,6.016,3.76,9.869,6.788,13.268c2.829,3.176,5.501,6.174,3.977,9.976C325.564,210.39,321.173,214.409,315.862,214.409z        M314.594,185.295c-3.65,3.456-12.67,13.247-7.49,21.333c2.414,3.766,5.442,5.759,8.756,5.759c0.001,0,0.001,0,0.001,0       c4.414,0,8.079-3.381,9.42-6.723c1.008-2.514-0.629-4.531-3.61-7.876C318.902,194.681,315.526,190.89,314.594,185.295z"/>
				</g>
			</g>
			<g>
				<path style="fill:#009D97;" d="M324.241,197.645c0,0-7.832,3.405-8.984,0.778s-0.88,8.947-3.997,7.077      s-8.752-2.934-7.634-10.221c1.596-10.409,10.893-16.16,12.067-13.96C316.867,183.518,321.35,193.878,324.241,197.645z"/>
			</g>
		</g>
		<g>
			<g>
				<path style="fill:#E25C81;" d="M312.912,241.55c0,0,28.31-11.433,28.186-6.038c-0.183,7.912-13.426,7.882-10.855,12.627      c2.572,4.745,9.897,14.746-4.342,18.547C311.661,270.488,303.552,248.105,312.912,241.55z"/>
			</g>
			<g>
				<path style="fill:#E25C81;" d="M337.441,237.847c0,0-15.221,8.184-13.87,11.262c1.351,3.078,2.31,15.109,6.479,14.014      C334.22,262.028,359.477,261.174,337.441,237.847z"/>
			</g>
			<g>
				<path style="fill:#241726;" d="M329.786,266.1c-0.301,0-0.598-0.134-0.798-0.389c-0.344-0.44-0.265-1.076,0.174-1.42      c0.037-0.028,3.692-2.943,3.979-7.444c0.205-3.227-1.339-6.533-4.59-9.826c-0.226-0.229-0.33-0.553-0.279-0.871      c0.051-0.32,0.251-0.594,0.538-0.741c2.341-1.197,8.739-4.91,10.206-7.687c0.26-0.494,0.874-0.683,1.366-0.423      c0.494,0.261,0.683,0.873,0.422,1.367c-1.633,3.093-7.381,6.522-9.894,7.912c3.05,3.421,4.478,6.921,4.247,10.422      c-0.357,5.414-4.573,8.747-4.753,8.886C330.22,266.031,330.002,266.1,329.786,266.1z"/>
			</g>
			<g>
				<path style="fill:#241726;" d="M333.205,252.513c-0.227,0-0.456-0.077-0.646-0.233c-0.43-0.357-0.488-0.995-0.13-1.424      c5.747-6.913,10.151-3.707,10.335-3.565c0.445,0.338,0.533,0.972,0.196,1.416c-0.334,0.44-0.964,0.529-1.406,0.203      c-0.154-0.109-3.137-2.094-7.57,3.237C333.784,252.388,333.495,252.513,333.205,252.513z"/>
			</g>
			<g>
				<path style="fill:#241726;" d="M334.498,258.101c-0.198,0-0.4-0.059-0.576-0.18c-0.459-0.32-0.573-0.95-0.254-1.408      c3.103-4.468,9.531-4.156,9.809-4.138c0.556,0.032,0.982,0.508,0.951,1.065c-0.032,0.557-0.455,1.019-1.066,0.954      c-0.045,0.006-5.582-0.257-8.034,3.273C335.133,257.949,334.818,258.101,334.498,258.101z"/>
			</g>
		</g>
		<g>
			<path style="fill:#995780;" d="M292.462,309.179c0,0-11.461,45.168-16.18,43.82c-4.719-1.348-45.842-24.269-43.82-36.404     s10.786-28.988,15.505-29.663C252.687,286.258,290.439,304.46,292.462,309.179z"/>
		</g>
		<g>
			<path style="fill:#009D97;" d="M162.35,292.999c0,0,30.337,34.382,35.73,37.752c5.393,3.371,6.742-40.449,12.809-44.494     c6.067-4.045,26.292-3.371,27.64-1.348c1.348,2.022,10.786,32.359-24.944,57.977c0,0,34.382,55.28,24.944,61.348     c-9.438,6.067-25.618,7.416-25.618,7.416l-10-57c0,0,1.236,52.281-4.157,56.326c-5.393,4.045-18.876,1.348-24.944-2.022     c-6.067-3.371,16.194-62.18,10.786-64.044c-19.55-6.742-47.191-31.685-48.539-41.123     C134.71,294.348,156.957,290.977,162.35,292.999z"/>
		</g>
		<g>
			<path style="fill:#241726;" d="M209.695,335.924c-2.168,0.156-3.684-0.058-3.824-0.077c-0.356-0.054-0.658-0.291-0.791-0.626     c-0.133-0.335-0.079-0.715,0.144-0.998c13.904-17.734,11.145-32.916,11.117-33.066c-0.107-0.549,0.249-1.079,0.797-1.188     c0.556-0.086,1.078,0.249,1.187,0.796c0.126,0.635,2.848,15.349-10.349,33.183c2.457,0.017,6.946-0.428,10.638-3.335     c3.511-2.763,5.569-7.145,6.117-13.026c0.051-0.556,0.54-0.968,1.101-0.913c0.556,0.051,0.965,0.544,0.913,1.101     c-0.603,6.465-2.924,11.323-6.898,14.44C216.43,334.895,212.513,335.721,209.695,335.924z"/>
		</g>
		<g>
			<path style="fill:#241726;" d="M189.307,338.441c-0.016,0-0.032,0-0.046,0c-5.517-0.008-23.951-5.996-27.204-16.837     c-0.16-0.535,0.143-1.098,0.678-1.258c0.533-0.166,1.099,0.142,1.259,0.677c1.759,5.864,8.876,9.919,12.961,11.815     c5.271,2.447,9.875,3.446,11.948,3.575c-0.046-0.034-0.096-0.067-0.147-0.101c-8.188-5.457-18.74-23.169-19.186-23.92     c-0.284-0.48-0.126-1.1,0.355-1.384c0.483-0.286,1.102-0.124,1.385,0.354c0.107,0.18,10.763,18.066,18.567,23.268     c0.639,0.427,2.134,1.422,1.758,2.66C191.294,338.411,189.849,338.441,189.307,338.441z"/>
		</g>
		<g>
			<path style="fill:#241726;" d="M187.295,378.953c-0.051,0-0.103-0.004-0.155-0.012c-0.552-0.085-0.93-0.6-0.845-1.153     c0.421-2.737,4.278-26.851,9.901-30.364c0.473-0.298,1.097-0.154,1.393,0.322c0.296,0.474,0.152,1.096-0.321,1.392     c-3.668,2.291-7.377,18.573-8.975,28.958C188.216,378.595,187.786,378.953,187.295,378.953z"/>
		</g>
		<g>
			<path style="fill:#241726;" d="M214.934,373.561c-0.127,0-0.257-0.024-0.381-0.075c-0.517-0.211-0.765-0.802-0.555-1.317     c0.235-0.581,5.635-14.315-5.803-24.481c-0.418-0.371-0.455-1.011-0.084-1.428c0.369-0.419,1.009-0.452,1.427-0.085     c12.526,11.133,6.395,26.602,6.332,26.758C215.71,373.324,215.333,373.561,214.934,373.561z"/>
		</g>
		<g>
			<path style="fill:#E25C81;" d="M56.509,405.582c0,0,12.135-12.809,16.18-10.112s-3.371,11.461-3.371,11.461     s12.135-6.067,12.809-2.697c0.674,3.371-6.742,10.112-6.742,10.112s8.09-6.067,10.112-2.697s-2.697,9.438-2.697,9.438     s8.764-6.067,9.438-1.348c0.674,4.719-5.393,18.202-20.225,16.854C57.183,435.245,48.835,413.602,56.509,405.582z"/>
		</g>
		<g>
			<path style="fill:#241726;" d="M64.461,414.828c-0.041,0-0.084-0.002-0.126-0.008c-0.554-0.069-0.947-0.575-0.878-1.128     c0.425-3.397,5.644-7.713,6.238-8.193c0.433-0.354,1.069-0.284,1.422,0.15c0.351,0.433,0.284,1.07-0.149,1.422     c-1.999,1.62-5.261,4.916-5.504,6.869C65.399,414.453,64.964,414.828,64.461,414.828z"/>
		</g>
		<g>
			<path style="fill:#241726;" d="M68.96,421.413c-0.509-0.187-0.782-0.745-0.612-1.263c1.885-5.752,8.419-7.903,8.695-7.991     c0.531-0.174,1.099,0.123,1.271,0.653c0.17,0.531-0.122,1.102-0.653,1.273c-0.058,0.019-5.831,1.935-7.392,6.694     c-0.174,0.532-0.745,0.821-1.276,0.647C68.982,421.422,68.971,421.417,68.96,421.413z"/>
		</g>
		<g>
			<path style="fill:#241726;" d="M76.509,427.982c-0.113-0.022-0.224-0.064-0.329-0.126c-0.478-0.288-0.632-0.908-0.345-1.387     c0.1-0.168,2.511-4.126,7.132-6.901c0.478-0.291,1.1-0.134,1.388,0.344c0.287,0.48,0.132,1.1-0.346,1.389     c-4.172,2.505-6.418,6.173-6.44,6.211C77.342,427.885,76.913,428.061,76.509,427.982z"/>
		</g>
		<g>
			<path style="fill:#241726;" d="M149.205,121.934c-0.029,0-0.058-0.002-0.087-0.004c-0.557-0.047-0.97-0.537-0.921-1.094     c0.016-0.186,1.807-18.565,20.642-20.134c2.873-0.239,5.837-0.352,8.977-0.47c16.691-0.63,33.952-1.28,37.641-20.955     c0.103-0.547,0.624-0.905,1.18-0.808c0.549,0.103,0.911,0.63,0.807,1.179c-3.987,21.263-22.882,21.976-39.552,22.604     c-3.116,0.118-6.057,0.229-8.885,0.464c-17.153,1.43-18.781,18.123-18.796,18.293     C150.167,121.537,149.725,121.934,149.205,121.934z"/>
		</g>
		<g>
			<path style="fill:#241726;" d="M166.394,130.023c-0.147,0-0.296-0.032-0.437-0.101c-0.504-0.241-0.715-0.845-0.473-1.349     c8.743-18.159,17.483-16.069,28.558-13.42c6.194,1.483,13.21,3.154,21.737,1.738c17.07-2.846,16.385-19.476,16.347-20.183     c-0.03-0.557,0.397-1.035,0.954-1.065c0.545-0.008,1.034,0.395,1.065,0.954c0.011,0.19,0.843,19.142-18.034,22.288     c-8.928,1.493-16.161-0.239-22.539-1.766c-10.98-2.625-18.231-4.359-26.265,12.33     C167.132,129.812,166.77,130.023,166.394,130.023z"/>
		</g>
		<g>
			<path style="fill:#241726;" d="M97.631,162.383c-0.544,0-0.993-0.433-1.01-0.98c-0.005-0.176-0.295-17.57,19.997-22.253     c0.546-0.126,1.086,0.213,1.213,0.758c0.125,0.543-0.214,1.086-0.758,1.213c-18.639,4.302-18.447,19.573-18.429,20.221     c0.015,0.559-0.425,1.023-0.983,1.039C97.65,162.381,97.641,162.383,97.631,162.383z"/>
		</g>
	</g>
	<g>
		<g>
			<path style="fill:#E25C81;" d="M421.9,234.297l12.345,193.399l-21.103,0.512l-8.969-77.877     c-3.124-2.022-31.811,71.886-33.238,76.853c-0.511,1.778-21.145,0.499-24.269-0.512l49.201-113.499c0,0,3.124-75.336,3.124-78.37     S421.9,234.297,421.9,234.297z"/>
		</g>
		<g>
			<g>
				<path style="fill:#FFFFFF;" d="M349.229,249.91l119.378,6.148c0,0-6.661,115.279-9.735,122.452      c-0.728,1.698-121.939-6.148-121.939-6.148S346.667,256.059,349.229,249.91z"/>
			</g>
			<g>
				<path style="fill:#241726;" d="M455.437,379.763c-19.616,0-117.583-6.328-118.57-6.391c-0.271-0.018-0.523-0.144-0.701-0.35      c-0.177-0.205-0.264-0.474-0.241-0.745c0.398-4.754,9.777-116.532,12.371-122.755c0.164-0.393,0.553-0.662,0.986-0.62      l119.377,6.148c0.269,0.014,0.521,0.134,0.701,0.334c0.18,0.201,0.273,0.464,0.257,0.735      c-0.273,4.712-6.705,115.536-9.814,122.791C459.488,379.642,458.875,379.763,455.437,379.763z M338.026,371.42      c10.579,0.679,98.944,6.32,117.411,6.32c1.511,0,2.277-0.04,2.658-0.073c2.412-8.262,7.167-81.421,9.443-120.65l-117.578-6.056      C347.773,259.798,341.31,332.257,338.026,371.42z"/>
			</g>
		</g>
		<g>
			<circle style="fill:#F5D450;" cx="412.593" cy="286.886" r="15.598"/>
		</g>
		<g>
			<g>
				<path style="fill:#009D97;" d="M348.038,360.762c0,0,98.963,8.828,102.987,2.305c4.024-6.522-11.121-65.396-16.867-62.637      c-5.746,2.759-33.595,32.404-33.595,32.404s-18.519-47.447-25.206-42.567S339.369,359.916,348.038,360.762z"/>
			</g>
			<g>
				<path style="fill:#241726;" d="M439.724,329.752c-0.275,0-0.554-0.059-0.828-0.176c-2.336-1.001-4.155-6.699-5.158-10.651      c-4.372,9.873-5.998,9.881-6.563,9.883c-0.304,0.024-0.987-0.091-1.367-0.978c-0.832-1.945-1.468-5.738-1.813-8.171      c-2.179,2.415-5.352,5.599-6.981,5.664c-0.438,0.041-0.832-0.13-1.119-0.419c-1.369-1.369-0.008-6.605,1.377-10.756      c0.177-0.527,0.745-0.818,1.279-0.64c0.529,0.178,0.816,0.751,0.639,1.28c-1.17,3.516-1.951,7.047-1.88,8.358      c1.29-0.725,4.286-3.737,6.632-6.498c0.262-0.306,0.685-0.427,1.066-0.312c0.386,0.118,0.666,0.454,0.71,0.855      c0.007,0.067,0.699,6.208,1.713,9.214c1.281-1.525,3.787-6.607,5.664-11.112c0.17-0.409,0.591-0.65,1.029-0.618      c0.442,0.043,0.805,0.367,0.895,0.802c1.119,5.402,3.224,11.617,4.674,12.237c0.796-0.334,1.672-4.552,1.832-8.828      c0.02-0.559,0.479-0.984,1.048-0.974c0.558,0.022,0.993,0.49,0.973,1.049c-0.077,2.096-0.507,9.046-2.766,10.476      C440.451,329.646,440.092,329.752,439.724,329.752z"/>
			</g>
			<g>
				<path style="fill:#241726;" d="M374.285,320.426c-0.288,0-0.581-0.04-0.876-0.12c-3.154-0.859-3.731-4.843-3.643-8.106      c-2.119,3.055-4.69,5.986-6.6,5.572c-1.028-0.215-1.646-1.151-1.838-2.779c-0.065-0.555,0.332-1.057,0.886-1.122      c0.551-0.083,1.058,0.332,1.123,0.885c0.103,0.875,0.304,1.063,0.306,1.065c0,0,0.001,0,0.002,0c0.91,0,4.149-3.96,6.727-8.345      c0.252-0.427,0.769-0.606,1.232-0.431c0.461,0.176,0.728,0.658,0.631,1.142c-0.475,2.388-1.183,9.38,1.704,10.168      c0.376,0.105,0.69,0.047,1.011-0.182c1.775-1.264,2.77-6.709,2.98-9.846c0.031-0.456,0.362-0.833,0.81-0.924      c0.448-0.095,0.9,0.13,1.104,0.539c1.954,3.907,5.032,8.179,6.243,7.957c0.893-0.126,1.77-4.479,1.563-9.897      c-0.022-0.559,0.414-1.029,0.972-1.051c0.505-0.006,1.027,0.413,1.049,0.972c0.132,3.441,0.076,11.497-3.297,11.979      c-2.357,0.304-5.058-3.322-6.801-6.245c-0.461,2.848-1.442,6.733-3.448,8.163C375.561,320.221,374.936,320.426,374.285,320.426z      "/>
			</g>
		</g>
		<g>
			<g>
				<path style="fill:#241726;" d="M425.963,408.565c-0.164,0-0.33-0.039-0.483-0.122c-0.491-0.269-0.672-0.883-0.404-1.373      c0.531-0.976-0.098-3.419-0.714-4.843c-0.222-0.512,0.013-1.108,0.524-1.329c0.514-0.223,1.108,0.012,1.33,0.523      c0.193,0.442,1.848,4.393,0.635,6.616C426.668,408.375,426.322,408.565,425.963,408.565z"/>
			</g>
			<g>
				<path style="fill:#241726;" d="M420.57,402.329c-0.164,0-0.33-0.039-0.483-0.122c-0.491-0.269-0.672-0.883-0.404-1.373      c0.531-0.976-0.098-3.421-0.714-4.845c-0.222-0.514,0.013-1.108,0.525-1.331c0.513-0.213,1.107,0.014,1.329,0.525      c0.193,0.442,1.848,4.395,0.635,6.618C421.275,402.14,420.929,402.329,420.57,402.329z"/>
			</g>
			<g>
				<path style="fill:#241726;" d="M425.121,395.757c-0.164,0-0.33-0.039-0.483-0.122c-0.491-0.269-0.672-0.883-0.404-1.373      c0.531-0.976-0.098-3.421-0.714-4.845c-0.222-0.514,0.013-1.108,0.525-1.331c0.512-0.215,1.107,0.014,1.329,0.525      c0.193,0.442,1.848,4.395,0.635,6.618C425.826,395.567,425.479,395.757,425.121,395.757z"/>
			</g>
			<g>
				<path style="fill:#241726;" d="M420.065,415.475c-0.164,0-0.33-0.039-0.483-0.122c-0.491-0.269-0.672-0.883-0.404-1.373      c0.531-0.976-0.098-3.421-0.714-4.845c-0.222-0.514,0.013-1.108,0.525-1.331c0.51-0.215,1.106,0.014,1.329,0.525      c0.193,0.442,1.848,4.395,0.635,6.618C420.77,415.286,420.423,415.475,420.065,415.475z"/>
			</g>
			<g>
				<path style="fill:#241726;" d="M426.132,420.699c-0.164,0-0.33-0.04-0.483-0.122c-0.491-0.269-0.672-0.883-0.404-1.373      c0.531-0.976-0.098-3.419-0.714-4.843c-0.222-0.512,0.013-1.108,0.524-1.329c0.515-0.223,1.107,0.012,1.33,0.523      c0.193,0.442,1.848,4.393,0.635,6.616C426.837,420.51,426.49,420.699,426.132,420.699z"/>
			</g>
		</g>
		<g>
			<g>
				<path style="fill:#241726;" d="M372.59,405.948c-0.296,0-0.59-0.13-0.79-0.379c-0.35-0.435-0.279-1.07,0.156-1.42      c0.865-0.695,1.225-3.194,1.203-4.746c-0.008-0.557,0.438-1.017,0.996-1.025c0.529,0.039,1.017,0.438,1.026,0.995      c0.007,0.484,0.016,4.768-1.959,6.352C373.036,405.875,372.812,405.948,372.59,405.948z"/>
			</g>
			<g>
				<path style="fill:#241726;" d="M370.01,398.119c-0.296,0-0.59-0.128-0.789-0.377c-0.35-0.436-0.28-1.072,0.155-1.422      c0.953-0.766,1.223-3.529,1.204-4.746c-0.009-0.559,0.437-1.019,0.995-1.027c0.006,0,0.011,0,0.016,0      c0.552,0,1.002,0.442,1.011,0.995c0.007,0.484,0.016,4.768-1.96,6.354C370.455,398.046,370.232,398.119,370.01,398.119z"/>
			</g>
			<g>
				<path style="fill:#241726;" d="M376.739,393.801c-0.296,0-0.59-0.128-0.789-0.377c-0.35-0.436-0.28-1.072,0.154-1.422      c0.866-0.695,1.226-3.194,1.205-4.746c-0.008-0.557,0.438-1.017,0.996-1.025c0.502-0.067,1.016,0.436,1.026,0.995      c0.007,0.484,0.015,4.766-1.959,6.352C377.184,393.728,376.961,393.801,376.739,393.801z"/>
			</g>
			<g>
				<path style="fill:#241726;" d="M364.487,410.058c-0.296,0-0.59-0.13-0.79-0.379c-0.35-0.435-0.279-1.07,0.156-1.42      c0.953-0.764,1.223-3.527,1.204-4.744c-0.009-0.559,0.437-1.019,0.995-1.027c0.612-0.061,1.017,0.436,1.027,0.995      c0.007,0.484,0.016,4.768-1.96,6.352C364.932,409.985,364.708,410.058,364.487,410.058z"/>
			</g>
			<g>
				<path style="fill:#241726;" d="M368.078,417.215c-0.296,0-0.59-0.128-0.789-0.377c-0.35-0.436-0.28-1.072,0.154-1.422      c0.866-0.695,1.226-3.196,1.204-4.748c-0.008-0.557,0.438-1.017,0.996-1.025c0.586-0.087,1.017,0.436,1.026,0.995      c0.007,0.484,0.016,4.766-1.958,6.354C368.524,417.142,368.3,417.215,368.078,417.215z"/>
			</g>
		</g>
	</g>
	<g>
		<path style="fill:#241726;" d="M412.231,463.236c-0.543,0-0.992-0.433-1.009-0.98c-0.018-0.557,0.42-1.025,0.979-1.043    c1.308-0.041,2.629-0.148,3.924-0.316c0.552-0.075,1.061,0.318,1.133,0.873c0.072,0.553-0.318,1.061-0.872,1.134    c-1.361,0.176-2.747,0.288-4.122,0.332C412.252,463.236,412.241,463.236,412.231,463.236z M408.191,463.181    c-0.019,0-0.037,0-0.055-0.002c-1.422-0.075-2.785-0.192-4.091-0.344c-0.554-0.065-0.952-0.569-0.887-1.122    c0.065-0.555,0.554-0.934,1.122-0.889c1.265,0.148,2.586,0.261,3.965,0.336c0.558,0.03,0.986,0.506,0.956,1.063    C409.17,462.762,408.724,463.181,408.191,463.181z M355.52,462.478c-0.015,0-0.029,0-0.043,0c-1.362-0.057-2.748-0.18-4.119-0.365    c-0.554-0.073-0.942-0.583-0.868-1.136s0.576-0.962,1.137-0.867c1.31,0.176,2.635,0.292,3.935,0.346    c0.558,0.024,0.991,0.496,0.968,1.055C356.506,462.053,356.058,462.478,355.52,462.478z M359.56,462.456    c-0.534,0-0.981-0.419-1.009-0.96c-0.029-0.557,0.4-1.033,0.958-1.061c1.304-0.067,2.624-0.201,3.924-0.395    c0.566-0.079,1.068,0.298,1.15,0.849c0.082,0.553-0.298,1.067-0.85,1.15c-1.365,0.205-2.751,0.344-4.12,0.415    C359.595,462.456,359.578,462.456,359.56,462.456z M400.167,462.225c-0.063,0-0.128-0.006-0.194-0.018    c-1.393-0.271-2.745-0.593-4.018-0.96c-0.537-0.154-0.847-0.715-0.692-1.252c0.154-0.535,0.716-0.849,1.251-0.691    c1.217,0.35,2.509,0.66,3.844,0.916c0.548,0.107,0.907,0.638,0.8,1.185C401.066,461.889,400.642,462.225,400.167,462.225z     M420.227,462.195c-0.459,0-0.875-0.316-0.984-0.782c-0.127-0.543,0.211-1.088,0.755-1.215c1.269-0.294,2.544-0.658,3.789-1.078    c0.532-0.174,1.104,0.107,1.282,0.634c0.179,0.529-0.106,1.104-0.634,1.282c-1.307,0.442-2.646,0.824-3.979,1.134    C420.38,462.187,420.303,462.195,420.227,462.195z M347.512,461.411c-0.072,0-0.146-0.008-0.219-0.024    c-1.313-0.29-2.655-0.648-3.988-1.061c-0.533-0.166-0.832-0.731-0.667-1.264s0.731-0.837,1.265-0.668    c1.28,0.397,2.567,0.739,3.826,1.017c0.546,0.12,0.89,0.662,0.769,1.207C348.394,461.091,347.976,461.411,347.512,461.411z     M367.546,461.255c-0.452,0-0.864-0.306-0.98-0.764c-0.136-0.541,0.192-1.09,0.733-1.227c1.272-0.322,2.541-0.709,3.771-1.153    c0.526-0.186,1.104,0.085,1.294,0.61c0.19,0.525-0.083,1.104-0.608,1.294c-1.293,0.464-2.626,0.873-3.961,1.209    C367.712,461.245,367.628,461.255,367.546,461.255z M392.413,459.973c-0.127,0-0.256-0.024-0.38-0.075    c-1.328-0.539-2.593-1.148-3.759-1.811c-0.486-0.277-0.656-0.893-0.379-1.379c0.274-0.486,0.89-0.66,1.379-0.379    c1.089,0.618,2.273,1.189,3.52,1.697c0.517,0.209,0.767,0.8,0.557,1.317C393.19,459.736,392.812,459.973,392.413,459.973z     M427.872,459.61c-0.386,0-0.754-0.221-0.923-0.596c-0.229-0.51-0.002-1.108,0.508-1.337c1.189-0.535,2.373-1.136,3.52-1.785    c0.485-0.28,1.102-0.107,1.379,0.379c0.276,0.486,0.105,1.104-0.381,1.379c-1.201,0.681-2.441,1.311-3.687,1.872    C428.151,459.582,428.01,459.61,427.872,459.61z M339.79,459.027c-0.123,0-0.249-0.022-0.37-0.071    c-1.254-0.494-2.523-1.047-3.773-1.643c-0.504-0.241-0.717-0.845-0.476-1.349c0.241-0.504,0.844-0.717,1.348-0.476    c1.208,0.577,2.432,1.11,3.642,1.588c0.519,0.203,0.775,0.792,0.571,1.311C340.574,458.784,340.193,459.027,339.79,459.027z     M375.145,458.514c-0.377,0-0.74-0.211-0.913-0.575c-0.241-0.504-0.028-1.108,0.476-1.349c1.192-0.569,2.358-1.201,3.467-1.876    c0.475-0.292,1.098-0.142,1.389,0.338c0.291,0.476,0.14,1.098-0.337,1.388c-1.167,0.711-2.394,1.377-3.647,1.975    C375.439,458.482,375.291,458.514,375.145,458.514z M385.426,455.958c-0.223,0-0.447-0.073-0.635-0.225    c-0.702-0.567-1.355-1.163-1.952-1.78c-0.061,0.047-0.123,0.095-0.185,0.142c-0.442,0.342-1.078,0.257-1.418-0.186    c-0.341-0.442-0.257-1.078,0.186-1.418c0.051-0.04,0.103-0.079,0.154-0.119c-0.098-0.371,0.021-0.782,0.338-1.043    c0.317-0.255,0.745-0.288,1.084-0.124c0.483-0.419,0.948-0.847,1.391-1.28c0.4-0.387,1.043-0.383,1.43,0.016    c0.391,0.399,0.383,1.041-0.016,1.43c-0.447,0.436-0.914,0.867-1.398,1.29c0.51,0.517,1.064,1.019,1.658,1.499    c0.434,0.35,0.502,0.988,0.15,1.422C386.014,455.83,385.721,455.958,385.426,455.958z M434.905,455.638    c-0.323,0-0.639-0.154-0.835-0.44c-0.315-0.46-0.198-1.09,0.263-1.404c1.062-0.727,2.131-1.525,3.18-2.37    c0.435-0.355,1.073-0.28,1.422,0.15c0.351,0.436,0.282,1.072-0.152,1.422c-1.089,0.881-2.202,1.708-3.306,2.465    C435.301,455.581,435.102,455.638,434.905,455.638z M332.491,455.551c-0.167,0-0.336-0.041-0.492-0.128    c-1.164-0.65-2.338-1.351-3.522-2.103c-0.471-0.3-0.61-0.924-0.31-1.396c0.3-0.468,0.926-0.606,1.396-0.31    c1.149,0.733,2.29,1.414,3.421,2.044c0.488,0.273,0.663,0.887,0.39,1.375C333.19,455.364,332.845,455.551,332.491,455.551z     M325.67,451.214c-0.207,0-0.417-0.063-0.597-0.196l-0.164-0.119c-1.092-0.786-2.122-1.566-3.096-2.348    c-0.436-0.348-0.507-0.986-0.157-1.42c0.35-0.433,0.988-0.508,1.421-0.156c0.948,0.758,1.95,1.519,3.009,2.279l0.184,0.132    c0.45,0.33,0.547,0.964,0.217,1.414C326.288,451.072,325.981,451.214,325.67,451.214z M441.199,450.562    c-0.27,0-0.539-0.109-0.739-0.32c-0.381-0.409-0.359-1.049,0.048-1.43c0.953-0.891,1.899-1.839,2.811-2.814    c0.38-0.409,1.021-0.431,1.429-0.049c0.408,0.381,0.43,1.021,0.048,1.428c-0.943,1.011-1.922,1.991-2.908,2.913    C441.694,450.471,441.446,450.562,441.199,450.562z M380.436,449.697c-0.391,0-0.763-0.227-0.929-0.608    c-0.626-1.446-0.958-2.891-0.988-4.296c-0.012-0.559,0.432-1.021,0.991-1.033c0.551,0.01,1.02,0.433,1.032,0.99    c0.024,1.144,0.3,2.331,0.822,3.533c0.221,0.513-0.014,1.108-0.526,1.331C380.707,449.671,380.569,449.697,380.436,449.697z     M387.778,448.635c-0.212,0-0.427-0.067-0.609-0.205c-0.445-0.336-0.533-0.972-0.196-1.416c0.849-1.124,1.511-2.218,1.965-3.255    c0.223-0.512,0.815-0.743,1.332-0.519c0.512,0.225,0.745,0.822,0.52,1.333c-0.518,1.181-1.26,2.413-2.206,3.662    C388.387,448.496,388.085,448.635,387.778,448.635z M319.372,446.148c-0.244,0-0.489-0.087-0.682-0.265    c-1.04-0.952-2.026-1.928-2.932-2.899c-0.381-0.409-0.358-1.049,0.05-1.43c0.407-0.377,1.047-0.356,1.429,0.051    c0.869,0.932,1.817,1.87,2.817,2.785c0.413,0.377,0.44,1.017,0.063,1.43C319.918,446.037,319.645,446.148,319.372,446.148z     M446.73,444.657c-0.226,0-0.454-0.075-0.643-0.231c-0.431-0.355-0.492-0.993-0.136-1.424c0.874-1.059,1.692-2.113,2.456-3.15    c0.33-0.448,0.966-0.547,1.413-0.213c0.45,0.332,0.546,0.964,0.214,1.414c-0.784,1.065-1.625,2.151-2.523,3.237    C447.31,444.532,447.021,444.657,446.73,444.657z M380.501,441.913c-0.18,0-0.361-0.047-0.525-0.148    c-0.477-0.29-0.628-0.912-0.337-1.39c0.818-1.341,2.052-2.356,3.57-2.933c0.516-0.201,1.105,0.059,1.305,0.585    c0.198,0.521-0.063,1.106-0.586,1.304c-1.093,0.417-1.98,1.144-2.563,2.099C381.175,441.742,380.842,441.913,380.501,441.913z     M390.521,441.254c-0.462,0-0.88-0.318-0.986-0.788c-0.074-0.328-0.298-1.325-2.092-1.515c-0.555-0.059-0.958-0.557-0.899-1.112    c0.057-0.555,0.547-0.962,1.112-0.899c2.086,0.219,3.453,1.313,3.851,3.079c0.122,0.545-0.219,1.086-0.764,1.209    C390.669,441.246,390.595,441.254,390.521,441.254z M313.882,440.225c-0.304,0-0.605-0.136-0.804-0.397    c-0.872-1.14-1.657-2.297-2.336-3.443c-0.284-0.48-0.126-1.1,0.355-1.385c0.485-0.286,1.101-0.124,1.385,0.354    c0.638,1.076,1.38,2.169,2.202,3.245c0.34,0.444,0.255,1.078-0.189,1.418C314.311,440.158,314.096,440.225,313.882,440.225z     M451.528,438.133c-0.19,0-0.382-0.053-0.553-0.166c-0.467-0.306-0.597-0.932-0.292-1.4c0.779-1.189,1.481-2.331,2.105-3.399    c0.28-0.484,0.901-0.65,1.383-0.363c0.482,0.28,0.646,0.901,0.363,1.383c-0.64,1.096-1.361,2.269-2.159,3.49    C452.181,437.973,451.858,438.133,451.528,438.133z M309.792,433.277c-0.396,0-0.772-0.235-0.933-0.622    c-0.547-1.315-0.985-2.66-1.302-3.997c-0.128-0.543,0.208-1.088,0.751-1.217c0.55-0.138,1.088,0.209,1.218,0.751    c0.29,1.232,0.694,2.473,1.199,3.685c0.215,0.516-0.03,1.108-0.545,1.323C310.053,433.251,309.921,433.277,309.792,433.277z     M455.611,431.136c-0.156,0-0.314-0.036-0.462-0.113c-0.498-0.255-0.693-0.865-0.436-1.361c0.841-1.635,1.41-2.895,1.716-3.604    c0.221-0.516,0.82-0.753,1.329-0.527c0.514,0.221,0.749,0.818,0.527,1.329c-0.344,0.794-0.93,2.086-1.776,3.727    C456.331,430.936,455.976,431.136,455.611,431.136z M307.959,425.44c-0.532,0-0.978-0.417-1.008-0.954    c-0.026-0.454-0.039-0.901-0.039-1.347c0.001-0.948,0.058-1.91,0.171-2.864c0.065-0.553,0.561-0.964,1.123-0.885    c0.555,0.065,0.951,0.567,0.886,1.122c-0.104,0.875-0.156,1.76-0.157,2.629c0,0.405,0.011,0.816,0.035,1.23    c0.032,0.557-0.394,1.035-0.952,1.067C307.997,425.44,307.978,425.44,307.959,425.44z M308.886,417.447    c-0.092,0-0.185-0.012-0.277-0.039c-0.537-0.152-0.848-0.713-0.695-1.25c0.371-1.3,0.852-2.621,1.428-3.926    c0.226-0.51,0.823-0.743,1.334-0.516c0.511,0.225,0.742,0.822,0.516,1.333c-0.539,1.221-0.988,2.453-1.333,3.666    C309.731,417.156,309.326,417.447,308.886,417.447z M312.117,410.056c-0.174,0-0.351-0.045-0.512-0.14    c-0.482-0.282-0.642-0.903-0.359-1.385c0.676-1.149,1.443-2.313,2.277-3.46c0.327-0.452,0.96-0.551,1.413-0.223    c0.451,0.328,0.551,0.962,0.222,1.412c-0.796,1.094-1.526,2.204-2.169,3.298C312.802,409.878,312.464,410.056,312.117,410.056z     M316.854,403.507c-0.234,0-0.469-0.081-0.66-0.245c-0.424-0.363-0.471-1.003-0.107-1.426c0.875-1.017,1.814-2.034,2.793-3.026    c0.394-0.397,1.034-0.401,1.43-0.008c0.398,0.391,0.402,1.033,0.01,1.43c-0.947,0.958-1.855,1.941-2.7,2.923    C317.421,403.388,317.138,403.507,316.854,403.507z M322.535,397.741c-0.277,0-0.553-0.113-0.752-0.336    c-0.373-0.417-0.339-1.055,0.077-1.428c1.083-0.972,2.14-1.859,3.134-2.654c0.436-0.352,1.073-0.278,1.421,0.156    c0.35,0.435,0.279,1.072-0.157,1.42c-0.967,0.776-1.994,1.639-3.048,2.583C323.017,397.657,322.776,397.741,322.535,397.741z     M328.857,392.672c-0.315,0-0.626-0.146-0.824-0.423c-0.325-0.454-0.22-1.086,0.234-1.41c2.056-1.471,3.396-2.271,3.452-2.305    c0.479-0.286,1.099-0.128,1.385,0.352c0.285,0.48,0.127,1.1-0.352,1.386c-0.014,0.008-1.329,0.794-3.309,2.21    C329.266,392.61,329.06,392.672,328.857,392.672z"/>
	</g>
	<g>
		<path style="fill:#241726;" d="M36.604,314.88c-0.542,0-0.991-0.431-1.009-0.978c-0.019-0.559,0.419-1.025,0.977-1.045    c1.283-0.041,2.616-0.134,3.963-0.275c0.563-0.071,1.053,0.346,1.111,0.901c0.057,0.555-0.347,1.053-0.902,1.11    c-1.393,0.146-2.775,0.241-4.105,0.286C36.627,314.88,36.615,314.88,36.604,314.88z M32.563,314.858c-0.016,0-0.033,0-0.048-0.002    c-1.401-0.065-2.786-0.192-4.115-0.377c-0.553-0.077-0.939-0.589-0.862-1.142c0.077-0.553,0.586-0.936,1.141-0.861    c1.269,0.176,2.591,0.298,3.931,0.361c0.558,0.026,0.989,0.498,0.963,1.057C33.546,314.436,33.099,314.858,32.563,314.858z     M44.645,314.055c-0.486,0-0.914-0.35-0.996-0.845c-0.092-0.551,0.28-1.072,0.831-1.163c1.274-0.213,2.58-0.466,3.917-0.762    c0.549-0.124,1.084,0.221,1.207,0.768c0.12,0.545-0.223,1.086-0.768,1.207c-1.374,0.304-2.714,0.565-4.023,0.782    C44.756,314.051,44.7,314.055,44.645,314.055z M24.573,313.729c-0.081,0-0.162-0.01-0.244-0.03    c-1.369-0.338-2.705-0.753-3.972-1.228c-0.523-0.196-0.787-0.778-0.592-1.302c0.198-0.523,0.781-0.796,1.303-0.591    c1.194,0.448,2.454,0.837,3.747,1.157c0.542,0.134,0.873,0.681,0.739,1.225C25.44,313.421,25.027,313.729,24.573,313.729z     M52.541,312.313c-0.445,0-0.853-0.296-0.975-0.747c-0.146-0.539,0.172-1.094,0.711-1.24c1.253-0.34,2.532-0.717,3.837-1.132    c0.538-0.168,1.102,0.126,1.27,0.658c0.169,0.533-0.125,1.1-0.658,1.27c-1.332,0.423-2.639,0.808-3.919,1.155    C52.718,312.301,52.629,312.313,52.541,312.313z M17.027,310.881c-0.16,0-0.322-0.038-0.473-0.119    c-1.237-0.656-2.431-1.398-3.549-2.204c-0.453-0.326-0.555-0.958-0.228-1.412c0.324-0.45,0.956-0.559,1.411-0.227    c1.043,0.753,2.158,1.444,3.314,2.058c0.493,0.261,0.681,0.873,0.42,1.367C17.74,310.685,17.389,310.881,17.027,310.881z     M60.252,309.871c-0.415,0-0.803-0.257-0.952-0.67c-0.189-0.525,0.084-1.104,0.609-1.294l0.969-0.352    c0.524-0.199,1.104,0.073,1.299,0.598c0.193,0.523-0.075,1.106-0.599,1.298l-0.983,0.359    C60.481,309.852,60.365,309.871,60.252,309.871z M10.493,306.162c-0.253,0-0.506-0.095-0.701-0.282    c-1.003-0.966-1.946-2.009-2.803-3.101c-0.345-0.438-0.268-1.074,0.172-1.42c0.437-0.344,1.075-0.269,1.42,0.172    c0.798,1.017,1.678,1.991,2.613,2.891c0.403,0.387,0.415,1.027,0.028,1.43C11.024,306.058,10.758,306.162,10.493,306.162z     M5.515,299.824c-0.348,0-0.686-0.18-0.874-0.502c-0.695-1.187-1.322-2.441-1.866-3.725c-0.217-0.515,0.023-1.108,0.537-1.325    c0.51-0.219,1.107,0.022,1.325,0.535c0.51,1.205,1.099,2.382,1.75,3.496c0.281,0.482,0.119,1.1-0.362,1.383    C5.864,299.779,5.688,299.824,5.515,299.824z M2.362,292.402c-0.439,0-0.843-0.288-0.971-0.733    c-0.377-1.313-0.683-2.678-0.91-4.057c-0.09-0.551,0.283-1.072,0.834-1.161c0.555-0.097,1.071,0.282,1.162,0.833    c0.212,1.302,0.501,2.589,0.856,3.828c0.154,0.537-0.156,1.096-0.693,1.25C2.549,292.39,2.455,292.402,2.362,292.402z     M1.054,284.441c-0.536,0-0.983-0.421-1.009-0.962C0.015,282.869,0,282.262,0,281.658c0.002-0.784,0.027-1.56,0.075-2.331    c0.035-0.557,0.528-1.003,1.073-0.946c0.557,0.036,0.981,0.516,0.945,1.072c-0.046,0.731-0.069,1.467-0.071,2.206    c0,0.571,0.015,1.146,0.042,1.72c0.027,0.559-0.404,1.033-0.962,1.059C1.087,284.441,1.07,284.441,1.054,284.441z M1.571,276.386    c-0.06,0-0.12-0.006-0.182-0.016c-0.55-0.101-0.914-0.628-0.814-1.177c0.252-1.383,0.588-2.743,0.997-4.047    c0.168-0.531,0.734-0.828,1.269-0.66c0.532,0.168,0.829,0.735,0.661,1.268c-0.386,1.223-0.701,2.502-0.938,3.802    C2.476,276.045,2.05,276.386,1.571,276.386z M4.014,268.702c-0.146,0-0.294-0.032-0.435-0.099    c-0.504-0.241-0.717-0.845-0.476-1.349c0.621-1.298,1.331-2.52,2.111-3.636c0.319-0.46,0.947-0.571,1.408-0.251    c0.457,0.32,0.569,0.952,0.249,1.408c-0.716,1.025-1.371,2.153-1.943,3.352C4.754,268.49,4.392,268.702,4.014,268.702z     M8.662,262.135c-0.266,0-0.53-0.105-0.729-0.31c-0.387-0.403-0.374-1.043,0.029-1.43c0.451-0.435,0.92-0.841,1.406-1.225    c0.595-0.466,1.18-0.938,1.755-1.414c0.429-0.357,1.066-0.296,1.424,0.132c0.356,0.431,0.296,1.069-0.134,1.424    c-0.589,0.488-1.187,0.972-1.795,1.45c-0.434,0.34-0.851,0.703-1.255,1.09C9.166,262.042,8.913,262.135,8.662,262.135z     M14.817,256.889c-0.274,0-0.547-0.111-0.747-0.33c-0.377-0.413-0.348-1.051,0.065-1.428c0.997-0.911,1.959-1.833,2.884-2.767    c0.395-0.391,1.035-0.397,1.43-0.006c0.397,0.395,0.399,1.035,0.006,1.432c-0.948,0.954-1.934,1.9-2.957,2.834    C15.305,256.802,15.061,256.889,14.817,256.889z M20.513,251.145c-0.241,0-0.482-0.085-0.675-0.259    c-0.416-0.373-0.45-1.011-0.077-1.428c0.907-1.011,1.768-2.026,2.58-3.042c0.349-0.435,0.986-0.504,1.421-0.158    c0.436,0.35,0.507,0.988,0.157,1.422c-0.836,1.043-1.721,2.09-2.653,3.128C21.066,251.033,20.789,251.145,20.513,251.145z     M25.562,244.827c-0.201,0-0.405-0.059-0.582-0.186c-0.456-0.32-0.566-0.952-0.244-1.408c0.785-1.114,1.517-2.232,2.176-3.324    c0.289-0.478,0.909-0.632,1.388-0.342c0.478,0.288,0.632,0.909,0.344,1.388c-0.683,1.132-1.442,2.289-2.255,3.443    C26.193,244.677,25.88,244.827,25.562,244.827z M29.721,237.895c-0.149,0-0.301-0.034-0.444-0.103    c-0.502-0.247-0.708-0.853-0.462-1.355c0.601-1.225,1.113-2.431,1.522-3.585c-0.138-0.01-0.276-0.02-0.41-0.032    c-0.557-0.051-0.966-0.543-0.915-1.1c0.051-0.555,0.553-0.954,1.099-0.914c1.114,0.105,2.386,0.036,3.748-0.217    c0.563-0.089,1.077,0.263,1.178,0.812c0.102,0.549-0.262,1.076-0.811,1.179c-0.675,0.122-1.334,0.209-1.969,0.255    c0.071,0.209,0.075,0.44-0.003,0.664c-0.436,1.236-0.983,2.526-1.623,3.832C30.453,237.687,30.095,237.895,29.721,237.895z     M26.202,231.602c-0.183,0-0.368-0.049-0.535-0.154c-1.308-0.818-2.354-1.997-3.025-3.405c-0.24-0.506-0.025-1.108,0.479-1.347    c0.506-0.241,1.107-0.026,1.348,0.478c0.512,1.076,1.275,1.938,2.27,2.56c0.473,0.296,0.617,0.92,0.321,1.392    C26.869,231.434,26.539,231.602,26.202,231.602z M37.933,231.511c-0.414,0-0.802-0.255-0.951-0.666    c-0.19-0.525,0.081-1.106,0.606-1.296c1.148-0.417,2.364-0.938,3.613-1.552c0.503-0.243,1.107-0.038,1.353,0.462    c0.246,0.502,0.04,1.108-0.462,1.355c-1.314,0.644-2.597,1.195-3.815,1.635C38.164,231.492,38.047,231.511,37.933,231.511z     M32.338,230.271c-0.056,0-0.113-0.004-0.17-0.014c-0.55-0.093-0.921-0.616-0.829-1.165c0.145-0.859,0.219-1.679,0.219-2.435    c-0.001-0.448-0.026-0.883-0.077-1.304c-0.068-0.553,0.326-1.059,0.88-1.126c0.572-0.079,1.059,0.326,1.127,0.881    c0.061,0.496,0.092,1.013,0.093,1.546c0,0.871-0.083,1.805-0.247,2.773C33.251,229.921,32.823,230.271,32.338,230.271z     M45.203,227.99c-0.348,0-0.686-0.18-0.875-0.502c-0.28-0.482-0.118-1.102,0.364-1.383c0.385-0.225,0.775-0.462,1.171-0.707    c0.76-0.472,1.479-0.946,2.161-1.426c0.454-0.326,1.086-0.215,1.409,0.243c0.322,0.456,0.212,1.086-0.244,1.408    c-0.713,0.504-1.465,1.001-2.259,1.493c-0.412,0.257-0.818,0.502-1.219,0.735C45.552,227.946,45.376,227.99,45.203,227.99z     M22.815,224.688c-0.022,0-0.043,0-0.066-0.002c-0.557-0.036-0.98-0.517-0.944-1.074c0.112-1.732,0.704-3.269,1.669-4.329    c0.376-0.413,1.016-0.44,1.428-0.067c0.414,0.377,0.443,1.017,0.067,1.43c-0.647,0.711-1.065,1.839-1.146,3.097    C23.788,224.277,23.343,224.688,22.815,224.688z M51.779,223.305c-0.278,0-0.556-0.115-0.755-0.34    c-0.371-0.417-0.334-1.057,0.084-1.428c1.006-0.895,1.926-1.829,2.731-2.779c0.361-0.427,0.999-0.48,1.426-0.117    c0.426,0.361,0.478,0.999,0.117,1.424c-0.867,1.023-1.853,2.026-2.931,2.984C52.258,223.22,52.018,223.305,51.779,223.305z     M31.09,222.495c-0.312,0-0.62-0.144-0.819-0.417c-0.492-0.675-1.134-1.242-1.906-1.685c-0.272-0.156-0.532-0.277-0.785-0.363    c-0.527-0.184-0.808-0.758-0.625-1.286c0.183-0.529,0.756-0.81,1.287-0.626c0.363,0.126,0.741,0.298,1.13,0.521    c1.02,0.585,1.873,1.341,2.535,2.25c0.329,0.45,0.229,1.082-0.222,1.412C31.505,222.432,31.297,222.495,31.09,222.495z     M56.956,217.135c-0.174,0-0.351-0.045-0.512-0.14c-0.481-0.282-0.642-0.903-0.359-1.383c0.659-1.122,1.2-2.293,1.611-3.482    c0.182-0.527,0.754-0.808,1.286-0.626c0.528,0.182,0.808,0.758,0.626,1.286c-0.454,1.317-1.053,2.611-1.779,3.845    C57.64,216.957,57.302,217.135,56.956,217.135z M59.565,209.543c-0.041,0-0.084-0.002-0.126-0.008    c-0.554-0.069-0.947-0.575-0.878-1.13c0.099-0.792,0.149-1.606,0.149-2.417c0-0.478-0.017-0.952-0.05-1.424    c-0.039-0.557,0.382-1.041,0.939-1.08c0.537-0.055,1.04,0.381,1.079,0.938c0.036,0.519,0.054,1.041,0.054,1.566    c0,0.897-0.055,1.793-0.165,2.67C60.503,209.17,60.067,209.543,59.565,209.543z M59.046,201.51c-0.457,0-0.871-0.312-0.983-0.776    c-0.291-1.219-0.686-2.471-1.173-3.723c-0.202-0.521,0.055-1.108,0.576-1.309c0.52-0.201,1.107,0.055,1.308,0.575    c0.52,1.339,0.943,2.68,1.256,3.988c0.129,0.543-0.205,1.088-0.749,1.219C59.203,201.502,59.124,201.51,59.046,201.51z     M56.151,193.977c-0.364,0-0.716-0.198-0.897-0.541c-0.593-1.13-1.266-2.275-2.004-3.405c-0.305-0.468-0.173-1.094,0.294-1.4    c0.47-0.304,1.094-0.172,1.4,0.294c0.771,1.183,1.478,2.384,2.1,3.571c0.26,0.496,0.068,1.106-0.426,1.365    C56.47,193.94,56.309,193.977,56.151,193.977z M51.742,187.195c-0.3,0-0.597-0.132-0.797-0.387c-1.46-1.864-2.557-2.97-2.568-2.98    c-0.395-0.395-0.395-1.035,0-1.43c0.395-0.395,1.035-0.395,1.43,0c0.048,0.047,1.189,1.193,2.73,3.162    c0.345,0.44,0.267,1.076-0.173,1.42C52.18,187.124,51.96,187.195,51.742,187.195z"/>
	</g>
</g>















</svg>
